<?xml version="1.0" encoding="utf-8"?>
<!-- Generator: Adobe Illustrator 16.0.0, SVG Export Plug-In . SVG Version: 6.00 Build 0)  -->
<!DOCTYPE svg PUBLIC "-//W3C//DTD SVG 1.1//EN" "http://www.w3.org/Graphics/SVG/1.1/DTD/svg11.dtd">
<svg version="1.1" id="Ebene_1" xmlns="http://www.w3.org/2000/svg" xmlns:xlink="http://www.w3.org/1999/xlink" x="0px" y="0px"
	 width="2000px" height="2000px" viewBox="0 0 2000 2000" enable-background="new 0 0 2000 2000" xml:space="preserve">
<path fill="#E5E5E4" d="M1897.611,1660H102.39C46.075,1660,0,1612.487,0,1554.405V445.595C0,387.512,46.075,340,102.39,340h1795.222
	C1953.924,340,2000,387.512,2000,445.595v1108.811C2000,1612.487,1953.924,1660,1897.611,1660"/>
<path fill="#FFFFFF" d="M1856.728,1609.774H151.269c-53.498,0-97.269-43.918-97.269-97.601v-1024.8
	c0-53.679,43.771-97.599,97.269-97.599h1705.458c53.5,0,97.272,43.92,97.272,97.599v1024.8
	C1954,1565.856,1910.228,1609.774,1856.728,1609.774"/>
<polygon fill="#024669" points="293.915,646.911 293.922,646.908 293.912,646.908 "/>
<path fill="#024669" d="M327.596,607.259v-69.958c0-1.729-1.394-2.813-3.586-2.813H203.039c-2.191,0-3.967,1.084-3.967,2.813v133.82
	c0,1.727,1.776,3.379,3.967,3.379h50.009c8.144-6.604,16.104-14.279,24.102-21.54C293.96,637.714,310.459,622.157,327.596,607.259
	 M309.031,557.841c0,2.419-1.117,4.39-2.498,4.39h-86.402c-1.38,0-2.495-1.971-2.495-4.39v-0.472c0-2.421,1.115-4.383,2.495-4.383
	h86.402c1.381,0,2.498,1.962,2.498,4.383V557.841z M309.031,578.972c0,2.422-1.117,4.39-2.498,4.39h-86.402
	c-1.38,0-2.495-1.968-2.495-4.39v-0.465c0-2.421,1.115-4.393,2.495-4.393h86.402c1.381,0,2.498,1.972,2.498,4.393V578.972z
	 M309.031,600.104c0,2.425-1.117,4.393-2.498,4.393h-86.402c-1.38,0-2.495-1.967-2.495-4.393v-0.465c0-2.421,1.115-4.39,2.495-4.39
	h86.402c1.381,0,2.498,1.968,2.498,4.39V600.104z"/>
<path fill="#024669" d="M352.6,622.669c3.106-3.361,3.81-7.767-0.642-12.637c0,0-5.58-5.231-13.337-1.566
	c0-0.006-0.047-0.016-0.047-0.016l-0.149,0.121c-0.393,0.188-0.789,0.385-1.197,0.629c0,0-0.472,0.104-0.241,0.202
	c-0.326,0.035-0.022-0.007-0.358,0.035l-0.367,0.054l-16.946,15.261c-0.326,0.266-0.639,0.541-0.934,0.801l-45.27,40.375
	c-1.393,1.249-1.746,1.765-2.999,3.189l0.086-0.054c-0.003,0.007,0.054-0.038,0.044-0.031l-17.621,29.91l32.29-15.406
	c0.359,0.161,2.097-1.014,3.983-2.703l45.064-40.364c0.282-0.254,0.573-0.523,0.864-0.801l17.861-16.203l-0.035-0.374
	C352.645,623.039,352.629,622.894,352.6,622.669 M334.552,625.854c-3.232-3.191-8.476-4.695-9.426-4.948l10.89-9.808
	c1.573,0.339,6.075,1.52,9.742,4.503c3.83,3.121,4.873,7.017,5.107,8.127l-11.76,10.665
	C339.121,632.239,337.87,629.125,334.552,625.854 M333.678,636.629l-44.734,39.926c-0.271,0.247-1.051,0.997-1.33,1.256
	c-2.34,2.153-2.457,3.805-2.675,4.973l-17.444,8.405c-0.196-1.048-1.397-5.753-6.697-4.887l9.977-16.925
	c1.2-0.133,4.364-0.323,6.871-2.491c0.285-0.252-0.14,0.098,0.133-0.148l46.066-41.19c0.653-0.586,0.995-0.908,1.346-1.25
	c0.684,0.237,1.438,0.541,2.213,0.889c-0.272,0.244-0.544,0.478-0.865,0.775l-47.567,42.07c-0.833,0.748-2.216,2.045-3.078,3.304
	c-1.976,2.965-1.869,4.893,0.114,6.798c2.112,2.01,4.921,1.475,8.337-0.583c0.659-0.311,1.886-1.247,2.511-1.804l47.704-42.766
	c0.367-0.332,0.7-0.649,1.007-0.937c0.44,0.75,0.772,1.442,1.013,2.07C335.417,635.093,334.745,635.67,333.678,636.629"/>
<polygon fill="#991915" points="438.705,585.015 438.705,650.883 417.107,650.883 417.107,548.097 433.854,548.097 491.764,615.56 
	491.764,548.245 513.364,548.245 513.364,650.883 495.835,650.883 "/>
<path fill="#991915" d="M571.432,652.332c-6.574,0-12.524-1.041-17.844-3.117c-5.322-2.07-9.859-4.896-13.62-8.469
	c-3.753-3.57-6.646-7.719-8.683-12.448c-2.037-4.728-3.052-9.7-3.052-14.912c0-5.402,0.992-10.494,2.973-15.27
	c1.982-4.779,4.853-8.975,8.608-12.596c3.756-3.621,8.319-6.491,13.695-8.612c5.373-2.123,11.398-3.187,18.076-3.187
	s12.653,1.064,17.921,3.187c5.269,2.121,9.756,4.969,13.46,8.539c3.706,3.576,6.52,7.722,8.455,12.451
	c1.928,4.73,2.894,9.652,2.894,14.766c0,1.257-0.028,2.459-0.079,3.614c-0.055,1.162-0.184,2.131-0.39,2.899h-63.389
	c0.31,2.994,1.095,5.643,2.346,7.963c1.254,2.316,2.872,4.295,4.854,5.934c1.982,1.642,4.227,2.896,6.732,3.767
	c2.5,0.867,5.11,1.304,7.824,1.304c4.173,0,8.112-0.946,11.817-2.827c3.701-1.882,6.234-4.363,7.593-7.452l17.997,4.63
	c-3.027,5.791-7.852,10.545-14.476,14.26C588.516,650.472,580.61,652.332,571.432,652.332 M592.718,606.585
	c-0.526-5.696-2.793-10.257-6.814-13.682c-4.016-3.424-8.895-5.14-14.629-5.14c-2.818,0-5.456,0.462-7.907,1.377
	c-2.452,0.918-4.619,2.196-6.493,3.834c-1.878,1.644-3.42,3.622-4.617,5.935c-1.203,2.316-1.907,4.874-2.115,7.674H592.718z"/>
<polygon fill="#991915" points="726.691,575.026 746.57,575.026 712.294,650.883 695.076,650.883 680.989,617.583 667.057,650.883 
	649.845,650.883 615.725,575.026 635.444,575.026 659.86,632.642 669.879,608.032 655.478,575.169 672.383,575.169 680.989,598.477 
	689.753,575.169 706.658,575.169 692.417,608.032 702.277,632.642 "/>
<path fill="#991915" d="M791.646,650.883V548.097h49.144c5.109,0,9.835,0.993,14.166,2.968c4.329,1.98,8.059,4.585,11.188,7.82
	c3.134,3.235,5.582,6.9,7.358,11.001c1.773,4.104,2.66,8.229,2.66,12.377c0,6.66-1.798,12.715-5.398,18.169
	c-3.6,5.453-8.479,9.384-14.635,11.796l25.356,38.654H857.22l-22.689-34.456h-21.288v34.456H791.646z M813.243,598.911h27.079
	c1.979,0,3.834-0.434,5.557-1.304c1.72-0.867,3.208-2.047,4.458-3.544c1.254-1.497,2.246-3.257,2.977-5.285
	c0.728-2.027,1.095-4.197,1.095-6.514c0-2.413-0.418-4.631-1.253-6.659c-0.836-2.029-1.957-3.788-3.37-5.285
	c-1.402-1.495-3.024-2.655-4.851-3.476c-1.823-0.816-3.676-1.225-5.553-1.225h-26.139V598.911z"/>
<path fill="#991915" d="M929.374,652.332c-6.573,0-12.522-1.041-17.842-3.117c-5.323-2.07-9.86-4.896-13.619-8.469
	c-3.754-3.57-6.649-7.719-8.684-12.448c-2.036-4.728-3.053-9.7-3.053-14.912c0-5.402,0.992-10.494,2.972-15.27
	c1.983-4.779,4.851-8.975,8.61-12.596c3.754-3.621,8.317-6.491,13.695-8.612c5.37-2.123,11.397-3.187,18.072-3.187
	c6.682,0,12.657,1.064,17.927,3.187c5.268,2.121,9.753,4.969,13.458,8.539c3.706,3.576,6.52,7.722,8.454,12.451
	c1.929,4.73,2.894,9.652,2.894,14.766c0,1.257-0.029,2.459-0.078,3.614c-0.054,1.162-0.185,2.131-0.39,2.899H908.4
	c0.311,2.994,1.096,5.643,2.35,7.963c1.251,2.316,2.868,4.295,4.851,5.934c1.982,1.642,4.227,2.896,6.731,3.767
	c2.502,0.867,5.11,1.304,7.823,1.304c4.174,0,8.113-0.946,11.817-2.827c3.702-1.882,6.235-4.363,7.594-7.452l17.997,4.63
	c-3.027,5.791-7.854,10.545-14.478,14.26C946.46,650.472,938.553,652.332,929.374,652.332 M950.661,606.585
	c-0.525-5.696-2.792-10.257-6.811-13.682c-4.018-3.424-8.896-5.14-14.631-5.14c-2.817,0-5.456,0.462-7.906,1.377
	c-2.45,0.918-4.618,2.196-6.495,3.834c-1.878,1.644-3.42,3.622-4.62,5.935c-1.202,2.316-1.902,4.874-2.111,7.674H950.661z"/>
<path fill="#991915" d="M1016.084,652.332c-5.222,0-10.018-1.041-14.396-3.117c-4.386-2.07-8.169-4.896-11.35-8.469
	c-3.184-3.57-5.667-7.741-7.437-12.521c-1.773-4.778-2.66-9.917-2.66-15.418c0-5.5,0.963-10.615,2.895-15.344
	c1.936-4.728,4.62-8.854,8.06-12.379c3.445-3.52,7.515-6.296,12.21-8.323c4.696-2.023,9.756-3.039,15.176-3.039
	c6.268,0,11.795,1.327,16.596,3.981c4.798,2.655,8.712,6.152,11.738,10.497v-13.174h18.313v83.385c0,2.119,0.415,3.593,1.251,4.413
	c0.836,0.821,2.295,1.278,4.378,1.376v16.501c-1.769,0.29-3.701,0.51-5.789,0.652c-2.085,0.146-3.962,0.218-5.632,0.218
	c-2.094,0-4.046-0.339-5.873-1.013c-1.823-0.677-3.417-1.592-4.768-2.754c-1.358-1.154-2.455-2.531-3.287-4.123
	c-0.839-1.592-1.255-3.355-1.255-5.283v-30.836c-3.025,4.922-6.939,8.614-11.737,11.076
	C1027.718,651.099,1022.239,652.332,1016.084,652.332 M1023.908,635.828c4.486,0,8.397-1.162,11.737-3.475
	c3.341-2.317,6.209-5.307,8.608-8.979v-17.95c-0.626-2.118-1.639-4.099-3.053-5.931c-1.411-1.839-3.051-3.453-4.932-4.852
	c-1.875-1.399-3.914-2.484-6.102-3.256c-2.191-0.772-4.382-1.162-6.573-1.162c-3.236,0-6.182,0.63-8.844,1.886
	c-2.659,1.254-4.959,2.966-6.884,5.14c-1.935,2.165-3.445,4.655-4.54,7.45c-1.095,2.804-1.64,5.699-1.64,8.684
	c0,3.189,0.545,6.133,1.64,8.836s2.605,5.064,4.54,7.093c1.925,2.028,4.248,3.62,6.964,4.774
	C1017.544,635.248,1020.567,635.828,1023.908,635.828"/>
<path fill="#991915" d="M1109.36,652.332c-8.45,0-14.868-2.513-19.251-7.531c-4.382-5.017-6.573-12.448-6.573-22.293v-47.482h20.974
	v43.283c0,11.68,4.538,17.519,13.615,17.519c4.072,0,8.009-1.137,11.817-3.405c3.807-2.266,6.908-5.716,9.312-10.352v-47.045h20.971
	v53.561c0,2.027,0.396,3.475,1.177,4.345c0.782,0.867,2.06,1.351,3.832,1.446v16.505c-2.086,0.383-3.832,0.624-5.242,0.724
	c-1.406,0.096-2.687,0.144-3.832,0.144c-3.754,0-6.809-0.794-9.157-2.387c-2.345-1.595-3.733-3.788-4.147-6.592l-0.47-6.076
	c-3.654,5.212-8.351,9.121-14.086,11.726C1122.561,651.028,1116.249,652.332,1109.36,652.332"/>
<path fill="#991915" d="M1219.077,652.332c-6.573,0-12.521-1.041-17.843-3.117c-5.323-2.07-9.86-4.896-13.622-8.469
	c-3.751-3.57-6.643-7.719-8.682-12.448c-2.035-4.728-3.052-9.7-3.052-14.912c0-5.402,0.992-10.494,2.974-15.27
	c1.98-4.779,4.854-8.975,8.609-12.596c3.755-3.621,8.318-6.491,13.693-8.612c5.374-2.123,11.4-3.187,18.076-3.187
	c6.677,0,12.653,1.064,17.922,3.187c5.271,2.121,9.754,4.969,13.461,8.539c3.704,3.576,6.519,7.722,8.453,12.451
	c1.93,4.73,2.896,9.652,2.896,14.766c0,1.257-0.03,2.459-0.08,3.614c-0.054,1.162-0.184,2.131-0.391,2.899h-63.389
	c0.311,2.994,1.095,5.643,2.344,7.963c1.257,2.316,2.875,4.295,4.856,5.934c1.981,1.642,4.227,2.896,6.731,3.767
	c2.501,0.867,5.108,1.304,7.824,1.304c4.173,0,8.111-0.946,11.816-2.827c3.701-1.882,6.233-4.363,7.594-7.452l17.995,4.63
	c-3.025,5.791-7.851,10.545-14.475,14.26C1236.163,650.472,1228.256,652.332,1219.077,652.332 M1240.364,606.585
	c-0.526-5.696-2.794-10.257-6.813-13.682c-4.015-3.424-8.894-5.14-14.63-5.14c-2.817,0-5.454,0.462-7.903,1.377
	c-2.455,0.918-4.622,2.196-6.495,3.834c-1.879,1.644-3.42,3.622-4.618,5.935c-1.203,2.316-1.905,4.874-2.114,7.674H1240.364z"/>
<path fill="#991915" d="M1305.788,652.332c-6.889,0-13.621-1.019-20.195-3.043c-6.572-2.026-12.206-4.922-16.902-8.685l7.827-12.16
	c5.009,3.279,9.885,5.769,14.634,7.457c4.746,1.687,9.469,2.529,14.16,2.529c4.178,0,7.464-0.722,9.867-2.171
	c2.396-1.447,3.596-3.524,3.596-6.223c0-2.702-1.408-4.681-4.223-5.937c-2.821-1.252-7.413-2.7-13.774-4.342
	c-5.326-1.348-9.86-2.652-13.618-3.909c-3.755-1.25-6.782-2.677-9.078-4.271c-2.295-1.594-3.965-3.423-5.006-5.502
	c-1.044-2.072-1.566-4.56-1.566-7.456c0-3.858,0.807-7.331,2.425-10.42c1.619-3.09,3.888-5.721,6.808-7.892
	c2.921-2.171,6.339-3.836,10.252-4.994c3.914-1.16,8.163-1.738,12.758-1.738c6.158,0,11.917,0.819,17.293,2.46
	c5.374,1.644,10.309,4.296,14.792,7.965l-8.451,11.725c-4.174-2.896-8.217-5.017-12.132-6.371
	c-3.914-1.352-7.801-2.029-11.658-2.029c-3.552,0-6.525,0.677-8.922,2.029c-2.399,1.354-3.601,3.525-3.601,6.516
	c0,1.352,0.286,2.459,0.861,3.33c0.573,0.867,1.488,1.639,2.739,2.313c1.251,0.677,2.895,1.329,4.932,1.956
	c2.034,0.629,4.562,1.279,7.588,1.953c5.635,1.354,10.463,2.706,14.478,4.057c4.018,1.351,7.3,2.896,9.859,4.63
	c2.559,1.737,4.436,3.74,5.637,6.01c1.198,2.266,1.798,4.99,1.798,8.177c0,7.434-2.971,13.296-8.923,17.593
	C1324.094,650.184,1316.012,652.332,1305.788,652.332"/>
<path fill="#991915" d="M1401.729,646.971c-2.817,1.161-6.263,2.318-10.331,3.475c-4.07,1.16-8.352,1.741-12.838,1.741
	c-2.919,0-5.661-0.342-8.212-1.016c-2.559-0.674-4.801-1.761-6.731-3.257c-1.932-1.494-3.472-3.425-4.618-5.792
	c-1.148-2.365-1.722-5.234-1.722-8.612v-43.575h-10.801v-14.91h10.801v-24.61h20.973v24.61h17.217v14.91h-17.217v37.06
	c0,2.704,0.758,4.611,2.271,5.719c1.511,1.11,3.361,1.664,5.554,1.664c2.191,0,4.332-0.338,6.418-1.015
	c2.088-0.672,3.756-1.25,5.01-1.734L1401.729,646.971z"/>
<polygon fill="#010202" points="255.305,805.474 228.6,805.474 228.6,868.741 221.207,868.741 221.207,805.474 194.505,805.474 
	194.505,799.424 255.305,799.424 "/>
<path fill="#010202" d="M265.013,797.47h7.178v9.763h-7.178V797.47z M265.013,817.876h7.178v50.865h-7.178V817.876z"/>
<path fill="#010202" d="M314.414,866.3c-0.424,0.198-1.042,0.46-1.849,0.783c-0.81,0.323-1.742,0.652-2.796,0.975
	c-1.058,0.329-2.254,0.62-3.591,0.883c-1.335,0.256-2.745,0.386-4.22,0.386c-1.549,0-3.027-0.192-4.433-0.585
	c-1.409-0.39-2.641-0.991-3.695-1.804c-1.058-0.814-1.9-1.842-2.534-3.077c-0.633-1.237-0.949-2.672-0.949-4.297v-36.415h-7.606
	v-5.272h7.606v-17.185h7.178v17.185h12.666v5.272h-12.666v34.563c0.139,1.887,0.861,3.269,2.163,4.146
	c1.298,0.88,2.796,1.32,4.486,1.32c2.039,0,3.835-0.31,5.383-0.928c1.545-0.617,2.534-1.061,2.955-1.32L314.414,866.3z"/>
<path fill="#010202" d="M323.701,797.47h7.178v59.75c0,1.886,0.563,3.371,1.691,4.444c1.124,1.073,2.707,1.61,4.75,1.61
	c0.77,0,1.688-0.098,2.745-0.291c1.054-0.199,2.039-0.459,2.954-0.783l1.267,5.369c-1.336,0.522-2.973,0.943-4.908,1.269
	c-1.938,0.326-3.606,0.487-5.016,0.487c-3.309,0-5.912-0.86-7.812-2.587c-1.899-1.723-2.849-4.146-2.849-7.271V797.47z"/>
<path fill="#010202" d="M375.844,869.72c-4.012,0-7.688-0.7-11.032-2.099c-3.343-1.399-6.244-3.323-8.708-5.763
	c-2.463-2.44-4.379-5.255-5.752-8.444c-1.372-3.187-2.059-6.605-2.059-10.254c0-3.578,0.687-6.947,2.059-10.103
	c1.374-3.155,3.271-5.927,5.699-8.297c2.428-2.377,5.332-4.263,8.711-5.665c3.377-1.397,7.035-2.099,10.977-2.099
	c4.012,0,7.69,0.702,11.029,2.099c3.344,1.401,6.213,3.306,8.6,5.712c2.396,2.408,4.262,5.171,5.598,8.298
	c1.336,3.124,2.009,6.446,2.009,9.96v1.557c0,0.525-0.042,0.883-0.109,1.079h-47.077c0.212,2.731,0.896,5.256,2.058,7.567
	c1.163,2.31,2.657,4.311,4.487,6c1.827,1.695,3.923,3.016,6.282,3.956c2.355,0.943,4.867,1.418,7.545,1.418
	c1.757,0,3.518-0.228,5.278-0.684c1.757-0.456,3.378-1.075,4.854-1.857c1.479-0.78,2.815-1.741,4.012-2.877
	c1.197-1.14,2.112-2.4,2.745-3.76l6.228,1.564c-0.845,1.886-2.042,3.592-3.59,5.122c-1.549,1.534-3.34,2.866-5.383,4.004
	c-2.042,1.137-4.293,2.017-6.754,2.634C381.087,869.409,378.516,869.72,375.844,869.72 M396.111,840.625
	c-0.212-2.739-0.899-5.225-2.058-7.47c-1.162-2.246-2.641-4.181-4.433-5.81c-1.795-1.627-3.873-2.894-6.228-3.808
	c-2.359-0.911-4.877-1.364-7.549-1.364c-2.676,0-5.21,0.453-7.599,1.364c-2.394,0.914-4.49,2.181-6.282,3.808
	c-1.792,1.629-3.236,3.58-4.329,5.857c-1.089,2.279-1.742,4.75-1.951,7.422H396.111z"/>
<path fill="#010202" d="M413.001,818.167h6.123v9.571h-6.123V818.167z M413.001,859.173h6.123v9.565h-6.123V859.173z"/>
<path fill="#010202" d="M192.843,1010.982v-69.318h25.438c5.981,0,11.206,0.912,15.677,2.732c4.468,1.824,8.198,4.297,11.19,7.421
	c2.989,3.123,5.24,6.785,6.753,10.984c1.514,4.198,2.271,8.673,2.271,13.425c0,5.272-0.847,10.039-2.533,14.301
	c-1.691,4.264-4.101,7.907-7.232,10.936c-3.131,3.025-6.896,5.367-11.294,7.03c-4.398,1.659-9.341,2.489-14.831,2.489H192.843z
	 M246.781,976.227c0-4.168-0.633-7.99-1.899-11.478c-1.27-3.476-3.113-6.492-5.541-9.031c-2.429-2.534-5.402-4.501-8.92-5.901
	c-3.521-1.398-7.564-2.101-12.14-2.101h-18.048v57.213h18.048c4.645,0,8.744-0.731,12.298-2.198c3.552-1.464,6.525-3.479,8.92-6.05
	c2.39-2.571,4.205-5.602,5.436-9.079C246.164,984.115,246.781,980.325,246.781,976.227"/>
<path fill="#010202" d="M290.587,1011.958c-4.012,0-7.688-0.7-11.031-2.099s-6.244-3.32-8.708-5.761
	c-2.463-2.442-4.379-5.254-5.753-8.444c-1.371-3.189-2.058-6.604-2.058-10.253c0-3.578,0.688-6.945,2.058-10.104
	c1.375-3.155,3.271-5.922,5.7-8.297c2.428-2.375,5.332-4.262,8.71-5.664c3.378-1.397,7.036-2.102,10.978-2.102
	c4.011,0,7.688,0.704,11.028,2.102c3.343,1.402,6.212,3.305,8.599,5.711c2.397,2.41,4.262,5.174,5.598,8.298
	c1.336,3.125,2.008,6.445,2.008,9.962v1.561c0,0.519-0.042,0.88-0.108,1.073h-47.077c0.212,2.733,0.896,5.256,2.058,7.566
	c1.162,2.311,2.656,4.314,4.486,6.004c1.828,1.693,3.924,3.012,6.283,3.953c2.355,0.945,4.867,1.418,7.545,1.418
	c1.757,0,3.518-0.229,5.277-0.685c1.758-0.452,3.379-1.072,4.855-1.855c1.479-0.78,2.815-1.741,4.011-2.879
	c1.197-1.136,2.112-2.393,2.746-3.76l6.228,1.563c-0.845,1.891-2.042,3.6-3.591,5.124c-1.548,1.532-3.34,2.867-5.383,4.006
	c-2.042,1.138-4.293,2.018-6.754,2.635C295.832,1011.649,293.26,1011.958,290.587,1011.958 M310.855,982.863
	c-0.212-2.733-0.9-5.219-2.059-7.467c-1.162-2.246-2.641-4.182-4.433-5.81c-1.795-1.627-3.873-2.896-6.228-3.807
	c-2.359-0.913-4.876-1.367-7.549-1.367c-2.676,0-5.208,0.454-7.599,1.367c-2.394,0.911-4.489,2.18-6.282,3.807
	c-1.792,1.628-3.236,3.584-4.329,5.856c-1.088,2.279-1.74,4.753-1.95,7.42H310.855z"/>
<path fill="#010202" d="M347.059,1011.958c-4.293,0-8.482-0.652-12.563-1.952c-4.082-1.302-7.599-3.188-10.553-5.664l3.271-4.489
	c3.097,2.342,6.244,4.099,9.448,5.272c3.201,1.168,6.63,1.757,10.291,1.757c4.433,0,7.97-0.83,10.61-2.492
	c2.638-1.659,3.958-4.016,3.958-7.076c0-1.431-0.354-2.62-1.057-3.563c-0.703-0.946-1.742-1.775-3.113-2.488
	c-1.371-0.719-3.096-1.352-5.174-1.905c-2.073-0.554-4.484-1.123-7.228-1.708c-3.167-0.716-5.916-1.431-8.232-2.149
	c-2.324-0.715-4.243-1.53-5.753-2.439c-1.513-0.911-2.641-2.035-3.378-3.371c-0.738-1.332-1.108-3.01-1.108-5.026
	c0-2.54,0.543-4.785,1.637-6.737c1.089-1.952,2.568-3.563,4.429-4.832c1.865-1.271,4.047-2.229,6.549-2.881
	c2.494-0.648,5.151-0.979,7.969-0.979c4.221,0,8.052,0.637,11.504,1.906c3.448,1.27,6.228,2.946,8.34,5.029l-3.483,3.901
	c-2.042-1.949-4.521-3.414-7.44-4.39c-2.922-0.98-5.966-1.465-9.132-1.465c-1.899,0-3.66,0.18-5.278,0.532
	c-1.617,0.359-3.046,0.933-4.274,1.715c-1.231,0.778-2.201,1.772-2.903,2.978c-0.703,1.203-1.055,2.617-1.055,4.244
	c0,1.368,0.244,2.479,0.738,3.32c0.487,0.848,1.298,1.579,2.428,2.197c1.124,0.619,2.548,1.17,4.277,1.66
	c1.719,0.483,3.813,0.991,6.279,1.513c3.518,0.782,6.611,1.563,9.288,2.342c2.671,0.782,4.907,1.693,6.702,2.733
	c1.795,1.042,3.15,2.315,4.065,3.812c0.912,1.497,1.371,3.317,1.371,5.466c0,4.684-1.938,8.396-5.807,11.131
	C358.81,1010.59,353.601,1011.958,347.059,1011.958"/>
<path fill="#010202" d="M376.404,985.401c0-3.578,0.668-6.964,2.008-10.155c1.333-3.188,3.217-5.969,5.645-8.346
	c2.425-2.373,5.332-4.244,8.708-5.61c3.379-1.372,7.109-2.056,11.189-2.056c5.209,0,9.746,1.094,13.618,3.273
	c3.87,2.18,6.79,5.124,8.761,8.836l-6.968,2.055c-1.549-2.608-3.714-4.641-6.491-6.103c-2.78-1.468-5.861-2.2-9.236-2.2
	c-2.815,0-5.437,0.523-7.865,1.562c-2.426,1.044-4.538,2.455-6.332,4.245c-1.793,1.793-3.202,3.926-4.223,6.397
	c-1.021,2.475-1.532,5.175-1.532,8.102c0,2.867,0.529,5.563,1.58,8.105c1.061,2.541,2.502,4.734,4.331,6.589
	c1.831,1.855,3.959,3.32,6.387,4.393c2.429,1.074,5.015,1.611,7.757,1.611c1.761,0,3.502-0.229,5.228-0.684
	c1.722-0.452,3.324-1.089,4.8-1.902c1.476-0.813,2.748-1.743,3.802-2.783c1.055-1.04,1.793-2.146,2.217-3.318l7.07,1.949
	c-0.775,1.826-1.899,3.5-3.378,5.028c-1.479,1.532-3.217,2.867-5.225,4.006c-2.004,1.138-4.221,2.021-6.652,2.635
	c-2.425,0.619-4.943,0.928-7.546,0.928c-4.008,0-7.704-0.7-11.082-2.099c-3.379-1.398-6.298-3.32-8.761-5.761
	c-2.464-2.442-4.379-5.254-5.753-8.444C377.091,992.465,376.404,989.05,376.404,985.401"/>
<path fill="#010202" d="M465.597,965.974c-4.857,0.13-9.078,1.367-12.669,3.708c-3.587,2.346-6.12,5.564-7.599,9.668v31.633h-7.179
	v-50.867h6.758v12.203c2.039-3.905,4.784-6.963,8.232-9.178c3.448-2.213,7.143-3.316,11.085-3.316c0.561,0,1.016,0.031,1.371,0.094
	V965.974z"/>
<path fill="#010202" d="M475.204,939.709h7.177v9.763h-7.177V939.709z M475.204,960.115h7.177v50.867h-7.177V960.115z"/>
<path fill="#010202" d="M526.291,1011.958c-4.645,0-8.745-1.089-12.297-3.27c-3.556-2.181-6.422-4.931-8.603-8.252v31.339h-7.178
	v-71.66h6.44v9.861c2.251-3.19,5.17-5.776,8.761-7.764c3.586-1.983,7.494-2.979,11.715-2.979c3.8,0,7.283,0.735,10.449,2.201
	c3.17,1.461,5.912,3.416,8.233,5.857c2.324,2.439,4.135,5.256,5.44,8.443c1.301,3.19,1.95,6.479,1.95,9.861
	c0,3.58-0.598,6.963-1.792,10.156c-1.197,3.187-2.904,5.986-5.122,8.395c-2.216,2.409-4.856,4.313-7.915,5.711
	C533.312,1011.258,529.949,1011.958,526.291,1011.958 M524.287,1006.1c2.955,0,5.646-0.586,8.074-1.758
	c2.428-1.173,4.503-2.717,6.228-4.635c1.72-1.921,3.043-4.102,3.958-6.542c0.912-2.439,1.371-4.964,1.371-7.567
	c0-2.734-0.526-5.335-1.583-7.811c-1.054-2.474-2.498-4.651-4.332-6.541c-1.827-1.888-3.989-3.385-6.49-4.491
	c-2.496-1.104-5.186-1.659-8.072-1.659c-1.83,0-3.748,0.34-5.752,1.023s-3.87,1.595-5.595,2.734
	c-1.725,1.139-3.201,2.475-4.433,4.003s-1.989,3.14-2.271,4.832v15.622c0.846,1.822,1.915,3.516,3.22,5.076
	c1.302,1.563,2.776,2.914,4.433,4.051c1.652,1.144,3.433,2.035,5.332,2.688C520.275,1005.775,522.245,1006.1,524.287,1006.1"/>
<path fill="#010202" d="M588.991,1008.54c-0.424,0.196-1.042,0.459-1.849,0.783c-0.811,0.323-1.741,0.649-2.797,0.976
	c-1.057,0.326-2.254,0.619-3.59,0.877c-1.336,0.261-2.746,0.388-4.221,0.388c-1.548,0-3.027-0.192-4.432-0.581
	c-1.409-0.393-2.642-0.992-3.697-1.807c-1.057-0.813-1.899-1.838-2.532-3.076c-0.634-1.235-0.951-2.668-0.951-4.294v-36.417h-7.605
	v-5.273h7.605v-17.182h7.179v17.182h12.664v5.273h-12.664v34.562c0.138,1.89,0.86,3.269,2.162,4.148
	c1.298,0.88,2.796,1.317,4.487,1.317c2.039,0,3.834-0.307,5.383-0.928c1.544-0.616,2.532-1.057,2.953-1.319L588.991,1008.54z"/>
<path fill="#010202" d="M597.961,939.709h7.181v9.763h-7.181V939.709z M597.961,960.115h7.181v50.867h-7.181V960.115z"/>
<path fill="#010202" d="M644.405,1011.958c-4.011,0-7.672-0.7-10.977-2.097c-3.309-1.4-6.175-3.304-8.603-5.713
	c-2.429-2.408-4.313-5.208-5.646-8.395c-1.339-3.193-2.007-6.545-2.007-10.058c0-3.582,0.687-6.966,2.058-10.153
	c1.377-3.192,3.271-5.987,5.696-8.393c2.432-2.416,5.297-4.333,8.606-5.767c3.308-1.431,6.928-2.149,10.873-2.149
	c3.942,0,7.583,0.719,10.924,2.149c3.346,1.434,6.227,3.351,8.657,5.767c2.425,2.405,4.327,5.2,5.699,8.393
	c1.374,3.188,2.058,6.571,2.058,10.153c0,3.513-0.667,6.864-2.004,10.058c-1.336,3.187-3.22,5.986-5.649,8.395
	c-2.424,2.409-5.313,4.313-8.653,5.713C652.092,1011.258,648.416,1011.958,644.405,1011.958 M624.455,985.791
	c0,2.867,0.528,5.519,1.583,7.96c1.056,2.439,2.482,4.588,4.278,6.442c1.792,1.855,3.903,3.305,6.333,4.342
	c2.428,1.045,5.012,1.564,7.757,1.564c2.746,0,5.333-0.537,7.757-1.611c2.429-1.072,4.557-2.537,6.387-4.389
	c1.83-1.858,3.271-4.023,4.329-6.494c1.055-2.475,1.583-5.144,1.583-8.008c0-2.801-0.528-5.449-1.583-7.956
	c-1.058-2.507-2.499-4.688-4.329-6.541c-1.83-1.858-3.958-3.323-6.387-4.396c-2.425-1.07-5.012-1.609-7.757-1.609
	c-2.745,0-5.313,0.539-7.707,1.609c-2.391,1.072-4.503,2.554-6.333,4.442c-1.83,1.888-3.272,4.087-4.329,6.592
	C624.983,980.243,624.455,982.93,624.455,985.791"/>
<path fill="#010202" d="M730.01,1010.982h-7.179v-28.413c0-6.051-0.968-10.446-2.903-13.181c-1.934-2.731-4.909-4.101-8.92-4.101
	c-2.111,0-4.219,0.362-6.333,1.076c-2.111,0.72-4.062,1.727-5.857,3.024c-1.795,1.304-3.397,2.848-4.803,4.639
	c-1.41,1.791-2.433,3.729-3.063,5.807v31.148h-7.179v-50.867h6.544v11.522c2.252-3.712,5.471-6.703,9.66-8.981
	c4.187-2.279,8.743-3.422,13.67-3.422c3.023,0,5.594,0.525,7.703,1.564c2.109,1.042,3.8,2.51,5.066,4.392
	c1.267,1.894,2.18,4.198,2.746,6.933c0.563,2.737,0.845,5.762,0.845,9.079V1010.982z"/>
<path fill="#010202" d="M744.259,960.408h6.123v9.568h-6.123V960.408z M744.259,1001.412h6.123v9.568h-6.123V1001.412z"/>
<polygon fill="#010202" points="196.826,1141.541 196.826,1072.223 246.015,1072.223 246.015,1078.271 204.217,1078.271 
	204.217,1103.755 239.471,1103.755 239.471,1109.418 204.217,1109.418 204.217,1141.541 "/>
<path fill="#010202" d="M280.848,1096.53c-4.857,0.13-9.078,1.366-12.668,3.709c-3.588,2.345-6.121,5.563-7.6,9.669v31.633h-7.178
	v-50.869h6.757v12.205c2.039-3.906,4.784-6.963,8.233-9.179c3.448-2.213,7.143-3.317,11.084-3.317c0.561,0,1.017,0.033,1.371,0.096
	V1096.53z"/>
<path fill="#010202" d="M311.143,1142.514c-4.012,0-7.672-0.698-10.978-2.094c-3.309-1.401-6.174-3.304-8.603-5.715
	c-2.429-2.41-4.313-5.207-5.646-8.396c-1.339-3.19-2.007-6.543-2.007-10.057c0-3.583,0.687-6.965,2.058-10.152
	c1.377-3.192,3.271-5.987,5.695-8.394c2.433-2.412,5.298-4.332,8.607-5.767c3.309-1.429,6.928-2.147,10.873-2.147
	c3.942,0,7.583,0.719,10.924,2.147c3.343,1.435,6.228,3.354,8.656,5.767c2.426,2.406,4.329,5.201,5.7,8.394
	c1.374,3.188,2.058,6.569,2.058,10.152c0,3.514-0.668,6.866-2.004,10.057c-1.336,3.188-3.22,5.985-5.649,8.396
	c-2.426,2.411-5.313,4.313-8.653,5.715C318.832,1141.815,315.155,1142.514,311.143,1142.514 M291.192,1116.349
	c0,2.867,0.528,5.519,1.583,7.959c1.055,2.441,2.483,4.589,4.278,6.44c1.792,1.857,3.904,3.308,6.333,4.346
	c2.429,1.041,5.013,1.563,7.757,1.563c2.746,0,5.332-0.537,7.758-1.61c2.428-1.074,4.557-2.538,6.387-4.39
	c1.83-1.857,3.27-4.022,4.328-6.494c1.054-2.474,1.583-5.142,1.583-8.007c0-2.801-0.529-5.45-1.583-7.957
	c-1.058-2.506-2.499-4.687-4.328-6.542c-1.83-1.855-3.958-3.32-6.387-4.396c-2.426-1.069-5.012-1.607-7.758-1.607
	c-2.745,0-5.313,0.538-7.707,1.607c-2.391,1.076-4.502,2.556-6.333,4.444c-1.83,1.888-3.274,4.086-4.329,6.592
	C291.72,1110.8,291.192,1113.486,291.192,1116.349"/>
<path fill="#010202" d="M432.322,1141.541h-7.175v-28.415c0-5.92-1.023-10.279-3.062-13.08c-2.042-2.798-5.066-4.2-9.079-4.2
	c-2.111,0-4.1,0.361-5.964,1.077c-1.865,0.717-3.588,1.725-5.171,3.025c-1.583,1.3-2.977,2.846-4.17,4.637
	c-1.197,1.79-2.112,3.76-2.745,5.907v31.049h-7.178v-28.415c0-6.05-0.985-10.446-2.955-13.178c-1.972-2.734-4.996-4.103-9.078-4.103
	c-4.153,0-7.849,1.335-11.084,4.006c-3.236,2.67-5.557,6.181-6.966,10.541v31.148h-7.178v-50.869h6.545v11.523
	c2.249-3.908,5.208-6.949,8.865-9.131c3.661-2.177,7.707-3.271,12.14-3.271c4.646,0,8.356,1.208,11.136,3.614
	c2.78,2.408,4.487,5.563,5.12,9.47c5.136-8.721,12.21-13.084,21.218-13.084c3.097,0,5.715,0.525,7.865,1.563
	c2.144,1.044,3.869,2.525,5.17,4.443c1.301,1.92,2.251,4.232,2.85,6.932c0.599,2.702,0.896,5.712,0.896,9.028V1141.541z"/>
<path fill="#010202" d="M446.465,1090.967h6.12v9.566h-6.12V1090.967z M446.465,1131.971h6.12v9.57h-6.12V1131.971z"/>
<polygon fill="#010202" points="253.079,1223.954 226.375,1223.954 226.375,1287.223 218.984,1287.223 218.984,1223.954 
	192.279,1223.954 192.279,1217.902 253.079,1217.902 "/>
<path fill="#010202" d="M274.189,1288.196c-4.012,0-7.672-0.699-10.979-2.097c-3.308-1.4-6.174-3.301-8.603-5.712
	c-2.428-2.409-4.313-5.209-5.646-8.397c-1.339-3.19-2.007-6.542-2.007-10.055c0-3.582,0.687-6.966,2.058-10.152
	c1.375-3.191,3.274-5.988,5.7-8.398c2.432-2.41,5.294-4.328,8.603-5.762c3.309-1.432,6.928-2.148,10.874-2.148
	c3.941,0,7.583,0.717,10.92,2.148c3.348,1.434,6.231,3.352,8.657,5.762c2.433,2.41,4.332,5.207,5.703,8.398
	c1.375,3.187,2.058,6.57,2.058,10.152c0,3.513-0.668,6.864-2.004,10.055c-1.336,3.188-3.22,5.988-5.649,8.397
	c-2.425,2.411-5.313,4.312-8.653,5.712C281.874,1287.497,278.201,1288.196,274.189,1288.196 M254.238,1262.029
	c0,2.869,0.529,5.521,1.583,7.961c1.058,2.438,2.482,4.588,4.279,6.439c1.791,1.858,3.903,3.308,6.332,4.345
	c2.429,1.045,5.012,1.564,7.758,1.564c2.745,0,5.332-0.537,7.757-1.611c2.429-1.073,4.557-2.538,6.387-4.394
	c1.83-1.854,3.274-4.018,4.328-6.492c1.055-2.472,1.584-5.141,1.584-8.006c0-2.799-0.529-5.449-1.584-7.957
	c-1.054-2.504-2.498-4.685-4.328-6.54c-1.83-1.856-3.958-3.323-6.387-4.396c-2.425-1.07-5.012-1.607-7.757-1.607
	c-2.746,0-5.313,0.537-7.71,1.607c-2.387,1.072-4.499,2.555-6.33,4.443c-1.831,1.888-3.271,4.086-4.328,6.59
	C254.767,1256.482,254.238,1259.168,254.238,1262.029"/>
<path fill="#010202" d="M312.504,1236.648h6.124v9.567h-6.124V1236.648z M312.504,1277.65h6.124v9.568h-6.124V1277.65z"/>
<path fill="#FFFFFF" d="M1834.03,893.036H805.501c-21.398,0-38.907-17.573-38.907-39.052v-37.883
	c0-21.479,17.509-39.053,38.907-39.053H1834.03c21.398,0,38.907,17.574,38.907,39.053v37.883
	C1872.938,875.463,1855.429,893.036,1834.03,893.036"/>
<path fill="none" stroke="#024669" stroke-width="2" stroke-miterlimit="10" d="M1834.03,893.036H805.501
	c-21.398,0-38.907-17.573-38.907-39.052v-37.883c0-21.479,17.509-39.053,38.907-39.053H1834.03
	c21.398,0,38.907,17.574,38.907,39.053v37.883C1872.938,875.463,1855.429,893.036,1834.03,893.036z"/>
<path fill="#FFFFFF" d="M1827.15,1037.358H798.621c-21.398,0-38.907-17.575-38.907-39.055v-37.882
	c0-21.479,17.509-39.053,38.907-39.053h1028.53c21.397,0,38.908,17.574,38.908,39.053v37.882
	C1866.059,1019.783,1848.548,1037.358,1827.15,1037.358"/>
<path fill="none" stroke="#024669" stroke-width="2" stroke-miterlimit="10" d="M1827.15,1037.358H798.621
	c-21.398,0-38.907-17.575-38.907-39.055v-37.882c0-21.479,17.509-39.053,38.907-39.053h1028.53
	c21.397,0,38.908,17.574,38.908,39.053v37.882C1866.059,1019.783,1848.548,1037.358,1827.15,1037.358z"/>
<path fill="#FFFFFF" d="M1827.432,1180.727H798.906c-21.4,0-38.908-17.578-38.908-39.054v-37.884
	c0-21.481,17.508-39.052,38.908-39.052h1028.526c21.401,0,38.908,17.57,38.908,39.052v37.884
	C1866.34,1163.148,1848.833,1180.727,1827.432,1180.727"/>
<path fill="none" stroke="#024669" stroke-width="2" stroke-miterlimit="10" d="M1827.432,1180.727H798.906
	c-21.4,0-38.908-17.578-38.908-39.054v-37.884c0-21.481,17.508-39.052,38.908-39.052h1028.526c21.401,0,38.908,17.57,38.908,39.052
	v37.884C1866.34,1163.148,1848.833,1180.727,1827.432,1180.727z"/>
<path fill="#FFFFFF" d="M1829.451,1321.434H800.926c-21.401,0-38.908-17.572-38.908-39.053v-37.884
	c0-21.478,17.507-39.055,38.908-39.055h1028.525c21.402,0,38.911,17.577,38.911,39.055v37.884
	C1868.362,1303.861,1850.854,1321.434,1829.451,1321.434"/>
<path fill="none" stroke="#024669" stroke-width="2" stroke-miterlimit="10" d="M1829.451,1321.434H800.926
	c-21.401,0-38.908-17.572-38.908-39.053v-37.884c0-21.478,17.507-39.055,38.908-39.055h1028.525
	c21.402,0,38.911,17.577,38.911,39.055v37.884C1868.362,1303.861,1850.854,1321.434,1829.451,1321.434z"/>
</svg>
