<svg id="Ebene_1" data-name="Ebene 1" xmlns="http://www.w3.org/2000/svg" viewBox="0 0 1080 1920"><defs><style>.cls-1{fill:#e5e5e5;}.cls-2{fill:#f2f2f2;stroke:#000;stroke-miterlimit:10;}.cls-3{fill:#004669;}.cls-4{isolation:isolate;}.cls-5,.cls-6{fill:#900;}.cls-6{font-size:120px;font-family:MyriadPro-Regular, Myriad Pro;}.cls-7{fill:#414141;}</style></defs><title>Logo_KeepThingsIcon</title><rect class="cls-1" x="27" y="300" width="1031" height="1600" rx="30" ry="30"/><rect class="cls-2" x="2.5" y="2.5" width="1076" height="159"/><ellipse class="cls-3" cx="916.5" cy="1779.5" rx="92" ry="90"/><g class="cls-4"><g class="cls-4"><path class="cls-3" d="M311.56,50.92h4.86l-8.77,41,46-41.11h5.63l-33,29.66,19.93,38.05h-5.53l-18.12-35.1-16,14.21L302,118.54h-4.86Z"/></g><g class="cls-4"><path class="cls-3" d="M371.07,119.5a18.22,18.22,0,0,1-8-1.67,17.69,17.69,0,0,1-5.91-4.53,19.46,19.46,0,0,1-3.67-6.68,26,26,0,0,1-1.24-8.11,29.6,29.6,0,0,1,2.24-11.3,31.31,31.31,0,0,1,15.64-16.55,26.75,26.75,0,0,1,11.68-2.57,19.2,19.2,0,0,1,5.72.86,15.31,15.31,0,0,1,4.91,2.53,12.46,12.46,0,0,1,3.43,4.15,12.25,12.25,0,0,1,1.29,5.72q0,14.31-25.94,14.31-3.05,0-6.44-.09t-7.49-.38c-.06.51-.11,1-.14,1.62s0,1.11,0,1.62a24,24,0,0,0,.91,6.68,15.63,15.63,0,0,0,2.77,5.48,13.45,13.45,0,0,0,4.67,3.72,14.62,14.62,0,0,0,6.53,1.38,18,18,0,0,0,4.91-.71,22.07,22.07,0,0,0,4.82-2,21.29,21.29,0,0,0,4.24-3.15,18.81,18.81,0,0,0,3.29-4.15l4,1.24a24,24,0,0,1-4.15,5.15,28.28,28.28,0,0,1-5.34,4,26.79,26.79,0,0,1-6.15,2.58A24.37,24.37,0,0,1,371.07,119.5ZM381.27,72A20.14,20.14,0,0,0,373,73.67a24.54,24.54,0,0,0-6.72,4.39,27.55,27.55,0,0,0-5.05,6.25,30.16,30.16,0,0,0-3.15,7.25q4,.29,7.2.38t6.25.09a51.82,51.82,0,0,0,10-.81A21.66,21.66,0,0,0,388,89a9.23,9.23,0,0,0,3.58-3.39,8.72,8.72,0,0,0,1.1-4.34,8.27,8.27,0,0,0-1-4.15,9.09,9.09,0,0,0-2.58-2.91,10.51,10.51,0,0,0-3.67-1.67A17.3,17.3,0,0,0,381.27,72Z"/><path class="cls-3" d="M421.52,119.5a18.22,18.22,0,0,1-8-1.67,17.69,17.69,0,0,1-5.91-4.53,19.46,19.46,0,0,1-3.67-6.68,26,26,0,0,1-1.24-8.11A29.6,29.6,0,0,1,405,87.21a31.31,31.31,0,0,1,15.64-16.55,26.75,26.75,0,0,1,11.68-2.57A19.2,19.2,0,0,1,438,69a15.31,15.31,0,0,1,4.91,2.53,12.46,12.46,0,0,1,3.43,4.15,12.25,12.25,0,0,1,1.29,5.72q0,14.31-25.94,14.31-3.05,0-6.44-.09t-7.49-.38c-.06.51-.11,1-.14,1.62s0,1.11,0,1.62a24,24,0,0,0,.91,6.68,15.63,15.63,0,0,0,2.77,5.48,13.45,13.45,0,0,0,4.67,3.72,14.62,14.62,0,0,0,6.53,1.38,18,18,0,0,0,4.91-.71,22.07,22.07,0,0,0,4.82-2,21.29,21.29,0,0,0,4.24-3.15,18.81,18.81,0,0,0,3.29-4.15l4,1.24a24,24,0,0,1-4.15,5.15,28.28,28.28,0,0,1-5.34,4,26.79,26.79,0,0,1-6.15,2.58A24.37,24.37,0,0,1,421.52,119.5ZM431.72,72a20.14,20.14,0,0,0-8.25,1.67,24.54,24.54,0,0,0-6.72,4.39,27.55,27.55,0,0,0-5.05,6.25,30.16,30.16,0,0,0-3.15,7.25q4,.29,7.2.38T422,92a51.82,51.82,0,0,0,10-.81A21.66,21.66,0,0,0,438.49,89a9.23,9.23,0,0,0,3.58-3.39,8.72,8.72,0,0,0,1.1-4.34,8.27,8.27,0,0,0-1-4.15,9.09,9.09,0,0,0-2.58-2.91,10.51,10.51,0,0,0-3.67-1.67A17.3,17.3,0,0,0,431.72,72Z"/></g><g class="cls-4"><path class="cls-3" d="M462.33,69h4.29l-2.1,9.92a32.19,32.19,0,0,1,9.3-7.77,22,22,0,0,1,10.82-3,15.94,15.94,0,0,1,7.49,1.72,16.57,16.57,0,0,1,5.53,4.63,21.38,21.38,0,0,1,3.43,6.72,26.4,26.4,0,0,1,1.19,7.92,29.94,29.94,0,0,1-2.19,11.21,33.64,33.64,0,0,1-6,9.78,29.42,29.42,0,0,1-8.82,6.87,23.22,23.22,0,0,1-10.68,2.58,15,15,0,0,1-10-3.39,19.59,19.59,0,0,1-5.82-8.25l-6.58,31h-4.77Zm12.11,46.25a18,18,0,0,0,8.82-2.29,26.63,26.63,0,0,0,7.3-5.91,28.45,28.45,0,0,0,5-8.15,24.36,24.36,0,0,0,1.81-9.11,21,21,0,0,0-1-6.68,17.79,17.79,0,0,0-3-5.53,14.17,14.17,0,0,0-4.58-3.77,12.89,12.89,0,0,0-6-1.38,15.77,15.77,0,0,0-5.44,1.1,27.2,27.2,0,0,0-5.72,3,29.19,29.19,0,0,0-5,4.24,13.38,13.38,0,0,0-3.1,5.05L459.95,102a18.76,18.76,0,0,0,1.86,5.15,17.23,17.23,0,0,0,3.15,4.2,13.46,13.46,0,0,0,9.49,3.82Z"/></g><g class="cls-4"><path class="cls-5" d="M529,55.22H505.54l.86-4.39h51.88l-1,4.39H533.86l-13.54,63.33h-4.77Z"/><path class="cls-5" d="M567.82,48.92h4.77l-6.77,31.85a31.93,31.93,0,0,1,9.92-9.25,22.88,22.88,0,0,1,11.73-3.43q6,0,8.68,3.39T598.81,81a42.06,42.06,0,0,1-.24,4.29,39.2,39.2,0,0,1-.81,4.77l-6,28.52H587l5.82-27.66a38.66,38.66,0,0,0,1-7.92q0-10.49-8.68-10.49a16.42,16.42,0,0,0-5.87,1.14,24.08,24.08,0,0,0-5.82,3.24,31.5,31.5,0,0,0-5.2,4.91,27.33,27.33,0,0,0-3.91,6.06l-6.49,30.71H553Z"/><path class="cls-5" d="M616.17,69h4.77l-10.49,49.59h-4.77Zm4.29-20h4.77l-1.81,8.77h-4.77Z"/><path class="cls-5" d="M635.34,69h4.48l-2.57,11.83a29,29,0,0,1,4.67-5.2,32.78,32.78,0,0,1,5.67-4,29.19,29.19,0,0,1,6.2-2.58,23.17,23.17,0,0,1,6.34-.91q5.72,0,8.2,3.05T670.81,80a35.09,35.09,0,0,1-.33,4.67q-.33,2.48-.91,5.34l-6,28.52H658.8l5.82-27.66a48.24,48.24,0,0,0,.81-4.86,37.5,37.5,0,0,0,.24-4q0-9.54-7.92-9.54a17.82,17.82,0,0,0-6.1,1.14,24.89,24.89,0,0,0-6.06,3.24,32.58,32.58,0,0,0-5.39,4.91,28.21,28.21,0,0,0-4.1,6.06l-6.49,30.71h-4.77Z"/><path class="cls-5" d="M692.08,139.81q-8.2,0-12.45-3.1a16.86,16.86,0,0,1-6.06-8.34l3.62-2.19a12.68,12.68,0,0,0,6,7.39,20,20,0,0,0,9.73,2.34,23.71,23.71,0,0,0,7-1,20.93,20.93,0,0,0,6.25-3.1,19.81,19.81,0,0,0,7.77-12.25l2.29-10.87a29.17,29.17,0,0,1-4.29,4.34,33.42,33.42,0,0,1-5,3.39,24.25,24.25,0,0,1-5.34,2.19,20.1,20.1,0,0,1-5.34.76,15.45,15.45,0,0,1-7.34-1.72,17,17,0,0,1-5.48-4.58,20.91,20.91,0,0,1-3.43-6.58,25.43,25.43,0,0,1-1.19-7.82,28.86,28.86,0,0,1,2.29-11.21,34.14,34.14,0,0,1,6.15-9.78,31.33,31.33,0,0,1,8.92-6.92,22.88,22.88,0,0,1,10.68-2.62,14.57,14.57,0,0,1,10,3.39,23.89,23.89,0,0,1,6.06,8.25L725.17,69h4.29L718.69,119.5a24.15,24.15,0,0,1-3.67,8.87,24.74,24.74,0,0,1-6.25,6.34,27.65,27.65,0,0,1-7.92,3.82A30.38,30.38,0,0,1,692.08,139.81Zm6.29-24.61a16.79,16.79,0,0,0,6.06-1.19,25.8,25.8,0,0,0,5.77-3.1,25.15,25.15,0,0,0,4.67-4.29,15.81,15.81,0,0,0,2.86-4.77l3.43-16.31a17.33,17.33,0,0,0-1.77-5.29,14.52,14.52,0,0,0-7.58-6.87,13.62,13.62,0,0,0-5.15-1,17.78,17.78,0,0,0-9,2.38,27.09,27.09,0,0,0-7.25,6.06,28.88,28.88,0,0,0-4.86,8.2,24.22,24.22,0,0,0-1.76,8.82,21,21,0,0,0,1,6.68,17.69,17.69,0,0,0,3,5.53,14.1,14.1,0,0,0,4.58,3.77A12.87,12.87,0,0,0,698.38,115.21Z"/><path class="cls-5" d="M748.16,119.5a26.14,26.14,0,0,1-10.06-1.91,17.46,17.46,0,0,1-7.49-5.72l3-3.24a20.73,20.73,0,0,0,6.82,5.34,20,20,0,0,0,8.54,1.72,22.34,22.34,0,0,0,6.34-.86,16.9,16.9,0,0,0,5.05-2.38,11,11,0,0,0,3.34-3.72,10.22,10.22,0,0,0,1.19-5,5.64,5.64,0,0,0-3.34-5.34A48.65,48.65,0,0,0,752,95.08q-3.34-.86-5.82-1.72a18.65,18.65,0,0,1-4.15-2,7.61,7.61,0,0,1-2.53-2.62,7.48,7.48,0,0,1-.86-3.72,15.18,15.18,0,0,1,1.72-7.3,16.15,16.15,0,0,1,4.58-5.34,20.46,20.46,0,0,1,6.63-3.24,28,28,0,0,1,7.87-1.1,20.64,20.64,0,0,1,9.39,2,12.13,12.13,0,0,1,5.48,5l-3.15,2.58a10,10,0,0,0-5.1-4.29,20.26,20.26,0,0,0-7.77-1.43,21.62,21.62,0,0,0-5.63.72,14.31,14.31,0,0,0-4.72,2.19,11.21,11.21,0,0,0-3.29,3.72,10.77,10.77,0,0,0-1.24,5.29,5.14,5.14,0,0,0,.67,2.72,5.89,5.89,0,0,0,2,1.91,13.93,13.93,0,0,0,3.29,1.43q2,.62,4.67,1.29,3.72,1,6.63,1.91a22.53,22.53,0,0,1,5,2.24,9.2,9.2,0,0,1,3.1,3.05,8.16,8.16,0,0,1,1,4.24,14.49,14.49,0,0,1-1.62,6.82,16.36,16.36,0,0,1-4.48,5.34,21.19,21.19,0,0,1-6.82,3.48A28.8,28.8,0,0,1,748.16,119.5Z"/></g></g><text class="cls-6" transform="translate(881.67 1814.39)">+</text><path id="_Pfad_" data-name="&lt;Pfad&gt;" class="cls-3" d="M947.35,128.88s13.68,6.13,28.14,6h2.17c14.46.14,28.13-6,28.13-6,6.55,1,10.61-4.7,10.61-4.7l-1.79-13.68c-1.14-12.39-12.54-14.53-14.82-15.24s-10.54-3-11.68-5.56a10.43,10.43,0,0,1-.28-4.25,41.49,41.49,0,0,0,6.53-12c1.68,1.17,2.35-.28,2.35-.28,5.27-7.69,2-10.83,1.28-11.4s-1.42.43-1.42.43l-.07.21c1-20.5-16.5-21.91-18.56-22,0,0-.18,0-1.35.05a13.14,13.14,0,0,1-1.36-.05c-2,.09-19.59,1.48-18.58,22l-.07-.21s-.71-1-1.42-.43-4,3.7,1.28,11.4c0,0,.68,1.45,2.35.28a41.5,41.5,0,0,0,6.53,12A10.43,10.43,0,0,1,965,89.7c-1.14,2.57-9.4,4.85-11.68,5.56s-13.68,2.85-14.82,15.24l-1.78,13.68S940.79,129.88,947.35,128.88Z"/><rect class="cls-3" x="39" y="55" width="90" height="10"/><rect class="cls-3" x="39" y="82" width="90" height="10"/><rect class="cls-3" x="39" y="111" width="90" height="10"/><path class="cls-5" d="M33.31,202.11H42v60.1h28.8v7.3H33.31Z"/><path class="cls-5" d="M83.71,246.91c.2,11.9,7.8,16.8,16.6,16.8a31.83,31.83,0,0,0,13.4-2.5l1.5,6.3c-3.1,1.4-8.4,3-16.1,3-14.9,0-23.8-9.8-23.8-24.4S83.91,220,98,220c15.8,0,20,13.9,20,22.8a33.15,33.15,0,0,1-.3,4.1Zm25.8-6.3c.1-5.6-2.3-14.3-12.2-14.3-8.9,0-12.8,8.2-13.5,14.3Z"/><path class="cls-5" d="M128.91,234.21c0-5-.1-9.1-.4-13.1h7.8l.5,8h.2a17.8,17.8,0,0,1,16-9.1c6.7,0,17.1,4,17.1,20.6v28.9h-8.8v-27.9c0-7.8-2.9-14.3-11.2-14.3a12.5,12.5,0,0,0-11.8,9,12.64,12.64,0,0,0-.6,4.1v29.1h-8.8Z"/><path class="cls-5" d="M194.61,207.21v13.9h12.6v6.7h-12.6v26.1c0,6,1.7,9.4,6.6,9.4a19.59,19.59,0,0,0,5.1-.6l.4,6.6a21.54,21.54,0,0,1-7.8,1.2c-4.1,0-7.4-1.3-9.5-3.7-2.5-2.6-3.4-6.9-3.4-12.6v-26.4h-7.5v-6.7H186v-11.6Z"/><path class="cls-5" d="M282.11,244.91c0,17.9-12.4,25.7-24.1,25.7-13.1,0-23.2-9.6-23.2-24.9,0-16.2,10.6-25.7,24-25.7C272.71,220,282.11,230.11,282.11,244.91Zm-38.4.5c0,10.6,6.1,18.6,14.7,18.6,8.4,0,14.7-7.9,14.7-18.8,0-8.2-4.1-18.6-14.5-18.6S243.71,236.21,243.71,245.41Z"/><path class="cls-5" d="M333.71,256.31c0,5,.1,9.4.4,13.2h-7.8l-.5-7.9h-.2a18.21,18.21,0,0,1-16,9c-7.6,0-16.7-4.2-16.7-21.2v-28.3h8.8v26.8c0,9.2,2.8,15.4,10.8,15.4a12.72,12.72,0,0,0,11.6-8,12.87,12.87,0,0,0,.8-4.5v-29.7h8.8Z"/><path class="cls-5" d="M358.91,207.21v13.9h12.6v6.7h-12.6v26.1c0,6,1.7,9.4,6.6,9.4a19.58,19.58,0,0,0,5.1-.6l.4,6.6a21.54,21.54,0,0,1-7.8,1.2c-4.1,0-7.4-1.3-9.5-3.7-2.5-2.6-3.4-6.9-3.4-12.6v-26.4h-7.5v-6.7h7.5v-11.6Z"/><path d="M53.8,377.05V331.77h4.46V373.1H84.42v4Z"/><path d="M98.45,377.69a11.74,11.74,0,0,1-4.37-.8,11,11,0,0,1-3.51-2.2,9.91,9.91,0,0,1-3.16-7.34,8.18,8.18,0,0,1,1-4,9.72,9.72,0,0,1,2.87-3.19,14,14,0,0,1,4.4-2.07,20.29,20.29,0,0,1,5.61-.73,30.75,30.75,0,0,1,5.17.45,22.45,22.45,0,0,1,4.66,1.28v-3a9.64,9.64,0,0,0-2.49-7,9.11,9.11,0,0,0-6.89-2.58,14.65,14.65,0,0,0-5.23,1,25.22,25.22,0,0,0-5.42,2.93l-1.53-2.87q6.44-4.34,12.5-4.34,6.25,0,9.82,3.51t3.57,9.7v15q0,1.79,1.59,1.79v3.83a10.36,10.36,0,0,1-1.66.19,3.73,3.73,0,0,1-2.58-.83,3.11,3.11,0,0,1-1-2.3l-.13-2.62a15.07,15.07,0,0,1-5.77,4.59A17.78,17.78,0,0,1,98.45,377.69Zm1-3.32a15,15,0,0,0,6.22-1.28,10.17,10.17,0,0,0,4.31-3.38,4,4,0,0,0,.86-1.24,3.17,3.17,0,0,0,.29-1.24v-5.42a26.69,26.69,0,0,0-4.5-1.28,25.25,25.25,0,0,0-4.75-.45A13.22,13.22,0,0,0,94.43,362a5.82,5.82,0,0,0-2.87,5,6.87,6.87,0,0,0,.61,2.87,7.26,7.26,0,0,0,1.66,2.33,7.75,7.75,0,0,0,2.52,1.56A8.49,8.49,0,0,0,99.47,374.38Z"/><path d="M135.25,377.69q-5.42,0-8.07-3.6t-2.65-10.75V343.82h4.34v18.75q0,11.29,7.72,11.29a11.46,11.46,0,0,0,3.76-.64,11.81,11.81,0,0,0,3.41-1.85,15,15,0,0,0,2.81-2.87,14.46,14.46,0,0,0,2-3.76V343.82h4.34v27.62q0,1.79,1.53,1.79v3.83a8,8,0,0,1-1.24.13h-.67A3.46,3.46,0,0,1,150,376.1a3.85,3.85,0,0,1-1-2.74v-3.83a15.46,15.46,0,0,1-5.9,6A15.72,15.72,0,0,1,135.25,377.69Z"/><path d="M178.69,375.46q-.38.19-1.12.51t-1.69.64a19.6,19.6,0,0,1-2.17.57,12.41,12.41,0,0,1-2.55.26,9.26,9.26,0,0,1-2.68-.38,6.23,6.23,0,0,1-2.23-1.18,5.8,5.8,0,0,1-1.53-2,6.48,6.48,0,0,1-.57-2.81V347.27h-4.59v-3.44h4.59V332.6h4.34v11.23h7.65v3.44h-7.65v22.58a3.44,3.44,0,0,0,1.31,2.71,4.48,4.48,0,0,0,2.71.86,8.14,8.14,0,0,0,3.25-.61,14.25,14.25,0,0,0,1.79-.86Z"/><path d="M195.14,377.69a23.13,23.13,0,0,1-7.59-1.28,18.23,18.23,0,0,1-6.38-3.7l2-2.93a21.6,21.6,0,0,0,5.71,3.44,16.74,16.74,0,0,0,6.22,1.15,11.23,11.23,0,0,0,6.41-1.63,5.26,5.26,0,0,0,2.39-4.62,4,4,0,0,0-.64-2.33,5.54,5.54,0,0,0-1.88-1.63,14.75,14.75,0,0,0-3.12-1.24q-1.88-.54-4.37-1.12-2.87-.7-5-1.4a15.18,15.18,0,0,1-3.48-1.59,5.74,5.74,0,0,1-2-2.2,7.17,7.17,0,0,1-.67-3.28,9.45,9.45,0,0,1,1-4.4,9,9,0,0,1,2.68-3.16,12.16,12.16,0,0,1,4-1.88,17.7,17.7,0,0,1,4.82-.64,18.66,18.66,0,0,1,7,1.24,13.74,13.74,0,0,1,5,3.28l-2.1,2.55a11.68,11.68,0,0,0-4.5-2.87,16.11,16.11,0,0,0-5.52-1,13.72,13.72,0,0,0-3.19.35,7.68,7.68,0,0,0-2.58,1.12,5.49,5.49,0,0,0-1.75,1.95,5.75,5.75,0,0,0-.64,2.77,4.56,4.56,0,0,0,.45,2.17,3.79,3.79,0,0,0,1.47,1.44,11.88,11.88,0,0,0,2.58,1.08q1.56.48,3.79,1,3.19.77,5.61,1.53a17.65,17.65,0,0,1,4.05,1.79,7,7,0,0,1,2.46,2.49,7.17,7.17,0,0,1,.83,3.57,8.67,8.67,0,0,1-3.51,7.27Q201.08,377.69,195.14,377.69Z"/><path d="M232.14,377.69a13.12,13.12,0,0,1-7.43-2.14,17,17,0,0,1-5.2-5.39v20.47h-4.34V343.82h3.89v6.44a16.11,16.11,0,0,1,5.29-5.07,13.55,13.55,0,0,1,7.08-1.95,13.92,13.92,0,0,1,6.31,1.44,16.23,16.23,0,0,1,5,3.83A17.78,17.78,0,0,1,246,354a18.1,18.1,0,0,1,1.18,6.44,20.1,20.1,0,0,1-1.08,6.63,16.92,16.92,0,0,1-3.09,5.49,14.87,14.87,0,0,1-4.78,3.73A13.57,13.57,0,0,1,232.14,377.69Zm-1.21-3.83a10.39,10.39,0,0,0,4.88-1.15,12.14,12.14,0,0,0,3.76-3,13.6,13.6,0,0,0,2.39-4.27,15,15,0,0,0,.83-4.94,13.77,13.77,0,0,0-1-5.1,14.1,14.1,0,0,0-2.62-4.27,12.44,12.44,0,0,0-3.92-2.93,11.16,11.16,0,0,0-4.88-1.08,10,10,0,0,0-3.48.67,14.31,14.31,0,0,0-3.38,1.79,12,12,0,0,0-2.68,2.62,7,7,0,0,0-1.37,3.16v10.21a15.22,15.22,0,0,0,1.95,3.32,13.69,13.69,0,0,0,2.68,2.65,12.77,12.77,0,0,0,3.22,1.75A10.19,10.19,0,0,0,230.93,373.87Z"/><path d="M271.11,347.65a13.65,13.65,0,0,0-7.65,2.42,12.22,12.22,0,0,0-4.59,6.31v20.67h-4.34V343.82h4.08v8a15.11,15.11,0,0,1,5-6,11.53,11.53,0,0,1,6.7-2.17,4.42,4.42,0,0,1,.83.06Z"/><path d="M289.61,377.69a16,16,0,0,1-6.67-1.37,16.33,16.33,0,0,1-5.26-3.76A17.46,17.46,0,0,1,274.2,367a17.94,17.94,0,0,1-1.24-6.7,17.54,17.54,0,0,1,1.24-6.6,17.09,17.09,0,0,1,3.44-5.42,16.37,16.37,0,0,1,5.26-3.7,16.8,16.8,0,0,1,13.3,0,15.87,15.87,0,0,1,5.2,3.73A17.52,17.52,0,0,1,306,360.28v1a2.58,2.58,0,0,1-.06.7H277.49a14,14,0,0,0,1.24,4.94,13.57,13.57,0,0,0,2.71,3.92,12.11,12.11,0,0,0,3.8,2.58,11.34,11.34,0,0,0,4.56.93,11.78,11.78,0,0,0,3.19-.45,12.87,12.87,0,0,0,2.93-1.21,10.93,10.93,0,0,0,2.42-1.88,8.07,8.07,0,0,0,1.66-2.46l3.76,1a11.06,11.06,0,0,1-2.17,3.35,15.11,15.11,0,0,1-3.25,2.61,15.91,15.91,0,0,1-4.08,1.72A17.71,17.71,0,0,1,289.61,377.69Zm12.25-19a13.42,13.42,0,0,0-1.24-4.88,13.28,13.28,0,0,0-2.68-3.8,11.87,11.87,0,0,0-3.76-2.49,11.71,11.71,0,0,0-4.56-.89,11.94,11.94,0,0,0-4.59.89,11.77,11.77,0,0,0-3.79,2.49,12.23,12.23,0,0,0-2.62,3.83,14.48,14.48,0,0,0-1.18,4.85Z"/><path d="M310.4,360.34a18.18,18.18,0,0,1,1.21-6.63,16.57,16.57,0,0,1,3.41-5.45,15.94,15.94,0,0,1,5.26-3.67,16.69,16.69,0,0,1,6.76-1.34,15.51,15.51,0,0,1,8.23,2.14,13.74,13.74,0,0,1,5.29,5.77l-4.21,1.34a10.12,10.12,0,0,0-3.92-4,11.57,11.57,0,0,0-10.33-.41,12.13,12.13,0,0,0-3.83,2.77,12.75,12.75,0,0,0-2.55,4.18,15.37,15.37,0,0,0,0,10.59,13.5,13.5,0,0,0,2.62,4.31,12.45,12.45,0,0,0,3.86,2.87,10.73,10.73,0,0,0,4.69,1.05,11.44,11.44,0,0,0,3.16-.45,12.13,12.13,0,0,0,2.9-1.24,10.42,10.42,0,0,0,2.3-1.82,5.9,5.9,0,0,0,1.34-2.17l4.27,1.28a10.87,10.87,0,0,1-2,3.29,14,14,0,0,1-3.16,2.61,15.45,15.45,0,0,1-4,1.72,17.11,17.11,0,0,1-4.56.61,16.14,16.14,0,0,1-12-5.13,17.46,17.46,0,0,1-3.48-5.52A17.94,17.94,0,0,1,310.4,360.34Z"/><path d="M375.65,377.05h-4.34V358.49q0-5.68-1.95-8.48a6.51,6.51,0,0,0-5.71-2.81,9.74,9.74,0,0,0-3.67.73,13.56,13.56,0,0,0-3.41,2,13.81,13.81,0,0,0-2.77,3,12.68,12.68,0,0,0-1.75,3.76v20.35h-4.34V330.49h4.34v20.86a15.06,15.06,0,0,1,5.49-5.93,14.17,14.17,0,0,1,7.59-2.17A10.21,10.21,0,0,1,370,344.3a9,9,0,0,1,3.25,2.93,12.85,12.85,0,0,1,1.85,4.53,27.57,27.57,0,0,1,.57,5.84Z"/><path d="M399.25,377.69a16,16,0,0,1-6.67-1.37,16.33,16.33,0,0,1-5.26-3.76,17.46,17.46,0,0,1-3.48-5.52,17.94,17.94,0,0,1-1.24-6.7,17.54,17.54,0,0,1,1.24-6.6,17.09,17.09,0,0,1,3.44-5.42,16.37,16.37,0,0,1,5.26-3.7,16.8,16.8,0,0,1,13.3,0,15.87,15.87,0,0,1,5.2,3.73,17.52,17.52,0,0,1,4.59,11.93v1a2.58,2.58,0,0,1-.06.7H387.13a14,14,0,0,0,1.24,4.94,13.57,13.57,0,0,0,2.71,3.92,12.11,12.11,0,0,0,3.8,2.58,11.34,11.34,0,0,0,4.56.93,11.78,11.78,0,0,0,3.19-.45,12.87,12.87,0,0,0,2.93-1.21,10.93,10.93,0,0,0,2.42-1.88,8.07,8.07,0,0,0,1.66-2.46l3.76,1a11.06,11.06,0,0,1-2.17,3.35,15.11,15.11,0,0,1-3.25,2.61,15.91,15.91,0,0,1-4.08,1.72A17.71,17.71,0,0,1,399.25,377.69Zm12.25-19a13.42,13.42,0,0,0-1.24-4.88,13.28,13.28,0,0,0-2.68-3.8,11.87,11.87,0,0,0-3.76-2.49,11.71,11.71,0,0,0-4.56-.89,11.94,11.94,0,0,0-4.59.89,11.77,11.77,0,0,0-3.79,2.49,12.23,12.23,0,0,0-2.62,3.83,14.48,14.48,0,0,0-1.18,4.85Z"/><path d="M438.92,347.65a13.65,13.65,0,0,0-7.65,2.42,12.22,12.22,0,0,0-4.59,6.31v20.67h-4.34V343.82h4.08v8a15.11,15.11,0,0,1,5-6,11.53,11.53,0,0,1,6.7-2.17,4.42,4.42,0,0,1,.83.06Z"/><path d="M73.8,432.26V415.43l-7.47,13H65.15l-7.48-13v16.83h-2V411.76h2.08l8,14,8.05-14h2v20.49Z"/><path d="M84.2,432.54a5.32,5.32,0,0,1-2-.36,5,5,0,0,1-1.59-1,4.48,4.48,0,0,1-1.43-3.32,3.7,3.7,0,0,1,.46-1.82,4.4,4.4,0,0,1,1.3-1.44,6.37,6.37,0,0,1,2-.94,9.19,9.19,0,0,1,2.54-.33,13.92,13.92,0,0,1,2.34.2,10.19,10.19,0,0,1,2.11.58v-1.36a4.37,4.37,0,0,0-1.13-3.16,4.12,4.12,0,0,0-3.12-1.17,6.63,6.63,0,0,0-2.37.46,11.42,11.42,0,0,0-2.45,1.33l-.69-1.3a10.16,10.16,0,0,1,5.66-2,6.07,6.07,0,0,1,4.44,1.59,5.87,5.87,0,0,1,1.62,4.39v6.78q0,.81.72.81v1.73a4.69,4.69,0,0,1-.75.09A1.69,1.69,0,0,1,90.7,432a1.41,1.41,0,0,1-.45-1l-.06-1.18a6.82,6.82,0,0,1-2.61,2.08A8,8,0,0,1,84.2,432.54Zm.46-1.5a6.78,6.78,0,0,0,2.81-.58,4.6,4.6,0,0,0,1.95-1.53,1.81,1.81,0,0,0,.39-.56,1.44,1.44,0,0,0,.13-.56v-2.45a12.1,12.1,0,0,0-2-.58,11.43,11.43,0,0,0-2.15-.2,6,6,0,0,0-3.38.87,2.63,2.63,0,0,0-1.3,2.28,3.11,3.11,0,0,0,.27,1.3,3.29,3.29,0,0,0,.75,1.05,3.49,3.49,0,0,0,1.14.71A3.84,3.84,0,0,0,84.66,431Z"/><path d="M96.52,417.22l4.5,5.89.23.43.23-.43,4.5-5.89h2.11l-5.74,7.56,5.74,7.48H106l-4.5-5.86-.23-.4-.23.4-4.5,5.86H94.41l5.74-7.48-5.74-7.56Z"/><path d="M136.61,432.26V415.43l-7.47,13h-1.18l-7.48-13v16.83h-2V411.76h2.08l8,14,8.05-14h2v20.49Z"/><path d="M148.07,432.54a4.23,4.23,0,0,1-3.65-1.63,8.18,8.18,0,0,1-1.2-4.86v-8.83h2v8.49q0,5.11,3.49,5.11a5.19,5.19,0,0,0,1.7-.29,5.35,5.35,0,0,0,1.54-.84,6.76,6.76,0,0,0,1.27-1.3,6.54,6.54,0,0,0,.91-1.7v-9.47h2v12.5q0,.81.69.81v1.73a3.56,3.56,0,0,1-.56.06h-.3a1.57,1.57,0,0,1-1.13-.49,1.74,1.74,0,0,1-.43-1.24v-1.73a7,7,0,0,1-2.67,2.73A7.11,7.11,0,0,1,148.07,432.54Z"/><path d="M165.5,432.54a10.46,10.46,0,0,1-3.43-.58,8.25,8.25,0,0,1-2.89-1.67l.89-1.33a9.8,9.8,0,0,0,2.58,1.56,7.58,7.58,0,0,0,2.81.52,5.08,5.08,0,0,0,2.9-.74,2.38,2.38,0,0,0,1.08-2.09,1.82,1.82,0,0,0-.29-1.05,2.51,2.51,0,0,0-.85-.74,6.68,6.68,0,0,0-1.41-.56q-.85-.25-2-.51-1.3-.32-2.25-.63a6.87,6.87,0,0,1-1.57-.72,2.6,2.6,0,0,1-.92-1,3.25,3.25,0,0,1-.3-1.49,4.27,4.27,0,0,1,.45-2,4.05,4.05,0,0,1,1.21-1.43,5.5,5.5,0,0,1,1.79-.85,8,8,0,0,1,2.18-.29,8.45,8.45,0,0,1,3.15.56,6.23,6.23,0,0,1,2.28,1.49l-1,1.15a5.28,5.28,0,0,0-2-1.3,7.29,7.29,0,0,0-2.5-.43,6.22,6.22,0,0,0-1.44.16,3.47,3.47,0,0,0-1.17.51,2.48,2.48,0,0,0-.79.88,2.6,2.6,0,0,0-.29,1.26,2.06,2.06,0,0,0,.2,1,1.72,1.72,0,0,0,.66.65,5.37,5.37,0,0,0,1.17.49q.71.22,1.72.45,1.44.35,2.54.69a8,8,0,0,1,1.83.81,3.19,3.19,0,0,1,1.11,1.13,3.24,3.24,0,0,1,.38,1.62,3.92,3.92,0,0,1-1.59,3.29A6.87,6.87,0,0,1,165.5,432.54Z"/><path d="M181.77,431.53l-.5.23q-.33.15-.77.29a8.79,8.79,0,0,1-1,.26,5.62,5.62,0,0,1-1.15.12,4.2,4.2,0,0,1-1.21-.17,2.82,2.82,0,0,1-1-.53,2.63,2.63,0,0,1-.69-.91,2.94,2.94,0,0,1-.26-1.27V418.78h-2.08v-1.56h2.08v-5.08h2v5.08h3.46v1.56h-3.46V429a1.56,1.56,0,0,0,.59,1.23,2,2,0,0,0,1.23.39,3.68,3.68,0,0,0,1.47-.27,6.45,6.45,0,0,0,.81-.39Z"/><path d="M190.35,432.54a7.23,7.23,0,0,1-3-.62,7.39,7.39,0,0,1-2.38-1.7,7.9,7.9,0,0,1-1.57-2.5,8.11,8.11,0,0,1-.56-3,7.93,7.93,0,0,1,.56-3,7.73,7.73,0,0,1,1.56-2.45,7.4,7.4,0,0,1,2.38-1.67,7.6,7.6,0,0,1,6,0,7.18,7.18,0,0,1,2.35,1.69,7.93,7.93,0,0,1,2.08,5.4v.46a1.17,1.17,0,0,1,0,.32H184.86a6.32,6.32,0,0,0,.56,2.24,6.14,6.14,0,0,0,1.23,1.78,5.47,5.47,0,0,0,1.72,1.17,5.13,5.13,0,0,0,2.06.42,5.33,5.33,0,0,0,1.44-.2,5.83,5.83,0,0,0,1.33-.55,4.93,4.93,0,0,0,1.1-.85,3.65,3.65,0,0,0,.75-1.11l1.7.46a5,5,0,0,1-1,1.52,6.84,6.84,0,0,1-1.47,1.18,7.2,7.2,0,0,1-1.85.78A8,8,0,0,1,190.35,432.54Zm5.54-8.6a6,6,0,0,0-1.77-3.93,5.38,5.38,0,0,0-1.7-1.13,5.31,5.31,0,0,0-2.06-.4,5.41,5.41,0,0,0-2.08.4,5.33,5.33,0,0,0-1.72,1.13,5.54,5.54,0,0,0-1.18,1.73,6.55,6.55,0,0,0-.53,2.19Z"/><path d="M208.3,419a6.18,6.18,0,0,0-3.46,1.1,5.54,5.54,0,0,0-2.08,2.86v9.35h-2v-15h1.85v3.61a6.84,6.84,0,0,1,2.25-2.71,5.22,5.22,0,0,1,3-1,2,2,0,0,1,.38,0Z"/><path d="M233.29,432.26h-2v-8.4a7,7,0,0,0-.84-3.87,2.8,2.8,0,0,0-2.48-1.24,4.22,4.22,0,0,0-1.63.32A5,5,0,0,0,225,420a6.14,6.14,0,0,0-1.14,1.37,6.59,6.59,0,0,0-.75,1.75v9.18h-2v-8.4a7.22,7.22,0,0,0-.81-3.9,2.78,2.78,0,0,0-2.48-1.21,4.43,4.43,0,0,0-3,1.18,6.59,6.59,0,0,0-1.91,3.12v9.21h-2v-15h1.79v3.41a7.1,7.1,0,0,1,2.42-2.7,6,6,0,0,1,3.32-1,4.27,4.27,0,0,1,3,1.07,4.65,4.65,0,0,1,1.4,2.8Q225,417,228.7,417a4.59,4.59,0,0,1,2.15.46,3.64,3.64,0,0,1,1.41,1.31,6.16,6.16,0,0,1,.78,2,13.34,13.34,0,0,1,.25,2.67Z"/><path d="M241.23,432.54a5.32,5.32,0,0,1-2-.36,5,5,0,0,1-1.59-1,4.48,4.48,0,0,1-1.43-3.32,3.7,3.7,0,0,1,.46-1.82,4.4,4.4,0,0,1,1.3-1.44,6.37,6.37,0,0,1,2-.94,9.19,9.19,0,0,1,2.54-.33,13.92,13.92,0,0,1,2.34.2,10.19,10.19,0,0,1,2.11.58v-1.36a4.37,4.37,0,0,0-1.13-3.16,4.12,4.12,0,0,0-3.12-1.17,6.63,6.63,0,0,0-2.37.46,11.42,11.42,0,0,0-2.45,1.33l-.69-1.3a10.16,10.16,0,0,1,5.66-2,6.07,6.07,0,0,1,4.44,1.59,5.87,5.87,0,0,1,1.62,4.39v6.78q0,.81.72.81v1.73a4.69,4.69,0,0,1-.75.09,1.69,1.69,0,0,1-1.17-.37,1.41,1.41,0,0,1-.45-1l-.06-1.18a6.82,6.82,0,0,1-2.61,2.08A8,8,0,0,1,241.23,432.54Zm.46-1.5a6.78,6.78,0,0,0,2.81-.58,4.6,4.6,0,0,0,1.95-1.53,1.81,1.81,0,0,0,.39-.56,1.44,1.44,0,0,0,.13-.56v-2.45a12.1,12.1,0,0,0-2-.58,11.43,11.43,0,0,0-2.15-.2,6,6,0,0,0-3.38.87,2.63,2.63,0,0,0-1.3,2.28,3.11,3.11,0,0,0,.27,1.3,3.29,3.29,0,0,0,.75,1.05,3.49,3.49,0,0,0,1.14.71A3.84,3.84,0,0,0,241.69,431Z"/><path d="M265.82,432.26h-2v-8.4a7.33,7.33,0,0,0-.79-3.9,2.71,2.71,0,0,0-2.44-1.21,5,5,0,0,0-1.73.32,5.85,5.85,0,0,0-1.6.89,6.84,6.84,0,0,0-1.31,1.37,5.37,5.37,0,0,0-.84,1.72v9.21h-2v-15H255v3.41a7.06,7.06,0,0,1,2.64-2.66,7.24,7.24,0,0,1,3.74-1,4.43,4.43,0,0,1,2.11.46,3.6,3.6,0,0,1,1.39,1.3,6,6,0,0,1,.75,2,14.39,14.39,0,0,1,.23,2.68Z"/><path d="M282.65,432.26h-2v-8.4a7.33,7.33,0,0,0-.79-3.9,2.71,2.71,0,0,0-2.44-1.21,5,5,0,0,0-1.73.32,5.85,5.85,0,0,0-1.6.89,6.84,6.84,0,0,0-1.31,1.37A5.37,5.37,0,0,0,272,423v9.21h-2v-15h1.79v3.41a7.06,7.06,0,0,1,2.64-2.66,7.24,7.24,0,0,1,3.74-1,4.43,4.43,0,0,1,2.11.46,3.6,3.6,0,0,1,1.39,1.3,6,6,0,0,1,.75,2,14.39,14.39,0,0,1,.23,2.68Z"/><path d="M784.36,362a10.56,10.56,0,0,1,6.73,3.83,11.91,11.91,0,0,1,2.52,7.72,12.93,12.93,0,0,1-1.05,5.26,11.44,11.44,0,0,1-3,4.08,13.82,13.82,0,0,1-4.66,2.61,18.59,18.59,0,0,1-6,.93,17.72,17.72,0,0,1-8.48-1.95,13,13,0,0,1-5.49-5.39l3-2.74a10.33,10.33,0,0,0,4.08,4.46,13.12,13.12,0,0,0,6.89,1.66,11.27,11.27,0,0,0,7.53-2.33,8.26,8.26,0,0,0,2.74-6.67,8.83,8.83,0,0,0-2.87-7Q783.41,364,778,364h-1.6v-3.7h1.72q4.91,0,7.53-2.26a7.43,7.43,0,0,0,2.62-5.9,7.73,7.73,0,0,0-.7-3.38,6.89,6.89,0,0,0-1.95-2.46,8.7,8.7,0,0,0-2.93-1.5,12.65,12.65,0,0,0-3.67-.51,12.44,12.44,0,0,0-6.41,1.63,10.41,10.41,0,0,0-4.18,4.5l-2.81-2.68a10.22,10.22,0,0,1,2.17-3,14,14,0,0,1,3.19-2.33,17.15,17.15,0,0,1,4-1.5,18.37,18.37,0,0,1,4.46-.54,16.79,16.79,0,0,1,5.39.83,13,13,0,0,1,4.24,2.33,10.47,10.47,0,0,1,2.77,3.6,10.83,10.83,0,0,1,1,4.66,11.71,11.71,0,0,1-.57,3.67,10,10,0,0,1-1.66,3.13,9.5,9.5,0,0,1-2.65,2.3A9.17,9.17,0,0,1,784.36,362Z"/><path d="M832.07,358.37a23.82,23.82,0,0,1-1.21,7.75,19.34,19.34,0,0,1-3.35,6.12,15.19,15.19,0,0,1-5.07,4,14.89,14.89,0,0,1-12.76,0,15.17,15.17,0,0,1-5.07-4,19.28,19.28,0,0,1-3.35-6.12,25.36,25.36,0,0,1,0-15.5,19.28,19.28,0,0,1,3.35-6.12,15.55,15.55,0,0,1,5.07-4.05,14.6,14.6,0,0,1,12.76,0,15.56,15.56,0,0,1,5.07,4.05,19.34,19.34,0,0,1,3.35,6.12A23.83,23.83,0,0,1,832.07,358.37Zm-4.4,0a21.26,21.26,0,0,0-.86-6.25,15.24,15.24,0,0,0-2.39-4.82,10.94,10.94,0,0,0-3.67-3.12,10,10,0,0,0-4.69-1.12,10.11,10.11,0,0,0-4.75,1.12,11,11,0,0,0-3.67,3.13,15.26,15.26,0,0,0-2.39,4.82,23.11,23.11,0,0,0,0,12.5,15.24,15.24,0,0,0,2.39,4.82,10.61,10.61,0,0,0,3.67,3.09,10.34,10.34,0,0,0,4.75,1.08,10.2,10.2,0,0,0,4.69-1.08,10.6,10.6,0,0,0,3.67-3.09,15.22,15.22,0,0,0,2.39-4.82A21.25,21.25,0,0,0,827.67,358.37Z"/><path d="M875.76,377.37a19.17,19.17,0,0,1-8.64-1.95,21.46,21.46,0,0,1-6.73-5.17,23.46,23.46,0,0,1-4.34-7.37,24.28,24.28,0,0,1-1.53-8.48,23.55,23.55,0,0,1,1.63-8.67,23.92,23.92,0,0,1,4.5-7.33,21.75,21.75,0,0,1,6.76-5.07,19.08,19.08,0,0,1,8.42-1.88,18.68,18.68,0,0,1,8.64,2,21.7,21.7,0,0,1,6.7,5.26,24.32,24.32,0,0,1,4.3,7.37,23.86,23.86,0,0,1,1.53,8.39,23.55,23.55,0,0,1-1.63,8.67,23.83,23.83,0,0,1-4.46,7.3,21.6,21.6,0,0,1-6.73,5A19.09,19.09,0,0,1,875.76,377.37Zm-16.78-23a21.1,21.1,0,0,0,1.21,7.11,19.33,19.33,0,0,0,3.44,6.06,16.93,16.93,0,0,0,5.29,4.21,14.78,14.78,0,0,0,6.82,1.56,14.59,14.59,0,0,0,7-1.66,17,17,0,0,0,5.29-4.34,20.08,20.08,0,0,0,3.35-6.06,20.83,20.83,0,0,0-.06-14,19.46,19.46,0,0,0-3.48-6,17.15,17.15,0,0,0-5.29-4.18,14.66,14.66,0,0,0-6.76-1.56,14.84,14.84,0,0,0-7,1.63,16.57,16.57,0,0,0-5.29,4.31,20,20,0,0,0-3.35,6.06A20.76,20.76,0,0,0,859,354.41Z"/><path d="M902.23,360.34a18.18,18.18,0,0,1,1.21-6.63,16.58,16.58,0,0,1,3.41-5.45,16,16,0,0,1,5.26-3.67,16.68,16.68,0,0,1,6.76-1.34,15.51,15.51,0,0,1,8.23,2.14,13.73,13.73,0,0,1,5.29,5.77l-4.21,1.34a10.12,10.12,0,0,0-3.92-4,11.57,11.57,0,0,0-10.33-.41,12.12,12.12,0,0,0-3.83,2.77,12.76,12.76,0,0,0-2.55,4.18,15.36,15.36,0,0,0,0,10.59,13.49,13.49,0,0,0,2.62,4.31,12.45,12.45,0,0,0,3.86,2.87,10.73,10.73,0,0,0,4.69,1.05,11.44,11.44,0,0,0,3.16-.45,12.12,12.12,0,0,0,2.9-1.24,10.41,10.41,0,0,0,2.3-1.82,5.92,5.92,0,0,0,1.34-2.17l4.27,1.28a10.89,10.89,0,0,1-2,3.29,14,14,0,0,1-3.16,2.61,15.44,15.44,0,0,1-4,1.72,17.11,17.11,0,0,1-4.56.61,16.14,16.14,0,0,1-12-5.13,17.47,17.47,0,0,1-3.48-5.52A17.94,17.94,0,0,1,902.23,360.34Z"/><path d="M955.49,375.46c-.25.13-.63.3-1.12.51s-1.05.43-1.69.64a19.6,19.6,0,0,1-2.17.57,12.41,12.41,0,0,1-2.55.26,9.27,9.27,0,0,1-2.68-.38,6.25,6.25,0,0,1-2.23-1.18,5.8,5.8,0,0,1-1.53-2,6.48,6.48,0,0,1-.57-2.81V347.27h-4.59v-3.44H941V332.6h4.34v11.23h7.65v3.44h-7.65v22.58a3.44,3.44,0,0,0,1.31,2.71,4.48,4.48,0,0,0,2.71.86,8.13,8.13,0,0,0,3.25-.61,14.19,14.19,0,0,0,1.79-.86Z"/><path d="M998.29,373.1v4H976.67v-4h9.06V345.8a7,7,0,0,1-1.75,1.66,21.22,21.22,0,0,1-2.74,1.66,20.62,20.62,0,0,1-3.09,1.28,9.35,9.35,0,0,1-2.81.51v-4.21a7.61,7.61,0,0,0,3.22-.83,23.1,23.1,0,0,0,3.32-1.91,29,29,0,0,0,2.65-2,5.53,5.53,0,0,0,1.21-1.28h4.46V373.1Z"/><path d="M1034.33,364.49a11.28,11.28,0,0,1-1.28,5.39,13.08,13.08,0,0,1-3.44,4.11,15.74,15.74,0,0,1-5.07,2.65,20,20,0,0,1-6.09.92,18,18,0,0,1-6.25-1.05,15.5,15.5,0,0,1-4.94-2.87,13,13,0,0,1-3.22-4.24,11.91,11.91,0,0,1-1.15-5.17,10.05,10.05,0,0,1,.8-4,12.11,12.11,0,0,1,2.07-3.29,14.13,14.13,0,0,1,2.9-2.49,15.22,15.22,0,0,1,3.29-1.63,15.51,15.51,0,0,1-2.87-1.56,11.87,11.87,0,0,1-2.36-2.14,10.1,10.1,0,0,1-1.63-2.68,8.1,8.1,0,0,1-.61-3.13,9.45,9.45,0,0,1,1.28-4.94,12.1,12.1,0,0,1,3.28-3.6,15,15,0,0,1,4.53-2.23,17.18,17.18,0,0,1,10.14,0,15.47,15.47,0,0,1,4.53,2.2,11.62,11.62,0,0,1,3.28,3.6,9.51,9.51,0,0,1,1.28,4.91,8.1,8.1,0,0,1-.61,3.13,10.22,10.22,0,0,1-1.66,2.71,11.77,11.77,0,0,1-2.42,2.17,16.48,16.48,0,0,1-2.9,1.56,15.06,15.06,0,0,1,3.51,1.75,14.09,14.09,0,0,1,2.9,2.58,11.86,11.86,0,0,1,2,3.32A10.82,10.82,0,0,1,1034.33,364.49Zm-4.4-.32a7.91,7.91,0,0,0-1-4.05,9.66,9.66,0,0,0-2.68-3,12.63,12.63,0,0,0-3.7-1.85,13.46,13.46,0,0,0-4-.64,12.64,12.64,0,0,0-4.08.67,12,12,0,0,0-3.57,1.91,9.48,9.48,0,0,0-2.55,3,8.25,8.25,0,0,0-1,4,7.77,7.77,0,0,0,1,4,9.8,9.8,0,0,0,2.65,3,12.19,12.19,0,0,0,3.64,1.85,13.29,13.29,0,0,0,4,.64,12.74,12.74,0,0,0,4.05-.67,12,12,0,0,0,3.6-1.91,10,10,0,0,0,2.58-3A7.86,7.86,0,0,0,1029.93,364.17Zm-21.11-20.67a6.07,6.07,0,0,0,.89,3.28,8.29,8.29,0,0,0,2.3,2.42,10.52,10.52,0,0,0,3.16,1.5,11.77,11.77,0,0,0,6.86,0,10.6,10.6,0,0,0,3.16-1.53,8.35,8.35,0,0,0,2.33-2.49,6.25,6.25,0,0,0,.89-3.32,6.33,6.33,0,0,0-.83-3.22,7.74,7.74,0,0,0-2.2-2.42,10.12,10.12,0,0,0-3.16-1.5,13.41,13.41,0,0,0-3.7-.51,12.15,12.15,0,0,0-3.6.54,10.25,10.25,0,0,0-3.09,1.53,7.76,7.76,0,0,0-2.17,2.46A6.49,6.49,0,0,0,1008.81,343.5Z"/><path d="M920.39,432.26a11.55,11.55,0,0,1,.17-2,6.88,6.88,0,0,1,.68-2,7.34,7.34,0,0,1,1.44-1.89,10.55,10.55,0,0,1,2.5-1.72q.84-.43,1.75-.85a11.59,11.59,0,0,0,1.67-.94,5.25,5.25,0,0,0,1.26-1.17,2.44,2.44,0,0,0,.49-1.52,2.58,2.58,0,0,0-.25-1.08,2.86,2.86,0,0,0-.72-1,3.72,3.72,0,0,0-1.18-.68,4.82,4.82,0,0,0-1.66-.26,4.94,4.94,0,0,0-1.7.27,6.19,6.19,0,0,0-1.31.65,5.86,5.86,0,0,0-1,.79,9.08,9.08,0,0,0-.61.68l-1.3-1.41.66-.63a7.07,7.07,0,0,1,1.28-.92,10.22,10.22,0,0,1,1.86-.82,7.45,7.45,0,0,1,2.4-.36,7.2,7.2,0,0,1,2.37.36,5.23,5.23,0,0,1,1.76,1,4.31,4.31,0,0,1,1.1,1.46,4.09,4.09,0,0,1,.38,1.72,3.91,3.91,0,0,1-.52,2,5.86,5.86,0,0,1-1.28,1.5,9.09,9.09,0,0,1-1.63,1.08q-.87.45-1.56.76a18.66,18.66,0,0,0-1.8.91,9.77,9.77,0,0,0-1.57,1.11,5.62,5.62,0,0,0-1.14,1.36,3.2,3.2,0,0,0-.45,1.67h10.27v1.79Z"/><path d="M935.43,432.26a11.55,11.55,0,0,1,.17-2,6.88,6.88,0,0,1,.68-2,7.34,7.34,0,0,1,1.44-1.89,10.55,10.55,0,0,1,2.5-1.72q.84-.43,1.75-.85a11.59,11.59,0,0,0,1.67-.94,5.25,5.25,0,0,0,1.26-1.17,2.44,2.44,0,0,0,.49-1.52,2.58,2.58,0,0,0-.25-1.08,2.86,2.86,0,0,0-.72-1,3.72,3.72,0,0,0-1.18-.68,4.82,4.82,0,0,0-1.66-.26,4.94,4.94,0,0,0-1.7.27,6.19,6.19,0,0,0-1.31.65,5.86,5.86,0,0,0-1,.79,9.08,9.08,0,0,0-.61.68l-1.3-1.41.66-.63a7.07,7.07,0,0,1,1.28-.92,10.22,10.22,0,0,1,1.86-.82,7.45,7.45,0,0,1,2.4-.36,7.2,7.2,0,0,1,2.37.36,5.23,5.23,0,0,1,1.76,1,4.31,4.31,0,0,1,1.1,1.46,4.09,4.09,0,0,1,.38,1.72,3.91,3.91,0,0,1-.52,2,5.86,5.86,0,0,1-1.28,1.5,9.09,9.09,0,0,1-1.63,1.08q-.87.45-1.56.76a18.66,18.66,0,0,0-1.8.91,9.77,9.77,0,0,0-1.57,1.11,5.62,5.62,0,0,0-1.14,1.36,3.2,3.2,0,0,0-.45,1.67h10.27v1.79Z"/><path d="M967.38,432.4a8.67,8.67,0,0,1-3.91-.88,9.72,9.72,0,0,1-3-2.34,10.63,10.63,0,0,1-2-3.33,11,11,0,0,1-.69-3.84,10.64,10.64,0,0,1,.74-3.93,10.81,10.81,0,0,1,2-3.32,9.85,9.85,0,0,1,3.06-2.29,8.64,8.64,0,0,1,3.81-.85,8.45,8.45,0,0,1,3.91.91,9.81,9.81,0,0,1,3,2.38,11,11,0,0,1,1.95,3.33A10.8,10.8,0,0,1,977,422a10.64,10.64,0,0,1-.74,3.92,10.79,10.79,0,0,1-2,3.3,9.78,9.78,0,0,1-3,2.28A8.63,8.63,0,0,1,967.38,432.4ZM959.79,422a9.55,9.55,0,0,0,.55,3.22,8.74,8.74,0,0,0,1.56,2.74,7.65,7.65,0,0,0,2.4,1.9,6.69,6.69,0,0,0,3.09.71,6.6,6.6,0,0,0,3.15-.75,7.67,7.67,0,0,0,2.4-2,9.07,9.07,0,0,0,1.52-2.74,9.43,9.43,0,0,0,0-6.33,8.8,8.8,0,0,0-1.57-2.73,7.76,7.76,0,0,0-2.39-1.89,6.63,6.63,0,0,0-3.06-.71,6.71,6.71,0,0,0-3.15.74,7.48,7.48,0,0,0-2.4,1.95,9.08,9.08,0,0,0-1.52,2.74A9.41,9.41,0,0,0,959.79,422Z"/><path d="M979.35,424.69a8.22,8.22,0,0,1,.55-3,7.49,7.49,0,0,1,1.54-2.47,7.22,7.22,0,0,1,2.38-1.66,7.56,7.56,0,0,1,3.06-.61,7,7,0,0,1,3.72,1,6.22,6.22,0,0,1,2.4,2.61l-1.91.61a4.57,4.57,0,0,0-1.77-1.8,5.24,5.24,0,0,0-4.68-.19,5.49,5.49,0,0,0-1.73,1.26,5.77,5.77,0,0,0-1.15,1.89,6.94,6.94,0,0,0,0,4.79A6.1,6.1,0,0,0,983,429a5.64,5.64,0,0,0,1.75,1.3,4.85,4.85,0,0,0,2.12.48,5.17,5.17,0,0,0,1.43-.2,5.48,5.48,0,0,0,1.31-.56,4.71,4.71,0,0,0,1-.82,2.67,2.67,0,0,0,.61-1l1.93.58a4.91,4.91,0,0,1-.92,1.49,6.37,6.37,0,0,1-1.43,1.18,7,7,0,0,1-1.82.78,7.74,7.74,0,0,1-2.06.27,7.3,7.3,0,0,1-5.43-2.32,7.89,7.89,0,0,1-1.57-2.5A8.1,8.1,0,0,1,979.35,424.69Z"/><path d="M1003.45,431.53l-.5.23q-.33.15-.76.29a8.83,8.83,0,0,1-1,.26,5.62,5.62,0,0,1-1.15.12,4.21,4.21,0,0,1-1.21-.17,2.82,2.82,0,0,1-1-.53,2.63,2.63,0,0,1-.69-.91,2.94,2.94,0,0,1-.26-1.27V418.78h-2.08v-1.56h2.08v-5.08h2v5.08h3.46v1.56h-3.46V429a1.56,1.56,0,0,0,.59,1.23,2,2,0,0,0,1.23.39,3.68,3.68,0,0,0,1.47-.27,6.49,6.49,0,0,0,.81-.39Z"/><path d="M1022.82,430.47v1.79H1013v-1.79h4.1V418.11a3.17,3.17,0,0,1-.79.75,9.76,9.76,0,0,1-1.24.75,9.29,9.29,0,0,1-1.4.58,4.23,4.23,0,0,1-1.27.23v-1.9a3.45,3.45,0,0,0,1.46-.37,10.48,10.48,0,0,0,1.5-.87,13.09,13.09,0,0,0,1.2-.92,2.46,2.46,0,0,0,.55-.58h2v14.69Z"/><path d="M1039.12,426.57a5.1,5.1,0,0,1-.58,2.44,5.91,5.91,0,0,1-1.56,1.86,7.13,7.13,0,0,1-2.29,1.2,9,9,0,0,1-2.76.42,8.15,8.15,0,0,1-2.83-.48,7,7,0,0,1-2.24-1.3,5.87,5.87,0,0,1-1.46-1.92,5.39,5.39,0,0,1-.52-2.34,4.55,4.55,0,0,1,.36-1.82,5.47,5.47,0,0,1,.94-1.49,6.41,6.41,0,0,1,1.31-1.13,6.91,6.91,0,0,1,1.49-.74,7,7,0,0,1-1.3-.71,5.4,5.4,0,0,1-1.07-1,4.59,4.59,0,0,1-.74-1.21,3.67,3.67,0,0,1-.27-1.41,4.27,4.27,0,0,1,.58-2.24,5.47,5.47,0,0,1,1.49-1.63,6.77,6.77,0,0,1,2-1,7.77,7.77,0,0,1,4.59,0,7,7,0,0,1,2,1,5.24,5.24,0,0,1,1.49,1.63,4.3,4.3,0,0,1,.58,2.22,3.67,3.67,0,0,1-.27,1.41,4.61,4.61,0,0,1-.75,1.23,5.34,5.34,0,0,1-1.1,1,7.46,7.46,0,0,1-1.31.71,6.82,6.82,0,0,1,1.59.79,6.39,6.39,0,0,1,1.31,1.17,5.33,5.33,0,0,1,.89,1.5A4.88,4.88,0,0,1,1039.12,426.57Zm-2-.14a3.58,3.58,0,0,0-.46-1.83,4.37,4.37,0,0,0-1.21-1.34,5.7,5.7,0,0,0-1.67-.84,6.09,6.09,0,0,0-1.82-.29,5.71,5.71,0,0,0-1.85.3,5.42,5.42,0,0,0-1.62.87,4.28,4.28,0,0,0-1.15,1.37,3.73,3.73,0,0,0-.43,1.79,3.52,3.52,0,0,0,.46,1.8,4.43,4.43,0,0,0,1.2,1.34,5.52,5.52,0,0,0,1.64.84,6,6,0,0,0,1.83.29,5.76,5.76,0,0,0,1.83-.3,5.41,5.41,0,0,0,1.63-.87,4.54,4.54,0,0,0,1.17-1.36A3.56,3.56,0,0,0,1037.13,426.43Zm-9.55-9.35a2.75,2.75,0,0,0,.4,1.49,3.76,3.76,0,0,0,1,1.1,4.76,4.76,0,0,0,1.43.68,5.34,5.34,0,0,0,3.1,0,4.8,4.8,0,0,0,1.43-.69,3.78,3.78,0,0,0,1.05-1.13,2.83,2.83,0,0,0,.4-1.5,2.86,2.86,0,0,0-.37-1.46,3.5,3.5,0,0,0-1-1.1,4.56,4.56,0,0,0-1.43-.68,6.06,6.06,0,0,0-1.67-.23,5.5,5.5,0,0,0-1.63.25,4.64,4.64,0,0,0-1.4.69,3.52,3.52,0,0,0-1,1.11A2.94,2.94,0,0,0,1027.58,417.08Z"/><path d="M48.8,546.05V500.77H67.55A11.76,11.76,0,0,1,72.94,502a14.21,14.21,0,0,1,4.24,3.25A15.46,15.46,0,0,1,80,509.83,13.82,13.82,0,0,1,81,515a15.38,15.38,0,0,1-1,5.39,14.58,14.58,0,0,1-2.68,4.56,13.45,13.45,0,0,1-4.11,3.19,11.61,11.61,0,0,1-5.33,1.21H53.26v16.71Zm4.46-20.67H67.74a7.59,7.59,0,0,0,3.6-.86,8.78,8.78,0,0,0,2.77-2.3,10.82,10.82,0,0,0,1.79-3.32,12.14,12.14,0,0,0,.64-3.92,11,11,0,0,0-2.71-7.27,9,9,0,0,0-2.93-2.2,8.21,8.21,0,0,0-3.54-.8H53.26Z"/><path d="M89.17,546.05V516.27H84.58v-3.44h4.59v-.89q0-6.12,2.62-9.6a8.46,8.46,0,0,1,7.14-3.48,12.84,12.84,0,0,1,3.83.57,11.11,11.11,0,0,1,3.19,1.53l-1.34,3.13a6.48,6.48,0,0,0-2.2-1.08,9.39,9.39,0,0,0-2.65-.38A5.27,5.27,0,0,0,95.11,505q-1.59,2.36-1.59,6.82v1h9.18v3.44H93.51v29.79Z"/><path d="M116.47,546.69a11.74,11.74,0,0,1-4.37-.8,11,11,0,0,1-3.51-2.2,9.91,9.91,0,0,1-3.16-7.34,8.18,8.18,0,0,1,1-4,9.72,9.72,0,0,1,2.87-3.19,14,14,0,0,1,4.4-2.07,20.29,20.29,0,0,1,5.61-.73,30.75,30.75,0,0,1,5.17.45,22.45,22.45,0,0,1,4.66,1.28v-3a9.64,9.64,0,0,0-2.49-7,9.11,9.11,0,0,0-6.89-2.58,14.65,14.65,0,0,0-5.23,1,25.22,25.22,0,0,0-5.42,2.93l-1.53-2.87q6.44-4.34,12.5-4.34,6.25,0,9.82,3.51t3.57,9.7v15q0,1.79,1.59,1.79v3.83a10.36,10.36,0,0,1-1.66.19,3.73,3.73,0,0,1-2.58-.83,3.11,3.11,0,0,1-1-2.3l-.13-2.62A15.07,15.07,0,0,1,124,545.1,17.78,17.78,0,0,1,116.47,546.69Zm1-3.32a15,15,0,0,0,6.22-1.28,10.17,10.17,0,0,0,4.31-3.38,4,4,0,0,0,.86-1.24,3.17,3.17,0,0,0,.29-1.24v-5.42a26.69,26.69,0,0,0-4.5-1.28,25.25,25.25,0,0,0-4.75-.45,13.22,13.22,0,0,0-7.46,1.91,5.82,5.82,0,0,0-2.87,5,6.87,6.87,0,0,0,.61,2.87,7.26,7.26,0,0,0,1.66,2.33,7.75,7.75,0,0,0,2.52,1.56A8.49,8.49,0,0,0,117.49,543.38Z"/><path d="M170.82,546.05h-4.34V527.49q0-5.93-1.75-8.61a6,6,0,0,0-5.39-2.68,11.06,11.06,0,0,0-3.83.7,12.94,12.94,0,0,0-3.54,2,15.15,15.15,0,0,0-2.9,3,11.87,11.87,0,0,0-1.85,3.79v20.35h-4.34V512.82h4v7.53a15.61,15.61,0,0,1,5.84-5.87,16,16,0,0,1,8.26-2.23,9.79,9.79,0,0,1,4.66,1,8,8,0,0,1,3.06,2.87,13.24,13.24,0,0,1,1.66,4.53,31.82,31.82,0,0,1,.51,5.93Z"/><path d="M208,546.05h-4.34V527.49q0-5.93-1.75-8.61a6,6,0,0,0-5.39-2.68,11.06,11.06,0,0,0-3.83.7,12.94,12.94,0,0,0-3.54,2,15.15,15.15,0,0,0-2.9,3,11.87,11.87,0,0,0-1.85,3.79v20.35h-4.34V512.82h4v7.53a15.61,15.61,0,0,1,5.84-5.87,16,16,0,0,1,8.26-2.23,9.79,9.79,0,0,1,4.66,1,8,8,0,0,1,3.06,2.87,13.24,13.24,0,0,1,1.66,4.53,31.82,31.82,0,0,1,.51,5.93Z"/><path d="M231.6,546.69a16,16,0,0,1-6.67-1.37,16.33,16.33,0,0,1-5.26-3.76A17.46,17.46,0,0,1,216.2,536a17.94,17.94,0,0,1-1.24-6.7,17.54,17.54,0,0,1,1.24-6.6,17.09,17.09,0,0,1,3.44-5.42,16.37,16.37,0,0,1,5.26-3.7,16.8,16.8,0,0,1,13.3,0,15.87,15.87,0,0,1,5.2,3.73A17.52,17.52,0,0,1,248,529.28v1a2.58,2.58,0,0,1-.06.7H219.48a14,14,0,0,0,1.24,4.94,13.57,13.57,0,0,0,2.71,3.92,12.11,12.11,0,0,0,3.8,2.58,11.34,11.34,0,0,0,4.56.93,11.78,11.78,0,0,0,3.19-.45,12.87,12.87,0,0,0,2.93-1.21,10.93,10.93,0,0,0,2.42-1.88,8.07,8.07,0,0,0,1.66-2.46l3.76,1a11.06,11.06,0,0,1-2.17,3.35,15.11,15.11,0,0,1-3.25,2.61,15.91,15.91,0,0,1-4.08,1.72A17.71,17.71,0,0,1,231.6,546.69Zm12.25-19a13.42,13.42,0,0,0-1.24-4.88,13.28,13.28,0,0,0-2.68-3.8,11.87,11.87,0,0,0-3.76-2.49,11.71,11.71,0,0,0-4.56-.89,11.94,11.94,0,0,0-4.59.89,11.77,11.77,0,0,0-3.79,2.49,12.23,12.23,0,0,0-2.62,3.83,14.48,14.48,0,0,0-1.18,4.85Z"/><path d="M68.8,601.26V584.43l-7.47,13H60.15l-7.48-13v16.83h-2V580.76h2.08l8,14,8.05-14h2v20.49Z"/><path d="M79.2,601.54a5.32,5.32,0,0,1-2-.36,5,5,0,0,1-1.59-1,4.48,4.48,0,0,1-1.43-3.32,3.7,3.7,0,0,1,.46-1.82,4.4,4.4,0,0,1,1.3-1.44,6.37,6.37,0,0,1,2-.94,9.19,9.19,0,0,1,2.54-.33,13.92,13.92,0,0,1,2.34.2,10.19,10.19,0,0,1,2.11.58v-1.36a4.37,4.37,0,0,0-1.13-3.16,4.12,4.12,0,0,0-3.12-1.17,6.63,6.63,0,0,0-2.37.46,11.42,11.42,0,0,0-2.45,1.33l-.69-1.3a10.16,10.16,0,0,1,5.66-2,6.07,6.07,0,0,1,4.44,1.59,5.87,5.87,0,0,1,1.62,4.39v6.78q0,.81.72.81v1.73a4.69,4.69,0,0,1-.75.09A1.69,1.69,0,0,1,85.7,601a1.41,1.41,0,0,1-.45-1l-.06-1.18a6.82,6.82,0,0,1-2.61,2.08A8,8,0,0,1,79.2,601.54Zm.46-1.5a6.78,6.78,0,0,0,2.81-.58,4.6,4.6,0,0,0,1.95-1.53,1.81,1.81,0,0,0,.39-.56,1.44,1.44,0,0,0,.13-.56v-2.45a12.1,12.1,0,0,0-2-.58,11.43,11.43,0,0,0-2.15-.2,6,6,0,0,0-3.38.87,2.63,2.63,0,0,0-1.3,2.28,3.11,3.11,0,0,0,.27,1.3,3.29,3.29,0,0,0,.75,1.05,3.49,3.49,0,0,0,1.14.71A3.84,3.84,0,0,0,79.66,600Z"/><path d="M91.52,586.22l4.5,5.89.23.43.23-.43,4.5-5.89h2.11l-5.74,7.56,5.74,7.48H101l-4.5-5.86-.23-.4-.23.4-4.5,5.86H89.41l5.74-7.48-5.74-7.56Z"/><path d="M131.61,601.26V584.43l-7.47,13h-1.18l-7.48-13v16.83h-2V580.76h2.08l8,14,8.05-14h2v20.49Z"/><path d="M143.07,601.54a4.23,4.23,0,0,1-3.65-1.63,8.18,8.18,0,0,1-1.2-4.86v-8.83h2v8.49q0,5.11,3.49,5.11a5.19,5.19,0,0,0,1.7-.29,5.35,5.35,0,0,0,1.54-.84,6.76,6.76,0,0,0,1.27-1.3,6.54,6.54,0,0,0,.91-1.7v-9.47h2v12.5q0,.81.69.81v1.73a3.56,3.56,0,0,1-.56.06h-.3a1.57,1.57,0,0,1-1.13-.49,1.74,1.74,0,0,1-.43-1.24v-1.73a7,7,0,0,1-2.67,2.73A7.11,7.11,0,0,1,143.07,601.54Z"/><path d="M160.5,601.54a10.46,10.46,0,0,1-3.43-.58,8.25,8.25,0,0,1-2.89-1.67l.89-1.33a9.8,9.8,0,0,0,2.58,1.56,7.58,7.58,0,0,0,2.81.52,5.08,5.08,0,0,0,2.9-.74,2.38,2.38,0,0,0,1.08-2.09,1.82,1.82,0,0,0-.29-1.05,2.51,2.51,0,0,0-.85-.74,6.68,6.68,0,0,0-1.41-.56q-.85-.25-2-.51-1.3-.32-2.25-.63a6.87,6.87,0,0,1-1.57-.72,2.6,2.6,0,0,1-.92-1,3.25,3.25,0,0,1-.3-1.49,4.27,4.27,0,0,1,.45-2,4.05,4.05,0,0,1,1.21-1.43,5.5,5.5,0,0,1,1.79-.85,8,8,0,0,1,2.18-.29,8.45,8.45,0,0,1,3.15.56,6.23,6.23,0,0,1,2.28,1.49l-1,1.15a5.28,5.28,0,0,0-2-1.3,7.29,7.29,0,0,0-2.5-.43,6.22,6.22,0,0,0-1.44.16,3.47,3.47,0,0,0-1.17.51,2.48,2.48,0,0,0-.79.88,2.6,2.6,0,0,0-.29,1.26,2.06,2.06,0,0,0,.2,1,1.72,1.72,0,0,0,.66.65,5.37,5.37,0,0,0,1.17.49q.71.22,1.72.45,1.44.35,2.54.69a8,8,0,0,1,1.83.81,3.19,3.19,0,0,1,1.11,1.13,3.24,3.24,0,0,1,.38,1.62,3.92,3.92,0,0,1-1.59,3.29A6.87,6.87,0,0,1,160.5,601.54Z"/><path d="M176.77,600.53l-.5.23q-.33.15-.77.29a8.79,8.79,0,0,1-1,.26,5.62,5.62,0,0,1-1.15.12,4.2,4.2,0,0,1-1.21-.17,2.82,2.82,0,0,1-1-.53,2.63,2.63,0,0,1-.69-.91,2.94,2.94,0,0,1-.26-1.27V587.78h-2.08v-1.56h2.08v-5.08h2v5.08h3.46v1.56h-3.46V598a1.56,1.56,0,0,0,.59,1.23,2,2,0,0,0,1.23.39,3.68,3.68,0,0,0,1.47-.27,6.45,6.45,0,0,0,.81-.39Z"/><path d="M185.35,601.54a7.23,7.23,0,0,1-3-.62,7.39,7.39,0,0,1-2.38-1.7,7.9,7.9,0,0,1-1.57-2.5,8.11,8.11,0,0,1-.56-3,7.93,7.93,0,0,1,.56-3,7.73,7.73,0,0,1,1.56-2.45,7.4,7.4,0,0,1,2.38-1.67,7.6,7.6,0,0,1,6,0,7.18,7.18,0,0,1,2.35,1.69,7.93,7.93,0,0,1,2.08,5.4v.46a1.17,1.17,0,0,1,0,.32H179.86a6.32,6.32,0,0,0,.56,2.24,6.14,6.14,0,0,0,1.23,1.78,5.47,5.47,0,0,0,1.72,1.17,5.13,5.13,0,0,0,2.06.42,5.33,5.33,0,0,0,1.44-.2,5.83,5.83,0,0,0,1.33-.55,4.93,4.93,0,0,0,1.1-.85,3.65,3.65,0,0,0,.75-1.11l1.7.46a5,5,0,0,1-1,1.52,6.84,6.84,0,0,1-1.47,1.18,7.2,7.2,0,0,1-1.85.78A8,8,0,0,1,185.35,601.54Zm5.54-8.6a6,6,0,0,0-1.77-3.93,5.38,5.38,0,0,0-1.7-1.13,5.31,5.31,0,0,0-2.06-.4,5.41,5.41,0,0,0-2.08.4,5.33,5.33,0,0,0-1.72,1.13,5.54,5.54,0,0,0-1.18,1.73,6.55,6.55,0,0,0-.53,2.19Z"/><path d="M203.3,588a6.18,6.18,0,0,0-3.46,1.1,5.54,5.54,0,0,0-2.08,2.86v9.35h-2v-15h1.85v3.61a6.84,6.84,0,0,1,2.25-2.71,5.22,5.22,0,0,1,3-1,2,2,0,0,1,.38,0Z"/><path d="M228.29,601.26h-2v-8.4a7,7,0,0,0-.84-3.87,2.8,2.8,0,0,0-2.48-1.24,4.22,4.22,0,0,0-1.63.32A5,5,0,0,0,220,589a6.14,6.14,0,0,0-1.14,1.37,6.59,6.59,0,0,0-.75,1.75v9.18h-2v-8.4a7.22,7.22,0,0,0-.81-3.9,2.78,2.78,0,0,0-2.48-1.21,4.43,4.43,0,0,0-3,1.18,6.59,6.59,0,0,0-1.91,3.12v9.21h-2v-15h1.79v3.41a7.1,7.1,0,0,1,2.42-2.7,6,6,0,0,1,3.32-1,4.27,4.27,0,0,1,3,1.07,4.65,4.65,0,0,1,1.4,2.8Q220,586,223.7,586a4.59,4.59,0,0,1,2.15.46,3.64,3.64,0,0,1,1.41,1.31,6.16,6.16,0,0,1,.78,2,13.34,13.34,0,0,1,.25,2.67Z"/><path d="M236.23,601.54a5.32,5.32,0,0,1-2-.36,5,5,0,0,1-1.59-1,4.48,4.48,0,0,1-1.43-3.32,3.7,3.7,0,0,1,.46-1.82,4.4,4.4,0,0,1,1.3-1.44,6.37,6.37,0,0,1,2-.94,9.19,9.19,0,0,1,2.54-.33,13.92,13.92,0,0,1,2.34.2,10.19,10.19,0,0,1,2.11.58v-1.36a4.37,4.37,0,0,0-1.13-3.16,4.12,4.12,0,0,0-3.12-1.17,6.63,6.63,0,0,0-2.37.46,11.42,11.42,0,0,0-2.45,1.33l-.69-1.3a10.16,10.16,0,0,1,5.66-2,6.07,6.07,0,0,1,4.44,1.59,5.87,5.87,0,0,1,1.62,4.39v6.78q0,.81.72.81v1.73a4.69,4.69,0,0,1-.75.09,1.69,1.69,0,0,1-1.17-.37,1.41,1.41,0,0,1-.45-1l-.06-1.18a6.82,6.82,0,0,1-2.61,2.08A8,8,0,0,1,236.23,601.54Zm.46-1.5a6.78,6.78,0,0,0,2.81-.58,4.6,4.6,0,0,0,1.95-1.53,1.81,1.81,0,0,0,.39-.56,1.44,1.44,0,0,0,.13-.56v-2.45a12.1,12.1,0,0,0-2-.58,11.43,11.43,0,0,0-2.15-.2,6,6,0,0,0-3.38.87,2.63,2.63,0,0,0-1.3,2.28,3.11,3.11,0,0,0,.27,1.3,3.29,3.29,0,0,0,.75,1.05,3.49,3.49,0,0,0,1.14.71A3.84,3.84,0,0,0,236.69,600Z"/><path d="M260.82,601.26h-2v-8.4a7.33,7.33,0,0,0-.79-3.9,2.71,2.71,0,0,0-2.44-1.21,5,5,0,0,0-1.73.32,5.85,5.85,0,0,0-1.6.89,6.84,6.84,0,0,0-1.31,1.37,5.37,5.37,0,0,0-.84,1.72v9.21h-2v-15H250v3.41a7.06,7.06,0,0,1,2.64-2.66,7.24,7.24,0,0,1,3.74-1,4.43,4.43,0,0,1,2.11.46,3.6,3.6,0,0,1,1.39,1.3,6,6,0,0,1,.75,2,14.39,14.39,0,0,1,.23,2.68Z"/><path d="M277.65,601.26h-2v-8.4a7.33,7.33,0,0,0-.79-3.9,2.71,2.71,0,0,0-2.44-1.21,5,5,0,0,0-1.73.32,5.85,5.85,0,0,0-1.6.89,6.84,6.84,0,0,0-1.31,1.37A5.37,5.37,0,0,0,267,592v9.21h-2v-15h1.79v3.41a7.06,7.06,0,0,1,2.64-2.66,7.24,7.24,0,0,1,3.74-1,4.43,4.43,0,0,1,2.11.46,3.6,3.6,0,0,1,1.39,1.3,6,6,0,0,1,.75,2,14.39,14.39,0,0,1,.23,2.68Z"/><path d="M761.08,546.05a25.58,25.58,0,0,1,.38-4.37,15.26,15.26,0,0,1,1.5-4.37,16.16,16.16,0,0,1,3.19-4.18,23.28,23.28,0,0,1,5.52-3.79q1.85-1,3.86-1.88a25.67,25.67,0,0,0,3.7-2.07,11.61,11.61,0,0,0,2.77-2.58,5.4,5.4,0,0,0,1.08-3.35,5.7,5.7,0,0,0-.54-2.39,6.29,6.29,0,0,0-1.59-2.11,8.21,8.21,0,0,0-2.62-1.5,10.65,10.65,0,0,0-3.67-.57,10.92,10.92,0,0,0-3.76.61,13.63,13.63,0,0,0-2.9,1.44,12.82,12.82,0,0,0-2.14,1.75,19.63,19.63,0,0,0-1.34,1.5l-2.87-3.13q.38-.38,1.47-1.4a15.61,15.61,0,0,1,2.84-2,22.56,22.56,0,0,1,4.11-1.82,16.48,16.48,0,0,1,5.29-.8,15.9,15.9,0,0,1,5.23.8,11.59,11.59,0,0,1,3.89,2.2,9.58,9.58,0,0,1,2.42,3.22,9.08,9.08,0,0,1,.83,3.79,8.63,8.63,0,0,1-1.15,4.53,12.9,12.9,0,0,1-2.84,3.32,20,20,0,0,1-3.6,2.39q-1.91,1-3.44,1.69a41.25,41.25,0,0,0-4,2,21.45,21.45,0,0,0-3.48,2.46,12.45,12.45,0,0,0-2.52,3,7.09,7.09,0,0,0-1,3.7h22.71v4Z"/><path d="M809.17,526.15a15.74,15.74,0,0,1,5.8,1.05,14.31,14.31,0,0,1,4.69,3,13.81,13.81,0,0,1,3.16,4.56,14.51,14.51,0,0,1,1.15,5.84,14.88,14.88,0,0,1-1.24,6.16,14.1,14.1,0,0,1-3.38,4.72,15.5,15.5,0,0,1-5,3,17.19,17.19,0,0,1-6.12,1.08,17.37,17.37,0,0,1-4.62-.61,15.41,15.41,0,0,1-4-1.75,16.52,16.52,0,0,1-3.35-2.74,14.21,14.21,0,0,1-2.46-3.57l2.87-2.17a14,14,0,0,0,4.88,5,12.67,12.67,0,0,0,6.79,1.91,12,12,0,0,0,4.4-.8,10.8,10.8,0,0,0,3.57-2.26,10.41,10.41,0,0,0,2.39-3.51,11.39,11.39,0,0,0,.86-4.46,10.89,10.89,0,0,0-.83-4.31,10,10,0,0,0-2.3-3.35,10.33,10.33,0,0,0-3.44-2.17,11.75,11.75,0,0,0-4.27-.77,12.58,12.58,0,0,0-5.64,1.31,10.9,10.9,0,0,0-4.31,3.79h-4q.06-.38.32-1.72t.64-3.19q.38-1.85.83-4.11t.89-4.56q1.08-5.36,2.36-11.93h21.88v4H803l-3.12,16.27a11.38,11.38,0,0,1,4-2.78A13.66,13.66,0,0,1,809.17,526.15Z"/><path d="M852.67,509.06v37h-4.46V500.77h3.44l30,37.7V500.83h4.46v45.22h-3.89Z"/><path d="M910.27,546.69a15.76,15.76,0,0,1-6.63-1.37,16.28,16.28,0,0,1-5.2-3.73A16.91,16.91,0,0,1,895,536.1a18,18,0,0,1-1.21-6.57,17.78,17.78,0,0,1,1.24-6.63,17.39,17.39,0,0,1,3.44-5.49,16.75,16.75,0,0,1,5.2-3.76,15.31,15.31,0,0,1,6.57-1.4,15.53,15.53,0,0,1,6.6,1.4,16.66,16.66,0,0,1,5.23,3.76,17.41,17.41,0,0,1,3.45,5.49,17.8,17.8,0,0,1,1.24,6.63,18,18,0,0,1-1.21,6.57,16.93,16.93,0,0,1-3.41,5.49,16.19,16.19,0,0,1-5.23,3.73A16,16,0,0,1,910.27,546.69ZM898.21,529.6a13.85,13.85,0,0,0,1,5.2,14.09,14.09,0,0,0,2.58,4.21,11.68,11.68,0,0,0,3.83,2.84,11,11,0,0,0,4.69,1,10.74,10.74,0,0,0,4.69-1.05,12.45,12.45,0,0,0,3.86-2.87,13.65,13.65,0,0,0,2.62-4.24,14.68,14.68,0,0,0,0-10.43,13.59,13.59,0,0,0-2.62-4.27,12.45,12.45,0,0,0-3.86-2.87,10.74,10.74,0,0,0-4.69-1.05,10.53,10.53,0,0,0-4.66,1.05,12.35,12.35,0,0,0-3.83,2.9,14,14,0,0,0-2.62,4.31A14.35,14.35,0,0,0,898.21,529.6Z"/><path d="M942.8,546.05l-13.52-33.23h4.46L945.16,542l11.48-29.21h4.21l-13.52,33.23Z"/><path d="M1002.5,542.1v4H980.88v-4h9.06V514.8a7,7,0,0,1-1.75,1.66,21.11,21.11,0,0,1-2.74,1.66,20.57,20.57,0,0,1-3.09,1.28,9.35,9.35,0,0,1-2.81.51v-4.21a7.6,7.6,0,0,0,3.22-.83,23.05,23.05,0,0,0,3.32-1.91,29.2,29.2,0,0,0,2.65-2,5.53,5.53,0,0,0,1.21-1.28h4.46V542.1Z"/><path d="M1038.54,533.49a11.27,11.27,0,0,1-1.28,5.39,13.06,13.06,0,0,1-3.44,4.11,15.76,15.76,0,0,1-5.07,2.65,20,20,0,0,1-6.09.92,18,18,0,0,1-6.25-1.05,15.49,15.49,0,0,1-4.94-2.87,13,13,0,0,1-3.22-4.24,11.91,11.91,0,0,1-1.15-5.17,10,10,0,0,1,.8-4,12.11,12.11,0,0,1,2.07-3.29,14.17,14.17,0,0,1,2.9-2.49,15.19,15.19,0,0,1,3.29-1.63,15.49,15.49,0,0,1-2.87-1.56,11.85,11.85,0,0,1-2.36-2.14,10.1,10.1,0,0,1-1.63-2.68,8.09,8.09,0,0,1-.61-3.12,9.45,9.45,0,0,1,1.28-4.94,12.09,12.09,0,0,1,3.29-3.6,15,15,0,0,1,4.53-2.23,17.17,17.17,0,0,1,10.14,0,15.44,15.44,0,0,1,4.53,2.2,11.62,11.62,0,0,1,3.28,3.6,9.51,9.51,0,0,1,1.28,4.91,8.12,8.12,0,0,1-.61,3.13,10.23,10.23,0,0,1-1.66,2.71,11.75,11.75,0,0,1-2.42,2.17,16.51,16.51,0,0,1-2.9,1.56,15,15,0,0,1,3.51,1.75,14.12,14.12,0,0,1,2.9,2.58,11.88,11.88,0,0,1,2,3.32A10.83,10.83,0,0,1,1038.54,533.49Zm-4.4-.32a7.91,7.91,0,0,0-1-4.05,9.67,9.67,0,0,0-2.68-3,12.63,12.63,0,0,0-3.7-1.85,13.44,13.44,0,0,0-4-.64,12.62,12.62,0,0,0-4.08.67,12,12,0,0,0-3.57,1.91,9.49,9.49,0,0,0-2.55,3,8.26,8.26,0,0,0-1,4,7.77,7.77,0,0,0,1,4,9.79,9.79,0,0,0,2.65,3,12.18,12.18,0,0,0,3.64,1.85,13.29,13.29,0,0,0,4,.64,12.74,12.74,0,0,0,4-.67,11.94,11.94,0,0,0,3.6-1.91,10,10,0,0,0,2.58-3A7.86,7.86,0,0,0,1034.14,533.17ZM1013,512.5a6.07,6.07,0,0,0,.89,3.28,8.27,8.27,0,0,0,2.29,2.42,10.52,10.52,0,0,0,3.16,1.5,11.76,11.76,0,0,0,6.86,0,10.59,10.59,0,0,0,3.16-1.53,8.35,8.35,0,0,0,2.33-2.49,6.24,6.24,0,0,0,.89-3.32,6.33,6.33,0,0,0-.83-3.22,7.74,7.74,0,0,0-2.2-2.42,10.1,10.1,0,0,0-3.16-1.5,13.41,13.41,0,0,0-3.7-.51,12.15,12.15,0,0,0-3.6.54,10.24,10.24,0,0,0-3.09,1.53,7.77,7.77,0,0,0-2.17,2.46A6.5,6.5,0,0,0,1013,512.5Z"/><path d="M915.39,601.26a11.55,11.55,0,0,1,.17-2,6.88,6.88,0,0,1,.68-2,7.34,7.34,0,0,1,1.44-1.89,10.57,10.57,0,0,1,2.5-1.72q.84-.43,1.75-.85a11.59,11.59,0,0,0,1.67-.94,5.27,5.27,0,0,0,1.26-1.17,2.44,2.44,0,0,0,.49-1.52,2.58,2.58,0,0,0-.25-1.08,2.86,2.86,0,0,0-.72-1,3.72,3.72,0,0,0-1.18-.68,4.82,4.82,0,0,0-1.66-.26,4.94,4.94,0,0,0-1.7.27,6.21,6.21,0,0,0-1.31.65,5.83,5.83,0,0,0-1,.79q-.4.42-.61.68l-1.3-1.41.66-.63a7.09,7.09,0,0,1,1.28-.92,10.26,10.26,0,0,1,1.86-.82,7.47,7.47,0,0,1,2.4-.36,7.21,7.21,0,0,1,2.37.36,5.24,5.24,0,0,1,1.76,1,4.31,4.31,0,0,1,1.1,1.46,4.1,4.1,0,0,1,.38,1.72,3.91,3.91,0,0,1-.52,2,5.86,5.86,0,0,1-1.28,1.5,9.1,9.1,0,0,1-1.63,1.08q-.87.45-1.56.76a18.55,18.55,0,0,0-1.8.91,9.8,9.8,0,0,0-1.57,1.11,5.62,5.62,0,0,0-1.14,1.36,3.2,3.2,0,0,0-.45,1.67h10.27v1.79Z"/><path d="M930.43,601.26a11.55,11.55,0,0,1,.17-2,6.88,6.88,0,0,1,.68-2,7.34,7.34,0,0,1,1.44-1.89,10.57,10.57,0,0,1,2.5-1.72q.84-.43,1.75-.85a11.59,11.59,0,0,0,1.67-.94,5.27,5.27,0,0,0,1.26-1.17,2.44,2.44,0,0,0,.49-1.52,2.58,2.58,0,0,0-.25-1.08,2.86,2.86,0,0,0-.72-1,3.72,3.72,0,0,0-1.18-.68,4.82,4.82,0,0,0-1.66-.26,4.94,4.94,0,0,0-1.7.27,6.21,6.21,0,0,0-1.31.65,5.83,5.83,0,0,0-1,.79q-.4.42-.61.68l-1.3-1.41.66-.63a7.09,7.09,0,0,1,1.28-.92,10.26,10.26,0,0,1,1.86-.82,7.47,7.47,0,0,1,2.4-.36,7.21,7.21,0,0,1,2.37.36,5.24,5.24,0,0,1,1.76,1,4.31,4.31,0,0,1,1.1,1.46,4.1,4.1,0,0,1,.38,1.72,3.91,3.91,0,0,1-.52,2,5.86,5.86,0,0,1-1.28,1.5,9.1,9.1,0,0,1-1.63,1.08q-.87.45-1.56.76a18.55,18.55,0,0,0-1.8.91,9.8,9.8,0,0,0-1.57,1.11,5.62,5.62,0,0,0-1.14,1.36,3.2,3.2,0,0,0-.45,1.67h10.27v1.79Z"/><path d="M962.38,601.4a8.67,8.67,0,0,1-3.91-.88,9.72,9.72,0,0,1-3-2.34,10.61,10.61,0,0,1-2-3.33,11,11,0,0,1-.69-3.84,10.65,10.65,0,0,1,.74-3.93,10.81,10.81,0,0,1,2-3.32,9.86,9.86,0,0,1,3.06-2.29,8.64,8.64,0,0,1,3.81-.85,8.45,8.45,0,0,1,3.91.91,9.8,9.8,0,0,1,3,2.38,11,11,0,0,1,1.95,3.33A10.8,10.8,0,0,1,972,591a10.64,10.64,0,0,1-.74,3.92,10.78,10.78,0,0,1-2,3.3,9.79,9.79,0,0,1-3,2.28A8.64,8.64,0,0,1,962.38,601.4ZM954.79,591a9.55,9.55,0,0,0,.55,3.22,8.73,8.73,0,0,0,1.56,2.74,7.65,7.65,0,0,0,2.4,1.91,6.69,6.69,0,0,0,3.09.71,6.6,6.6,0,0,0,3.15-.75,7.68,7.68,0,0,0,2.4-2,9.08,9.08,0,0,0,1.52-2.74,9.43,9.43,0,0,0,0-6.33,8.8,8.8,0,0,0-1.57-2.73,7.76,7.76,0,0,0-2.39-1.89,6.63,6.63,0,0,0-3.06-.71,6.7,6.7,0,0,0-3.15.74,7.48,7.48,0,0,0-2.4,1.95,9.09,9.09,0,0,0-1.52,2.74A9.41,9.41,0,0,0,954.79,591Z"/><path d="M974.35,593.69a8.22,8.22,0,0,1,.55-3,7.48,7.48,0,0,1,1.54-2.47,7.22,7.22,0,0,1,2.38-1.66,7.56,7.56,0,0,1,3.06-.61,7,7,0,0,1,3.72,1,6.21,6.21,0,0,1,2.4,2.61l-1.91.61a4.57,4.57,0,0,0-1.77-1.8,5.24,5.24,0,0,0-4.68-.19,5.49,5.49,0,0,0-1.73,1.25,5.78,5.78,0,0,0-1.15,1.89,6.94,6.94,0,0,0,0,4.79A6.11,6.11,0,0,0,978,598a5.64,5.64,0,0,0,1.75,1.3,4.84,4.84,0,0,0,2.12.48,5.17,5.17,0,0,0,1.43-.2,5.46,5.46,0,0,0,1.31-.56,4.73,4.73,0,0,0,1-.82,2.67,2.67,0,0,0,.61-1l1.93.58a4.91,4.91,0,0,1-.92,1.49,6.4,6.4,0,0,1-1.43,1.18,7,7,0,0,1-1.82.78,7.74,7.74,0,0,1-2.06.27,7.3,7.3,0,0,1-5.43-2.32,7.89,7.89,0,0,1-1.57-2.5A8.1,8.1,0,0,1,974.35,593.69Z"/><path d="M998.45,600.53l-.5.23q-.33.15-.76.29a8.94,8.94,0,0,1-1,.26,5.66,5.66,0,0,1-1.15.12,4.21,4.21,0,0,1-1.21-.17,2.81,2.81,0,0,1-1-.53,2.62,2.62,0,0,1-.69-.91,2.94,2.94,0,0,1-.26-1.27V587.78h-2.08v-1.56h2.08v-5.08h2v5.08h3.46v1.56h-3.46V598a1.56,1.56,0,0,0,.59,1.23,2,2,0,0,0,1.23.39,3.67,3.67,0,0,0,1.47-.27,6.59,6.59,0,0,0,.81-.39Z"/><path d="M1017.82,599.47v1.79H1008v-1.79h4.1V587.11a3.17,3.17,0,0,1-.79.75,9.82,9.82,0,0,1-1.24.75,9.39,9.39,0,0,1-1.4.58,4.23,4.23,0,0,1-1.27.23v-1.9a3.45,3.45,0,0,0,1.46-.37,10.53,10.53,0,0,0,1.5-.87,13.09,13.09,0,0,0,1.2-.92,2.45,2.45,0,0,0,.55-.58h2v14.69Z"/><path d="M1034.12,595.57a5.1,5.1,0,0,1-.58,2.44,5.9,5.9,0,0,1-1.56,1.86,7.14,7.14,0,0,1-2.29,1.2,9,9,0,0,1-2.76.42,8.15,8.15,0,0,1-2.83-.48,7,7,0,0,1-2.24-1.3,5.88,5.88,0,0,1-1.46-1.92,5.38,5.38,0,0,1-.52-2.34,4.55,4.55,0,0,1,.36-1.82,5.46,5.46,0,0,1,.94-1.49,6.41,6.41,0,0,1,1.31-1.13,6.89,6.89,0,0,1,1.49-.74,7.07,7.07,0,0,1-1.3-.71,5.43,5.43,0,0,1-1.07-1,4.58,4.58,0,0,1-.74-1.21,3.67,3.67,0,0,1-.27-1.41,4.27,4.27,0,0,1,.58-2.24,5.48,5.48,0,0,1,1.49-1.63,6.77,6.77,0,0,1,2-1,7.77,7.77,0,0,1,4.59,0,7,7,0,0,1,2,1,5.25,5.25,0,0,1,1.49,1.63,4.3,4.3,0,0,1,.58,2.22,3.67,3.67,0,0,1-.27,1.41,4.62,4.62,0,0,1-.75,1.23,5.37,5.37,0,0,1-1.1,1,7.49,7.49,0,0,1-1.31.71,6.84,6.84,0,0,1,1.59.79,6.39,6.39,0,0,1,1.31,1.17,5.34,5.34,0,0,1,.89,1.5A4.88,4.88,0,0,1,1034.12,595.57Zm-2-.14a3.58,3.58,0,0,0-.46-1.83,4.37,4.37,0,0,0-1.21-1.34,5.7,5.7,0,0,0-1.67-.84,6.11,6.11,0,0,0-1.82-.29,5.71,5.71,0,0,0-1.85.3,5.42,5.42,0,0,0-1.62.87,4.28,4.28,0,0,0-1.15,1.37,3.73,3.73,0,0,0-.43,1.79,3.52,3.52,0,0,0,.46,1.8,4.43,4.43,0,0,0,1.2,1.34,5.54,5.54,0,0,0,1.64.84,6,6,0,0,0,1.83.29,5.76,5.76,0,0,0,1.83-.3,5.41,5.41,0,0,0,1.63-.87,4.54,4.54,0,0,0,1.17-1.36A3.56,3.56,0,0,0,1032.13,595.43Zm-9.55-9.35a2.75,2.75,0,0,0,.4,1.49,3.75,3.75,0,0,0,1,1.1,4.76,4.76,0,0,0,1.43.68,5.34,5.34,0,0,0,3.1,0,4.8,4.8,0,0,0,1.43-.69,3.79,3.79,0,0,0,1.05-1.12,2.83,2.83,0,0,0,.4-1.5,2.86,2.86,0,0,0-.37-1.46,3.49,3.49,0,0,0-1-1.1,4.56,4.56,0,0,0-1.43-.68,6.08,6.08,0,0,0-1.67-.23,5.5,5.5,0,0,0-1.63.25,4.64,4.64,0,0,0-1.4.69,3.53,3.53,0,0,0-1,1.11A2.94,2.94,0,0,0,1022.58,586.08Z"/><path d="M65,683a10.56,10.56,0,0,1,6.73,3.83,11.91,11.91,0,0,1,2.52,7.72,12.92,12.92,0,0,1-1.05,5.26,11.45,11.45,0,0,1-3,4.08,13.82,13.82,0,0,1-4.66,2.61,18.59,18.59,0,0,1-6,.93A17.72,17.72,0,0,1,51,705.49a13,13,0,0,1-5.49-5.39l3-2.74a10.34,10.34,0,0,0,4.08,4.46,13.12,13.12,0,0,0,6.89,1.66A11.27,11.27,0,0,0,67,701.15a8.26,8.26,0,0,0,2.74-6.67,8.83,8.83,0,0,0-2.87-7Q64,685,58.62,685H57v-3.7h1.72q4.91,0,7.53-2.26a7.43,7.43,0,0,0,2.62-5.9,7.75,7.75,0,0,0-.7-3.38,6.9,6.9,0,0,0-1.95-2.46,8.72,8.72,0,0,0-2.93-1.5,12.65,12.65,0,0,0-3.67-.51,12.44,12.44,0,0,0-6.41,1.63,10.4,10.4,0,0,0-4.18,4.5l-2.81-2.68a10.21,10.21,0,0,1,2.17-3,14,14,0,0,1,3.19-2.33,17.12,17.12,0,0,1,4-1.5,18.36,18.36,0,0,1,4.46-.54,16.78,16.78,0,0,1,5.39.83,13,13,0,0,1,4.24,2.33,10.47,10.47,0,0,1,2.77,3.6,10.82,10.82,0,0,1,1,4.66,11.71,11.71,0,0,1-.57,3.67,10,10,0,0,1-1.66,3.13,9.51,9.51,0,0,1-2.65,2.3A9.17,9.17,0,0,1,65,683Z"/><path d="M112.71,679.37a23.81,23.81,0,0,1-1.21,7.75,19.34,19.34,0,0,1-3.35,6.12,15.19,15.19,0,0,1-5.07,4,14.89,14.89,0,0,1-12.76,0,15.16,15.16,0,0,1-5.07-4,19.28,19.28,0,0,1-3.35-6.12,25.38,25.38,0,0,1,0-15.5,19.28,19.28,0,0,1,3.35-6.12,15.54,15.54,0,0,1,5.07-4.05,14.6,14.6,0,0,1,12.76,0,15.57,15.57,0,0,1,5.07,4.05,19.34,19.34,0,0,1,3.35,6.12A23.81,23.81,0,0,1,112.71,679.37Zm-4.4,0a21.27,21.27,0,0,0-.86-6.25,15.26,15.26,0,0,0-2.39-4.82,11,11,0,0,0-3.67-3.12,10,10,0,0,0-4.69-1.12,10.11,10.11,0,0,0-4.75,1.12,11,11,0,0,0-3.67,3.13,15.25,15.25,0,0,0-2.39,4.82,23.11,23.11,0,0,0,0,12.5,15.23,15.23,0,0,0,2.39,4.82,10.61,10.61,0,0,0,3.67,3.09,10.34,10.34,0,0,0,4.75,1.08,10.2,10.2,0,0,0,4.69-1.08,10.62,10.62,0,0,0,3.67-3.09,15.24,15.24,0,0,0,2.39-4.82A21.27,21.27,0,0,0,108.31,679.37Z"/><path d="M168.58,694.1v4H138.16V652.77H168v4H142.63v16.33h22.13v3.76H142.63V694.1Z"/><path d="M185.3,698.69q-5.42,0-8.07-3.6t-2.65-10.75V664.82h4.34v18.75q0,11.29,7.72,11.29a11.46,11.46,0,0,0,3.76-.64,11.81,11.81,0,0,0,3.41-1.85,15,15,0,0,0,2.81-2.87,14.46,14.46,0,0,0,2-3.76V664.82H203v27.62q0,1.79,1.53,1.79v3.83a8,8,0,0,1-1.24.13h-.67a3.46,3.46,0,0,1-2.49-1.08,3.85,3.85,0,0,1-1-2.74v-3.83a15.46,15.46,0,0,1-5.9,6A15.72,15.72,0,0,1,185.3,698.69Z"/><path d="M229.37,668.65a13.65,13.65,0,0,0-7.65,2.42,12.22,12.22,0,0,0-4.59,6.31v20.67h-4.34V664.82h4.08v8a15.11,15.11,0,0,1,5-6,11.53,11.53,0,0,1,6.7-2.17,4.42,4.42,0,0,1,.83.06Z"/><path d="M247.68,698.69a15.77,15.77,0,0,1-6.63-1.37,16.29,16.29,0,0,1-5.2-3.73,16.91,16.91,0,0,1-3.41-5.49,18,18,0,0,1-1.21-6.57,17.78,17.78,0,0,1,1.24-6.63,17.39,17.39,0,0,1,3.44-5.49,16.74,16.74,0,0,1,5.2-3.76,15.31,15.31,0,0,1,6.57-1.4,15.53,15.53,0,0,1,6.6,1.4,16.66,16.66,0,0,1,5.23,3.76A17.41,17.41,0,0,1,263,674.9a17.78,17.78,0,0,1,1.24,6.63A18,18,0,0,1,263,688.1a16.92,16.92,0,0,1-3.41,5.49,16.2,16.2,0,0,1-5.23,3.73A16,16,0,0,1,247.68,698.69ZM235.62,681.6a13.87,13.87,0,0,0,1,5.2,14.11,14.11,0,0,0,2.58,4.21,11.67,11.67,0,0,0,3.83,2.84,11,11,0,0,0,4.69,1,10.73,10.73,0,0,0,4.69-1.05,12.45,12.45,0,0,0,3.86-2.87,13.67,13.67,0,0,0,2.62-4.24,14.69,14.69,0,0,0,0-10.43,13.6,13.6,0,0,0-2.62-4.27,12.45,12.45,0,0,0-3.86-2.87,10.73,10.73,0,0,0-4.69-1.05,10.52,10.52,0,0,0-4.66,1.05,12.34,12.34,0,0,0-3.83,2.9,14,14,0,0,0-2.62,4.31A14.37,14.37,0,0,0,235.62,681.6Z"/><path d="M68.8,753.26V736.43l-7.47,13H60.15l-7.48-13v16.83h-2V732.76h2.08l8,14,8.05-14h2v20.49Z"/><path d="M79.2,753.54a5.32,5.32,0,0,1-2-.36,5,5,0,0,1-1.59-1,4.48,4.48,0,0,1-1.43-3.32,3.7,3.7,0,0,1,.46-1.82,4.4,4.4,0,0,1,1.3-1.44,6.37,6.37,0,0,1,2-.94,9.19,9.19,0,0,1,2.54-.33,13.92,13.92,0,0,1,2.34.2,10.19,10.19,0,0,1,2.11.58v-1.36a4.37,4.37,0,0,0-1.13-3.16,4.12,4.12,0,0,0-3.12-1.17,6.63,6.63,0,0,0-2.37.46,11.42,11.42,0,0,0-2.45,1.33l-.69-1.3a10.16,10.16,0,0,1,5.66-2,6.07,6.07,0,0,1,4.44,1.59,5.87,5.87,0,0,1,1.62,4.39v6.78q0,.81.72.81v1.73a4.69,4.69,0,0,1-.75.09A1.69,1.69,0,0,1,85.7,753a1.41,1.41,0,0,1-.45-1l-.06-1.18a6.82,6.82,0,0,1-2.61,2.08A8,8,0,0,1,79.2,753.54Zm.46-1.5a6.78,6.78,0,0,0,2.81-.58,4.6,4.6,0,0,0,1.95-1.53,1.81,1.81,0,0,0,.39-.56,1.44,1.44,0,0,0,.13-.56v-2.45a12.1,12.1,0,0,0-2-.58,11.43,11.43,0,0,0-2.15-.2,6,6,0,0,0-3.38.87,2.63,2.63,0,0,0-1.3,2.28,3.11,3.11,0,0,0,.27,1.3,3.29,3.29,0,0,0,.75,1.05,3.49,3.49,0,0,0,1.14.71A3.84,3.84,0,0,0,79.66,752Z"/><path d="M91.52,738.22l4.5,5.89.23.43.23-.43,4.5-5.89h2.11l-5.74,7.56,5.74,7.48H101l-4.5-5.86-.23-.4-.23.4-4.5,5.86H89.41l5.74-7.48-5.74-7.56Z"/><path d="M131.61,753.26V736.43l-7.47,13h-1.18l-7.48-13v16.83h-2V732.76h2.08l8,14,8.05-14h2v20.49Z"/><path d="M143.07,753.54a4.23,4.23,0,0,1-3.65-1.63,8.18,8.18,0,0,1-1.2-4.86v-8.83h2v8.49q0,5.11,3.49,5.11a5.19,5.19,0,0,0,1.7-.29,5.35,5.35,0,0,0,1.54-.84,6.76,6.76,0,0,0,1.27-1.3,6.54,6.54,0,0,0,.91-1.7v-9.47h2v12.5q0,.81.69.81v1.73a3.56,3.56,0,0,1-.56.06h-.3a1.57,1.57,0,0,1-1.13-.49,1.74,1.74,0,0,1-.43-1.24v-1.73a7,7,0,0,1-2.67,2.73A7.11,7.11,0,0,1,143.07,753.54Z"/><path d="M160.5,753.54a10.46,10.46,0,0,1-3.43-.58,8.25,8.25,0,0,1-2.89-1.67l.89-1.33a9.8,9.8,0,0,0,2.58,1.56,7.58,7.58,0,0,0,2.81.52,5.08,5.08,0,0,0,2.9-.74,2.38,2.38,0,0,0,1.08-2.09,1.82,1.82,0,0,0-.29-1.05,2.51,2.51,0,0,0-.85-.74,6.68,6.68,0,0,0-1.41-.56q-.85-.25-2-.51-1.3-.32-2.25-.63a6.87,6.87,0,0,1-1.57-.72,2.6,2.6,0,0,1-.92-1,3.25,3.25,0,0,1-.3-1.49,4.27,4.27,0,0,1,.45-2,4.05,4.05,0,0,1,1.21-1.43,5.5,5.5,0,0,1,1.79-.85,8,8,0,0,1,2.18-.29,8.45,8.45,0,0,1,3.15.56,6.23,6.23,0,0,1,2.28,1.49l-1,1.15a5.28,5.28,0,0,0-2-1.3,7.29,7.29,0,0,0-2.5-.43,6.22,6.22,0,0,0-1.44.16,3.47,3.47,0,0,0-1.17.51,2.48,2.48,0,0,0-.79.88,2.6,2.6,0,0,0-.29,1.26,2.06,2.06,0,0,0,.2,1,1.72,1.72,0,0,0,.66.65,5.37,5.37,0,0,0,1.17.49q.71.22,1.72.45,1.44.35,2.54.69a8,8,0,0,1,1.83.81,3.19,3.19,0,0,1,1.11,1.13,3.24,3.24,0,0,1,.38,1.62,3.92,3.92,0,0,1-1.59,3.29A6.87,6.87,0,0,1,160.5,753.54Z"/><path d="M176.77,752.53l-.5.23q-.33.15-.77.29a8.79,8.79,0,0,1-1,.26,5.62,5.62,0,0,1-1.15.12,4.2,4.2,0,0,1-1.21-.17,2.82,2.82,0,0,1-1-.53,2.63,2.63,0,0,1-.69-.91,2.94,2.94,0,0,1-.26-1.27V739.78h-2.08v-1.56h2.08v-5.08h2v5.08h3.46v1.56h-3.46V750a1.56,1.56,0,0,0,.59,1.23,2,2,0,0,0,1.23.39,3.68,3.68,0,0,0,1.47-.27,6.45,6.45,0,0,0,.81-.39Z"/><path d="M185.35,753.54a7.23,7.23,0,0,1-3-.62,7.39,7.39,0,0,1-2.38-1.7,7.9,7.9,0,0,1-1.57-2.5,8.11,8.11,0,0,1-.56-3,7.93,7.93,0,0,1,.56-3,7.73,7.73,0,0,1,1.56-2.45,7.4,7.4,0,0,1,2.38-1.67,7.6,7.6,0,0,1,6,0,7.18,7.18,0,0,1,2.35,1.69,7.93,7.93,0,0,1,2.08,5.4v.46a1.17,1.17,0,0,1,0,.32H179.86a6.32,6.32,0,0,0,.56,2.24,6.14,6.14,0,0,0,1.23,1.78,5.47,5.47,0,0,0,1.72,1.17,5.13,5.13,0,0,0,2.06.42,5.33,5.33,0,0,0,1.44-.2,5.83,5.83,0,0,0,1.33-.55,4.93,4.93,0,0,0,1.1-.85,3.65,3.65,0,0,0,.75-1.11l1.7.46a5,5,0,0,1-1,1.52,6.84,6.84,0,0,1-1.47,1.18,7.2,7.2,0,0,1-1.85.78A8,8,0,0,1,185.35,753.54Zm5.54-8.6a6,6,0,0,0-1.77-3.93,5.38,5.38,0,0,0-1.7-1.13,5.31,5.31,0,0,0-2.06-.4,5.41,5.41,0,0,0-2.08.4,5.33,5.33,0,0,0-1.72,1.13,5.54,5.54,0,0,0-1.18,1.73,6.55,6.55,0,0,0-.53,2.19Z"/><path d="M203.3,740a6.18,6.18,0,0,0-3.46,1.1,5.54,5.54,0,0,0-2.08,2.86v9.35h-2v-15h1.85v3.61a6.84,6.84,0,0,1,2.25-2.71,5.22,5.22,0,0,1,3-1,2,2,0,0,1,.38,0Z"/><path d="M228.29,753.26h-2v-8.4a7,7,0,0,0-.84-3.87,2.8,2.8,0,0,0-2.48-1.24,4.22,4.22,0,0,0-1.63.32A5,5,0,0,0,220,741a6.14,6.14,0,0,0-1.14,1.37,6.59,6.59,0,0,0-.75,1.75v9.18h-2v-8.4a7.22,7.22,0,0,0-.81-3.9,2.78,2.78,0,0,0-2.48-1.21,4.43,4.43,0,0,0-3,1.18,6.59,6.59,0,0,0-1.91,3.12v9.21h-2v-15h1.79v3.41a7.1,7.1,0,0,1,2.42-2.7,6,6,0,0,1,3.32-1,4.27,4.27,0,0,1,3,1.07,4.65,4.65,0,0,1,1.4,2.8Q220,738,223.7,738a4.59,4.59,0,0,1,2.15.46,3.64,3.64,0,0,1,1.41,1.31,6.16,6.16,0,0,1,.78,2,13.34,13.34,0,0,1,.25,2.67Z"/><path d="M236.23,753.54a5.32,5.32,0,0,1-2-.36,5,5,0,0,1-1.59-1,4.48,4.48,0,0,1-1.43-3.32,3.7,3.7,0,0,1,.46-1.82,4.4,4.4,0,0,1,1.3-1.44,6.37,6.37,0,0,1,2-.94,9.19,9.19,0,0,1,2.54-.33,13.92,13.92,0,0,1,2.34.2,10.19,10.19,0,0,1,2.11.58v-1.36a4.37,4.37,0,0,0-1.13-3.16,4.12,4.12,0,0,0-3.12-1.17,6.63,6.63,0,0,0-2.37.46,11.42,11.42,0,0,0-2.45,1.33l-.69-1.3a10.16,10.16,0,0,1,5.66-2,6.07,6.07,0,0,1,4.44,1.59,5.87,5.87,0,0,1,1.62,4.39v6.78q0,.81.72.81v1.73a4.69,4.69,0,0,1-.75.09,1.69,1.69,0,0,1-1.17-.37,1.41,1.41,0,0,1-.45-1l-.06-1.18a6.82,6.82,0,0,1-2.61,2.08A8,8,0,0,1,236.23,753.54Zm.46-1.5a6.78,6.78,0,0,0,2.81-.58,4.6,4.6,0,0,0,1.95-1.53,1.81,1.81,0,0,0,.39-.56,1.44,1.44,0,0,0,.13-.56v-2.45a12.1,12.1,0,0,0-2-.58,11.43,11.43,0,0,0-2.15-.2,6,6,0,0,0-3.38.87,2.63,2.63,0,0,0-1.3,2.28,3.11,3.11,0,0,0,.27,1.3,3.29,3.29,0,0,0,.75,1.05,3.49,3.49,0,0,0,1.14.71A3.84,3.84,0,0,0,236.69,752Z"/><path d="M260.82,753.26h-2v-8.4a7.33,7.33,0,0,0-.79-3.9,2.71,2.71,0,0,0-2.44-1.21,5,5,0,0,0-1.73.32,5.85,5.85,0,0,0-1.6.89,6.84,6.84,0,0,0-1.31,1.37,5.37,5.37,0,0,0-.84,1.72v9.21h-2v-15H250v3.41a7.06,7.06,0,0,1,2.64-2.66,7.24,7.24,0,0,1,3.74-1,4.43,4.43,0,0,1,2.11.46,3.6,3.6,0,0,1,1.39,1.3,6,6,0,0,1,.75,2,14.39,14.39,0,0,1,.23,2.68Z"/><path d="M277.65,753.26h-2v-8.4a7.33,7.33,0,0,0-.79-3.9,2.71,2.71,0,0,0-2.44-1.21,5,5,0,0,0-1.73.32,5.85,5.85,0,0,0-1.6.89,6.84,6.84,0,0,0-1.31,1.37A5.37,5.37,0,0,0,267,744v9.21h-2v-15h1.79v3.41a7.06,7.06,0,0,1,2.64-2.66,7.24,7.24,0,0,1,3.74-1,4.43,4.43,0,0,1,2.11.46,3.6,3.6,0,0,1,1.39,1.3,6,6,0,0,1,.75,2,14.39,14.39,0,0,1,.23,2.68Z"/><path d="M766.31,698.05a25.58,25.58,0,0,1,.38-4.37,15.26,15.26,0,0,1,1.5-4.37,16.16,16.16,0,0,1,3.19-4.18,23.28,23.28,0,0,1,5.52-3.79q1.85-1,3.86-1.88a25.67,25.67,0,0,0,3.7-2.07,11.61,11.61,0,0,0,2.77-2.58,5.4,5.4,0,0,0,1.08-3.35,5.7,5.7,0,0,0-.54-2.39,6.29,6.29,0,0,0-1.59-2.11,8.21,8.21,0,0,0-2.62-1.5,10.65,10.65,0,0,0-3.67-.57,10.92,10.92,0,0,0-3.76.61,13.63,13.63,0,0,0-2.9,1.44,12.82,12.82,0,0,0-2.14,1.75,19.63,19.63,0,0,0-1.34,1.5l-2.87-3.13q.38-.38,1.47-1.4a15.61,15.61,0,0,1,2.84-2,22.56,22.56,0,0,1,4.11-1.82,16.48,16.48,0,0,1,5.29-.8,15.9,15.9,0,0,1,5.23.8,11.59,11.59,0,0,1,3.89,2.2,9.58,9.58,0,0,1,2.42,3.22A9.08,9.08,0,0,1,793,671a8.63,8.63,0,0,1-1.15,4.53,12.9,12.9,0,0,1-2.84,3.32,20,20,0,0,1-3.6,2.39q-1.91,1-3.44,1.69a41.25,41.25,0,0,0-4,2,21.45,21.45,0,0,0-3.48,2.46,12.45,12.45,0,0,0-2.52,3,7.09,7.09,0,0,0-1,3.7h22.71v4Z"/><path d="M831.37,685.49a11.27,11.27,0,0,1-1.28,5.39,13.06,13.06,0,0,1-3.44,4.11,15.75,15.75,0,0,1-5.07,2.65,20,20,0,0,1-6.09.92,18,18,0,0,1-6.25-1.05,15.48,15.48,0,0,1-4.94-2.87,13,13,0,0,1-3.22-4.24,11.91,11.91,0,0,1-1.15-5.17,10,10,0,0,1,.8-4,12.14,12.14,0,0,1,2.07-3.29,14.19,14.19,0,0,1,2.9-2.49,15.21,15.21,0,0,1,3.29-1.63,15.51,15.51,0,0,1-2.87-1.56,11.83,11.83,0,0,1-2.36-2.14,10.12,10.12,0,0,1-1.63-2.68,8.09,8.09,0,0,1-.61-3.12,9.46,9.46,0,0,1,1.28-4.94,12.1,12.1,0,0,1,3.29-3.6,15,15,0,0,1,4.53-2.23,17.17,17.17,0,0,1,10.14,0,15.44,15.44,0,0,1,4.53,2.2,11.62,11.62,0,0,1,3.29,3.6,9.52,9.52,0,0,1,1.28,4.91,8.13,8.13,0,0,1-.61,3.13,10.23,10.23,0,0,1-1.66,2.71,11.78,11.78,0,0,1-2.42,2.17,16.58,16.58,0,0,1-2.9,1.56,15.06,15.06,0,0,1,3.51,1.75,14.14,14.14,0,0,1,2.9,2.58,11.88,11.88,0,0,1,2,3.32A10.83,10.83,0,0,1,831.37,685.49Zm-4.4-.32a7.91,7.91,0,0,0-1-4.05,9.68,9.68,0,0,0-2.68-3,12.6,12.6,0,0,0-3.7-1.85,13.44,13.44,0,0,0-4-.64,12.62,12.62,0,0,0-4.08.67,12,12,0,0,0-3.57,1.91,9.47,9.47,0,0,0-2.55,3,8.25,8.25,0,0,0-1,4,7.78,7.78,0,0,0,1,4,9.78,9.78,0,0,0,2.65,3,12.17,12.17,0,0,0,3.64,1.85,13.3,13.3,0,0,0,4.05.64,12.75,12.75,0,0,0,4-.67,12,12,0,0,0,3.6-1.91,10,10,0,0,0,2.58-3A7.85,7.85,0,0,0,827,685.17ZM805.86,664.5a6.08,6.08,0,0,0,.89,3.28,8.29,8.29,0,0,0,2.3,2.42,10.5,10.5,0,0,0,3.16,1.5,11.76,11.76,0,0,0,6.86,0,10.57,10.57,0,0,0,3.16-1.53,8.35,8.35,0,0,0,2.33-2.49,6.24,6.24,0,0,0,.89-3.32,6.32,6.32,0,0,0-.83-3.22,7.73,7.73,0,0,0-2.2-2.42,10.1,10.1,0,0,0-3.16-1.5,13.42,13.42,0,0,0-3.7-.51,12.14,12.14,0,0,0-3.6.54,10.24,10.24,0,0,0-3.09,1.53,7.78,7.78,0,0,0-2.17,2.46A6.5,6.5,0,0,0,805.86,664.5Z"/><path d="M874.74,698.37a19.18,19.18,0,0,1-8.64-1.95,21.46,21.46,0,0,1-6.73-5.17,23.45,23.45,0,0,1-4.34-7.37,24.28,24.28,0,0,1-1.53-8.48,23.55,23.55,0,0,1,1.63-8.67,23.91,23.91,0,0,1,4.5-7.33,21.76,21.76,0,0,1,6.76-5.07,19.08,19.08,0,0,1,8.42-1.88,18.68,18.68,0,0,1,8.64,2,21.69,21.69,0,0,1,6.7,5.26,24.32,24.32,0,0,1,4.3,7.37,23.86,23.86,0,0,1,1.53,8.39,23.55,23.55,0,0,1-1.63,8.67,23.82,23.82,0,0,1-4.46,7.3,21.59,21.59,0,0,1-6.73,5A19.08,19.08,0,0,1,874.74,698.37Zm-16.78-23a21.1,21.1,0,0,0,1.21,7.11,19.33,19.33,0,0,0,3.44,6.06,16.94,16.94,0,0,0,5.29,4.21,14.78,14.78,0,0,0,6.82,1.56,14.59,14.59,0,0,0,7-1.66,17,17,0,0,0,5.29-4.34,20.07,20.07,0,0,0,3.35-6.06,20.83,20.83,0,0,0-.06-14,19.46,19.46,0,0,0-3.48-6,17.14,17.14,0,0,0-5.29-4.18,14.66,14.66,0,0,0-6.76-1.56,14.84,14.84,0,0,0-7,1.63,16.56,16.56,0,0,0-5.29,4.31,20,20,0,0,0-3.35,6.06A20.75,20.75,0,0,0,858,675.41Z"/><path d="M901.21,681.34a18.18,18.18,0,0,1,1.21-6.63,16.57,16.57,0,0,1,3.41-5.45,16,16,0,0,1,5.26-3.67,16.69,16.69,0,0,1,6.76-1.34,15.5,15.5,0,0,1,8.23,2.14,13.73,13.73,0,0,1,5.29,5.77l-4.21,1.34a10.12,10.12,0,0,0-3.92-4,11.57,11.57,0,0,0-10.33-.42,12.11,12.11,0,0,0-3.83,2.78,12.76,12.76,0,0,0-2.55,4.18,15.36,15.36,0,0,0,0,10.59,13.49,13.49,0,0,0,2.62,4.31,12.46,12.46,0,0,0,3.86,2.87,10.74,10.74,0,0,0,4.69,1.05,11.44,11.44,0,0,0,3.16-.45,12.12,12.12,0,0,0,2.9-1.24,10.41,10.41,0,0,0,2.3-1.82,5.92,5.92,0,0,0,1.34-2.17l4.27,1.28a10.9,10.9,0,0,1-2,3.29,14.05,14.05,0,0,1-3.16,2.61,15.42,15.42,0,0,1-4,1.72,17.13,17.13,0,0,1-4.56.61,16.14,16.14,0,0,1-12-5.13,17.47,17.47,0,0,1-3.48-5.52A17.94,17.94,0,0,1,901.21,681.34Z"/><path d="M954.47,696.46c-.25.13-.63.3-1.12.51s-1.05.43-1.69.64a19.7,19.7,0,0,1-2.17.57,12.44,12.44,0,0,1-2.55.25,9.25,9.25,0,0,1-2.68-.38,6.24,6.24,0,0,1-2.23-1.18,5.81,5.81,0,0,1-1.53-2,6.48,6.48,0,0,1-.57-2.81V668.27h-4.59v-3.44h4.59V653.6h4.34v11.23h7.65v3.44h-7.65v22.58a3.44,3.44,0,0,0,1.31,2.71,4.48,4.48,0,0,0,2.71.86,8.14,8.14,0,0,0,3.25-.61,14.1,14.1,0,0,0,1.79-.86Z"/><path d="M997.27,694.1v4H975.65v-4h9.06V666.8a7,7,0,0,1-1.75,1.66,21.11,21.11,0,0,1-2.74,1.66,20.57,20.57,0,0,1-3.09,1.28,9.35,9.35,0,0,1-2.81.51v-4.21a7.6,7.6,0,0,0,3.22-.83,23.05,23.05,0,0,0,3.32-1.91,29.2,29.2,0,0,0,2.65-2,5.53,5.53,0,0,0,1.21-1.28h4.46V694.1Z"/><path d="M1033.31,685.49a11.28,11.28,0,0,1-1.28,5.39,13.08,13.08,0,0,1-3.44,4.11,15.75,15.75,0,0,1-5.07,2.65,20,20,0,0,1-6.09.92,18,18,0,0,1-6.25-1.05,15.49,15.49,0,0,1-4.94-2.87,13,13,0,0,1-3.22-4.24,11.91,11.91,0,0,1-1.15-5.17,10.05,10.05,0,0,1,.8-4,12.12,12.12,0,0,1,2.07-3.29,14.16,14.16,0,0,1,2.9-2.49,15.24,15.24,0,0,1,3.29-1.63,15.51,15.51,0,0,1-2.87-1.56,11.86,11.86,0,0,1-2.36-2.14,10.09,10.09,0,0,1-1.63-2.68,8.09,8.09,0,0,1-.61-3.12,9.45,9.45,0,0,1,1.28-4.94,12.1,12.1,0,0,1,3.28-3.6,15,15,0,0,1,4.53-2.23,17.18,17.18,0,0,1,10.14,0,15.45,15.45,0,0,1,4.53,2.2,11.62,11.62,0,0,1,3.28,3.6,9.51,9.51,0,0,1,1.28,4.91,8.1,8.1,0,0,1-.61,3.13,10.22,10.22,0,0,1-1.66,2.71,11.75,11.75,0,0,1-2.42,2.17,16.48,16.48,0,0,1-2.9,1.56,15,15,0,0,1,3.51,1.75,14.09,14.09,0,0,1,2.9,2.58,11.86,11.86,0,0,1,2,3.32A10.83,10.83,0,0,1,1033.31,685.49Zm-4.4-.32a7.92,7.92,0,0,0-1-4.05,9.66,9.66,0,0,0-2.68-3,12.63,12.63,0,0,0-3.7-1.85,13.44,13.44,0,0,0-4-.64,12.62,12.62,0,0,0-4.08.67,12,12,0,0,0-3.57,1.91,9.49,9.49,0,0,0-2.55,3,8.25,8.25,0,0,0-1,4,7.76,7.76,0,0,0,1,4,9.79,9.79,0,0,0,2.65,3,12.17,12.17,0,0,0,3.64,1.85,13.29,13.29,0,0,0,4,.64,12.74,12.74,0,0,0,4.05-.67,12,12,0,0,0,3.6-1.91,10,10,0,0,0,2.58-3A7.86,7.86,0,0,0,1028.91,685.17Zm-21.11-20.67a6.07,6.07,0,0,0,.89,3.28,8.29,8.29,0,0,0,2.3,2.42,10.51,10.51,0,0,0,3.16,1.5,11.76,11.76,0,0,0,6.86,0,10.59,10.59,0,0,0,3.16-1.53,8.35,8.35,0,0,0,2.33-2.49,6.25,6.25,0,0,0,.89-3.32,6.33,6.33,0,0,0-.83-3.22,7.74,7.74,0,0,0-2.2-2.42,10.11,10.11,0,0,0-3.16-1.5,13.41,13.41,0,0,0-3.7-.51,12.13,12.13,0,0,0-3.6.54,10.25,10.25,0,0,0-3.09,1.53,7.77,7.77,0,0,0-2.17,2.46A6.49,6.49,0,0,0,1007.79,664.5Z"/><path d="M915.39,753.26a11.55,11.55,0,0,1,.17-2,6.88,6.88,0,0,1,.68-2,7.34,7.34,0,0,1,1.44-1.89,10.57,10.57,0,0,1,2.5-1.72q.84-.43,1.75-.85a11.59,11.59,0,0,0,1.67-.94,5.27,5.27,0,0,0,1.26-1.17,2.44,2.44,0,0,0,.49-1.52,2.58,2.58,0,0,0-.25-1.08,2.86,2.86,0,0,0-.72-1,3.72,3.72,0,0,0-1.18-.68,4.82,4.82,0,0,0-1.66-.26,4.94,4.94,0,0,0-1.7.27,6.21,6.21,0,0,0-1.31.65,5.83,5.83,0,0,0-1,.79q-.4.42-.61.68l-1.3-1.41.66-.63a7.09,7.09,0,0,1,1.28-.92,10.26,10.26,0,0,1,1.86-.82,7.47,7.47,0,0,1,2.4-.36,7.21,7.21,0,0,1,2.37.36,5.24,5.24,0,0,1,1.76,1,4.31,4.31,0,0,1,1.1,1.46,4.1,4.1,0,0,1,.38,1.72,3.91,3.91,0,0,1-.52,2,5.86,5.86,0,0,1-1.28,1.5,9.1,9.1,0,0,1-1.63,1.08q-.87.45-1.56.76a18.55,18.55,0,0,0-1.8.91,9.8,9.8,0,0,0-1.57,1.11,5.62,5.62,0,0,0-1.14,1.36,3.2,3.2,0,0,0-.45,1.67h10.27v1.79Z"/><path d="M930.43,753.26a11.55,11.55,0,0,1,.17-2,6.88,6.88,0,0,1,.68-2,7.34,7.34,0,0,1,1.44-1.89,10.57,10.57,0,0,1,2.5-1.72q.84-.43,1.75-.85a11.59,11.59,0,0,0,1.67-.94,5.27,5.27,0,0,0,1.26-1.17,2.44,2.44,0,0,0,.49-1.52,2.58,2.58,0,0,0-.25-1.08,2.86,2.86,0,0,0-.72-1,3.72,3.72,0,0,0-1.18-.68,4.82,4.82,0,0,0-1.66-.26,4.94,4.94,0,0,0-1.7.27,6.21,6.21,0,0,0-1.31.65,5.83,5.83,0,0,0-1,.79q-.4.42-.61.68l-1.3-1.41.66-.63a7.09,7.09,0,0,1,1.28-.92,10.26,10.26,0,0,1,1.86-.82,7.47,7.47,0,0,1,2.4-.36,7.21,7.21,0,0,1,2.37.36,5.24,5.24,0,0,1,1.76,1,4.31,4.31,0,0,1,1.1,1.46,4.1,4.1,0,0,1,.38,1.72,3.91,3.91,0,0,1-.52,2,5.86,5.86,0,0,1-1.28,1.5,9.1,9.1,0,0,1-1.63,1.08q-.87.45-1.56.76a18.55,18.55,0,0,0-1.8.91,9.8,9.8,0,0,0-1.57,1.11,5.62,5.62,0,0,0-1.14,1.36,3.2,3.2,0,0,0-.45,1.67h10.27v1.79Z"/><path d="M962.38,753.4a8.67,8.67,0,0,1-3.91-.88,9.72,9.72,0,0,1-3-2.34,10.61,10.61,0,0,1-2-3.33,11,11,0,0,1-.69-3.84,10.65,10.65,0,0,1,.74-3.93,10.81,10.81,0,0,1,2-3.32,9.86,9.86,0,0,1,3.06-2.29,8.64,8.64,0,0,1,3.81-.85,8.45,8.45,0,0,1,3.91.91,9.8,9.8,0,0,1,3,2.38,11,11,0,0,1,1.95,3.33A10.8,10.8,0,0,1,972,743a10.64,10.64,0,0,1-.74,3.92,10.78,10.78,0,0,1-2,3.3,9.79,9.79,0,0,1-3,2.28A8.64,8.64,0,0,1,962.38,753.4ZM954.79,743a9.55,9.55,0,0,0,.55,3.22,8.73,8.73,0,0,0,1.56,2.74,7.65,7.65,0,0,0,2.4,1.91,6.69,6.69,0,0,0,3.09.71,6.6,6.6,0,0,0,3.15-.75,7.68,7.68,0,0,0,2.4-2,9.08,9.08,0,0,0,1.52-2.74,9.43,9.43,0,0,0,0-6.33,8.8,8.8,0,0,0-1.57-2.73,7.76,7.76,0,0,0-2.39-1.89,6.63,6.63,0,0,0-3.06-.71,6.7,6.7,0,0,0-3.15.74,7.48,7.48,0,0,0-2.4,1.95,9.09,9.09,0,0,0-1.52,2.74A9.41,9.41,0,0,0,954.79,743Z"/><path d="M974.35,745.69a8.22,8.22,0,0,1,.55-3,7.48,7.48,0,0,1,1.54-2.47,7.22,7.22,0,0,1,2.38-1.66,7.56,7.56,0,0,1,3.06-.61,7,7,0,0,1,3.72,1,6.21,6.21,0,0,1,2.4,2.61l-1.91.61a4.57,4.57,0,0,0-1.77-1.8,5.24,5.24,0,0,0-4.68-.19,5.49,5.49,0,0,0-1.73,1.25,5.78,5.78,0,0,0-1.15,1.89,6.94,6.94,0,0,0,0,4.79A6.11,6.11,0,0,0,978,750a5.64,5.64,0,0,0,1.75,1.3,4.84,4.84,0,0,0,2.12.48,5.17,5.17,0,0,0,1.43-.2,5.46,5.46,0,0,0,1.31-.56,4.73,4.73,0,0,0,1-.82,2.67,2.67,0,0,0,.61-1l1.93.58a4.91,4.91,0,0,1-.92,1.49,6.4,6.4,0,0,1-1.43,1.18,7,7,0,0,1-1.82.78,7.74,7.74,0,0,1-2.06.27,7.3,7.3,0,0,1-5.43-2.32,7.89,7.89,0,0,1-1.57-2.5A8.1,8.1,0,0,1,974.35,745.69Z"/><path d="M998.45,752.53l-.5.23q-.33.15-.76.29a8.94,8.94,0,0,1-1,.26,5.66,5.66,0,0,1-1.15.12,4.21,4.21,0,0,1-1.21-.17,2.81,2.81,0,0,1-1-.53,2.62,2.62,0,0,1-.69-.91,2.94,2.94,0,0,1-.26-1.27V739.78h-2.08v-1.56h2.08v-5.08h2v5.08h3.46v1.56h-3.46V750a1.56,1.56,0,0,0,.59,1.23,2,2,0,0,0,1.23.39,3.67,3.67,0,0,0,1.47-.27,6.59,6.59,0,0,0,.81-.39Z"/><path d="M1017.82,751.47v1.79H1008v-1.79h4.1V739.11a3.17,3.17,0,0,1-.79.75,9.82,9.82,0,0,1-1.24.75,9.39,9.39,0,0,1-1.4.58,4.23,4.23,0,0,1-1.27.23v-1.9a3.45,3.45,0,0,0,1.46-.37,10.53,10.53,0,0,0,1.5-.87,13.09,13.09,0,0,0,1.2-.92,2.45,2.45,0,0,0,.55-.58h2v14.69Z"/><path d="M1034.12,747.57a5.1,5.1,0,0,1-.58,2.44,5.9,5.9,0,0,1-1.56,1.86,7.14,7.14,0,0,1-2.29,1.2,9,9,0,0,1-2.76.42,8.15,8.15,0,0,1-2.83-.48,7,7,0,0,1-2.24-1.3,5.88,5.88,0,0,1-1.46-1.92,5.38,5.38,0,0,1-.52-2.34,4.55,4.55,0,0,1,.36-1.82,5.46,5.46,0,0,1,.94-1.49,6.41,6.41,0,0,1,1.31-1.13,6.89,6.89,0,0,1,1.49-.74,7.07,7.07,0,0,1-1.3-.71,5.43,5.43,0,0,1-1.07-1,4.58,4.58,0,0,1-.74-1.21,3.67,3.67,0,0,1-.27-1.41,4.27,4.27,0,0,1,.58-2.24,5.48,5.48,0,0,1,1.49-1.63,6.77,6.77,0,0,1,2-1,7.77,7.77,0,0,1,4.59,0,7,7,0,0,1,2,1,5.25,5.25,0,0,1,1.49,1.63,4.3,4.3,0,0,1,.58,2.22,3.67,3.67,0,0,1-.27,1.41,4.62,4.62,0,0,1-.75,1.23,5.37,5.37,0,0,1-1.1,1,7.49,7.49,0,0,1-1.31.71,6.84,6.84,0,0,1,1.59.79,6.39,6.39,0,0,1,1.31,1.17,5.34,5.34,0,0,1,.89,1.5A4.88,4.88,0,0,1,1034.12,747.57Zm-2-.14a3.58,3.58,0,0,0-.46-1.83,4.37,4.37,0,0,0-1.21-1.34,5.7,5.7,0,0,0-1.67-.84,6.11,6.11,0,0,0-1.82-.29,5.71,5.71,0,0,0-1.85.3,5.42,5.42,0,0,0-1.62.87,4.28,4.28,0,0,0-1.15,1.37,3.73,3.73,0,0,0-.43,1.79,3.52,3.52,0,0,0,.46,1.8,4.43,4.43,0,0,0,1.2,1.34,5.54,5.54,0,0,0,1.64.84,6,6,0,0,0,1.83.29,5.76,5.76,0,0,0,1.83-.3,5.41,5.41,0,0,0,1.63-.87,4.54,4.54,0,0,0,1.17-1.36A3.56,3.56,0,0,0,1032.13,747.43Zm-9.55-9.35a2.75,2.75,0,0,0,.4,1.49,3.75,3.75,0,0,0,1,1.1,4.76,4.76,0,0,0,1.43.68,5.34,5.34,0,0,0,3.1,0,4.8,4.8,0,0,0,1.43-.69,3.79,3.79,0,0,0,1.05-1.12,2.83,2.83,0,0,0,.4-1.5,2.86,2.86,0,0,0-.37-1.46,3.49,3.49,0,0,0-1-1.1,4.56,4.56,0,0,0-1.43-.68,6.08,6.08,0,0,0-1.67-.23,5.5,5.5,0,0,0-1.63.25,4.64,4.64,0,0,0-1.4.69,3.53,3.53,0,0,0-1,1.11A2.94,2.94,0,0,0,1022.58,738.08Z"/><path d="M46.8,853.05V807.77H76.52v4H51.26v16.65h21.3v3.7H51.26v21Z"/><path d="M86.41,853.69a11.74,11.74,0,0,1-4.37-.8,11,11,0,0,1-3.51-2.2,9.91,9.91,0,0,1-3.16-7.34,8.18,8.18,0,0,1,1-4,9.72,9.72,0,0,1,2.87-3.19,14,14,0,0,1,4.4-2.07,20.29,20.29,0,0,1,5.61-.73,30.75,30.75,0,0,1,5.17.45,22.45,22.45,0,0,1,4.66,1.28v-3a9.64,9.64,0,0,0-2.49-7,9.11,9.11,0,0,0-6.89-2.58,14.65,14.65,0,0,0-5.23,1,25.22,25.22,0,0,0-5.42,2.93l-1.53-2.87Q84,819.25,90,819.25q6.25,0,9.82,3.51t3.57,9.7v15q0,1.79,1.59,1.79v3.83a10.36,10.36,0,0,1-1.66.19,3.73,3.73,0,0,1-2.58-.83,3.11,3.11,0,0,1-1-2.3l-.13-2.62a15.07,15.07,0,0,1-5.77,4.59A17.78,17.78,0,0,1,86.41,853.69Zm1-3.32a15,15,0,0,0,6.22-1.28A10.17,10.17,0,0,0,98,845.72a4,4,0,0,0,.86-1.24,3.17,3.17,0,0,0,.29-1.24v-5.42a26.69,26.69,0,0,0-4.5-1.28,25.25,25.25,0,0,0-4.75-.45A13.22,13.22,0,0,0,82.39,838a5.82,5.82,0,0,0-2.87,5,6.87,6.87,0,0,0,.61,2.87,7.26,7.26,0,0,0,1.66,2.33,7.75,7.75,0,0,0,2.52,1.56A8.49,8.49,0,0,0,87.43,850.38Z"/><path d="M140.75,853.05h-4.34V834.49q0-5.68-1.95-8.48a6.51,6.51,0,0,0-5.71-2.81,9.74,9.74,0,0,0-3.67.73,13.56,13.56,0,0,0-3.41,2,13.81,13.81,0,0,0-2.77,3,12.68,12.68,0,0,0-1.75,3.76v20.35h-4.34V806.49h4.34v20.86a15.06,15.06,0,0,1,5.49-5.93,14.17,14.17,0,0,1,7.59-2.17,10.21,10.21,0,0,1,4.85,1.05,9,9,0,0,1,3.25,2.93,12.85,12.85,0,0,1,1.85,4.53,27.57,27.57,0,0,1,.57,5.84Z"/><path d="M166.59,823.65a13.65,13.65,0,0,0-7.65,2.42,12.22,12.22,0,0,0-4.59,6.31v20.67H150V819.82h4.08v8a15.11,15.11,0,0,1,5-6,11.53,11.53,0,0,1,6.7-2.17,4.42,4.42,0,0,1,.83.06Z"/><path d="M189,823.65a13.65,13.65,0,0,0-7.65,2.42,12.22,12.22,0,0,0-4.59,6.31v20.67h-4.34V819.82h4.08v8a15.11,15.11,0,0,1,5-6,11.53,11.53,0,0,1,6.7-2.17,4.42,4.42,0,0,1,.83.06Z"/><path d="M202.69,853.69a11.74,11.74,0,0,1-4.37-.8,11,11,0,0,1-3.51-2.2,9.91,9.91,0,0,1-3.16-7.34,8.18,8.18,0,0,1,1-4,9.72,9.72,0,0,1,2.87-3.19,14,14,0,0,1,4.4-2.07,20.29,20.29,0,0,1,5.61-.73,30.75,30.75,0,0,1,5.17.45,22.45,22.45,0,0,1,4.66,1.28v-3a9.64,9.64,0,0,0-2.49-7A9.11,9.11,0,0,0,206,822.5a14.65,14.65,0,0,0-5.23,1,25.22,25.22,0,0,0-5.42,2.93l-1.53-2.87q6.44-4.34,12.5-4.34,6.25,0,9.82,3.51t3.57,9.7v15q0,1.79,1.59,1.79v3.83a10.36,10.36,0,0,1-1.66.19,3.73,3.73,0,0,1-2.58-.83,3.11,3.11,0,0,1-1-2.3l-.13-2.62a15.07,15.07,0,0,1-5.77,4.59A17.78,17.78,0,0,1,202.69,853.69Zm1-3.32a15,15,0,0,0,6.22-1.28,10.17,10.17,0,0,0,4.31-3.38,4,4,0,0,0,.86-1.24,3.17,3.17,0,0,0,.29-1.24v-5.42a26.69,26.69,0,0,0-4.5-1.28,25.25,25.25,0,0,0-4.75-.45,13.22,13.22,0,0,0-7.46,1.91,5.82,5.82,0,0,0-2.87,5,6.87,6.87,0,0,0,.61,2.87,7.26,7.26,0,0,0,1.66,2.33,7.75,7.75,0,0,0,2.52,1.56A8.49,8.49,0,0,0,203.71,850.38Z"/><path d="M242.74,853.69a14.31,14.31,0,0,1-6.38-1.44,16.22,16.22,0,0,1-5-3.79A17.43,17.43,0,0,1,228,843a18,18,0,0,1-1.18-6.47,19.35,19.35,0,0,1,1.15-6.67,17.8,17.8,0,0,1,3.16-5.52,14.89,14.89,0,0,1,4.78-3.73,13.56,13.56,0,0,1,6.09-1.37,13,13,0,0,1,7.46,2.2,16.67,16.67,0,0,1,5.1,5.33V806.49h4.34v40.95q0,1.79,1.53,1.79v3.83a8.24,8.24,0,0,1-1.53.19,4,4,0,0,1-2.68-1,3,3,0,0,1-1.15-2.39v-3.25a14.53,14.53,0,0,1-5.36,5.17A14.06,14.06,0,0,1,242.74,853.69Zm1-3.83a10.32,10.32,0,0,0,3.41-.64,14,14,0,0,0,3.41-1.75,11.76,11.76,0,0,0,2.71-2.62,7.08,7.08,0,0,0,1.37-3.22V831.37a11.44,11.44,0,0,0-1.85-3.22A15,15,0,0,0,250,825.5a13.09,13.09,0,0,0-3.35-1.79,10.41,10.41,0,0,0-3.51-.64,10.19,10.19,0,0,0-4.85,1.15,12.26,12.26,0,0,0-3.73,3,13.51,13.51,0,0,0-2.39,4.31,15.28,15.28,0,0,0-.83,5,13.94,13.94,0,0,0,3.57,9.34,12.64,12.64,0,0,0,3.92,2.9A11.14,11.14,0,0,0,243.7,849.87Z"/><path d="M285.73,853.69a13.12,13.12,0,0,1-7.43-2.14,17,17,0,0,1-5.2-5.39v20.47h-4.34V819.82h3.89v6.44a16.11,16.11,0,0,1,5.29-5.07,13.55,13.55,0,0,1,7.08-1.95,13.92,13.92,0,0,1,6.31,1.44,16.23,16.23,0,0,1,5,3.83,17.78,17.78,0,0,1,3.28,5.52,18.1,18.1,0,0,1,1.18,6.44,20.1,20.1,0,0,1-1.08,6.63,16.92,16.92,0,0,1-3.09,5.49,14.87,14.87,0,0,1-4.78,3.73A13.57,13.57,0,0,1,285.73,853.69Zm-1.21-3.83a10.39,10.39,0,0,0,4.88-1.15,12.14,12.14,0,0,0,3.76-3,13.6,13.6,0,0,0,2.39-4.27,15,15,0,0,0,.83-4.94,13.77,13.77,0,0,0-1-5.1,14.1,14.1,0,0,0-2.62-4.27,12.44,12.44,0,0,0-3.92-2.93,11.16,11.16,0,0,0-4.88-1.08,10,10,0,0,0-3.48.67,14.31,14.31,0,0,0-3.38,1.79,12,12,0,0,0-2.68,2.62,7,7,0,0,0-1.37,3.16v10.21a15.22,15.22,0,0,0,1.95,3.32,13.69,13.69,0,0,0,2.68,2.65,12.77,12.77,0,0,0,3.22,1.75A10.19,10.19,0,0,0,284.52,849.87Z"/><path d="M318.52,853.69q-5.42,0-8.07-3.6t-2.65-10.75V819.82h4.34v18.75q0,11.29,7.72,11.29a11.46,11.46,0,0,0,3.76-.64,11.81,11.81,0,0,0,3.41-1.85,15,15,0,0,0,2.81-2.87,14.46,14.46,0,0,0,2-3.76V819.82h4.34v27.62q0,1.79,1.53,1.79v3.83a8,8,0,0,1-1.24.13h-.67a3.46,3.46,0,0,1-2.49-1.08,3.85,3.85,0,0,1-1-2.74v-3.83a15.46,15.46,0,0,1-5.9,6A15.72,15.72,0,0,1,318.52,853.69Z"/><path d="M395.44,853.05H391.1V834.49q0-5.8-1.85-8.55a6.19,6.19,0,0,0-5.49-2.74,9.31,9.31,0,0,0-3.6.7,11.11,11.11,0,0,0-3.13,2,13.56,13.56,0,0,0-2.52,3,14.58,14.58,0,0,0-1.66,3.86v20.28h-4.34V834.49q0-5.93-1.79-8.61a6.14,6.14,0,0,0-5.49-2.68,9.78,9.78,0,0,0-6.7,2.62,14.56,14.56,0,0,0-4.21,6.89v20.35H346V819.82h4v7.53a15.71,15.71,0,0,1,5.36-6,13.27,13.27,0,0,1,7.33-2.14,9.45,9.45,0,0,1,6.73,2.36,10.28,10.28,0,0,1,3.09,6.19q4.66-8.55,12.82-8.55a10.13,10.13,0,0,1,4.75,1,8.06,8.06,0,0,1,3.13,2.9,13.62,13.62,0,0,1,1.72,4.53,29.58,29.58,0,0,1,.54,5.9Z"/><path d="M421.59,853.69a13.12,13.12,0,0,1-7.43-2.14,17,17,0,0,1-5.2-5.39v20.47h-4.34V819.82h3.89v6.44a16.11,16.11,0,0,1,5.29-5.07,13.55,13.55,0,0,1,7.08-1.95,13.92,13.92,0,0,1,6.31,1.44,16.23,16.23,0,0,1,5,3.83,17.78,17.78,0,0,1,3.28,5.52,18.1,18.1,0,0,1,1.18,6.44,20.1,20.1,0,0,1-1.08,6.63,16.92,16.92,0,0,1-3.09,5.49,14.87,14.87,0,0,1-4.78,3.73A13.57,13.57,0,0,1,421.59,853.69Zm-1.21-3.83a10.39,10.39,0,0,0,4.88-1.15,12.14,12.14,0,0,0,3.76-3,13.6,13.6,0,0,0,2.39-4.27,15,15,0,0,0,.83-4.94,13.77,13.77,0,0,0-1-5.1,14.1,14.1,0,0,0-2.62-4.27,12.44,12.44,0,0,0-3.92-2.93,11.16,11.16,0,0,0-4.88-1.08,10,10,0,0,0-3.48.67,14.31,14.31,0,0,0-3.38,1.79,12,12,0,0,0-2.68,2.62A7,7,0,0,0,409,831.3v10.21a15.22,15.22,0,0,0,1.95,3.32,13.69,13.69,0,0,0,2.68,2.65,12.77,12.77,0,0,0,3.22,1.75A10.19,10.19,0,0,0,420.38,849.87Z"/><path d="M458.33,853.69a16,16,0,0,1-6.67-1.37,16.33,16.33,0,0,1-5.26-3.76,17.46,17.46,0,0,1-3.48-5.52,17.94,17.94,0,0,1-1.24-6.7,17.54,17.54,0,0,1,1.24-6.6,17.09,17.09,0,0,1,3.44-5.42,16.37,16.37,0,0,1,5.26-3.7,16.8,16.8,0,0,1,13.3,0,15.87,15.87,0,0,1,5.2,3.73,17.52,17.52,0,0,1,4.59,11.93v1a2.58,2.58,0,0,1-.06.7H446.21a14,14,0,0,0,1.24,4.94,13.57,13.57,0,0,0,2.71,3.92,12.11,12.11,0,0,0,3.8,2.58,11.34,11.34,0,0,0,4.56.93,11.78,11.78,0,0,0,3.19-.45,12.87,12.87,0,0,0,2.93-1.21,10.93,10.93,0,0,0,2.42-1.88,8.07,8.07,0,0,0,1.66-2.46l3.76,1a11.06,11.06,0,0,1-2.17,3.35,15.11,15.11,0,0,1-3.25,2.61,15.91,15.91,0,0,1-4.08,1.72A17.71,17.71,0,0,1,458.33,853.69Zm12.25-19a13.42,13.42,0,0,0-1.24-4.88,13.28,13.28,0,0,0-2.68-3.8,11.87,11.87,0,0,0-3.76-2.49,11.71,11.71,0,0,0-4.56-.89,11.94,11.94,0,0,0-4.59.89,11.77,11.77,0,0,0-3.79,2.49,12.23,12.23,0,0,0-2.62,3.83,14.48,14.48,0,0,0-1.18,4.85Z"/><path d="M66.8,908.26V891.43l-7.47,13H58.15l-7.48-13v16.83h-2V887.76h2.08l8,14,8.05-14h2v20.49Z"/><path d="M77.2,908.54a5.32,5.32,0,0,1-2-.36,5,5,0,0,1-1.59-1,4.48,4.48,0,0,1-1.43-3.32,3.7,3.7,0,0,1,.46-1.82,4.4,4.4,0,0,1,1.3-1.44,6.37,6.37,0,0,1,2-.94,9.19,9.19,0,0,1,2.54-.33,13.92,13.92,0,0,1,2.34.2,10.19,10.19,0,0,1,2.11.58v-1.36a4.37,4.37,0,0,0-1.13-3.16,4.12,4.12,0,0,0-3.12-1.17,6.63,6.63,0,0,0-2.37.46,11.42,11.42,0,0,0-2.45,1.33l-.69-1.3a10.16,10.16,0,0,1,5.66-2,6.07,6.07,0,0,1,4.44,1.59,5.87,5.87,0,0,1,1.62,4.39v6.78q0,.81.72.81v1.73a4.69,4.69,0,0,1-.75.09A1.69,1.69,0,0,1,83.7,908a1.41,1.41,0,0,1-.45-1l-.06-1.18a6.82,6.82,0,0,1-2.61,2.08A8,8,0,0,1,77.2,908.54Zm.46-1.5a6.78,6.78,0,0,0,2.81-.58,4.6,4.6,0,0,0,1.95-1.53,1.81,1.81,0,0,0,.39-.56,1.44,1.44,0,0,0,.13-.56v-2.45a12.1,12.1,0,0,0-2-.58,11.43,11.43,0,0,0-2.15-.2,6,6,0,0,0-3.38.87,2.63,2.63,0,0,0-1.3,2.28,3.11,3.11,0,0,0,.27,1.3,3.29,3.29,0,0,0,.75,1.05,3.49,3.49,0,0,0,1.14.71A3.84,3.84,0,0,0,77.66,907Z"/><path d="M89.52,893.22l4.5,5.89.23.43.23-.43,4.5-5.89h2.11l-5.74,7.56,5.74,7.48H99l-4.5-5.86-.23-.4-.23.4-4.5,5.86H87.41l5.74-7.48-5.74-7.56Z"/><path d="M129.61,908.26V891.43l-7.47,13h-1.18l-7.48-13v16.83h-2V887.76h2.08l8,14,8.05-14h2v20.49Z"/><path d="M141.07,908.54a4.23,4.23,0,0,1-3.65-1.63,8.18,8.18,0,0,1-1.2-4.86v-8.83h2v8.49q0,5.11,3.49,5.11a5.19,5.19,0,0,0,1.7-.29,5.35,5.35,0,0,0,1.54-.84,6.76,6.76,0,0,0,1.27-1.3,6.54,6.54,0,0,0,.91-1.7v-9.47h2v12.5q0,.81.69.81v1.73a3.56,3.56,0,0,1-.56.06h-.3a1.57,1.57,0,0,1-1.13-.49,1.74,1.74,0,0,1-.43-1.24v-1.73a7,7,0,0,1-2.67,2.73A7.11,7.11,0,0,1,141.07,908.54Z"/><path d="M158.5,908.54a10.46,10.46,0,0,1-3.43-.58,8.25,8.25,0,0,1-2.89-1.67l.89-1.33a9.8,9.8,0,0,0,2.58,1.56,7.58,7.58,0,0,0,2.81.52,5.08,5.08,0,0,0,2.9-.74,2.38,2.38,0,0,0,1.08-2.09,1.82,1.82,0,0,0-.29-1.05,2.51,2.51,0,0,0-.85-.74,6.68,6.68,0,0,0-1.41-.56q-.85-.25-2-.51-1.3-.32-2.25-.63a6.87,6.87,0,0,1-1.57-.72,2.6,2.6,0,0,1-.92-1,3.25,3.25,0,0,1-.3-1.49,4.27,4.27,0,0,1,.45-2,4.05,4.05,0,0,1,1.21-1.43,5.5,5.5,0,0,1,1.79-.85,8,8,0,0,1,2.18-.29,8.45,8.45,0,0,1,3.15.56,6.23,6.23,0,0,1,2.28,1.49l-1,1.15a5.28,5.28,0,0,0-2-1.3,7.29,7.29,0,0,0-2.5-.43,6.22,6.22,0,0,0-1.44.16,3.47,3.47,0,0,0-1.17.51,2.48,2.48,0,0,0-.79.88,2.6,2.6,0,0,0-.29,1.26,2.06,2.06,0,0,0,.2,1,1.72,1.72,0,0,0,.66.65,5.37,5.37,0,0,0,1.17.49q.71.22,1.72.45,1.44.35,2.54.69a8,8,0,0,1,1.83.81,3.19,3.19,0,0,1,1.11,1.13,3.24,3.24,0,0,1,.38,1.62,3.92,3.92,0,0,1-1.59,3.29A6.87,6.87,0,0,1,158.5,908.54Z"/><path d="M174.77,907.53l-.5.23q-.33.15-.77.29a8.79,8.79,0,0,1-1,.26,5.62,5.62,0,0,1-1.15.12,4.2,4.2,0,0,1-1.21-.17,2.82,2.82,0,0,1-1-.53,2.63,2.63,0,0,1-.69-.91,2.94,2.94,0,0,1-.26-1.27V894.78h-2.08v-1.56h2.08v-5.08h2v5.08h3.46v1.56h-3.46V905a1.56,1.56,0,0,0,.59,1.23,2,2,0,0,0,1.23.39,3.68,3.68,0,0,0,1.47-.27,6.45,6.45,0,0,0,.81-.39Z"/><path d="M183.35,908.54a7.23,7.23,0,0,1-3-.62,7.39,7.39,0,0,1-2.38-1.7,7.9,7.9,0,0,1-1.57-2.5,8.11,8.11,0,0,1-.56-3,7.93,7.93,0,0,1,.56-3,7.73,7.73,0,0,1,1.56-2.45,7.4,7.4,0,0,1,2.38-1.67,7.6,7.6,0,0,1,6,0,7.18,7.18,0,0,1,2.35,1.69,7.93,7.93,0,0,1,2.08,5.4v.46a1.17,1.17,0,0,1,0,.32H177.86a6.32,6.32,0,0,0,.56,2.24,6.14,6.14,0,0,0,1.23,1.78,5.47,5.47,0,0,0,1.72,1.17,5.13,5.13,0,0,0,2.06.42,5.33,5.33,0,0,0,1.44-.2,5.83,5.83,0,0,0,1.33-.55,4.93,4.93,0,0,0,1.1-.85,3.65,3.65,0,0,0,.75-1.11l1.7.46a5,5,0,0,1-1,1.52,6.84,6.84,0,0,1-1.47,1.18,7.2,7.2,0,0,1-1.85.78A8,8,0,0,1,183.35,908.54Zm5.54-8.6a6,6,0,0,0-1.77-3.93,5.38,5.38,0,0,0-1.7-1.13,5.31,5.31,0,0,0-2.06-.4,5.41,5.41,0,0,0-2.08.4,5.33,5.33,0,0,0-1.72,1.13,5.54,5.54,0,0,0-1.18,1.73,6.55,6.55,0,0,0-.53,2.19Z"/><path d="M201.3,895a6.18,6.18,0,0,0-3.46,1.1,5.54,5.54,0,0,0-2.08,2.86v9.35h-2v-15h1.85v3.61a6.84,6.84,0,0,1,2.25-2.71,5.22,5.22,0,0,1,3-1,2,2,0,0,1,.38,0Z"/><path d="M226.29,908.26h-2v-8.4a7,7,0,0,0-.84-3.87,2.8,2.8,0,0,0-2.48-1.24,4.22,4.22,0,0,0-1.63.32A5,5,0,0,0,218,896a6.14,6.14,0,0,0-1.14,1.37,6.59,6.59,0,0,0-.75,1.75v9.18h-2v-8.4a7.22,7.22,0,0,0-.81-3.9,2.78,2.78,0,0,0-2.48-1.21,4.43,4.43,0,0,0-3,1.18,6.59,6.59,0,0,0-1.91,3.12v9.21h-2v-15h1.79v3.41a7.1,7.1,0,0,1,2.42-2.7,6,6,0,0,1,3.32-1,4.27,4.27,0,0,1,3,1.07,4.65,4.65,0,0,1,1.4,2.8Q218,893,221.7,893a4.59,4.59,0,0,1,2.15.46,3.64,3.64,0,0,1,1.41,1.31,6.16,6.16,0,0,1,.78,2,13.34,13.34,0,0,1,.25,2.67Z"/><path d="M234.23,908.54a5.32,5.32,0,0,1-2-.36,5,5,0,0,1-1.59-1,4.48,4.48,0,0,1-1.43-3.32,3.7,3.7,0,0,1,.46-1.82,4.4,4.4,0,0,1,1.3-1.44,6.37,6.37,0,0,1,2-.94,9.19,9.19,0,0,1,2.54-.33,13.92,13.92,0,0,1,2.34.2,10.19,10.19,0,0,1,2.11.58v-1.36a4.37,4.37,0,0,0-1.13-3.16,4.12,4.12,0,0,0-3.12-1.17,6.63,6.63,0,0,0-2.37.46,11.42,11.42,0,0,0-2.45,1.33l-.69-1.3a10.16,10.16,0,0,1,5.66-2,6.07,6.07,0,0,1,4.44,1.59,5.87,5.87,0,0,1,1.62,4.39v6.78q0,.81.72.81v1.73a4.69,4.69,0,0,1-.75.09,1.69,1.69,0,0,1-1.17-.37,1.41,1.41,0,0,1-.45-1l-.06-1.18a6.82,6.82,0,0,1-2.61,2.08A8,8,0,0,1,234.23,908.54Zm.46-1.5a6.78,6.78,0,0,0,2.81-.58,4.6,4.6,0,0,0,1.95-1.53,1.81,1.81,0,0,0,.39-.56,1.44,1.44,0,0,0,.13-.56v-2.45a12.1,12.1,0,0,0-2-.58,11.43,11.43,0,0,0-2.15-.2,6,6,0,0,0-3.38.87,2.63,2.63,0,0,0-1.3,2.28,3.11,3.11,0,0,0,.27,1.3,3.29,3.29,0,0,0,.75,1.05,3.49,3.49,0,0,0,1.14.71A3.84,3.84,0,0,0,234.69,907Z"/><path d="M258.82,908.26h-2v-8.4a7.33,7.33,0,0,0-.79-3.9,2.71,2.71,0,0,0-2.44-1.21,5,5,0,0,0-1.73.32,5.85,5.85,0,0,0-1.6.89,6.84,6.84,0,0,0-1.31,1.37,5.37,5.37,0,0,0-.84,1.72v9.21h-2v-15H248v3.41a7.06,7.06,0,0,1,2.64-2.66,7.24,7.24,0,0,1,3.74-1,4.43,4.43,0,0,1,2.11.46,3.6,3.6,0,0,1,1.39,1.3,6,6,0,0,1,.75,2,14.39,14.39,0,0,1,.23,2.68Z"/><path d="M275.65,908.26h-2v-8.4a7.33,7.33,0,0,0-.79-3.9,2.71,2.71,0,0,0-2.44-1.21,5,5,0,0,0-1.73.32,5.85,5.85,0,0,0-1.6.89,6.84,6.84,0,0,0-1.31,1.37A5.37,5.37,0,0,0,265,899v9.21h-2v-15h1.79v3.41a7.06,7.06,0,0,1,2.64-2.66,7.24,7.24,0,0,1,3.74-1,4.43,4.43,0,0,1,2.11.46,3.6,3.6,0,0,1,1.39,1.3,6,6,0,0,1,.75,2,14.39,14.39,0,0,1,.23,2.68Z"/><path d="M793.64,834.37a23.8,23.8,0,0,1-1.21,7.75,19.35,19.35,0,0,1-3.35,6.12,15.21,15.21,0,0,1-5.07,4,14.9,14.9,0,0,1-12.76,0,15.17,15.17,0,0,1-5.07-4,19.29,19.29,0,0,1-3.35-6.12,25.41,25.41,0,0,1,0-15.5,19.29,19.29,0,0,1,3.35-6.12,15.54,15.54,0,0,1,5.07-4,14.59,14.59,0,0,1,12.76,0,15.58,15.58,0,0,1,5.07,4,19.35,19.35,0,0,1,3.35,6.12A23.8,23.8,0,0,1,793.64,834.37Zm-4.4,0a21.29,21.29,0,0,0-.86-6.25A15.28,15.28,0,0,0,786,823.3a11,11,0,0,0-3.67-3.12,10,10,0,0,0-4.69-1.12,10.1,10.1,0,0,0-4.75,1.12,10.94,10.94,0,0,0-3.67,3.13,15.24,15.24,0,0,0-2.39,4.82,23.11,23.11,0,0,0,0,12.5,15.22,15.22,0,0,0,2.39,4.82,10.61,10.61,0,0,0,3.67,3.09,10.33,10.33,0,0,0,4.75,1.08,10.21,10.21,0,0,0,4.69-1.08,10.63,10.63,0,0,0,3.67-3.09,15.26,15.26,0,0,0,2.39-4.82A21.29,21.29,0,0,0,789.24,834.37Z"/><path d="M800,853.05a25.48,25.48,0,0,1,.38-4.37,15.23,15.23,0,0,1,1.5-4.37,16.19,16.19,0,0,1,3.19-4.18,23.27,23.27,0,0,1,5.52-3.79q1.85-1,3.86-1.88a25.72,25.72,0,0,0,3.7-2.07,11.6,11.6,0,0,0,2.77-2.58,5.4,5.4,0,0,0,1.08-3.35,5.7,5.7,0,0,0-.54-2.39,6.29,6.29,0,0,0-1.59-2.11,8.23,8.23,0,0,0-2.62-1.5,10.65,10.65,0,0,0-3.67-.57,10.93,10.93,0,0,0-3.76.61,13.67,13.67,0,0,0-2.9,1.44,12.9,12.9,0,0,0-2.14,1.75,19.85,19.85,0,0,0-1.34,1.5l-2.87-3.13q.38-.38,1.47-1.4a15.6,15.6,0,0,1,2.84-2,22.62,22.62,0,0,1,4.11-1.82,16.49,16.49,0,0,1,5.29-.8,15.91,15.91,0,0,1,5.23.8,11.58,11.58,0,0,1,3.89,2.2,9.55,9.55,0,0,1,2.42,3.22,9.06,9.06,0,0,1,.83,3.79,8.63,8.63,0,0,1-1.15,4.53,12.9,12.9,0,0,1-2.84,3.32,20,20,0,0,1-3.6,2.39q-1.91,1-3.44,1.69a41.25,41.25,0,0,0-4,2,21.37,21.37,0,0,0-3.48,2.46,12.41,12.41,0,0,0-2.52,3,7.08,7.08,0,0,0-1,3.7h22.71v4Z"/><path d="M852.32,853.05V807.77h15.37a23.32,23.32,0,0,1,9.47,1.79,19.26,19.26,0,0,1,6.76,4.85,20.46,20.46,0,0,1,4.08,7.17,27.57,27.57,0,0,1,1.37,8.77,27,27,0,0,1-1.53,9.34,20.31,20.31,0,0,1-4.37,7.14,19.54,19.54,0,0,1-6.83,4.59,23.54,23.54,0,0,1-9,1.63Zm32.59-22.71a23.38,23.38,0,0,0-1.15-7.49,16.94,16.94,0,0,0-3.35-5.9,15,15,0,0,0-5.39-3.86,18.43,18.43,0,0,0-7.34-1.37H856.79V849.1h10.91a18.1,18.1,0,0,0,7.43-1.44,15.11,15.11,0,0,0,5.39-4,17.16,17.16,0,0,0,3.29-5.93A23.77,23.77,0,0,0,884.92,830.35Z"/><path d="M911.38,853.69a16,16,0,0,1-6.67-1.37,16.34,16.34,0,0,1-5.26-3.76A17.47,17.47,0,0,1,896,843a17.94,17.94,0,0,1-1.24-6.7,17.53,17.53,0,0,1,1.24-6.6,17.1,17.1,0,0,1,3.44-5.42,16.36,16.36,0,0,1,5.26-3.7,16.8,16.8,0,0,1,13.3,0,15.87,15.87,0,0,1,5.2,3.73,17.51,17.51,0,0,1,4.59,11.93v1a2.59,2.59,0,0,1-.06.7H899.27a14,14,0,0,0,1.24,4.94,13.58,13.58,0,0,0,2.71,3.92,12.12,12.12,0,0,0,3.79,2.58,11.34,11.34,0,0,0,4.56.92,11.78,11.78,0,0,0,3.19-.45,12.88,12.88,0,0,0,2.93-1.21,10.91,10.91,0,0,0,2.42-1.88,8.05,8.05,0,0,0,1.66-2.46l3.76,1a11,11,0,0,1-2.17,3.35,15.11,15.11,0,0,1-3.25,2.61,15.88,15.88,0,0,1-4.08,1.72A17.73,17.73,0,0,1,911.38,853.69Zm12.25-19a13.34,13.34,0,0,0-3.92-8.67,11.86,11.86,0,0,0-3.76-2.49,11.7,11.7,0,0,0-4.56-.89,11.93,11.93,0,0,0-4.59.89A11.76,11.76,0,0,0,903,826a12.21,12.21,0,0,0-2.62,3.83,14.45,14.45,0,0,0-1.18,4.85Z"/><path d="M931.09,850.12l22.45-27H931.61v-3.25h26.66v2.93l-22.39,27H958.2v3.25H931.09Z"/><path d="M1002.66,849.1v4H981v-4h9.06V821.8a7,7,0,0,1-1.75,1.66,21.12,21.12,0,0,1-2.74,1.66,20.56,20.56,0,0,1-3.09,1.28,9.36,9.36,0,0,1-2.81.51v-4.21a7.61,7.61,0,0,0,3.22-.83,23.16,23.16,0,0,0,3.32-1.91,29.17,29.17,0,0,0,2.65-2,5.54,5.54,0,0,0,1.21-1.28h4.46V849.1Z"/><path d="M1038.7,840.49a11.27,11.27,0,0,1-1.28,5.39A13.06,13.06,0,0,1,1034,850a15.76,15.76,0,0,1-5.07,2.65,20,20,0,0,1-6.09.92,18,18,0,0,1-6.25-1.05,15.49,15.49,0,0,1-4.94-2.87,13,13,0,0,1-3.22-4.24,11.91,11.91,0,0,1-1.15-5.17,10,10,0,0,1,.8-4,12.11,12.11,0,0,1,2.07-3.29,14.17,14.17,0,0,1,2.9-2.49,15.19,15.19,0,0,1,3.29-1.63,15.49,15.49,0,0,1-2.87-1.56,11.85,11.85,0,0,1-2.36-2.14,10.1,10.1,0,0,1-1.63-2.68,8.09,8.09,0,0,1-.61-3.12,9.45,9.45,0,0,1,1.28-4.94,12.09,12.09,0,0,1,3.29-3.6,15,15,0,0,1,4.53-2.23,17.17,17.17,0,0,1,10.14,0,15.44,15.44,0,0,1,4.53,2.2,11.62,11.62,0,0,1,3.28,3.6,9.51,9.51,0,0,1,1.28,4.91,8.12,8.12,0,0,1-.61,3.13,10.23,10.23,0,0,1-1.66,2.71,11.75,11.75,0,0,1-2.42,2.17,16.51,16.51,0,0,1-2.9,1.56,15,15,0,0,1,3.51,1.75,14.12,14.12,0,0,1,2.9,2.58,11.88,11.88,0,0,1,2,3.32A10.83,10.83,0,0,1,1038.7,840.49Zm-4.4-.32a7.91,7.91,0,0,0-1-4.05,9.67,9.67,0,0,0-2.68-3,12.63,12.63,0,0,0-3.7-1.85,13.44,13.44,0,0,0-4-.64,12.62,12.62,0,0,0-4.08.67,12,12,0,0,0-3.57,1.91,9.49,9.49,0,0,0-2.55,3,8.26,8.26,0,0,0-1,4,7.77,7.77,0,0,0,1,4,9.79,9.79,0,0,0,2.65,3A12.18,12.18,0,0,0,1019,849a13.29,13.29,0,0,0,4,.64,12.74,12.74,0,0,0,4-.67,11.94,11.94,0,0,0,3.6-1.91,10,10,0,0,0,2.58-3A7.86,7.86,0,0,0,1034.29,840.17Zm-21.11-20.67a6.07,6.07,0,0,0,.89,3.28,8.27,8.27,0,0,0,2.29,2.42,10.52,10.52,0,0,0,3.16,1.5,11.76,11.76,0,0,0,6.86,0,10.59,10.59,0,0,0,3.16-1.53,8.35,8.35,0,0,0,2.33-2.49,6.24,6.24,0,0,0,.89-3.32,6.33,6.33,0,0,0-.83-3.22,7.74,7.74,0,0,0-2.2-2.42,10.1,10.1,0,0,0-3.16-1.5,13.41,13.41,0,0,0-3.7-.51,12.15,12.15,0,0,0-3.6.54,10.24,10.24,0,0,0-3.09,1.53,7.77,7.77,0,0,0-2.17,2.46A6.5,6.5,0,0,0,1013.18,819.5Z"/><path d="M913.39,908.26a11.55,11.55,0,0,1,.17-2,6.88,6.88,0,0,1,.68-2,7.34,7.34,0,0,1,1.44-1.89,10.57,10.57,0,0,1,2.5-1.72q.84-.43,1.75-.85a11.59,11.59,0,0,0,1.67-.94,5.27,5.27,0,0,0,1.26-1.17,2.44,2.44,0,0,0,.49-1.52,2.58,2.58,0,0,0-.25-1.08,2.86,2.86,0,0,0-.72-1,3.72,3.72,0,0,0-1.18-.68,4.82,4.82,0,0,0-1.66-.26,4.94,4.94,0,0,0-1.7.27,6.21,6.21,0,0,0-1.31.65,5.83,5.83,0,0,0-1,.79q-.4.42-.61.68l-1.3-1.41.66-.63a7.09,7.09,0,0,1,1.28-.92,10.26,10.26,0,0,1,1.86-.82,7.47,7.47,0,0,1,2.4-.36,7.21,7.21,0,0,1,2.37.36,5.24,5.24,0,0,1,1.76,1,4.31,4.31,0,0,1,1.1,1.46,4.1,4.1,0,0,1,.38,1.72,3.91,3.91,0,0,1-.52,2,5.86,5.86,0,0,1-1.28,1.5,9.1,9.1,0,0,1-1.63,1.08q-.87.45-1.56.76a18.55,18.55,0,0,0-1.8.91,9.8,9.8,0,0,0-1.57,1.11,5.62,5.62,0,0,0-1.14,1.36,3.2,3.2,0,0,0-.45,1.67h10.27v1.79Z"/><path d="M928.43,908.26a11.55,11.55,0,0,1,.17-2,6.88,6.88,0,0,1,.68-2,7.34,7.34,0,0,1,1.44-1.89,10.57,10.57,0,0,1,2.5-1.72q.84-.43,1.75-.85a11.59,11.59,0,0,0,1.67-.94,5.27,5.27,0,0,0,1.26-1.17,2.44,2.44,0,0,0,.49-1.52,2.58,2.58,0,0,0-.25-1.08,2.86,2.86,0,0,0-.72-1,3.72,3.72,0,0,0-1.18-.68,4.82,4.82,0,0,0-1.66-.26,4.94,4.94,0,0,0-1.7.27,6.21,6.21,0,0,0-1.31.65,5.83,5.83,0,0,0-1,.79q-.4.42-.61.68l-1.3-1.41.66-.63a7.09,7.09,0,0,1,1.28-.92,10.26,10.26,0,0,1,1.86-.82,7.47,7.47,0,0,1,2.4-.36,7.21,7.21,0,0,1,2.37.36,5.24,5.24,0,0,1,1.76,1,4.31,4.31,0,0,1,1.1,1.46,4.1,4.1,0,0,1,.38,1.72,3.91,3.91,0,0,1-.52,2,5.86,5.86,0,0,1-1.28,1.5,9.1,9.1,0,0,1-1.63,1.08q-.87.45-1.56.76a18.55,18.55,0,0,0-1.8.91,9.8,9.8,0,0,0-1.57,1.11,5.62,5.62,0,0,0-1.14,1.36,3.2,3.2,0,0,0-.45,1.67h10.27v1.79Z"/><path d="M960.38,908.4a8.67,8.67,0,0,1-3.91-.88,9.72,9.72,0,0,1-3-2.34,10.61,10.61,0,0,1-2-3.33,11,11,0,0,1-.69-3.84,10.65,10.65,0,0,1,.74-3.93,10.81,10.81,0,0,1,2-3.32,9.86,9.86,0,0,1,3.06-2.29,8.64,8.64,0,0,1,3.81-.85,8.45,8.45,0,0,1,3.91.91,9.8,9.8,0,0,1,3,2.38,11,11,0,0,1,1.95,3.33A10.8,10.8,0,0,1,970,898a10.64,10.64,0,0,1-.74,3.92,10.78,10.78,0,0,1-2,3.3,9.79,9.79,0,0,1-3,2.28A8.64,8.64,0,0,1,960.38,908.4ZM952.79,898a9.55,9.55,0,0,0,.55,3.22,8.73,8.73,0,0,0,1.56,2.74,7.65,7.65,0,0,0,2.4,1.91,6.69,6.69,0,0,0,3.09.71,6.6,6.6,0,0,0,3.15-.75,7.68,7.68,0,0,0,2.4-2,9.08,9.08,0,0,0,1.52-2.74,9.43,9.43,0,0,0,0-6.33,8.8,8.8,0,0,0-1.57-2.73,7.76,7.76,0,0,0-2.39-1.89,6.63,6.63,0,0,0-3.06-.71,6.7,6.7,0,0,0-3.15.74,7.48,7.48,0,0,0-2.4,1.95,9.09,9.09,0,0,0-1.52,2.74A9.41,9.41,0,0,0,952.79,898Z"/><path d="M972.35,900.69a8.22,8.22,0,0,1,.55-3,7.48,7.48,0,0,1,1.54-2.47,7.22,7.22,0,0,1,2.38-1.66,7.56,7.56,0,0,1,3.06-.61,7,7,0,0,1,3.72,1,6.21,6.21,0,0,1,2.4,2.61l-1.91.61a4.57,4.57,0,0,0-1.77-1.8,5.24,5.24,0,0,0-4.68-.19,5.49,5.49,0,0,0-1.73,1.25,5.78,5.78,0,0,0-1.15,1.89,6.94,6.94,0,0,0,0,4.79A6.11,6.11,0,0,0,976,905a5.64,5.64,0,0,0,1.75,1.3,4.84,4.84,0,0,0,2.12.48,5.17,5.17,0,0,0,1.43-.2,5.46,5.46,0,0,0,1.31-.56,4.73,4.73,0,0,0,1-.82,2.67,2.67,0,0,0,.61-1l1.93.58a4.91,4.91,0,0,1-.92,1.49,6.4,6.4,0,0,1-1.43,1.18,7,7,0,0,1-1.82.78,7.74,7.74,0,0,1-2.06.27,7.3,7.3,0,0,1-5.43-2.32,7.89,7.89,0,0,1-1.57-2.5A8.1,8.1,0,0,1,972.35,900.69Z"/><path d="M996.45,907.53l-.5.23q-.33.15-.76.29a8.94,8.94,0,0,1-1,.26,5.66,5.66,0,0,1-1.15.12,4.21,4.21,0,0,1-1.21-.17,2.81,2.81,0,0,1-1-.53,2.62,2.62,0,0,1-.69-.91,2.94,2.94,0,0,1-.26-1.27V894.78h-2.08v-1.56h2.08v-5.08h2v5.08h3.46v1.56h-3.46V905a1.56,1.56,0,0,0,.59,1.23,2,2,0,0,0,1.23.39,3.67,3.67,0,0,0,1.47-.27,6.59,6.59,0,0,0,.81-.39Z"/><path d="M1015.82,906.47v1.79H1006v-1.79h4.1V894.11a3.17,3.17,0,0,1-.79.75,9.82,9.82,0,0,1-1.24.75,9.39,9.39,0,0,1-1.4.58,4.23,4.23,0,0,1-1.27.23v-1.9a3.45,3.45,0,0,0,1.46-.37,10.53,10.53,0,0,0,1.5-.87,13.09,13.09,0,0,0,1.2-.92,2.45,2.45,0,0,0,.55-.58h2v14.69Z"/><path d="M1032.12,902.57a5.1,5.1,0,0,1-.58,2.44,5.9,5.9,0,0,1-1.56,1.86,7.14,7.14,0,0,1-2.29,1.2,9,9,0,0,1-2.76.42,8.15,8.15,0,0,1-2.83-.48,7,7,0,0,1-2.24-1.3,5.88,5.88,0,0,1-1.46-1.92,5.38,5.38,0,0,1-.52-2.34,4.55,4.55,0,0,1,.36-1.82,5.46,5.46,0,0,1,.94-1.49,6.41,6.41,0,0,1,1.31-1.13,6.89,6.89,0,0,1,1.49-.74,7.07,7.07,0,0,1-1.3-.71,5.43,5.43,0,0,1-1.07-1,4.58,4.58,0,0,1-.74-1.21,3.67,3.67,0,0,1-.27-1.41,4.27,4.27,0,0,1,.58-2.24,5.48,5.48,0,0,1,1.49-1.63,6.77,6.77,0,0,1,2-1,7.77,7.77,0,0,1,4.59,0,7,7,0,0,1,2,1,5.25,5.25,0,0,1,1.49,1.63,4.3,4.3,0,0,1,.58,2.22,3.67,3.67,0,0,1-.27,1.41,4.62,4.62,0,0,1-.75,1.23,5.37,5.37,0,0,1-1.1,1,7.49,7.49,0,0,1-1.31.71,6.84,6.84,0,0,1,1.59.79,6.39,6.39,0,0,1,1.31,1.17,5.34,5.34,0,0,1,.89,1.5A4.88,4.88,0,0,1,1032.12,902.57Zm-2-.14a3.58,3.58,0,0,0-.46-1.83,4.37,4.37,0,0,0-1.21-1.34,5.7,5.7,0,0,0-1.67-.84,6.11,6.11,0,0,0-1.82-.29,5.71,5.71,0,0,0-1.85.3,5.42,5.42,0,0,0-1.62.87,4.28,4.28,0,0,0-1.15,1.37,3.73,3.73,0,0,0-.43,1.79,3.52,3.52,0,0,0,.46,1.8,4.43,4.43,0,0,0,1.2,1.34,5.54,5.54,0,0,0,1.64.84,6,6,0,0,0,1.83.29,5.76,5.76,0,0,0,1.83-.3,5.41,5.41,0,0,0,1.63-.87,4.54,4.54,0,0,0,1.17-1.36A3.56,3.56,0,0,0,1030.13,902.43Zm-9.55-9.35a2.75,2.75,0,0,0,.4,1.49,3.75,3.75,0,0,0,1,1.1,4.76,4.76,0,0,0,1.43.68,5.34,5.34,0,0,0,3.1,0,4.8,4.8,0,0,0,1.43-.69,3.79,3.79,0,0,0,1.05-1.12,2.83,2.83,0,0,0,.4-1.5,2.86,2.86,0,0,0-.37-1.46,3.49,3.49,0,0,0-1-1.1,4.56,4.56,0,0,0-1.43-.68,6.08,6.08,0,0,0-1.67-.23,5.5,5.5,0,0,0-1.63.25,4.64,4.64,0,0,0-1.4.69,3.53,3.53,0,0,0-1,1.11A2.94,2.94,0,0,0,1020.58,893.08Z"/><rect class="cls-7" x="43.5" y="472" width="1000" height="3"/><rect class="cls-7" x="43.5" y="626" width="1000" height="3"/><rect class="cls-7" x="43.5" y="781" width="1000" height="3"/></svg>