<?xml version="1.0" encoding="utf-8"?>
<!-- Generator: Adobe Illustrator 16.0.0, SVG Export Plug-In . SVG Version: 6.00 Build 0)  -->
<!DOCTYPE svg PUBLIC "-//W3C//DTD SVG 1.1//EN" "http://www.w3.org/Graphics/SVG/1.1/DTD/svg11.dtd">
<svg version="1.1" id="Ebene_1" xmlns="http://www.w3.org/2000/svg" xmlns:xlink="http://www.w3.org/1999/xlink" x="0px" y="0px"
	 width="2000px" height="2000px" viewBox="0 0 2000 2000" enable-background="new 0 0 2000 2000" xml:space="preserve">
<path fill="#E5E5E4" d="M1897.611,1660H102.39C46.075,1660,0,1612.487,0,1554.405V445.595C0,387.512,46.075,340,102.39,340h1795.222
	C1953.924,340,2000,387.512,2000,445.595v1108.811C2000,1612.487,1953.924,1660,1897.611,1660"/>
<path fill="#FFFFFF" d="M1856.728,1609.774H151.269c-53.498,0-97.269-43.918-97.269-97.601v-1024.8
	c0-53.679,43.771-97.599,97.269-97.599h1705.458c53.5,0,97.272,43.92,97.272,97.599v1024.8
	C1954,1565.856,1910.228,1609.774,1856.728,1609.774"/>
<polygon fill="#024669" points="293.915,646.911 293.922,646.908 293.912,646.908 "/>
<path fill="#FFFFFF" d="M1834.03,893.036H805.501c-21.398,0-38.907-17.573-38.907-39.052v-37.883
	c0-21.479,17.509-39.053,38.907-39.053H1834.03c21.398,0,38.907,17.574,38.907,39.053v37.883
	C1872.938,875.463,1855.429,893.036,1834.03,893.036"/>
<path fill="none" stroke="#024669" stroke-width="2" stroke-miterlimit="10" d="M1834.03,893.036H805.501
	c-21.398,0-38.907-17.573-38.907-39.052v-37.883c0-21.479,17.509-39.053,38.907-39.053H1834.03
	c21.398,0,38.907,17.574,38.907,39.053v37.883C1872.938,875.463,1855.429,893.036,1834.03,893.036z"/>
<path fill="#FFFFFF" d="M1827.15,1037.358H798.621c-21.398,0-38.907-17.575-38.907-39.055v-37.882
	c0-21.479,17.509-39.053,38.907-39.053h1028.53c21.397,0,38.908,17.574,38.908,39.053v37.882
	C1866.059,1019.783,1848.548,1037.358,1827.15,1037.358"/>
<path fill="none" stroke="#024669" stroke-width="2" stroke-miterlimit="10" d="M1827.15,1037.358H798.621
	c-21.398,0-38.907-17.575-38.907-39.055v-37.882c0-21.479,17.509-39.053,38.907-39.053h1028.53
	c21.397,0,38.908,17.574,38.908,39.053v37.882C1866.059,1019.783,1848.548,1037.358,1827.15,1037.358z"/>
<path fill="#FFFFFF" d="M1827.432,1180.727H798.906c-21.4,0-38.908-17.578-38.908-39.054v-37.884
	c0-21.481,17.508-39.052,38.908-39.052h1028.526c21.401,0,38.908,17.57,38.908,39.052v37.884
	C1866.34,1163.148,1848.833,1180.727,1827.432,1180.727"/>
<path fill="none" stroke="#024669" stroke-width="2" stroke-miterlimit="10" d="M1827.432,1180.727H798.906
	c-21.4,0-38.908-17.578-38.908-39.054v-37.884c0-21.481,17.508-39.052,38.908-39.052h1028.526c21.401,0,38.908,17.57,38.908,39.052
	v37.884C1866.34,1163.148,1848.833,1180.727,1827.432,1180.727z"/>
<path fill="#FFFFFF" d="M1829.451,1321.434H800.926c-21.401,0-38.908-17.572-38.908-39.053v-37.884
	c0-21.478,17.507-39.055,38.908-39.055h1028.525c21.402,0,38.911,17.577,38.911,39.055v37.884
	C1868.362,1303.861,1850.854,1321.434,1829.451,1321.434"/>
<path fill="none" stroke="#024669" stroke-width="2" stroke-miterlimit="10" d="M1829.451,1321.434H800.926
	c-21.401,0-38.908-17.572-38.908-39.053v-37.884c0-21.478,17.507-39.055,38.908-39.055h1028.525
	c21.402,0,38.911,17.577,38.911,39.055v37.884C1868.362,1303.861,1850.854,1321.434,1829.451,1321.434z"/>
<path fill="#024669" d="M255.483,504.2c-3.767,0-6.988,2.661-7.71,6.358l-2.626,13.485c-6.454,2.438-12.422,5.852-17.663,10.152
	l-12.932-4.454c-3.563-1.225-7.483,0.246-9.369,3.502l-11.857,20.55c-1.877,3.264-1.193,7.407,1.644,9.875l10.367,9.016
	c-0.538,3.314-0.891,6.685-0.891,10.152c0,3.468,0.354,6.835,0.891,10.152l-10.367,9.016c-2.837,2.473-3.521,6.612-1.644,9.875
	l11.857,20.55c1.878,3.264,5.806,4.73,9.369,3.517l12.932-4.454c5.237,4.3,11.212,7.694,17.663,10.137l2.626,13.485
	c0.722,3.701,3.943,6.358,7.71,6.358h23.745c3.763,0,6.988-2.657,7.71-6.358l2.626-13.485c6.451-2.442,12.425-5.852,17.663-10.152
	l12.932,4.454c3.563,1.229,7.479-0.238,9.369-3.502l11.857-20.565c1.874-3.264,1.198-7.388-1.643-9.86l-10.367-9.016
	c0.538-3.317,0.891-6.685,0.891-10.152c0-3.467-0.353-6.838-0.891-10.152l10.367-9.016c2.841-2.469,3.517-6.612,1.643-9.875
	l-11.857-20.55c-1.874-3.264-5.805-4.734-9.369-3.518l-12.932,4.454c-5.237-4.3-11.212-7.698-17.663-10.137l-2.626-13.485
	c-0.722-3.697-3.947-6.358-7.71-6.358H255.483z M267.355,551.382c17.371,0,31.455,14.083,31.455,31.454
	c0,17.371-14.084,31.455-31.455,31.455S235.9,600.207,235.9,582.836C235.9,565.465,249.984,551.382,267.355,551.382z"/>
<text transform="matrix(1 0 0 1 391.4189 626.1157)" fill="#981918" font-family="'Raleway-Bold'" font-size="138.2765">Settings</text>
<text transform="matrix(0.8827 0 0 1 192.2729 860.0815)" font-family="'Raleway-Bold'" font-size="80">E-Mail:</text>
<text transform="matrix(0.8827 0 0 1 192.2734 1004.4023)" font-family="'Raleway-Bold'" font-size="80">Username:</text>
<text transform="matrix(0.8827 0 0 1 192.2729 1147.7715)" font-family="'Raleway-Bold'" font-size="80">Tel-Nr.:</text>
<text transform="matrix(0.8827 0 0 1 192.2729 1288.4775)" font-family="'Raleway-Bold'" font-size="80">Password:</text>
<path fill="#E5E5E4" d="M1127.096,1564.545h-254.19c-7.974,0-14.497-4.945-14.497-10.991v-115.417
	c0-6.046,6.523-10.992,14.497-10.992h254.19c7.973,0,14.496,4.946,14.496,10.992v115.417
	C1141.592,1559.6,1135.068,1564.545,1127.096,1564.545"/>
<text transform="matrix(1 0 0 1 919.3608 1518.5967)" font-family="'Raleway-Regular'" font-size="72">Save</text>
</svg>
