<?xml version="1.0" encoding="utf-8"?>
<!-- Generator: Adobe Illustrator 16.0.0, SVG Export Plug-In . SVG Version: 6.00 Build 0)  -->
<!DOCTYPE svg PUBLIC "-//W3C//DTD SVG 1.1//EN" "http://www.w3.org/Graphics/SVG/1.1/DTD/svg11.dtd">
<svg version="1.1" id="Ebene_1" xmlns="http://www.w3.org/2000/svg" xmlns:xlink="http://www.w3.org/1999/xlink" x="0px" y="0px"
	 width="1080px" height="1920px" viewBox="0 0 1080 1920" enable-background="new 0 0 1080 1920" xml:space="preserve">
<rect fill="#FFFFFF" width="1080" height="1920"/>
<g>
	<defs>
		<rect id="SVGID_1_" width="1080" height="1920"/>
	</defs>
	<clipPath id="SVGID_2_">
		<use xlink:href="#SVGID_1_"  overflow="visible"/>
	</clipPath>
	<path clip-path="url(#SVGID_2_)" fill="#E5E5E5" d="M1028,1900H57c-16.568,0-30-13.432-30-30V330c0-16.568,13.432-30,30-30h971
		c16.568,0,30,13.432,30,30v1540C1058,1886.568,1044.568,1900,1028,1900"/>
	<rect x="2.5" y="2.5" clip-path="url(#SVGID_2_)" fill="#F2F2F2" width="1076" height="159"/>
	
		<rect x="2.5" y="2.5" clip-path="url(#SVGID_2_)" fill="none" stroke="#000000" stroke-miterlimit="10" width="1076" height="159"/>
	<polygon clip-path="url(#SVGID_2_)" fill="#004669" points="311.556,50.925 316.42,50.925 307.646,91.935 353.615,50.829 
		359.242,50.829 326.244,80.489 346.176,118.543 340.644,118.543 322.524,83.446 306.501,97.656 302.019,118.543 297.155,118.543 	
		"/>
	<path clip-path="url(#SVGID_2_)" fill="#004669" d="M371.065,119.497c-2.989,0-5.643-0.557-7.963-1.669
		c-2.322-1.112-4.292-2.623-5.913-4.53c-1.622-1.908-2.846-4.133-3.672-6.677c-0.827-2.542-1.24-5.245-1.24-8.106
		c0-3.877,0.747-7.645,2.242-11.301c1.493-3.656,3.576-6.899,6.246-9.729c2.671-2.828,5.801-5.102,9.394-6.819
		c3.591-1.716,7.487-2.574,11.683-2.574c1.97,0,3.878,0.286,5.722,0.858c1.844,0.573,3.482,1.415,4.912,2.528
		c1.431,1.112,2.575,2.496,3.434,4.148c0.858,1.654,1.287,3.562,1.287,5.722c0,9.537-8.647,14.305-25.941,14.305
		c-2.035,0-4.181-0.031-6.438-0.094c-2.257-0.063-4.753-0.191-7.486-0.382c-0.064,0.51-0.112,1.049-0.143,1.621
		c-0.033,0.572-0.048,1.113-0.048,1.622c0,2.353,0.301,4.577,0.906,6.676c0.604,2.097,1.526,3.927,2.766,5.483
		c1.24,1.559,2.797,2.799,4.673,3.72c1.875,0.923,4.054,1.383,6.533,1.383c1.588,0,3.226-0.239,4.912-0.715
		c1.684-0.478,3.29-1.145,4.816-2.003c1.526-0.858,2.94-1.907,4.244-3.148c1.302-1.24,2.399-2.623,3.29-4.148l4.006,1.239
		c-1.144,1.908-2.527,3.625-4.149,5.151c-1.621,1.526-3.402,2.846-5.341,3.958c-1.94,1.113-3.99,1.971-6.151,2.575
		C375.484,119.194,373.29,119.497,371.065,119.497 M381.27,72.002c-2.989,0-5.739,0.557-8.25,1.669
		c-2.512,1.113-4.753,2.575-6.723,4.387c-1.972,1.812-3.657,3.895-5.055,6.247c-1.399,2.352-2.448,4.768-3.147,7.248
		c2.67,0.19,5.07,0.319,7.2,0.382s4.212,0.094,6.247,0.094c3.942,0,7.263-0.27,9.967-0.811c2.701-0.539,4.878-1.287,6.532-2.241
		c1.653-0.954,2.845-2.081,3.577-3.386c0.73-1.302,1.097-2.749,1.097-4.339c0-1.589-0.334-2.972-1.002-4.148
		c-0.667-1.176-1.526-2.147-2.575-2.91c-1.049-0.762-2.274-1.319-3.672-1.669C384.067,72.178,382.668,72.002,381.27,72.002"/>
	<path clip-path="url(#SVGID_2_)" fill="#004669" d="M421.516,119.497c-2.989,0-5.643-0.557-7.963-1.669
		c-2.322-1.112-4.292-2.623-5.913-4.53c-1.622-1.908-2.846-4.133-3.672-6.677c-0.827-2.542-1.24-5.245-1.24-8.106
		c0-3.877,0.747-7.645,2.242-11.301c1.493-3.656,3.576-6.899,6.246-9.729c2.671-2.828,5.801-5.102,9.394-6.819
		c3.591-1.716,7.487-2.574,11.683-2.574c1.97,0,3.878,0.286,5.722,0.858c1.844,0.573,3.482,1.415,4.912,2.528
		c1.431,1.112,2.575,2.496,3.434,4.148c0.858,1.654,1.287,3.562,1.287,5.722c0,9.537-8.647,14.305-25.941,14.305
		c-2.035,0-4.181-0.031-6.438-0.094c-2.257-0.063-4.753-0.191-7.486-0.382c-0.064,0.51-0.112,1.049-0.143,1.621
		c-0.033,0.572-0.048,1.113-0.048,1.622c0,2.353,0.301,4.577,0.906,6.676c0.604,2.097,1.526,3.927,2.766,5.483
		c1.24,1.559,2.797,2.799,4.673,3.72c1.875,0.923,4.054,1.383,6.533,1.383c1.588,0,3.226-0.239,4.912-0.715
		c1.684-0.478,3.29-1.145,4.816-2.003c1.526-0.858,2.94-1.907,4.244-3.148c1.302-1.24,2.399-2.623,3.29-4.148l4.006,1.239
		c-1.144,1.908-2.527,3.625-4.149,5.151c-1.621,1.526-3.402,2.846-5.341,3.958c-1.94,1.113-3.99,1.971-6.151,2.575
		C425.935,119.194,423.741,119.497,421.516,119.497 M431.721,72.002c-2.989,0-5.739,0.557-8.25,1.669
		c-2.512,1.113-4.753,2.575-6.723,4.387c-1.972,1.812-3.657,3.895-5.055,6.247c-1.399,2.352-2.448,4.768-3.147,7.248
		c2.67,0.19,5.07,0.319,7.2,0.382s4.212,0.094,6.247,0.094c3.942,0,7.263-0.27,9.967-0.811c2.701-0.539,4.878-1.287,6.532-2.241
		c1.653-0.954,2.845-2.081,3.577-3.386c0.73-1.302,1.097-2.749,1.097-4.339c0-1.589-0.334-2.972-1.002-4.148
		c-0.667-1.176-1.526-2.147-2.575-2.91c-1.049-0.762-2.274-1.319-3.672-1.669C434.518,72.178,433.119,72.002,431.721,72.002"/>
	<path clip-path="url(#SVGID_2_)" fill="#004669" d="M462.332,68.95h4.292l-2.098,9.918c2.606-3.179,5.706-5.769,9.298-7.772
		c3.592-2.003,7.201-3.004,10.825-3.004c2.797,0,5.293,0.572,7.486,1.717c2.194,1.143,4.038,2.686,5.532,4.625
		c1.493,1.94,2.638,4.181,3.433,6.723c0.795,2.544,1.193,5.183,1.193,7.916c0,3.815-0.732,7.551-2.194,11.206
		c-1.463,3.657-3.45,6.914-5.961,9.776c-2.512,2.861-5.452,5.15-8.821,6.867c-3.372,1.717-6.932,2.575-10.682,2.575
		c-4.006,0-7.344-1.129-10.014-3.386c-2.671-2.257-4.611-5.008-5.818-8.25l-6.581,30.996h-4.768L462.332,68.95z M474.444,115.205
		c3.115,0,6.056-0.763,8.822-2.289c2.766-1.526,5.198-3.496,7.296-5.913c2.098-2.415,3.751-5.134,4.959-8.154
		c1.207-3.019,1.812-6.056,1.812-9.108c0-2.351-0.35-4.578-1.049-6.677c-0.7-2.097-1.685-3.941-2.956-5.531
		c-1.273-1.589-2.799-2.845-4.578-3.767c-1.781-0.921-3.784-1.383-6.009-1.383c-1.653,0-3.466,0.367-5.436,1.096
		c-1.971,0.733-3.879,1.717-5.722,2.957c-1.845,1.241-3.514,2.656-5.007,4.245c-1.495,1.589-2.528,3.275-3.1,5.054l-3.529,16.309
		c0.382,1.845,1.002,3.561,1.86,5.149c0.859,1.591,1.908,2.99,3.148,4.197c1.239,1.209,2.67,2.146,4.291,2.813
		C470.868,114.871,472.599,115.205,474.444,115.205"/>
	<polygon clip-path="url(#SVGID_2_)" fill="#990000" points="529,55.216 505.539,55.216 506.397,50.829 558.279,50.829 
		557.325,55.216 533.864,55.216 520.321,118.543 515.553,118.543 	"/>
	<path clip-path="url(#SVGID_2_)" fill="#990000" d="M567.816,48.922h4.768l-6.771,31.854c2.732-3.877,6.04-6.962,9.919-9.251
		c3.878-2.289,7.788-3.433,11.731-3.433c4.005,0,6.897,1.129,8.678,3.386c1.779,2.256,2.671,5.421,2.671,9.489
		c0,1.335-0.081,2.766-0.238,4.292c-0.159,1.525-0.429,3.115-0.812,4.768l-6.009,28.516h-4.768l5.817-27.658
		c0.635-2.987,0.953-5.626,0.953-7.915c0-6.994-2.893-10.491-8.678-10.491c-1.908,0-3.863,0.381-5.865,1.144
		c-2.003,0.763-3.943,1.845-5.818,3.242c-1.875,1.399-3.609,3.037-5.197,4.912c-1.59,1.876-2.895,3.896-3.91,6.056l-6.485,30.71
		h-4.769L567.816,48.922z"/>
	<path clip-path="url(#SVGID_2_)" fill="#990000" d="M616.168,68.95h4.768l-10.49,49.593h-4.769L616.168,68.95z M620.459,48.922
		h4.77l-1.813,8.774h-4.77L620.459,48.922z"/>
	<path clip-path="url(#SVGID_2_)" fill="#990000" d="M635.336,68.95h4.482l-2.574,11.825c1.335-1.907,2.893-3.638,4.673-5.197
		c1.779-1.558,3.672-2.893,5.675-4.006c2.003-1.111,4.068-1.97,6.199-2.575c2.129-0.604,4.244-0.905,6.342-0.905
		c3.814,0,6.549,1.017,8.202,3.051c1.653,2.036,2.479,4.993,2.479,8.87c0,1.463-0.111,3.02-0.334,4.673
		c-0.223,1.654-0.523,3.433-0.906,5.341l-6.009,28.516h-4.768l5.817-27.658c0.382-1.78,0.651-3.401,0.811-4.864
		c0.158-1.462,0.238-2.797,0.238-4.006c0-6.357-2.64-9.537-7.915-9.537c-1.972,0-4.006,0.382-6.104,1.145
		c-2.098,0.763-4.117,1.845-6.056,3.242c-1.94,1.399-3.735,3.037-5.388,4.912c-1.654,1.876-3.021,3.896-4.102,6.056l-6.485,30.71
		h-4.769L635.336,68.95z"/>
	<path clip-path="url(#SVGID_2_)" fill="#990000" d="M692.081,139.81c-5.469,0-9.618-1.034-12.446-3.099
		c-2.83-2.067-4.848-4.849-6.056-8.345l3.624-2.193c1.145,3.369,3.146,5.832,6.008,7.391c2.861,1.557,6.104,2.336,9.729,2.336
		c2.352,0,4.674-0.349,6.962-1.049c2.288-0.7,4.37-1.733,6.247-3.099c1.875-1.368,3.496-3.068,4.863-5.103
		c1.367-2.035,2.337-4.42,2.909-7.152l2.289-10.873c-1.273,1.59-2.703,3.037-4.292,4.34c-1.59,1.304-3.242,2.431-4.959,3.386
		c-1.717,0.953-3.498,1.685-5.341,2.193c-1.845,0.508-3.624,0.763-5.341,0.763c-2.734,0-5.183-0.573-7.344-1.717
		c-2.162-1.145-3.99-2.67-5.484-4.577c-1.494-1.909-2.639-4.102-3.433-6.581c-0.796-2.48-1.192-5.086-1.192-7.821
		c0-3.814,0.764-7.549,2.289-11.206c1.525-3.655,3.576-6.915,6.151-9.775c2.575-2.862,5.546-5.165,8.917-6.915
		c3.369-1.748,6.93-2.622,10.682-2.622c4.068,0,7.392,1.129,9.967,3.385c2.574,2.257,4.593,5.007,6.057,8.249l2.288-10.776h4.292
		l-10.777,50.547c-0.7,3.369-1.924,6.325-3.672,8.869c-1.749,2.542-3.831,4.657-6.246,6.342c-2.418,1.684-5.055,2.957-7.916,3.815
		S695.068,139.81,692.081,139.81 M698.375,115.205c1.971,0,3.99-0.396,6.057-1.192c2.065-0.794,3.989-1.828,5.77-3.1
		c1.779-1.27,3.338-2.701,4.674-4.292c1.335-1.588,2.289-3.178,2.861-4.769l3.434-16.308c-0.319-1.907-0.906-3.671-1.766-5.293
		c-0.857-1.621-1.924-3.004-3.194-4.149c-1.273-1.144-2.734-2.05-4.388-2.717c-1.653-0.668-3.37-1.002-5.149-1.002
		c-3.243,0-6.247,0.796-9.013,2.384c-2.766,1.59-5.183,3.61-7.248,6.056c-2.066,2.448-3.688,5.184-4.864,8.202
		c-1.177,3.021-1.765,5.961-1.765,8.823c0,2.352,0.35,4.577,1.05,6.675c0.698,2.098,1.684,3.944,2.956,5.532
		c1.271,1.589,2.797,2.846,4.578,3.767C694.146,114.744,696.149,115.205,698.375,115.205"/>
	<path clip-path="url(#SVGID_2_)" fill="#990000" d="M748.16,119.497c-3.625,0-6.979-0.637-10.063-1.908
		c-3.084-1.271-5.579-3.178-7.486-5.722l2.956-3.243c2.099,2.417,4.371,4.196,6.819,5.341c2.447,1.145,5.293,1.717,8.535,1.717
		c2.289,0,4.402-0.287,6.342-0.859c1.939-0.572,3.625-1.366,5.056-2.384c1.431-1.016,2.542-2.256,3.338-3.719
		c0.794-1.462,1.192-3.115,1.192-4.959c0-2.416-1.113-4.197-3.338-5.341c-2.227-1.145-5.405-2.257-9.537-3.338
		c-2.227-0.572-4.166-1.145-5.818-1.717c-1.654-0.572-3.037-1.223-4.148-1.955c-1.113-0.73-1.955-1.605-2.527-2.623
		c-0.572-1.017-0.858-2.256-0.858-3.72c0-2.732,0.572-5.165,1.717-7.296c1.145-2.128,2.671-3.91,4.578-5.34
		c1.907-1.431,4.116-2.511,6.628-3.243c2.512-0.73,5.135-1.096,7.868-1.096c3.687,0,6.819,0.652,9.395,1.955
		c2.575,1.304,4.401,2.972,5.483,5.007l-3.146,2.575c-1.082-1.908-2.783-3.338-5.104-4.292c-2.32-0.954-4.911-1.431-7.771-1.431
		c-1.973,0-3.848,0.238-5.627,0.716c-1.781,0.477-3.355,1.208-4.722,2.193c-1.368,0.987-2.465,2.226-3.29,3.719
		c-0.826,1.495-1.24,3.26-1.24,5.294c0,1.081,0.223,1.987,0.668,2.718c0.443,0.731,1.097,1.368,1.955,1.907
		c0.858,0.541,1.955,1.018,3.291,1.431c1.334,0.414,2.892,0.843,4.672,1.287c2.48,0.637,4.688,1.273,6.629,1.908
		c1.938,0.636,3.592,1.383,4.959,2.241c1.367,0.859,2.399,1.876,3.1,3.052c0.699,1.177,1.049,2.591,1.049,4.244
		c0,2.48-0.541,4.753-1.621,6.818c-1.082,2.068-2.574,3.848-4.482,5.341c-1.907,1.495-4.182,2.657-6.818,3.481
		C754.151,119.082,751.273,119.497,748.16,119.497"/>
</g>
<g>
	<defs>
		<rect id="SVGID_3_" width="1080" height="1920"/>
	</defs>
	<clipPath id="SVGID_4_">
		<use xlink:href="#SVGID_3_"  overflow="visible"/>
	</clipPath>
	
		<rect x="36.611" y="65.432" transform="matrix(0.766 -0.6428 0.6428 0.766 -31.1029 55.4137)" clip-path="url(#SVGID_4_)" fill="#004669" width="47.915" height="9.999"/>
	<rect x="39" y="82" clip-path="url(#SVGID_4_)" fill="#004669" width="90" height="10"/>
	
		<rect x="37.485" y="96.819" transform="matrix(0.8192 0.5736 -0.5736 0.8192 69.5704 -17.0102)" clip-path="url(#SVGID_4_)" fill="#004669" width="48.549" height="10"/>
	<path clip-path="url(#SVGID_4_)" fill="#FFFFFF" d="M1008,459c0,6.627-5.373,12-12,12H84c-6.627,0-12-5.373-12-12v-48
		c0-6.627,5.373-12,12-12h912c6.627,0,12,5.373,12,12V459z"/>
	<g clip-path="url(#SVGID_4_)">
	</g>
	<g clip-path="url(#SVGID_4_)">
		<text transform="matrix(1 0 0 1 72.5 379)" font-family="'Raleway-Regular'" font-size="50">Title</text>
	</g>
	<g clip-path="url(#SVGID_4_)">
		<text transform="matrix(1 0 0 1 72 594)" font-family="'Raleway-Regular'" font-size="50">Description</text>
	</g>
	<path clip-path="url(#SVGID_4_)" fill="#878383" d="M1007.98,1763.896c0,6.627-5.373,12-12,12H83.979c-6.627,0-12-5.373-12-12v-49
		c0-6.627,5.373-12,12-12H995.98c6.627,0,12,5.373,12,12V1763.896z"/>
	<path clip-path="url(#SVGID_4_)" fill="#FFFFFF" d="M1007.516,1106.472c0,6.627-5.373,12-12,12h-911.5c-6.627,0-12-5.373-12-12v-47
		c0-6.627,5.373-12,12-12h911.5c6.627,0,12,5.373,12,12V1106.472z"/>
	<g clip-path="url(#SVGID_4_)">
		<text transform="matrix(1 0 0 1 72.0151 1025.9717)" font-family="'Raleway-Regular'" font-size="50">Person</text>
	</g>
	<path clip-path="url(#SVGID_4_)" fill="#FFFFFF" d="M1007.334,891.334c0,6.627-5.373,12-12,12H84c-6.627,0-12-5.373-12-12V626.667
		c0-6.627,5.373-12,12-12h911.334c6.627,0,12,5.373,12,12V891.334z"/>
	<path clip-path="url(#SVGID_4_)" fill="#FFFFFF" d="M1007.516,1321.472c0,6.627-5.373,12-12,12h-911.5c-6.627,0-12-5.373-12-12v-47
		c0-6.627,5.373-12,12-12h911.5c6.627,0,12,5.373,12,12V1321.472z"/>
	<g clip-path="url(#SVGID_4_)">
		<text transform="matrix(1 0 0 1 72.0151 1240.9717)" font-family="'Raleway-Regular'" font-size="50">From</text>
	</g>
	<g clip-path="url(#SVGID_4_)">
		
			<text transform="matrix(1 0 0 1 492.355 1758.6055)" stroke="#000000" stroke-miterlimit="10" font-family="'Raleway-Regular'" font-size="50">Add</text>
	</g>
	<path clip-path="url(#SVGID_4_)" fill="#FFFFFF" d="M1007.516,1538.472c0,6.627-5.373,12-12,12h-911.5c-6.627,0-12-5.373-12-12v-47
		c0-6.627,5.373-12,12-12h911.5c6.627,0,12,5.373,12,12V1538.472z"/>
	<g clip-path="url(#SVGID_4_)">
		<text transform="matrix(1 0 0 1 72.0151 1457.9717)" font-family="'Raleway-Regular'" font-size="50">To</text>
	</g>
</g>
<rect x="26" y="201" fill="none" width="514" height="66"/>
<text transform="matrix(1 0 0 1 26 261.5898)" fill="#990000" font-family="'Raleway-Bold'" font-size="83">Add Item</text>
</svg>
