<?xml version="1.0" encoding="utf-8"?>
<!-- Generator: Adobe Illustrator 16.0.0, SVG Export Plug-In . SVG Version: 6.00 Build 0)  -->
<!DOCTYPE svg PUBLIC "-//W3C//DTD SVG 1.1//EN" "http://www.w3.org/Graphics/SVG/1.1/DTD/svg11.dtd">
<svg version="1.1" id="Ebene_1" xmlns="http://www.w3.org/2000/svg" xmlns:xlink="http://www.w3.org/1999/xlink" x="0px" y="0px"
	 width="2000px" height="2000px" viewBox="0 0 2000 2000" enable-background="new 0 0 2000 2000" xml:space="preserve">
<path fill="#E5E5E4" d="M1897.611,1660H102.39C46.075,1660,0,1612.487,0,1554.405V445.595C0,387.512,46.075,340,102.39,340h1795.222
	C1953.924,340,2000,387.512,2000,445.595v1108.811C2000,1612.487,1953.924,1660,1897.611,1660"/>
<path fill="#FFFFFF" d="M1856.728,1609.774H151.269c-53.498,0-97.269-43.918-97.269-97.601v-1024.8
	c0-53.679,43.771-97.599,97.269-97.599h1705.458c53.5,0,97.272,43.92,97.272,97.599v1024.8
	C1954,1565.856,1910.228,1609.774,1856.728,1609.774"/>
<polygon fill="#024669" points="293.915,646.911 293.922,646.908 293.912,646.908 "/>
<path fill="#FFFFFF" d="M1834.03,893.036H805.501c-21.398,0-38.907-17.573-38.907-39.052v-37.883
	c0-21.479,17.509-39.053,38.907-39.053H1834.03c21.398,0,38.907,17.574,38.907,39.053v37.883
	C1872.938,875.463,1855.429,893.036,1834.03,893.036"/>
<path fill="none" stroke="#024669" stroke-width="2" stroke-miterlimit="10" d="M1837.2,893.036H890.409
	c-19.698,0-35.815-17.573-35.815-39.052v-37.883c0-21.479,16.117-39.053,35.815-39.053H1837.2c19.698,0,35.815,17.574,35.815,39.053
	v37.883C1873.016,875.463,1856.898,893.036,1837.2,893.036z"/>
<path fill="none" stroke="#024669" stroke-width="2" stroke-miterlimit="10" d="M1837.186,1059.432H890.423
	c-19.699,0-35.814-17.571-35.814-39.051v-37.883c0-21.477,16.115-39.054,35.814-39.054h946.763c19.7,0,35.816,17.577,35.816,39.054
	v37.883C1873.002,1041.86,1856.886,1059.432,1837.186,1059.432z"/>
<text transform="matrix(1 0 0 1 391.4189 639.1157)" fill="#981918" font-family="'Raleway-Bold'" font-size="138.2765">Register</text>
<text transform="matrix(0.8827 0 0 1 192.2729 860.0815)" font-family="'Raleway-Bold'" font-size="80">First Name:</text>
<text transform="matrix(0.8827 0 0 1 192.2729 1026.4775)" font-family="'Raleway-Bold'" font-size="80">Last Name:</text>
<path fill="#014669" d="M287.194,573.541c-6.684-18.983-24.772-32.589-46.036-32.589c-26.968,0-48.885,21.916-48.885,48.884
	c0,26.973,21.917,48.885,48.885,48.885c21.264,0,39.352-13.605,46.036-32.59h35.437v32.59h32.59v-32.59h16.295v-32.59H287.194z
	 M241.158,606.13c-8.964,0-16.295-7.336-16.295-16.295c0-8.963,7.331-16.295,16.295-16.295c8.963,0,16.294,7.332,16.294,16.295
	C257.452,598.794,250.121,606.13,241.158,606.13z"/>
<path fill="none" stroke="#024669" stroke-width="2" stroke-miterlimit="10" d="M1837.187,1402.613H890.423
	c-19.699,0-35.814-17.571-35.814-39.051v-37.884c0-21.477,16.115-39.053,35.814-39.053h946.764
	c19.699,0,35.815,17.576,35.815,39.053v37.884C1873.002,1385.042,1856.886,1402.613,1837.187,1402.613z"/>
<text transform="matrix(0.8827 0 0 1 193.8188 1203.2637)" font-family="'Raleway-Bold'" font-size="80">E-Mail:</text>
<text transform="matrix(0.8827 0 0 1 192.8188 1369.6592)" font-family="'Raleway-Bold'" font-size="80">Password:</text>
<path fill="none" stroke="#024669" stroke-width="2" stroke-miterlimit="10" d="M1837.187,1226.067H890.423
	c-19.699,0-35.814-17.571-35.814-39.051v-37.884c0-21.477,16.115-39.053,35.814-39.053h946.764
	c19.699,0,35.815,17.576,35.815,39.053v37.884C1873.002,1208.496,1856.886,1226.067,1837.187,1226.067z"/>
<path fill="none" stroke="#024669" stroke-width="2" stroke-miterlimit="10" d="M1838.106,1568.613H891.344
	c-19.7,0-35.815-17.571-35.815-39.051v-37.884c0-21.477,16.115-39.053,35.815-39.053h946.763c19.7,0,35.816,17.576,35.816,39.053
	v37.884C1873.923,1551.042,1857.807,1568.613,1838.106,1568.613z"/>
<text transform="matrix(0.8827 0 0 1 193.8188 1535.6592)" font-family="'Raleway-Bold'" font-size="80">Confirm Password:</text>
</svg>
