<svg id="Ebene_1" data-name="Ebene 1" xmlns="http://www.w3.org/2000/svg" viewBox="0 0 1662.26 408.22"><defs><style>.cls-1,.cls-10{fill:#527275;}.cls-2{fill:#fff;}.cls-3{opacity:0.04;}.cls-4{fill:#153e49;}.cls-5{fill:#e6e6e6;}.cls-6{opacity:0.22;}.cls-7{fill:#8cad81;}.cls-8{fill:#f7d77f;}.cls-9{fill:#e5c573;}.cls-10{font-size:260.34px;font-family:Raleway-LightItalic, Raleway;font-style:italic;}.cls-11{letter-spacing:-0.03em;}.cls-12{letter-spacing:0em;}.cls-13{letter-spacing:-0.1em;}</style></defs><title>Logo_KeepThings</title><rect class="cls-1" y="45.78" width="265.38" height="362.45" rx="16.11" ry="16.11"/><rect class="cls-2" x="17.38" y="74.37" width="230.62" height="314.98" rx="4.24" ry="4.24"/><path class="cls-3" d="M381.84,694.45l-236.41.24c-3.83.81-14.59-2.14-16.11-13.94l.92-331.51Z" transform="translate(-129.31 -286.82)"/><path class="cls-4" d="M214.62,468.32H160.5V414.2h54.12Zm-52.18-1.94h50.24V416.14H162.44Z" transform="translate(-129.31 -286.82)"/><path class="cls-4" d="M214.62,550H160.5V495.93h54.12Zm-52.18-1.94h50.24V497.87H162.44Z" transform="translate(-129.31 -286.82)"/><path class="cls-4" d="M214.62,631.77H160.5V577.65h54.12Zm-52.18-1.94h50.24V579.59H162.44Z" transform="translate(-129.31 -286.82)"/><rect class="cls-5" x="114.1" y="131.83" width="111.48" height="5.55"/><rect class="cls-5" x="114.1" y="148.89" width="111.48" height="5.55"/><rect class="cls-5" x="114.1" y="165.95" width="111.48" height="5.55"/><rect class="cls-5" x="114.1" y="215.36" width="111.48" height="5.55"/><rect class="cls-5" x="114.1" y="232.43" width="111.48" height="5.55"/><rect class="cls-5" x="114.1" y="249.49" width="111.48" height="5.55"/><rect class="cls-5" x="114.1" y="293.84" width="111.48" height="5.55"/><rect class="cls-5" x="114.1" y="310.9" width="111.48" height="5.55"/><rect class="cls-5" x="114.1" y="327.96" width="111.48" height="5.55"/><polygon class="cls-6" points="94.01 120.74 55.4 149.13 45.02 138.59 35.09 145.23 54.98 160.89 100.66 122.55 94.01 120.74"/><polygon class="cls-7" points="37.11 142.73 44.1 138.06 54.53 148.64 93.63 119.89 96.57 120.69 54.24 156.22 37.11 142.73"/><path class="cls-7" d="M183.56,443.78l-18.11-14.27,8-5.38,10.41,10.57,38.92-28.62,4.26,1.16ZM167.4,429.59l16.14,12.72,41.13-34.53-1.61-.44-39.28,28.88-10.44-10.6Z" transform="translate(-129.31 -286.82)"/><polygon class="cls-6" points="97.95 212.52 59.35 240.91 48.96 230.37 39.04 237 58.92 252.67 104.6 214.33 97.95 212.52"/><polygon class="cls-7" points="41.06 234.51 48.05 229.83 58.47 240.42 97.57 211.67 100.51 212.47 58.18 248 41.06 234.51"/><path class="cls-7" d="M187.5,535.56l-18.11-14.27,8-5.38,10.41,10.57,38.92-28.62L231,499Zm-16.16-14.19,16.14,12.72,41.13-34.53-1.61-.44L187.72,528l-10.44-10.6Z" transform="translate(-129.31 -286.82)"/><polygon class="cls-6" points="97.95 287.81 59.35 316.2 48.96 305.66 39.04 312.3 58.92 327.96 104.6 289.62 97.95 287.81"/><polygon class="cls-7" points="41.06 309.8 48.05 305.13 58.47 315.71 97.57 286.96 100.51 287.76 58.18 323.29 41.06 309.8"/><path class="cls-7" d="M187.5,610.85l-18.11-14.27,8-5.38,10.41,10.57,38.92-28.62,4.26,1.16Zm-16.16-14.19,16.14,12.72,41.13-34.53-1.61-.44-39.28,28.88-10.44-10.6Z" transform="translate(-129.31 -286.82)"/><path class="cls-8" d="M335.24,323.59H295.8V318a31.14,31.14,0,0,0-31.14-31.14H264A31.14,31.14,0,0,0,232.89,318v5.63H193.45a3.69,3.69,0,0,0-3.69,3.69v39.8a3.69,3.69,0,0,0,3.69,3.69H335.24a3.69,3.69,0,0,0,3.69-3.69v-39.8A3.69,3.69,0,0,0,335.24,323.59Zm-70.9-3.7a10.41,10.41,0,1,1,10.41-10.41A10.41,10.41,0,0,1,264.35,319.89Z" transform="translate(-129.31 -286.82)"/><rect class="cls-9" x="60.45" y="71.25" width="149.18" height="6.24"/><path class="cls-9" d="M338.25,368.69H190.58a.83.83,0,0,1-.83-.83v-1.92H338.94V368A.68.68,0,0,1,338.25,368.69Z" transform="translate(-129.31 -286.82)"/><text class="cls-10" transform="translate(347.58 308.59)"><tspan class="cls-11">K</tspan><tspan class="cls-12" x="150.47" y="0">ee</tspan><tspan class="cls-13" x="425.9" y="0">p</tspan><tspan class="cls-8" x="551.65" y="0">Things</tspan></text></svg>