<svg id="Ebene_1" data-name="Ebene 1" xmlns="http://www.w3.org/2000/svg" viewBox="0 0 1657.05 408.22"><defs><style>.cls-1{fill:#004669;}.cls-2{fill:#fff;}.cls-3{opacity:0.04;}.cls-4{fill:#153e49;}.cls-5{fill:#e6e6e6;}.cls-6{opacity:0.22;}.cls-7{fill:#8cad81;}.cls-8{fill:#900;}</style></defs><title>Logo_KeepThings</title><rect class="cls-1" y="45.78" width="265.38" height="362.45" rx="16.11" ry="16.11"/><rect class="cls-2" x="17.38" y="74.37" width="230.62" height="314.98" rx="4.24" ry="4.24"/><path class="cls-3" d="M381.84,694.45l-236.41.24c-3.83.81-14.59-2.14-16.11-13.94l.92-331.51Z" transform="translate(-129.31 -286.82)"/><path class="cls-4" d="M214.62,468.32H160.5V414.2h54.12Zm-52.18-1.94h50.24V416.14H162.44Z" transform="translate(-129.31 -286.82)"/><path class="cls-4" d="M214.62,550H160.5V495.93h54.12Zm-52.18-1.94h50.24V497.87H162.44Z" transform="translate(-129.31 -286.82)"/><path class="cls-4" d="M214.62,631.77H160.5V577.65h54.12Zm-52.18-1.94h50.24V579.59H162.44Z" transform="translate(-129.31 -286.82)"/><rect class="cls-5" x="114.1" y="131.83" width="111.48" height="5.55"/><rect class="cls-5" x="114.1" y="148.89" width="111.48" height="5.55"/><rect class="cls-5" x="114.1" y="165.95" width="111.48" height="5.55"/><rect class="cls-5" x="114.1" y="215.36" width="111.48" height="5.55"/><rect class="cls-5" x="114.1" y="232.43" width="111.48" height="5.55"/><rect class="cls-5" x="114.1" y="249.49" width="111.48" height="5.55"/><rect class="cls-5" x="114.1" y="293.84" width="111.48" height="5.55"/><rect class="cls-5" x="114.1" y="310.9" width="111.48" height="5.55"/><rect class="cls-5" x="114.1" y="327.96" width="111.48" height="5.55"/><polygon class="cls-6" points="94.01 120.74 55.4 149.13 45.02 138.59 35.09 145.23 54.98 160.89 100.66 122.55 94.01 120.74"/><polygon class="cls-7" points="37.11 142.73 44.1 138.06 54.53 148.64 93.63 119.89 96.57 120.69 54.24 156.22 37.11 142.73"/><path class="cls-7" d="M183.56,443.78l-18.11-14.27,8-5.38,10.41,10.57,38.92-28.62,4.26,1.16ZM167.4,429.59l16.14,12.72,41.13-34.53-1.61-.44-39.28,28.88-10.44-10.6Z" transform="translate(-129.31 -286.82)"/><polygon class="cls-6" points="97.95 212.52 59.35 240.91 48.96 230.37 39.04 237 58.92 252.67 104.6 214.33 97.95 212.52"/><polygon class="cls-7" points="41.06 234.51 48.05 229.83 58.47 240.42 97.57 211.67 100.51 212.47 58.18 248 41.06 234.51"/><path class="cls-7" d="M187.5,535.56l-18.11-14.27,8-5.38,10.41,10.57,38.92-28.62L231,499Zm-16.16-14.19,16.14,12.72,41.13-34.53-1.61-.44L187.72,528l-10.44-10.6Z" transform="translate(-129.31 -286.82)"/><polygon class="cls-6" points="97.95 287.81 59.35 316.2 48.96 305.66 39.04 312.3 58.92 327.96 104.6 289.62 97.95 287.81"/><polygon class="cls-7" points="41.06 309.8 48.05 305.13 58.47 315.71 97.57 286.96 100.51 287.76 58.18 323.29 41.06 309.8"/><path class="cls-7" d="M187.5,610.85l-18.11-14.27,8-5.38,10.41,10.57,38.92-28.62,4.26,1.16Zm-16.16-14.19,16.14,12.72,41.13-34.53-1.61-.44-39.28,28.88-10.44-10.6Z" transform="translate(-129.31 -286.82)"/><path class="cls-8" d="M335.24,323.59H295.8V318a31.14,31.14,0,0,0-31.14-31.14H264A31.14,31.14,0,0,0,232.89,318v5.63H193.45a3.69,3.69,0,0,0-3.69,3.69v39.8a3.69,3.69,0,0,0,3.69,3.69H335.24a3.69,3.69,0,0,0,3.69-3.69v-39.8A3.69,3.69,0,0,0,335.24,323.59Zm-70.9-3.7a10.41,10.41,0,1,1,10.41-10.41A10.41,10.41,0,0,1,264.35,319.89Z" transform="translate(-129.31 -286.82)"/><rect class="cls-8" x="60.45" y="71.25" width="149.18" height="6.24"/><path class="cls-8" d="M338.25,368.69H190.58a.83.83,0,0,1-.83-.83v-1.92H338.94V368A.68.68,0,0,1,338.25,368.69Z" transform="translate(-129.31 -286.82)"/><path class="cls-1" d="M523.23,410.83H536.5l-24,111.95L638,410.57H653.4l-90.08,81,54.41,103.87h-15.1l-49.46-95.8L509.43,538.4l-12.24,57H483.92Z" transform="translate(-129.31 -286.82)"/><path class="cls-1" d="M685.67,598a49.72,49.72,0,0,1-21.74-4.56,48.28,48.28,0,0,1-16.14-12.37,53.12,53.12,0,0,1-10-18.22,71.1,71.1,0,0,1-3.38-22.13,80.81,80.81,0,0,1,6.12-30.85,85.48,85.48,0,0,1,42.7-45.17,73,73,0,0,1,31.89-7A52.41,52.41,0,0,1,730.71,460a41.86,41.86,0,0,1,13.41,6.9,34,34,0,0,1,9.37,11.32A33.44,33.44,0,0,1,757,493.88q0,39.05-70.81,39.05-8.33,0-17.57-.26t-20.44-1q-.26,2.09-.39,4.43t-.13,4.43a65.47,65.47,0,0,0,2.47,18.22,42.68,42.68,0,0,0,7.55,15,36.71,36.71,0,0,0,12.76,10.15,39.93,39.93,0,0,0,17.83,3.77,49.15,49.15,0,0,0,13.41-2,60.18,60.18,0,0,0,13.15-5.47,58.1,58.1,0,0,0,11.58-8.59,51.27,51.27,0,0,0,9-11.32l10.93,3.38A65.48,65.48,0,0,1,735,577.71a77.27,77.27,0,0,1-14.58,10.8,73.14,73.14,0,0,1-16.79,7A66.52,66.52,0,0,1,685.67,598Zm27.86-129.65A55,55,0,0,0,691,472.92a67,67,0,0,0-18.35,12,75.22,75.22,0,0,0-13.8,17.05,82.32,82.32,0,0,0-8.59,19.79q10.93.78,19.66,1T687,523a141.45,141.45,0,0,0,27.21-2.21q11.06-2.21,17.83-6.12a25.22,25.22,0,0,0,9.76-9.24,23.81,23.81,0,0,0,3-11.85A22.57,22.57,0,0,0,742,482.29a24.83,24.83,0,0,0-7-7.94,28.71,28.71,0,0,0-10-4.56A47.24,47.24,0,0,0,713.53,468.36Z" transform="translate(-129.31 -286.82)"/><path class="cls-1" d="M823.39,598a49.72,49.72,0,0,1-21.74-4.56,48.28,48.28,0,0,1-16.14-12.37,53.12,53.12,0,0,1-10-18.22,71.1,71.1,0,0,1-3.38-22.13,80.81,80.81,0,0,1,6.12-30.85,85.48,85.48,0,0,1,42.7-45.17,73,73,0,0,1,31.89-7A52.41,52.41,0,0,1,868.43,460a41.86,41.86,0,0,1,13.41,6.9,34,34,0,0,1,9.37,11.32,33.44,33.44,0,0,1,3.51,15.62q0,39.05-70.81,39.05-8.33,0-17.57-.26t-20.44-1q-.26,2.09-.39,4.43t-.13,4.43a65.47,65.47,0,0,0,2.47,18.22,42.68,42.68,0,0,0,7.55,15,36.71,36.71,0,0,0,12.76,10.15A39.93,39.93,0,0,0,826,587.6a49.15,49.15,0,0,0,13.41-2,60.18,60.18,0,0,0,13.15-5.47,58.1,58.1,0,0,0,11.58-8.59,51.27,51.27,0,0,0,9-11.32L884,563.65a65.48,65.48,0,0,1-11.32,14.06,77.27,77.27,0,0,1-14.58,10.8,73.14,73.14,0,0,1-16.79,7A66.52,66.52,0,0,1,823.39,598Zm27.86-129.65a55,55,0,0,0-22.52,4.56,67,67,0,0,0-18.35,12,75.22,75.22,0,0,0-13.8,17.05A82.32,82.32,0,0,0,788,521.73q10.93.78,19.66,1t17.05.26a141.45,141.45,0,0,0,27.21-2.21q11.06-2.21,17.83-6.12a25.22,25.22,0,0,0,9.76-9.24,23.81,23.81,0,0,0,3-11.85,22.57,22.57,0,0,0-2.73-11.32,24.83,24.83,0,0,0-7-7.94,28.71,28.71,0,0,0-10-4.56A47.24,47.24,0,0,0,851.25,468.36Z" transform="translate(-129.31 -286.82)"/><path class="cls-1" d="M934.81,460h11.71l-5.73,27.07a87.88,87.88,0,0,1,25.38-21.22q14.71-8.2,29.55-8.2a43.53,43.53,0,0,1,20.44,4.69,45.27,45.27,0,0,1,15.1,12.63,58.41,58.41,0,0,1,9.37,18.35,72.09,72.09,0,0,1,3.25,21.61,81.72,81.72,0,0,1-6,30.59,91.82,91.82,0,0,1-16.27,26.68A80.29,80.29,0,0,1,997.55,591a63.38,63.38,0,0,1-29.16,7q-16.4,0-27.33-9.24a53.46,53.46,0,0,1-15.88-22.52l-18,84.61h-13ZM967.88,586.3A49.1,49.1,0,0,0,992,580a72.69,72.69,0,0,0,19.92-16.14,77.7,77.7,0,0,0,13.54-22.26,66.52,66.52,0,0,0,4.95-24.86,57.29,57.29,0,0,0-2.86-18.22,48.53,48.53,0,0,0-8.07-15.1,38.65,38.65,0,0,0-12.5-10.28,35.17,35.17,0,0,0-16.4-3.77,43,43,0,0,0-14.84,3,74.22,74.22,0,0,0-15.62,8.07,79.73,79.73,0,0,0-13.67,11.58,36.52,36.52,0,0,0-8.46,13.8l-9.63,44.52a51.19,51.19,0,0,0,5.08,14.06A47,47,0,0,0,942,575.88a36.73,36.73,0,0,0,25.9,10.41Z" transform="translate(-129.31 -286.82)"/><path class="cls-8" d="M1116.79,422.55h-64l2.34-12h141.62l-2.6,12h-64l-37,172.86h-13Z" transform="translate(-129.31 -286.82)"/><path class="cls-8" d="M1222.75,405.36h13l-18.48,87a87.13,87.13,0,0,1,27.08-25.25q15.88-9.37,32-9.37,16.4,0,23.69,9.24t7.29,25.9a114.08,114.08,0,0,1-.65,11.72,107.48,107.48,0,0,1-2.21,13l-16.4,77.84h-13l15.88-75.5a105.57,105.57,0,0,0,2.6-21.61q0-28.64-23.69-28.64a44.8,44.8,0,0,0-16,3.12,65.68,65.68,0,0,0-15.88,8.85A85.94,85.94,0,0,0,1223.79,495a74.65,74.65,0,0,0-10.67,16.53l-17.7,83.83h-13Z" transform="translate(-129.31 -286.82)"/><path class="cls-8" d="M1354.73,460h13l-28.64,135.38h-13Zm11.72-54.67h13l-4.95,24h-13Z" transform="translate(-129.31 -286.82)"/><path class="cls-8" d="M1407.06,460h12.24l-7,32.28A79,79,0,0,1,1425,478.13a89.47,89.47,0,0,1,15.49-10.93,79.53,79.53,0,0,1,16.92-7,63.27,63.27,0,0,1,17.31-2.47q15.62,0,22.39,8.33t6.77,24.21A96,96,0,0,1,1503,503q-.92,6.77-2.47,14.58l-16.4,77.84h-13l15.88-75.5a132.31,132.31,0,0,0,2.21-13.28,102.42,102.42,0,0,0,.65-10.93q0-26-21.61-26a48.62,48.62,0,0,0-16.66,3.12,67.93,67.93,0,0,0-16.53,8.85A89,89,0,0,0,1420.33,495a77,77,0,0,0-11.19,16.53l-17.7,83.83h-13Z" transform="translate(-129.31 -286.82)"/><path class="cls-8" d="M1562,653.46q-22.39,0-34-8.46a46.05,46.05,0,0,1-16.53-22.78l9.89-6q4.69,13.8,16.4,20.18a54.64,54.64,0,0,0,26.55,6.38,64.75,64.75,0,0,0,19-2.86,57.11,57.11,0,0,0,17.05-8.46A54,54,0,0,0,1621.57,598l6.25-29.68a79.63,79.63,0,0,1-11.72,11.85,91.21,91.21,0,0,1-13.54,9.24,66.16,66.16,0,0,1-14.58,6,54.84,54.84,0,0,1-14.58,2.08,42.17,42.17,0,0,1-20-4.69,46.27,46.27,0,0,1-15-12.5,57,57,0,0,1-9.37-18,69.41,69.41,0,0,1-3.25-21.35,78.75,78.75,0,0,1,6.25-30.59,93.27,93.27,0,0,1,16.79-26.68,85.52,85.52,0,0,1,24.34-18.87,62.45,62.45,0,0,1,29.16-7.16q16.66,0,27.21,9.24A65.19,65.19,0,0,1,1646,489.45l6.25-29.42H1664l-29.42,138a65.92,65.92,0,0,1-10,24.21,67.56,67.56,0,0,1-17.05,17.31A75.51,75.51,0,0,1,1585.9,650,82.92,82.92,0,0,1,1562,653.46Zm17.18-67.17a45.82,45.82,0,0,0,16.53-3.25,70.48,70.48,0,0,0,15.75-8.46,68.71,68.71,0,0,0,12.76-11.71,43.17,43.17,0,0,0,7.81-13l9.37-44.52a47.33,47.33,0,0,0-4.82-14.45,39.64,39.64,0,0,0-20.7-18.74,37.23,37.23,0,0,0-14.06-2.73,48.55,48.55,0,0,0-24.6,6.51,73.94,73.94,0,0,0-19.79,16.53,78.8,78.8,0,0,0-13.28,22.39,66.09,66.09,0,0,0-4.82,24.08,57.17,57.17,0,0,0,2.86,18.22,48.34,48.34,0,0,0,8.07,15.1,38.49,38.49,0,0,0,12.5,10.28A35.11,35.11,0,0,0,1579.14,586.3Z" transform="translate(-129.31 -286.82)"/><path class="cls-8" d="M1715,598a71.36,71.36,0,0,1-27.47-5.21,47.69,47.69,0,0,1-20.44-15.62l8.07-8.85a56.57,56.57,0,0,0,18.61,14.58q10,4.69,23.3,4.69a61,61,0,0,0,17.31-2.34,46.09,46.09,0,0,0,13.8-6.51,29.88,29.88,0,0,0,9.11-10.15,27.9,27.9,0,0,0,3.25-13.54q0-9.89-9.11-14.58t-26-9.11q-9.12-2.34-15.88-4.69a50.91,50.91,0,0,1-11.32-5.34,20.77,20.77,0,0,1-6.9-7.16A20.42,20.42,0,0,1,1689,504a41.43,41.43,0,0,1,4.69-19.92,44.06,44.06,0,0,1,12.5-14.58,55.88,55.88,0,0,1,18.09-8.85,76.54,76.54,0,0,1,21.48-3q15.1,0,25.64,5.34t15,13.67l-8.59,7q-4.43-7.81-13.93-11.72a55.35,55.35,0,0,0-21.22-3.9,59.11,59.11,0,0,0-15.36,2,39.12,39.12,0,0,0-12.89,6,30.63,30.63,0,0,0-9,10.15,29.38,29.38,0,0,0-3.38,14.45,14,14,0,0,0,1.82,7.42,16.08,16.08,0,0,0,5.34,5.21,38,38,0,0,0,9,3.9q5.47,1.7,12.76,3.51,10.15,2.61,18.09,5.21a61.62,61.62,0,0,1,13.54,6.12,25.14,25.14,0,0,1,8.46,8.33,22.3,22.3,0,0,1,2.86,11.58,39.55,39.55,0,0,1-4.43,18.61,44.69,44.69,0,0,1-12.24,14.58,57.87,57.87,0,0,1-18.61,9.5A78.57,78.57,0,0,1,1715,598Z" transform="translate(-129.31 -286.82)"/></svg>