<?xml version="1.0" encoding="UTF-8"?>
<!DOCTYPE svg
PUBLIC "-//W3C//DTD SVG 1.1//EN"
       "http://www.w3.org/Graphics/SVG/1.1/DTD/svg11.dtd">
<svg viewBox="80 27 690 739" width="610px" height="712px" xmlns="http://www.w3.org/2000/svg" version="1.1">
   <line x1="502" y1="361" x2="492" y2="361" style="stroke:#b0b;stroke-width:1;"/>
   <line x1="212" y1="306" x2="202" y2="306" style="stroke:#b0b;stroke-width:1;"/>
   <line x1="492" y1="361" x2="212" y2="306" style="stroke:#b0b;stroke-width:1;"/>
   <line x1="494.5" y1="361" x2="498.03553390593" y2="364.53553390593" style="stroke:#b0b;stroke-width:2;"/>
   <line x1="494.5" y1="361" x2="498.03553390593" y2="357.46446609407" style="stroke:#b0b;stroke-width:2;"/>
   <line x1="207" y1="306" x2="210.53553390593" y2="309.53553390593" style="stroke:#b0b;stroke-width:2;"/>
   <line x1="207" y1="306" x2="210.53553390593" y2="302.46446609407" style="stroke:#b0b;stroke-width:2;"/>
   <line x1="502" y1="560" x2="492" y2="560" style="stroke:#bbb;stroke-width:1;"/>
   <line x1="212" y1="306" x2="202" y2="306" style="stroke:#bbb;stroke-width:1;"/>
   <line x1="492" y1="560" x2="212" y2="306" style="stroke:#bbb;stroke-width:1;"/>
   <line x1="494.5" y1="560" x2="498.03553390593" y2="563.53553390593" style="stroke:#bbb;stroke-width:2;"/>
   <line x1="494.5" y1="560" x2="498.03553390593" y2="556.46446609407" style="stroke:#bbb;stroke-width:2;"/>
   <line x1="207" y1="306" x2="210.53553390593" y2="309.53553390593" style="stroke:#bbb;stroke-width:2;"/>
   <line x1="207" y1="306" x2="210.53553390593" y2="302.46446609407" style="stroke:#bbb;stroke-width:2;"/>
   <line x1="502" y1="580" x2="492" y2="580" style="stroke:#0bf;stroke-width:1;"/>
   <line x1="212" y1="306" x2="202" y2="306" style="stroke:#0bf;stroke-width:1;"/>
   <line x1="492" y1="580" x2="212" y2="306" style="stroke:#0bf;stroke-width:1;"/>
   <line x1="494.5" y1="580" x2="498.03553390593" y2="583.53553390593" style="stroke:#0bf;stroke-width:2;"/>
   <line x1="494.5" y1="580" x2="498.03553390593" y2="576.46446609407" style="stroke:#0bf;stroke-width:2;"/>
   <line x1="207" y1="306" x2="210.53553390593" y2="309.53553390593" style="stroke:#0bf;stroke-width:2;"/>
   <line x1="207" y1="306" x2="210.53553390593" y2="302.46446609407" style="stroke:#0bf;stroke-width:2;"/>
   <line x1="504" y1="694" x2="494" y2="694" style="stroke:#cb0;stroke-width:1;"/>
   <line x1="212" y1="306" x2="202" y2="306" style="stroke:#cb0;stroke-width:1;"/>
   <line x1="494" y1="694" x2="212" y2="306" style="stroke:#cb0;stroke-width:1;"/>
   <line x1="496.5" y1="694" x2="500.03553390593" y2="697.53553390593" style="stroke:#cb0;stroke-width:2;"/>
   <line x1="496.5" y1="694" x2="500.03553390593" y2="690.46446609407" style="stroke:#cb0;stroke-width:2;"/>
   <line x1="207" y1="306" x2="210.53553390593" y2="309.53553390593" style="stroke:#cb0;stroke-width:2;"/>
   <line x1="207" y1="306" x2="210.53553390593" y2="302.46446609407" style="stroke:#cb0;stroke-width:2;"/>
   <line x1="504" y1="714" x2="494" y2="714" style="stroke:#0bf;stroke-width:1;"/>
   <line x1="212" y1="306" x2="202" y2="306" style="stroke:#0bf;stroke-width:1;"/>
   <line x1="494" y1="714" x2="212" y2="306" style="stroke:#0bf;stroke-width:1;"/>
   <line x1="496.5" y1="714" x2="500.03553390593" y2="717.53553390593" style="stroke:#0bf;stroke-width:2;"/>
   <line x1="496.5" y1="714" x2="500.03553390593" y2="710.46446609407" style="stroke:#0bf;stroke-width:2;"/>
   <line x1="207" y1="306" x2="210.53553390593" y2="309.53553390593" style="stroke:#0bf;stroke-width:2;"/>
   <line x1="207" y1="306" x2="210.53553390593" y2="302.46446609407" style="stroke:#0bf;stroke-width:2;"/>
   <line x1="504" y1="152" x2="494" y2="152" style="stroke:#0b0;stroke-width:1;"/>
   <line x1="212" y1="306" x2="202" y2="306" style="stroke:#0b0;stroke-width:1;"/>
   <line x1="494" y1="152" x2="212" y2="306" style="stroke:#0b0;stroke-width:1;"/>
   <line x1="496.5" y1="152" x2="500.03553390593" y2="155.53553390593" style="stroke:#0b0;stroke-width:2;"/>
   <line x1="496.5" y1="152" x2="500.03553390593" y2="148.46446609407" style="stroke:#0b0;stroke-width:2;"/>
   <line x1="207" y1="306" x2="210.53553390593" y2="309.53553390593" style="stroke:#0b0;stroke-width:2;"/>
   <line x1="207" y1="306" x2="210.53553390593" y2="302.46446609407" style="stroke:#0b0;stroke-width:2;"/>
   <rect width="141" height="20" x="502" y="251" style="fill:#007;stroke:black;"/>
   <text width="141" height="20" x="507" y="265" style="fill:#fff;" font-family="Arial" font-size="16px"> marketplace_items</text>
   <rect width="141" height="20" x="502" y="271" style="fill:none;stroke:black;"/>
   <text width="141" height="20" x="507" y="285" style="fill:black;" font-family="Arial" font-size="16px">id</text>
   <rect width="141" height="20" x="502" y="291" style="fill:#aea;stroke:black;"/>
   <text width="141" height="20" x="507" y="305" style="fill:black;" font-family="Arial" font-size="16px">id</text>
   <rect width="141" height="20" x="502" y="311" style="fill:none;stroke:black;"/>
   <text width="141" height="20" x="507" y="325" style="fill:black;" font-family="Arial" font-size="16px">item_name</text>
   <rect width="141" height="20" x="502" y="331" style="fill:none;stroke:black;"/>
   <text width="141" height="20" x="507" y="345" style="fill:black;" font-family="Arial" font-size="16px">item_desc</text>
   <rect width="141" height="20" x="502" y="351" style="fill:none;stroke:black;"/>
   <text width="141" height="20" x="507" y="365" style="fill:black;" font-family="Arial" font-size="16px">id</text>
   <rect width="141" height="20" x="502" y="371" style="fill:none;stroke:black;"/>
   <text width="141" height="20" x="507" y="385" style="fill:black;" font-family="Arial" font-size="16px">borrower</text>
   <rect width="141" height="20" x="502" y="391" style="fill:none;stroke:black;"/>
   <text width="141" height="20" x="507" y="405" style="fill:black;" font-family="Arial" font-size="16px">date_from</text>
   <rect width="141" height="20" x="502" y="411" style="fill:none;stroke:black;"/>
   <text width="141" height="20" x="507" y="425" style="fill:black;" font-family="Arial" font-size="16px">date_to</text>
   <rect width="151" height="20" x="502" y="470" style="fill:#007;stroke:black;"/>
   <text width="151" height="20" x="507" y="484" style="fill:#fff;" font-family="Arial" font-size="16px"> messages</text>
   <rect width="151" height="20" x="502" y="490" style="fill:none;stroke:black;"/>
   <text width="151" height="20" x="507" y="504" style="fill:black;" font-family="Arial" font-size="16px">id</text>
   <rect width="151" height="20" x="502" y="510" style="fill:#aea;stroke:black;"/>
   <text width="151" height="20" x="507" y="524" style="fill:black;" font-family="Arial" font-size="16px">id</text>
   <rect width="151" height="20" x="502" y="530" style="fill:none;stroke:black;"/>
   <text width="151" height="20" x="507" y="544" style="fill:black;" font-family="Arial" font-size="16px">MESSAGE</text>
   <rect width="151" height="20" x="502" y="550" style="fill:none;stroke:black;"/>
   <text width="151" height="20" x="507" y="564" style="fill:black;" font-family="Arial" font-size="16px">sender_id</text>
   <rect width="151" height="20" x="502" y="570" style="fill:none;stroke:black;"/>
   <text width="151" height="20" x="507" y="584" style="fill:black;" font-family="Arial" font-size="16px">receiver_id</text>
   <rect width="151" height="20" x="502" y="590" style="fill:none;stroke:black;"/>
   <text width="151" height="20" x="507" y="604" style="fill:black;" font-family="Arial" font-size="16px">SENT_TIMESTAMP</text>
   <rect width="107" height="20" x="95" y="256" style="fill:#007;stroke:black;"/>
   <text width="107" height="20" x="100" y="270" style="fill:#fff;" font-family="Arial" font-size="16px"> user</text>
   <rect width="107" height="20" x="95" y="276" style="fill:none;stroke:black;"/>
   <text width="107" height="20" x="100" y="290" style="fill:black;" font-family="Arial" font-size="16px">id</text>
   <rect width="107" height="20" x="95" y="296" style="fill:#aea;stroke:black;"/>
   <text width="107" height="20" x="100" y="310" style="fill:black;" font-family="Arial" font-size="16px">id</text>
   <rect width="107" height="20" x="95" y="316" style="fill:none;stroke:black;"/>
   <text width="107" height="20" x="100" y="330" style="fill:black;" font-family="Arial" font-size="16px">NAME</text>
   <rect width="107" height="20" x="95" y="336" style="fill:none;stroke:black;"/>
   <text width="107" height="20" x="100" y="350" style="fill:black;" font-family="Arial" font-size="16px">FIRST_NAME</text>
   <rect width="107" height="20" x="95" y="356" style="fill:none;stroke:black;"/>
   <text width="107" height="20" x="100" y="370" style="fill:black;" font-family="Arial" font-size="16px">password</text>
   <rect width="107" height="20" x="95" y="376" style="fill:none;stroke:black;"/>
   <text width="107" height="20" x="100" y="390" style="fill:black;" font-family="Arial" font-size="16px">email</text>
   <rect width="107" height="20" x="95" y="396" style="fill:none;stroke:black;"/>
   <text width="107" height="20" x="100" y="410" style="fill:black;" font-family="Arial" font-size="16px">tel_nr</text>
   <rect width="107" height="20" x="95" y="416" style="fill:none;stroke:black;"/>
   <text width="107" height="20" x="100" y="430" style="fill:black;" font-family="Arial" font-size="16px">username</text>
   <rect width="107" height="20" x="95" y="436" style="fill:none;stroke:black;"/>
   <text width="107" height="20" x="100" y="450" style="fill:black;" font-family="Arial" font-size="16px">type</text>
   <rect width="107" height="20" x="95" y="456" style="fill:none;stroke:black;"/>
   <text width="107" height="20" x="100" y="470" style="fill:black;" font-family="Arial" font-size="16px">verified</text>
   <rect width="171" height="20" x="504" y="644" style="fill:#007;stroke:black;"/>
   <text width="171" height="20" x="509" y="658" style="fill:#fff;" font-family="Arial" font-size="16px"> usercontactassignment</text>
   <rect width="171" height="20" x="504" y="664" style="fill:#aea;stroke:black;"/>
   <text width="171" height="20" x="509" y="678" style="fill:black;" font-family="Arial" font-size="16px">id</text>
   <rect width="171" height="20" x="504" y="684" style="fill:none;stroke:black;"/>
   <text width="171" height="20" x="509" y="698" style="fill:black;" font-family="Arial" font-size="16px">id</text>
   <rect width="171" height="20" x="504" y="704" style="fill:none;stroke:black;"/>
   <text width="171" height="20" x="509" y="718" style="fill:black;" font-family="Arial" font-size="16px">CONTACT_ID</text>
   <rect width="106" height="20" x="504" y="42" style="fill:#007;stroke:black;"/>
   <text width="106" height="20" x="509" y="56" style="fill:#fff;" font-family="Arial" font-size="16px"> user_items</text>
   <rect width="106" height="20" x="504" y="62" style="fill:none;stroke:black;"/>
   <text width="106" height="20" x="509" y="76" style="fill:black;" font-family="Arial" font-size="16px">id</text>
   <rect width="106" height="20" x="504" y="82" style="fill:#aea;stroke:black;"/>
   <text width="106" height="20" x="509" y="96" style="fill:black;" font-family="Arial" font-size="16px">id</text>
   <rect width="106" height="20" x="504" y="102" style="fill:none;stroke:black;"/>
   <text width="106" height="20" x="509" y="116" style="fill:black;" font-family="Arial" font-size="16px">item_name</text>
   <rect width="106" height="20" x="504" y="122" style="fill:none;stroke:black;"/>
   <text width="106" height="20" x="509" y="136" style="fill:black;" font-family="Arial" font-size="16px">item_desc</text>
   <rect width="106" height="20" x="504" y="142" style="fill:none;stroke:black;"/>
   <text width="106" height="20" x="509" y="156" style="fill:black;" font-family="Arial" font-size="16px">OWNER</text>
   <rect width="106" height="20" x="504" y="162" style="fill:none;stroke:black;"/>
   <text width="106" height="20" x="509" y="176" style="fill:black;" font-family="Arial" font-size="16px">borrower</text>
   <rect width="106" height="20" x="504" y="182" style="fill:none;stroke:black;"/>
   <text width="106" height="20" x="509" y="196" style="fill:black;" font-family="Arial" font-size="16px">date_from</text>
   <rect width="106" height="20" x="504" y="202" style="fill:none;stroke:black;"/>
   <text width="106" height="20" x="509" y="216" style="fill:black;" font-family="Arial" font-size="16px">date_to</text>
</svg>
