<?xml version="1.0" encoding="utf-8"?>
<!-- Generator: Adobe Illustrator 16.0.0, SVG Export Plug-In . SVG Version: 6.00 Build 0)  -->
<!DOCTYPE svg PUBLIC "-//W3C//DTD SVG 1.1//EN" "http://www.w3.org/Graphics/SVG/1.1/DTD/svg11.dtd">
<svg version="1.1" id="Ebene_1" xmlns="http://www.w3.org/2000/svg" xmlns:xlink="http://www.w3.org/1999/xlink" x="0px" y="0px"
	 width="2000px" height="2000px" viewBox="0 0 2000 2000" enable-background="new 0 0 2000 2000" xml:space="preserve">
<path fill="#E4E4E3" d="M1897.615,1665H102.388C46.074,1665,0,1617.119,0,1558.601V441.4C0,382.879,46.074,335,102.388,335h1795.228
	C1953.926,335,2000,382.879,2000,441.4v1117.2C2000,1617.119,1953.926,1665,1897.615,1665"/>
<path fill="#FFFFFF" d="M1852.748,1615H147.272C93.768,1615,50,1570.715,50,1516.598V483.405C50,429.286,93.768,385,147.272,385
	h1705.476c53.502,0,97.252,44.286,97.252,98.405v1033.193C1950,1570.715,1906.25,1615,1852.748,1615"/>
<polygon fill="#024669" points="291.436,630.715 291.436,630.712 291.43,630.712 "/>
<path fill="#024669" d="M321.793,592.087v-68.146c0-1.684-1.25-2.74-3.228-2.74H209.506c-1.97,0-3.575,1.056-3.575,2.74v130.358
	c0,1.678,1.605,3.29,3.575,3.29h45.088c7.342-6.429,14.515-13.906,21.726-20.979C291.474,621.753,306.348,606.6,321.793,592.087
	 M305.06,543.948c0,2.357-1.004,4.276-2.249,4.276h-77.897c-1.24,0-2.25-1.919-2.25-4.276v-0.458c0-2.361,1.01-4.274,2.25-4.274
	h77.897c1.245,0,2.249,1.913,2.249,4.274V543.948z M305.06,564.531c0,2.362-1.004,4.276-2.249,4.276h-77.897
	c-1.24,0-2.25-1.915-2.25-4.276v-0.453c0-2.355,1.01-4.276,2.25-4.276h77.897c1.245,0,2.249,1.921,2.249,4.276V564.531z
	 M305.06,585.119c0,2.362-1.004,4.279-2.249,4.279h-77.897c-1.24,0-2.25-1.917-2.25-4.279v-0.457c0-2.358,1.01-4.273,2.25-4.273
	h77.897c1.245,0,2.249,1.916,2.249,4.273V585.119z"/>
<path fill="#024669" d="M344.336,607.099c2.801-3.275,3.433-7.565-0.582-12.306c0,0-5.03-5.103-12.02-1.534l-0.043-0.012
	l-0.13,0.115c-0.359,0.188-0.712,0.377-1.084,0.614c0,0-0.42,0.103-0.216,0.197c-0.292,0.036-0.02-0.01-0.323,0.036l-0.334,0.05
	l-15.271,14.869c-0.297,0.26-0.576,0.526-0.843,0.78l-40.808,39.328c-1.257,1.214-1.574,1.719-2.707,3.104l0.075-0.055
	c0,0.01,0.048-0.033,0.042-0.027l-15.884,29.137l29.11-15.007c0.324,0.154,1.89-0.989,3.587-2.631l40.628-39.319
	c0.254-0.245,0.514-0.508,0.775-0.784l16.106-15.778l-0.031-0.372C344.38,607.459,344.361,607.318,344.336,607.099 M328.069,610.199
	c-2.917-3.109-7.645-4.571-8.5-4.817l9.82-9.557c1.418,0.333,5.477,1.485,8.779,4.389c3.449,3.041,4.398,6.834,4.609,7.919
	l-10.606,10.385C332.188,616.42,331.055,613.385,328.069,610.199 M327.282,620.696l-40.331,38.896
	c-0.247,0.24-0.948,0.97-1.196,1.223c-2.111,2.096-2.217,3.708-2.416,4.842l-15.724,8.191c-0.18-1.024-1.258-5.604-6.035-4.762
	l8.99-16.488c1.083-0.13,3.934-0.317,6.194-2.429c0.26-0.242-0.124,0.099,0.124-0.146l41.527-40.119
	c0.589-0.566,0.898-0.884,1.213-1.22c0.614,0.232,1.295,0.529,1.995,0.865c-0.247,0.242-0.488,0.469-0.78,0.759l-42.883,40.98
	c-0.749,0.729-1.994,1.994-2.769,3.221c-1.784,2.885-1.692,4.765,0.099,6.616c1.902,1.967,4.436,1.44,7.514-0.563
	c0.595-0.302,1.705-1.212,2.268-1.754l43.007-41.662c0.322-0.323,0.626-0.63,0.905-0.913c0.396,0.733,0.694,1.408,0.916,2.02
	C328.849,619.2,328.242,619.764,327.282,620.696"/>
<polygon fill="#991915" points="421.962,570.418 421.962,634.583 402.492,634.583 402.492,534.459 417.587,534.459 469.795,600.175 
	469.795,534.601 489.266,534.601 489.266,634.583 473.462,634.583 "/>
<path fill="#991915" d="M541.61,635.993c-5.924,0-11.288-1.012-16.084-3.034c-4.793-2.02-8.889-4.768-12.271-8.25
	c-3.396-3.478-5.997-7.52-7.831-12.129c-1.841-4.602-2.758-9.448-2.758-14.523c0-5.265,0.898-10.222,2.683-14.877
	c1.784-4.654,4.374-8.744,7.762-12.27c3.384-3.525,7.496-6.32,12.341-8.391c4.846-2.068,10.279-3.105,16.3-3.105
	c6.021,0,11.405,1.037,16.157,3.105c4.745,2.071,8.791,4.844,12.136,8.321c3.333,3.478,5.873,7.52,7.613,12.125
	c1.741,4.611,2.614,9.403,2.614,14.384c0,1.223-0.024,2.398-0.074,3.525c-0.043,1.128-0.167,2.071-0.353,2.821h-57.138
	c0.278,2.917,0.984,5.5,2.112,7.753c1.128,2.258,2.59,4.189,4.375,5.787c1.783,1.597,3.809,2.817,6.07,3.664
	c2.254,0.847,4.602,1.268,7.05,1.268c3.76,0,7.317-0.915,10.656-2.748c3.339-1.835,5.619-4.254,6.839-7.263l16.232,4.511
	c-2.734,5.645-7.082,10.275-13.06,13.894C557.01,634.182,549.886,635.993,541.61,635.993 M560.802,591.429
	c-0.471-5.547-2.522-9.986-6.14-13.327c-3.623-3.335-8.022-5.006-13.188-5.006c-2.546,0-4.92,0.447-7.132,1.341
	c-2.205,0.894-4.156,2.14-5.854,3.737c-1.692,1.598-3.079,3.526-4.163,5.783c-1.079,2.253-1.716,4.745-1.908,7.471H560.802z"/>
<polygon fill="#991915" points="681.576,560.688 699.493,560.688 668.597,634.582 653.078,634.582 640.377,602.147 627.821,634.582 
	612.302,634.582 581.543,560.688 599.316,560.688 621.328,616.813 630.36,592.84 617.382,560.827 632.615,560.827 640.377,583.535 
	648.276,560.827 663.517,560.827 650.681,592.84 659.564,616.813 "/>
<polygon fill="#991915" points="809.691,617.518 809.691,634.58 740.133,634.58 740.133,534.46 808.421,534.46 808.421,551.523 
	759.603,551.523 759.603,575.638 801.793,575.638 801.793,591.431 759.603,591.431 759.603,617.518 "/>
<path fill="#991915" d="M890.966,634.582h-18.908v-41.46c0-5.921-1.034-10.246-3.104-12.972s-4.938-4.09-8.605-4.09
	c-1.883,0-3.811,0.378-5.787,1.128c-1.977,0.751-3.835,1.811-5.576,3.17c-1.741,1.366-3.314,2.986-4.726,4.867
	c-1.407,1.879-2.449,3.949-3.105,6.204v43.152h-18.901v-73.894h17.067v13.679c2.733-4.7,6.68-8.364,11.854-10.999
	c5.171-2.629,11.008-3.948,17.5-3.948c4.603,0,8.368,0.848,11.287,2.536c2.912,1.693,5.167,3.904,6.771,6.629
	c1.599,2.727,2.701,5.829,3.315,9.308c0.613,3.477,0.917,7.006,0.917,10.576V634.582z"/>
<path fill="#991915" d="M951.071,630.774c-2.539,1.128-5.645,2.256-9.317,3.386c-3.662,1.127-7.528,1.691-11.567,1.691
	c-2.633,0-5.104-0.332-7.403-0.989c-2.311-0.655-4.331-1.71-6.072-3.173c-1.74-1.454-3.128-3.333-4.163-5.639
	c-1.035-2.301-1.548-5.098-1.548-8.391v-42.447h-9.739v-14.525h9.739v-23.973h18.907v23.973h15.517v14.525h-15.517v36.1
	c0,2.634,0.681,4.493,2.044,5.573c1.362,1.081,3.035,1.62,5.005,1.62c1.976,0,3.902-0.33,5.786-0.985
	c1.883-0.656,3.389-1.221,4.515-1.692L951.071,630.774z"/>
<path fill="#991915" d="M1004.969,577.046c-5.743,0.094-10.867,1.198-15.382,3.313c-4.511,2.115-7.757,5.288-9.732,9.521v44.703
	h-18.909v-73.894h17.354v15.794c1.319-2.54,2.868-4.814,4.657-6.837c1.786-2.022,3.712-3.785,5.787-5.288
	c2.069-1.507,4.163-2.656,6.275-3.455c2.119-0.802,4.164-1.2,6.14-1.2h2.33c0.514,0,1.01,0.048,1.48,0.14V577.046z"/>
<path fill="#991915" d="M1017.105,648.965c1.596,0.47,3.145,0.82,4.652,1.059c1.498,0.232,2.775,0.351,3.811,0.351
	c1.221,0,2.348-0.233,3.387-0.702c1.029-0.472,1.973-1.298,2.818-2.47c0.85-1.175,1.693-2.795,2.541-4.863
	c0.85-2.071,1.742-4.658,2.678-7.758l-29.205-73.894h19.471l20.035,57.535l17.779-57.535h17.781l-31.043,88.559
	c-1.785,5.17-4.846,9.4-9.17,12.693c-4.33,3.288-9.689,4.934-16.088,4.934c-1.506,0-3.037-0.118-4.584-0.352
	c-1.549-0.235-3.174-0.635-4.863-1.198V648.965z"/>
<polygon fill="#010202" points="256.633,785.178 232.558,785.178 232.558,846.806 225.892,846.806 225.892,785.178 201.817,785.178 
	201.817,779.281 256.633,779.281 "/>
<path fill="#010202" d="M265.387,777.377h6.468v9.511h-6.468V777.377z M265.387,797.255h6.468v49.549h-6.468V797.255z"/>
<path fill="#010202" d="M309.917,844.427c-0.384,0.192-0.937,0.447-1.668,0.763c-0.73,0.315-1.573,0.633-2.521,0.951
	c-0.953,0.316-2.032,0.602-3.233,0.856c-1.208,0.253-2.478,0.38-3.811,0.38c-1.393,0-2.725-0.19-3.995-0.571
	c-1.271-0.38-2.379-0.968-3.333-1.759c-0.947-0.794-1.71-1.792-2.28-2.996c-0.569-1.205-0.854-2.599-0.854-4.184v-35.474h-6.852
	v-5.137h6.852v-16.74h6.467v16.74h11.418v5.137h-11.418v33.666c0.13,1.839,0.775,3.187,1.951,4.043
	c1.172,0.854,2.522,1.283,4.046,1.283c1.84,0,3.457-0.301,4.851-0.903c1.395-0.604,2.286-1.03,2.664-1.284L309.917,844.427z"/>
<path fill="#010202" d="M318.286,777.379h6.475v58.206c0,1.837,0.507,3.28,1.524,4.327c1.009,1.047,2.441,1.57,4.28,1.57
	c0.694,0,1.524-0.097,2.472-0.286c0.954-0.189,1.839-0.443,2.664-0.761l1.146,5.23c-1.208,0.507-2.683,0.919-4.43,1.236
	c-1.739,0.318-3.251,0.476-4.515,0.476c-2.986,0-5.329-0.84-7.044-2.52c-1.709-1.681-2.572-4.042-2.572-7.085V777.379z"/>
<path fill="#010202" d="M365.294,847.755c-3.611,0-6.931-0.68-9.943-2.044c-3.011-1.362-5.63-3.235-7.849-5.612
	c-2.224-2.378-3.953-5.119-5.186-8.226c-1.24-3.103-1.859-6.437-1.859-9.987c0-3.482,0.619-6.764,1.859-9.843
	c1.232-3.075,2.95-5.769,5.136-8.083c2.193-2.311,4.808-4.153,7.85-5.517c3.048-1.362,6.343-2.043,9.9-2.043
	c3.618,0,6.933,0.682,9.943,2.043c3.01,1.364,5.601,3.218,7.757,5.565c2.155,2.346,3.833,5.04,5.042,8.083
	c1.201,3.043,1.809,6.277,1.809,9.701v1.521c0,0.511-0.037,0.856-0.099,1.046h-42.437c0.191,2.663,0.805,5.12,1.852,7.371
	c1.047,2.25,2.396,4.201,4.045,5.849c1.649,1.649,3.538,2.932,5.664,3.851c2.124,0.92,4.392,1.38,6.801,1.38
	c1.586,0,3.173-0.221,4.758-0.666c1.586-0.444,3.048-1.046,4.38-1.806c1.333-0.763,2.534-1.696,3.619-2.807
	c1.071-1.107,1.901-2.33,2.471-3.661l5.614,1.522c-0.763,1.842-1.841,3.506-3.234,4.994c-1.402,1.488-3.017,2.792-4.851,3.897
	c-1.846,1.11-3.873,1.967-6.09,2.569C370.016,847.455,367.704,847.755,365.294,847.755 M383.564,819.415
	c-0.191-2.663-0.804-5.088-1.851-7.275c-1.048-2.188-2.38-4.076-3.996-5.66c-1.618-1.586-3.494-2.822-5.62-3.708
	c-2.125-0.889-4.393-1.332-6.803-1.332c-2.416,0-4.695,0.443-6.852,1.332c-2.155,0.887-4.038,2.123-5.661,3.708
	c-1.618,1.584-2.918,3.491-3.903,5.705c-0.979,2.22-1.568,4.631-1.759,7.229H383.564z"/>
<path fill="#010202" d="M398.792,797.54h5.521v9.321h-5.521V797.54z M398.792,837.484h5.521v9.321h-5.521V837.484z"/>
<path fill="#010202" d="M200.319,985.361v-67.525h22.927c5.397,0,10.105,0.892,14.132,2.662c4.033,1.776,7.391,4.186,10.092,7.229
	c2.694,3.044,4.72,6.61,6.089,10.7c1.363,4.09,2.044,8.452,2.044,13.078c0,5.136-0.761,9.78-2.286,13.933
	c-1.524,4.156-3.692,7.704-6.518,10.652c-2.825,2.947-6.219,5.229-10.179,6.848c-3.964,1.616-8.425,2.425-13.376,2.425H200.319z
	 M248.944,951.504c0-4.056-0.57-7.784-1.716-11.175c-1.14-3.393-2.806-6.325-4.993-8.798c-2.187-2.473-4.868-4.391-8.041-5.755
	c-3.172-1.359-6.821-2.042-10.948-2.042h-16.268v55.73h16.268c4.189,0,7.888-0.712,11.09-2.138c3.203-1.427,5.884-3.39,8.041-5.897
	c2.15-2.504,3.792-5.453,4.9-8.845C248.387,959.191,248.944,955.498,248.944,951.504"/>
<path fill="#010202" d="M288.433,986.312c-3.612,0-6.933-0.681-9.943-2.044c-3.011-1.362-5.632-3.234-7.85-5.612
	c-2.224-2.377-3.952-5.119-5.186-8.225c-1.238-3.104-1.858-6.437-1.858-9.986c0-3.484,0.62-6.767,1.858-9.845
	c1.233-3.074,2.949-5.769,5.136-8.083c2.194-2.311,4.808-4.154,7.85-5.517c3.047-1.362,6.343-2.043,9.899-2.043
	c3.618,0,6.933,0.681,9.942,2.043c3.011,1.363,5.601,3.218,7.756,5.564c2.157,2.346,3.836,5.041,5.043,8.084
	c1.203,3.042,1.809,6.276,1.809,9.7v1.522c0,0.511-0.037,0.856-0.099,1.045h-42.437c0.192,2.664,0.807,5.121,1.853,7.371
	c1.046,2.252,2.398,4.201,4.045,5.849c1.647,1.649,3.537,2.934,5.663,3.851c2.125,0.919,4.392,1.38,6.801,1.38
	c1.587,0,3.172-0.222,4.758-0.666c1.586-0.443,3.048-1.047,4.381-1.807c1.332-0.762,2.532-1.696,3.617-2.806
	c1.071-1.108,1.902-2.331,2.472-3.662l5.614,1.522c-0.763,1.842-1.84,3.507-3.234,4.994c-1.399,1.49-3.017,2.792-4.851,3.898
	c-1.846,1.108-3.872,1.966-6.09,2.568C293.152,986.012,290.843,986.312,288.433,986.312 M306.702,957.971
	c-0.192-2.663-0.806-5.088-1.853-7.275c-1.048-2.188-2.378-4.076-3.995-5.659c-1.618-1.586-3.495-2.821-5.619-3.709
	c-2.125-0.887-4.392-1.332-6.802-1.332c-2.417,0-4.696,0.445-6.852,1.332c-2.157,0.889-4.039,2.124-5.664,3.709
	c-1.616,1.583-2.917,3.49-3.902,5.707c-0.979,2.218-1.567,4.629-1.759,7.228H306.702z"/>
<path fill="#010202" d="M339.344,986.312c-3.872,0-7.652-0.632-11.326-1.901c-3.679-1.268-6.851-3.106-9.515-5.516l2.943-4.376
	c2.794,2.283,5.631,3.995,8.524,5.136c2.882,1.142,5.979,1.712,9.274,1.712c3.996,0,7.18-0.808,9.559-2.425
	c2.379-1.617,3.569-3.917,3.569-6.896c0-1.393-0.316-2.552-0.949-3.472c-0.639-0.915-1.572-1.728-2.806-2.424
	c-1.239-0.698-2.793-1.313-4.665-1.854c-1.87-0.536-4.038-1.095-6.517-1.666c-2.849-0.693-5.328-1.395-7.421-2.091
	c-2.095-0.698-3.823-1.491-5.186-2.379c-1.362-0.888-2.379-1.981-3.042-3.281c-0.667-1.299-1.004-2.932-1.004-4.897
	c0-2.472,0.497-4.662,1.475-6.563c0.986-1.902,2.318-3.472,4.003-4.708c1.678-1.235,3.641-2.171,5.891-2.806
	c2.254-0.634,4.652-0.951,7.193-0.951c3.803,0,7.259,0.619,10.37,1.854c3.104,1.236,5.612,2.873,7.514,4.898l-3.141,3.803
	c-1.839-1.902-4.076-3.328-6.709-4.28c-2.633-0.95-5.371-1.425-8.232-1.425c-1.711,0-3.297,0.178-4.759,0.523
	c-1.455,0.348-2.738,0.902-3.847,1.663c-1.116,0.762-1.983,1.728-2.622,2.901c-0.632,1.177-0.947,2.557-0.947,4.138
	c0,1.331,0.215,2.409,0.662,3.234c0.446,0.826,1.178,1.537,2.193,2.139c1.011,0.602,2.3,1.141,3.854,1.617
	c1.548,0.477,3.438,0.966,5.663,1.475c3.166,0.759,5.96,1.521,8.368,2.282c2.411,0.761,4.424,1.648,6.047,2.663
	c1.617,1.018,2.831,2.251,3.661,3.71c0.824,1.46,1.24,3.233,1.24,5.324c0,4.566-1.747,8.18-5.242,10.845
	C349.937,984.981,345.235,986.312,339.344,986.312"/>
<path fill="#010202" d="M365.796,960.445c0-3.487,0.596-6.783,1.809-9.892c1.203-3.106,2.901-5.816,5.087-8.13
	c2.194-2.315,4.807-4.137,7.85-5.469c3.047-1.331,6.411-1.997,10.091-1.997c4.69,0,8.785,1.063,12.273,3.186
	c3.488,2.126,6.121,4.993,7.898,8.608l-6.281,1.997c-1.394-2.535-3.345-4.516-5.848-5.943c-2.51-1.426-5.285-2.14-8.326-2.14
	c-2.546,0-4.9,0.506-7.093,1.521c-2.187,1.015-4.089,2.395-5.707,4.137c-1.616,1.745-2.887,3.822-3.81,6.23
	c-0.917,2.409-1.375,5.041-1.375,7.894c0,2.788,0.47,5.42,1.425,7.895c0.954,2.473,2.249,4.613,3.902,6.419
	c1.648,1.806,3.569,3.233,5.756,4.28c2.187,1.045,4.523,1.569,6.995,1.569c1.585,0,3.153-0.223,4.708-0.667
	c1.555-0.443,2.999-1.062,4.331-1.855c1.332-0.792,2.472-1.695,3.426-2.711c0.954-1.013,1.617-2.089,2.001-3.233l6.375,1.903
	c-0.699,1.775-1.716,3.409-3.047,4.898c-1.332,1.491-2.9,2.79-4.709,3.898c-1.808,1.11-3.803,1.967-5.997,2.568
	c-2.187,0.603-4.455,0.904-6.803,0.904c-3.618,0-6.944-0.681-9.993-2.044c-3.042-1.364-5.674-3.234-7.899-5.612
	c-2.216-2.377-3.944-5.121-5.185-8.227C366.417,967.324,365.796,963.996,365.796,960.445"/>
<path fill="#010202" d="M446.204,941.518c-4.38,0.13-8.184,1.331-11.423,3.615c-3.234,2.282-5.515,5.42-6.846,9.414v30.814h-6.474
	v-49.551h6.09v11.888c1.84-3.803,4.311-6.783,7.422-8.938c3.104-2.156,6.443-3.234,9.991-3.234c0.508,0,0.917,0.036,1.24,0.096
	V941.518z"/>
<path fill="#010202" d="M454.858,915.934h6.474v9.511h-6.474V915.934z M454.858,935.811h6.474v49.55h-6.474V935.811z"/>
<path fill="#010202" d="M500.919,986.313c-4.188,0-7.887-1.063-11.09-3.187c-3.209-2.125-5.786-4.803-7.756-8.035v30.528h-6.467
	v-69.808h5.805v9.605c2.026-3.106,4.659-5.627,7.898-7.561c3.234-1.935,6.753-2.901,10.565-2.901c3.425,0,6.56,0.714,9.415,2.139
	c2.85,1.428,5.329,3.331,7.423,5.708c2.093,2.377,3.729,5.119,4.899,8.225c1.177,3.107,1.76,6.31,1.76,9.606
	c0,3.488-0.539,6.783-1.618,9.89c-1.077,3.108-2.62,5.834-4.615,8.18c-1.995,2.346-4.374,4.201-7.137,5.563
	C507.238,985.631,504.209,986.313,500.919,986.313 M499.11,980.607c2.664,0,5.086-0.571,7.279-1.712
	c2.182-1.141,4.059-2.647,5.607-4.518c1.561-1.871,2.751-3.994,3.568-6.372c0.83-2.378,1.245-4.835,1.245-7.371
	c0-2.664-0.477-5.196-1.431-7.608c-0.949-2.409-2.249-4.534-3.903-6.372c-1.648-1.84-3.6-3.297-5.848-4.375
	c-2.255-1.079-4.678-1.618-7.278-1.618c-1.654,0-3.378,0.333-5.187,1c-1.809,0.667-3.494,1.553-5.042,2.664
	c-1.555,1.108-2.888,2.408-4.002,3.898c-1.109,1.49-1.791,3.059-2.045,4.707v15.216c0.762,1.775,1.729,3.424,2.907,4.946
	c1.17,1.521,2.501,2.836,3.995,3.947c1.487,1.11,3.092,1.982,4.808,2.615C495.485,980.29,497.271,980.607,499.11,980.607"/>
<path fill="#010202" d="M557.438,982.983c-0.378,0.191-0.936,0.445-1.667,0.764c-0.725,0.313-1.568,0.632-2.521,0.949
	c-0.948,0.316-2.026,0.602-3.233,0.856c-1.203,0.254-2.472,0.381-3.805,0.381c-1.399,0-2.731-0.191-3.995-0.572
	c-1.271-0.38-2.379-0.968-3.333-1.759c-0.955-0.794-1.71-1.792-2.286-2.996c-0.57-1.206-0.855-2.599-0.855-4.185v-35.474h-6.852
	v-5.136h6.852v-16.74h6.475v16.74h11.417v5.136h-11.417v33.666c0.123,1.839,0.773,3.188,1.945,4.043
	c1.176,0.854,2.527,1.283,4.044,1.283c1.841,0,3.457-0.303,4.859-0.905c1.392-0.601,2.278-1.028,2.663-1.282L557.438,982.983z"/>
<path fill="#010202" d="M565.529,915.934h6.467v9.511h-6.467V915.934z M565.529,935.811h6.467v49.55h-6.467V935.811z"/>
<path fill="#010202" d="M607.395,986.312c-3.618,0-6.914-0.681-9.894-2.044c-2.986-1.364-5.57-3.219-7.763-5.563
	c-2.18-2.347-3.878-5.07-5.086-8.18c-1.208-3.104-1.809-6.371-1.809-9.795c0-3.485,0.619-6.782,1.858-9.891
	c1.233-3.104,2.95-5.833,5.137-8.179c2.193-2.344,4.776-4.217,7.756-5.612c2.98-1.392,6.251-2.092,9.801-2.092
	c3.557,0,6.833,0.701,9.843,2.092c3.018,1.395,5.621,3.268,7.807,5.612c2.193,2.347,3.903,5.075,5.135,8.179
	c1.246,3.109,1.858,6.406,1.858,9.891c0,3.425-0.601,6.692-1.802,9.795c-1.208,3.11-2.905,5.833-5.093,8.18
	c-2.186,2.344-4.789,4.199-7.805,5.563C614.321,985.631,611.014,986.312,607.395,986.312 M589.41,960.824
	c0,2.79,0.472,5.372,1.432,7.75c0.947,2.377,2.229,4.471,3.853,6.278c1.618,1.807,3.512,3.217,5.706,4.232
	c2.187,1.017,4.523,1.522,6.994,1.522c2.479,0,4.808-0.524,6.994-1.571c2.188-1.046,4.108-2.473,5.757-4.28
	c1.653-1.806,2.954-3.911,3.902-6.323c0.954-2.407,1.432-5.01,1.432-7.799c0-2.723-0.478-5.307-1.432-7.751
	c-0.948-2.438-2.249-4.564-3.902-6.372c-1.648-1.807-3.569-3.235-5.757-4.279c-2.186-1.046-4.515-1.57-6.994-1.57
	c-2.471,0-4.789,0.524-6.95,1.57c-2.151,1.044-4.059,2.487-5.707,4.326c-1.648,1.843-2.949,3.979-3.896,6.42
	C589.882,955.419,589.41,958.039,589.41,960.824"/>
<path fill="#010202" d="M684.568,985.361h-6.473v-27.676c0-5.895-0.869-10.175-2.616-12.837c-1.746-2.664-4.423-3.996-8.04-3.996
	c-1.903,0-3.81,0.349-5.706,1.046c-1.908,0.699-3.668,1.68-5.285,2.95c-1.617,1.267-3.06,2.773-4.331,4.516
	c-1.269,1.743-2.186,3.63-2.762,5.659v30.338h-6.468v-49.549h5.905v11.223c2.024-3.615,4.923-6.53,8.703-8.751
	c3.771-2.217,7.879-3.328,12.322-3.328c2.726,0,5.042,0.508,6.945,1.522c1.908,1.013,3.426,2.441,4.566,4.28
	c1.146,1.839,1.969,4.09,2.478,6.752c0.507,2.663,0.761,5.611,0.761,8.844V985.361z"/>
<path fill="#010202" d="M697.411,936.096h5.52v9.322h-5.52V936.096z M697.411,976.041h5.52v9.32h-5.52V976.041z"/>
<path fill="#010202" d="M202.388,1131.563v-67.526h27.976c2.919,0,5.602,0.619,8.042,1.854c2.441,1.238,4.548,2.854,6.325,4.852
	c1.78,1.996,3.173,4.262,4.189,6.8c1.015,2.535,1.524,5.106,1.524,7.702c0,2.794-0.478,5.47-1.425,8.038
	c-0.954,2.568-2.287,4.833-3.997,6.801c-1.714,1.965-3.76,3.552-6.139,4.755c-2.378,1.204-5.03,1.806-7.948,1.806h-21.888v24.919
	H202.388z M209.047,1100.749h21.603c1.965,0,3.76-0.428,5.378-1.284c1.616-0.855,2.997-1.999,4.137-3.424
	c1.147-1.428,2.032-3.076,2.665-4.944c0.639-1.868,0.954-3.82,0.954-5.852c0-2.091-0.366-4.07-1.096-5.943
	c-0.731-1.867-1.716-3.502-2.949-4.897c-1.239-1.394-2.695-2.485-4.374-3.283c-1.685-0.791-3.444-1.188-5.284-1.188h-21.033
	V1100.749z"/>
<path fill="#010202" d="M280.799,1132.513c-3.611,0-6.932-0.68-9.943-2.043c-3.01-1.362-5.631-3.235-7.85-5.612
	c-2.223-2.378-3.952-5.118-5.185-8.227c-1.239-3.102-1.859-6.436-1.859-9.984c0-3.484,0.62-6.767,1.859-9.843
	c1.233-3.076,2.949-5.771,5.136-8.086c2.193-2.311,4.807-4.153,7.85-5.516c3.048-1.362,6.343-2.043,9.9-2.043
	c3.617,0,6.931,0.681,9.943,2.043c3.01,1.362,5.6,3.217,7.755,5.563c2.157,2.346,3.836,5.041,5.044,8.083
	c1.202,3.044,1.809,6.278,1.809,9.702v1.521c0,0.51-0.037,0.854-0.099,1.046h-42.438c0.193,2.662,0.805,5.121,1.853,7.371
	c1.047,2.251,2.397,4.199,4.045,5.849c1.649,1.649,3.538,2.933,5.662,3.851c2.125,0.92,4.393,1.38,6.803,1.38
	c1.586,0,3.17-0.223,4.758-0.666c1.586-0.441,3.048-1.045,4.38-1.807c1.331-0.761,2.534-1.695,3.618-2.805
	c1.071-1.109,1.902-2.33,2.471-3.662l5.613,1.521c-0.762,1.844-1.84,3.508-3.234,4.995c-1.4,1.489-3.017,2.792-4.85,3.898
	c-1.847,1.108-3.872,1.966-6.09,2.568C285.521,1132.214,283.209,1132.513,280.799,1132.513 M299.069,1104.171
	c-0.192-2.66-0.806-5.086-1.852-7.274c-1.047-2.188-2.38-4.073-3.997-5.658c-1.616-1.585-3.494-2.82-5.619-3.71
	c-2.124-0.886-4.392-1.329-6.802-1.329c-2.415,0-4.696,0.443-6.852,1.329c-2.155,0.89-4.04,2.125-5.663,3.71
	c-1.616,1.585-2.918,3.49-3.903,5.706c-0.978,2.22-1.567,4.63-1.759,7.227H299.069z"/>
<path fill="#010202" d="M339.988,1087.72c-4.379,0.13-8.185,1.33-11.424,3.615c-3.235,2.28-5.514,5.42-6.846,9.414v30.814h-6.475
	v-49.549h6.09v11.888c1.839-3.805,4.312-6.784,7.422-8.941c3.103-2.155,6.443-3.232,9.993-3.232c0.508,0,0.916,0.035,1.239,0.095
	V1087.72z"/>
<path fill="#010202" d="M365.109,1132.513c-3.872,0-7.645-0.635-11.325-1.901c-3.68-1.267-6.853-3.107-9.516-5.516l2.949-4.374
	c2.793,2.28,5.631,3.994,8.518,5.134c2.888,1.142,5.979,1.713,9.28,1.713c3.99,0,7.181-0.809,9.56-2.426
	c2.38-1.615,3.569-3.914,3.569-6.895c0-1.392-0.316-2.553-0.948-3.471c-0.638-0.917-1.573-1.729-2.807-2.427
	c-1.238-0.696-2.793-1.313-4.664-1.853c-1.873-0.537-4.047-1.095-6.524-1.665c-2.85-0.694-5.321-1.396-7.417-2.093
	c-2.1-0.697-3.828-1.491-5.185-2.376c-1.369-0.891-2.379-1.983-3.047-3.283c-0.664-1.3-1.004-2.933-1.004-4.896
	c0-2.475,0.496-4.662,1.48-6.563c0.986-1.902,2.317-3.471,3.997-4.709c1.678-1.234,3.642-2.172,5.898-2.806
	c2.254-0.635,4.645-0.95,7.186-0.95c3.804,0,7.261,0.618,10.37,1.854c3.11,1.237,5.619,2.874,7.521,4.898l-3.148,3.804
	c-1.833-1.9-4.069-3.328-6.702-4.278c-2.633-0.952-5.377-1.427-8.234-1.427c-1.715,0-3.301,0.178-4.757,0.522
	c-1.461,0.348-2.744,0.904-3.853,1.665c-1.109,0.759-1.983,1.729-2.622,2.901c-0.631,1.176-0.947,2.554-0.947,4.137
	c0,1.331,0.223,2.408,0.668,3.231c0.44,0.829,1.172,1.539,2.188,2.142c1.015,0.602,2.299,1.141,3.853,1.614
	c1.555,0.479,3.438,0.97,5.663,1.476c3.171,0.762,5.959,1.522,8.376,2.282c2.404,0.762,4.423,1.647,6.04,2.664
	c1.618,1.019,2.838,2.252,3.662,3.708c0.824,1.463,1.238,3.234,1.238,5.325c0,4.565-1.746,8.18-5.235,10.844
	C375.703,1131.183,371.007,1132.513,365.109,1132.513"/>
<path fill="#010202" d="M416.115,1132.513c-3.618,0-6.92-0.68-9.9-2.043c-2.987-1.364-5.563-3.22-7.757-5.563
	c-2.186-2.347-3.883-5.069-5.086-8.18c-1.208-3.104-1.809-6.371-1.809-9.796c0-3.484,0.62-6.78,1.853-9.891
	c1.239-3.104,2.949-5.832,5.142-8.18c2.188-2.342,4.771-4.216,7.757-5.612c2.979-1.391,6.244-2.091,9.801-2.091
	c3.549,0,6.833,0.7,9.843,2.091c3.018,1.396,5.62,3.271,7.799,5.612c2.193,2.348,3.909,5.076,5.142,8.18
	c1.24,3.11,1.853,6.406,1.853,9.891c0,3.425-0.6,6.691-1.804,9.796c-1.207,3.11-2.899,5.833-5.092,8.18
	c-2.187,2.344-4.79,4.199-7.8,5.563C423.04,1131.833,419.727,1132.513,416.115,1132.513 M398.129,1107.025
	c0,2.79,0.471,5.374,1.425,7.752c0.955,2.377,2.237,4.47,3.853,6.277c1.618,1.807,3.52,3.216,5.712,4.231
	c2.188,1.018,4.517,1.521,6.996,1.521c2.471,0,4.8-0.521,6.994-1.567c2.18-1.048,4.106-2.475,5.749-4.28
	c1.654-1.808,2.955-3.912,3.909-6.325c0.947-2.406,1.425-5.008,1.425-7.799c0-2.723-0.478-5.307-1.425-7.75
	c-0.954-2.438-2.255-4.565-3.909-6.371c-1.642-1.808-3.569-3.236-5.749-4.28c-2.194-1.047-4.523-1.57-6.994-1.57
	c-2.479,0-4.795,0.523-6.951,1.57c-2.157,1.044-4.059,2.487-5.706,4.326c-1.654,1.842-2.949,3.979-3.904,6.419
	C398.6,1101.62,398.129,1104.239,398.129,1107.025"/>
<path fill="#010202" d="M493.281,1131.563h-6.468v-27.676c0-5.896-0.874-10.176-2.615-12.838c-1.748-2.665-4.429-3.996-8.041-3.996
	c-1.908,0-3.81,0.349-5.712,1.046s-3.662,1.68-5.279,2.95c-1.623,1.267-3.066,2.773-4.33,4.516c-1.271,1.744-2.193,3.63-2.762,5.66
	v30.338h-6.469v-49.549h5.898v11.222c2.031-3.614,4.931-6.531,8.709-8.75c3.773-2.219,7.88-3.327,12.323-3.327
	c2.726,0,5.037,0.505,6.945,1.52c1.902,1.016,3.427,2.439,4.565,4.281c1.147,1.837,1.964,4.09,2.479,6.752
	c0.501,2.662,0.756,5.611,0.756,8.845V1131.563z"/>
<path fill="#010202" d="M506.129,1082.299h5.52v9.319h-5.52V1082.299z M506.129,1122.243h5.52v9.32h-5.52V1122.243z"/>
<polygon fill="#010202" points="203.912,1267.882 203.912,1200.357 248.25,1200.357 248.25,1206.253 210.571,1206.253 
	210.571,1231.075 242.352,1231.075 242.352,1236.591 210.571,1236.591 210.571,1267.882 "/>
<path fill="#010202" d="M279.653,1224.038c-4.374,0.13-8.183,1.33-11.418,3.615c-3.232,2.279-5.519,5.418-6.851,9.414v30.814h-6.467
	v-49.55h6.089v11.888c1.839-3.806,4.312-6.784,7.421-8.94c3.105-2.155,6.438-3.233,9.993-3.233c0.508,0,0.91,0.035,1.233,0.097
	V1224.038z"/>
<path fill="#010202" d="M306.969,1268.831c-3.619,0-6.921-0.682-9.9-2.044c-2.988-1.364-5.563-3.219-7.757-5.563
	c-2.187-2.347-3.884-5.069-5.086-8.18c-1.208-3.104-1.809-6.371-1.809-9.796c0-3.486,0.62-6.783,1.853-9.891
	c1.239-3.105,2.949-5.833,5.142-8.18c2.186-2.344,4.77-4.218,7.755-5.612c2.981-1.391,6.245-2.093,9.802-2.093
	c3.548,0,6.833,0.702,9.843,2.093c3.017,1.395,5.619,3.269,7.8,5.612c2.193,2.347,3.909,5.074,5.142,8.18
	c1.239,3.107,1.853,6.404,1.853,9.891c0,3.425-0.601,6.691-1.804,9.796c-1.208,3.11-2.899,5.833-5.092,8.18
	c-2.187,2.344-4.788,4.198-7.8,5.563C313.894,1268.149,310.581,1268.831,306.969,1268.831 M288.983,1243.344
	c0,2.786,0.472,5.374,1.426,7.752c0.954,2.377,2.236,4.467,3.853,6.276c1.618,1.807,3.52,3.218,5.712,4.231
	c2.186,1.019,4.516,1.522,6.995,1.522c2.472,0,4.8-0.523,6.994-1.568c2.18-1.048,4.107-2.477,5.75-4.282
	c1.654-1.807,2.954-3.91,3.909-6.324c0.948-2.405,1.425-5.008,1.425-7.799c0-2.723-0.477-5.306-1.425-7.751
	c-0.955-2.437-2.254-4.565-3.909-6.37c-1.642-1.809-3.569-3.237-5.75-4.28c-2.194-1.047-4.521-1.569-6.994-1.569
	c-2.479,0-4.796,0.522-6.951,1.569c-2.156,1.043-4.058,2.487-5.706,4.327c-1.654,1.84-2.949,3.978-3.903,6.418
	C289.455,1237.938,288.983,1240.558,288.983,1243.344"/>
<path fill="#010202" d="M416.207,1267.882h-6.474v-27.677c0-5.769-0.917-10.019-2.756-12.744c-1.841-2.725-4.573-4.089-8.186-4.089
	c-1.901,0-3.698,0.348-5.377,1.046c-1.679,0.698-3.233,1.68-4.665,2.947c-1.424,1.27-2.677,2.775-3.754,4.519
	c-1.084,1.744-1.909,3.661-2.478,5.754v30.244h-6.468v-27.677c0-5.895-0.893-10.176-2.664-12.84
	c-1.784-2.664-4.504-3.993-8.184-3.993c-3.749,0-7.082,1.3-9.993,3.897c-2.917,2.6-5.018,6.024-6.282,10.274v30.338h-6.468v-49.55
	h5.898v11.22c2.033-3.802,4.696-6.766,7.992-8.891c3.302-2.124,6.951-3.186,10.946-3.186c4.182,0,7.533,1.175,10.036,3.52
	c2.509,2.348,4.046,5.419,4.617,9.225c4.634-8.498,11.009-12.744,19.124-12.744c2.789,0,5.156,0.506,7.093,1.52
	c1.933,1.016,3.482,2.459,4.66,4.329c1.176,1.871,2.031,4.121,2.57,6.754c0.539,2.631,0.812,5.563,0.812,8.798V1267.882z"/>
<path fill="#010202" d="M428.956,1218.617h5.521v9.321h-5.521V1218.617z M428.956,1258.561h5.521v9.321h-5.521V1258.561z"/>
<polygon fill="#010202" points="254.619,1348.166 230.545,1348.166 230.545,1409.792 223.885,1409.792 223.885,1348.166 
	199.81,1348.166 199.81,1342.269 254.619,1342.269 "/>
<path fill="#010202" d="M273.651,1410.743c-3.62,0-6.915-0.682-9.894-2.044c-2.986-1.364-5.571-3.219-7.763-5.563
	c-2.181-2.349-3.878-5.068-5.087-8.179c-1.208-3.104-1.809-6.373-1.809-9.794c0-3.486,0.62-6.782,1.858-9.893
	c1.233-3.104,2.948-5.834,5.136-8.183c2.193-2.34,4.776-4.214,7.757-5.61c2.979-1.39,6.25-2.093,9.801-2.093
	c3.556,0,6.832,0.703,9.844,2.093c3.017,1.396,5.619,3.271,7.805,5.61c2.193,2.349,3.904,5.079,5.137,8.183
	c1.245,3.11,1.858,6.406,1.858,9.893c0,3.421-0.601,6.689-1.803,9.794c-1.207,3.11-2.905,5.83-5.091,8.179
	c-2.187,2.345-4.789,4.199-7.806,5.563C280.577,1410.062,277.269,1410.743,273.651,1410.743 M255.666,1385.257
	c0,2.788,0.471,5.372,1.431,7.747c0.948,2.38,2.232,4.474,3.854,6.279c1.616,1.809,3.513,3.216,5.706,4.231
	c2.187,1.018,4.521,1.522,6.995,1.522c2.477,0,4.807-0.522,6.994-1.569c2.187-1.047,4.107-2.473,5.755-4.278
	c1.655-1.808,2.955-3.912,3.903-6.325c0.953-2.408,1.43-5.01,1.43-7.799c0-2.723-0.477-5.307-1.43-7.75
	c-0.948-2.439-2.249-4.566-3.903-6.375c-1.648-1.807-3.568-3.231-5.755-4.276c-2.187-1.046-4.517-1.571-6.994-1.571
	c-2.473,0-4.79,0.525-6.952,1.571c-2.149,1.045-4.058,2.487-5.706,4.323c-1.647,1.846-2.948,3.98-3.896,6.421
	C256.137,1379.851,255.666,1382.47,255.666,1385.257"/>
<path fill="#010202" d="M308.195,1360.528h5.52v9.322h-5.52V1360.528z M308.195,1400.474h5.52v9.322h-5.52V1400.474z"/>
<path fill="#FFFFFF" d="M1786.635,873.64H780.438c-20.933,0-38.063-17.12-38.063-38.042v-36.904
	c0-20.924,17.13-38.042,38.063-38.042h1006.197c20.934,0,38.064,17.118,38.064,38.042v36.904
	C1824.699,856.52,1807.568,873.64,1786.635,873.64"/>
<path fill="none" stroke="#024669" stroke-width="2" stroke-miterlimit="10" d="M1786.635,873.64H780.438
	c-20.933,0-38.063-17.12-38.063-38.042v-36.904c0-20.924,17.13-38.042,38.063-38.042h1006.197c20.934,0,38.064,17.118,38.064,38.042
	v36.904C1824.699,856.52,1807.568,873.64,1786.635,873.64z"/>
<path fill="#FFFFFF" d="M1779.906,1014.229H773.71c-20.934,0-38.063-17.119-38.063-38.043v-36.904
	c0-20.922,17.129-38.042,38.063-38.042h1006.196c20.932,0,38.064,17.12,38.064,38.042v36.904
	C1817.971,997.109,1800.838,1014.229,1779.906,1014.229"/>
<path fill="none" stroke="#024669" stroke-width="2" stroke-miterlimit="10" d="M1779.906,1014.229H773.71
	c-20.934,0-38.063-17.119-38.063-38.043v-36.904c0-20.922,17.129-38.042,38.063-38.042h1006.196
	c20.932,0,38.064,17.12,38.064,38.042v36.904C1817.971,997.109,1800.838,1014.229,1779.906,1014.229z"/>
<path fill="#FFFFFF" d="M1780.18,1153.884H773.989c-20.939,0-38.063-17.118-38.063-38.041v-36.905
	c0-20.923,17.124-38.042,38.063-38.042H1780.18c20.938,0,38.063,17.119,38.063,38.042v36.905
	C1818.242,1136.766,1801.117,1153.884,1780.18,1153.884"/>
<path fill="none" stroke="#024669" stroke-width="2" stroke-miterlimit="10" d="M1780.18,1153.884H773.989
	c-20.939,0-38.063-17.118-38.063-38.041v-36.905c0-20.923,17.124-38.042,38.063-38.042H1780.18
	c20.938,0,38.063,17.119,38.063,38.042v36.905C1818.242,1136.766,1801.117,1153.884,1780.18,1153.884z"/>
<path fill="#FFFFFF" d="M1782.156,1290.952H775.966c-20.94,0-38.063-17.119-38.063-38.042v-36.905
	c0-20.922,17.123-38.041,38.063-38.041h1006.19c20.938,0,38.061,17.119,38.061,38.041v36.905
	C1820.217,1273.833,1803.094,1290.952,1782.156,1290.952"/>
<path fill="none" stroke="#024669" stroke-width="2" stroke-miterlimit="10" d="M1782.156,1290.952H775.966
	c-20.94,0-38.063-17.119-38.063-38.042v-36.905c0-20.922,17.123-38.041,38.063-38.041h1006.19c20.938,0,38.061,17.119,38.061,38.041
	v36.905C1820.217,1273.833,1803.094,1290.952,1782.156,1290.952z"/>
<path fill="#FFFFFF" d="M1785.662,1429.561H779.465c-20.933,0-38.063-17.118-38.063-38.042v-36.906
	c0-20.921,17.13-38.042,38.063-38.042h1006.197c20.934,0,38.063,17.121,38.063,38.042v36.906
	C1823.725,1412.442,1806.596,1429.561,1785.662,1429.561"/>
<path fill="none" stroke="#024669" stroke-width="2" stroke-miterlimit="10" d="M1785.662,1429.561H779.465
	c-20.933,0-38.063-17.118-38.063-38.042v-36.906c0-20.921,17.13-38.042,38.063-38.042h1006.197
	c20.934,0,38.063,17.121,38.063,38.042v36.906C1823.725,1412.442,1806.596,1429.561,1785.662,1429.561z"/>
</svg>
