<?xml version="1.0" encoding="utf-8"?>
<!-- Generator: Adobe Illustrator 16.0.0, SVG Export Plug-In . SVG Version: 6.00 Build 0)  -->
<!DOCTYPE svg PUBLIC "-//W3C//DTD SVG 1.1//EN" "http://www.w3.org/Graphics/SVG/1.1/DTD/svg11.dtd">
<svg version="1.1" id="Ebene_1" xmlns="http://www.w3.org/2000/svg" xmlns:xlink="http://www.w3.org/1999/xlink" x="0px" y="0px"
	 width="2000px" height="2000px" viewBox="0 0 2000 2000" enable-background="new 0 0 2000 2000" xml:space="preserve">
<path fill="#E5E5E4" d="M1897.611,1660H102.39C46.075,1660,0,1612.487,0,1554.405V445.595C0,387.512,46.075,340,102.39,340h1795.222
	C1953.924,340,2000,387.512,2000,445.595v1108.811C2000,1612.487,1953.924,1660,1897.611,1660"/>
<path fill="#FFFFFF" d="M1856.728,1609.774H151.269c-53.498,0-97.269-43.918-97.269-97.601v-1024.8
	c0-53.679,43.771-97.599,97.269-97.599h1705.458c53.5,0,97.272,43.92,97.272,97.599v1024.8
	C1954,1565.856,1910.228,1609.774,1856.728,1609.774"/>
<polygon fill="#024669" points="293.915,646.911 293.922,646.908 293.912,646.908 "/>
<path fill="none" stroke="#024669" stroke-width="2" stroke-miterlimit="10" d="M1837.2,893.036H890.409
	c-19.698,0-35.815-17.573-35.815-39.052v-37.883c0-21.479,16.117-39.053,35.815-39.053H1837.2c19.698,0,35.815,17.574,35.815,39.053
	v37.883C1873.016,875.463,1856.898,893.036,1837.2,893.036z"/>
<path fill="none" stroke="#024669" stroke-width="2" stroke-miterlimit="10" d="M1837.186,1059.432H890.423
	c-19.699,0-35.814-17.571-35.814-39.051v-37.883c0-21.477,16.115-39.054,35.814-39.054h946.763c19.7,0,35.816,17.577,35.816,39.054
	v37.883C1873.002,1041.86,1856.886,1059.432,1837.186,1059.432z"/>
<text transform="matrix(1 0 0 1 391.4189 639.1157)" fill="#981918" font-family="'Raleway-Bold'" font-size="138.2765">Add Friend</text>
<text transform="matrix(0.8827 0 0 1 192.2729 860.0815)" font-family="'Raleway-Bold'" font-size="80">First Name:</text>
<text transform="matrix(0.8827 0 0 1 192.2729 1026.4775)" font-family="'Raleway-Bold'" font-size="80">Last Name:</text>
<path fill="#014669" d="M208.49,638.627c0,0,18.911,8.478,38.901,8.281c0.375,0.004,1.507-0.015,1.507-0.015s1.109,0.02,1.486,0.015
	c19.988,0.197,38.89-8.281,38.89-8.281c9.06,1.381,14.666-6.5,14.666-6.5l-2.472-18.91c-1.572-17.136-17.333-20.09-20.484-21.078
	c-3.15-0.984-14.575-4.134-16.15-7.683c-0.531-1.179-0.571-3.424-0.393-5.877c4.499-5.402,7.446-12.226,9.023-16.581
	c2.315,1.616,3.252-0.392,3.252-0.392c7.292-10.636,2.76-14.968,1.777-15.755c-0.987-0.79-1.968,0.59-1.968,0.59l-0.103,0.295
	c1.387-28.339-22.815-30.291-25.66-30.423c0.044,0.009-0.246,0.03-1.866,0.073c-1.642-0.042-1.927-0.063-1.876-0.073
	c-2.787,0.124-27.083,2.039-25.693,30.423l-0.101-0.295c0,0-0.983-1.38-1.969-0.59c-0.983,0.787-5.516,5.12,1.775,15.755
	c0,0,0.939,2.008,3.254,0.392c1.576,4.354,4.524,11.178,9.023,16.581c0.178,2.453,0.137,4.698-0.393,5.877
	c-1.574,3.548-13,6.698-16.151,7.683c-3.15,0.988-18.911,3.942-20.484,21.078l-2.465,18.91
	C193.819,632.127,199.43,640.008,208.49,638.627"/>
</svg>
