<svg id="Ebene_1" data-name="Ebene 1" xmlns="http://www.w3.org/2000/svg" viewBox="0 0 687.44 1057.48"><defs><style>.cls-1,.cls-10{fill:#527275;}.cls-2{fill:#fff;}.cls-3{opacity:0.04;}.cls-4{fill:#153e49;}.cls-5{fill:#e6e6e6;}.cls-6{opacity:0.22;}.cls-7{fill:#8cad81;}.cls-12,.cls-8{fill:#f7d77f;}.cls-9{fill:#e5c573;}.cls-10{font-size:102.6px;font-family:MyriadPro-Regular, Myriad Pro;}.cls-11{letter-spacing:-0.04em;}.cls-12{letter-spacing:-0.01em;}</style></defs><title>Logo_KeepThingsIcon</title><rect class="cls-1" y="118.58" width="687.44" height="938.9" rx="41.74" ry="41.74"/><rect class="cls-2" x="45.02" y="192.65" width="597.4" height="815.93" rx="10.98" ry="10.98"/><path class="cls-3" d="M851.19,1068.29l-612.42.61c-9.93,2.09-37.79-5.55-41.74-36.11L199.41,174Z" transform="translate(-197.03 -12.35)"/><path class="cls-4" d="M418,482.53H277.82V342.33H418Zm-135.17-5H413V347.36H282.85Z" transform="translate(-197.03 -12.35)"/><path class="cls-4" d="M418,694.23H277.82V554H418Zm-135.17-5H413V559.06H282.85Z" transform="translate(-197.03 -12.35)"/><path class="cls-4" d="M418,905.93H277.82V765.74H418Zm-135.17-5H413V770.76H282.85Z" transform="translate(-197.03 -12.35)"/><rect class="cls-5" x="295.58" y="341.51" width="288.78" height="14.38"/><rect class="cls-5" x="295.58" y="385.7" width="288.78" height="14.38"/><rect class="cls-5" x="295.58" y="429.89" width="288.78" height="14.38"/><rect class="cls-5" x="295.58" y="557.89" width="288.78" height="14.38"/><rect class="cls-5" x="295.58" y="602.08" width="288.78" height="14.38"/><rect class="cls-5" x="295.58" y="646.28" width="288.78" height="14.38"/><rect class="cls-5" x="295.58" y="761.18" width="288.78" height="14.38"/><rect class="cls-5" x="295.58" y="805.38" width="288.78" height="14.38"/><rect class="cls-5" x="295.58" y="849.57" width="288.78" height="14.38"/><polygon class="cls-6" points="243.52 312.78 143.52 386.31 116.62 359 90.91 376.2 142.41 416.78 260.74 317.46 243.52 312.78"/><polygon class="cls-7" points="96.14 369.73 114.24 357.63 141.25 385.05 242.54 310.57 250.15 312.64 140.5 404.68 96.14 369.73"/><path class="cls-7" d="M337.56,418.95l-46.91-37,20.82-13.93,27,27.38L439.27,321.3l11,3ZM295.7,382.18l41.81,32.94,106.55-89.44-4.18-1.14L338.13,399.36,311.08,371.9Z" transform="translate(-197.03 -12.35)"/><polygon class="cls-6" points="253.74 550.52 153.74 624.06 126.83 596.75 101.12 613.95 152.63 654.53 270.96 555.2 253.74 550.52"/><polygon class="cls-7" points="106.36 607.48 124.46 595.37 151.47 622.79 252.75 548.32 260.37 550.38 150.72 642.43 106.36 607.48"/><path class="cls-7" d="M347.78,656.69l-46.91-37,20.82-13.93,27,27.38L449.48,559l11,3Zm-41.87-36.76,41.81,32.94,106.55-89.44-4.18-1.14L348.35,637.1l-27.05-27.46Z" transform="translate(-197.03 -12.35)"/><polygon class="cls-6" points="253.74 745.57 153.74 819.1 126.83 791.79 101.12 808.99 152.63 849.57 270.96 750.24 253.74 745.57"/><polygon class="cls-7" points="106.36 802.52 124.46 790.41 151.47 817.84 252.75 743.36 260.37 745.43 150.72 837.47 106.36 802.52"/><path class="cls-7" d="M347.78,851.74l-46.91-37,20.82-13.93,27,27.38,100.83-74.14,11,3ZM305.91,815l41.81,32.94,106.55-89.44-4.18-1.14L348.35,832.15l-27.05-27.46Z" transform="translate(-197.03 -12.35)"/><path class="cls-8" d="M730.49,107.62H628.32V93a80.67,80.67,0,0,0-80.67-80.67H546A80.67,80.67,0,0,0,465.35,93v14.6H363.18a9.57,9.57,0,0,0-9.57,9.57V220.27a9.57,9.57,0,0,0,9.57,9.57H730.49a9.57,9.57,0,0,0,9.57-9.57V117.18A9.57,9.57,0,0,0,730.49,107.62ZM546.84,98a27,27,0,1,1,27-27A27,27,0,0,1,546.84,98Z" transform="translate(-197.03 -12.35)"/><rect class="cls-9" x="156.58" y="184.56" width="386.44" height="16.18"/><path class="cls-9" d="M738.29,224.42H355.75a2.14,2.14,0,0,1-2.14-2.14v-5H740.06v5.35A1.77,1.77,0,0,1,738.29,224.42Z" transform="translate(-197.03 -12.35)"/><text class="cls-10" transform="translate(93.44 297.94)">Kee<tspan class="cls-11" x="158.41" y="0">p</tspan><tspan class="cls-12" x="212.68" y="0">T</tspan><tspan class="cls-8" x="262.96" y="0">hings</tspan></text></svg>