<svg id="Ebene_1" data-name="Ebene 1" xmlns="http://www.w3.org/2000/svg" viewBox="0 0 1920 1080"><defs><style>.cls-1{fill:#e5e5e5;}.cls-2,.cls-4,.cls-5,.cls-6{fill:#004669;}.cls-3,.cls-4,.cls-5,.cls-6,.cls-7{isolation:isolate;}.cls-4,.cls-5,.cls-6,.cls-7{font-size:94.44px;font-family:Raleway-LightItalic, Raleway;font-style:italic;}.cls-4{letter-spacing:-0.04em;}.cls-6{letter-spacing:-0.1em;}.cls-13,.cls-41,.cls-7,.cls-8{fill:#900;}.cls-8{font-size:40px;font-family:Raleway-Medium, Raleway;letter-spacing:-0.01em;}.cls-9{letter-spacing:0em;}.cls-10{letter-spacing:-0.01em;}.cls-11{letter-spacing:0em;}.cls-12,.cls-69{fill:#fff;}.cls-13,.cls-41{font-size:44.48px;font-family:Raleway-Bold, Raleway;font-weight:700;}.cls-13{letter-spacing:-0.01em;}.cls-14{letter-spacing:-0.01em;}.cls-15{letter-spacing:-0.03em;}.cls-16{letter-spacing:0em;}.cls-17{letter-spacing:-0.01em;}.cls-18{letter-spacing:0em;}.cls-19{font-size:30px;}.cls-19,.cls-25,.cls-28,.cls-32,.cls-46{font-family:Raleway-Regular, Raleway;}.cls-20{letter-spacing:-0.01em;}.cls-21{letter-spacing:-0.01em;}.cls-22{letter-spacing:-0.04em;}.cls-23{letter-spacing:-0.03em;}.cls-24{letter-spacing:-0.11em;}.cls-25{font-size:29.61px;}.cls-26{letter-spacing:-0.03em;}.cls-27{letter-spacing:-0.02em;}.cls-28,.cls-46{font-size:13.4px;}.cls-28{letter-spacing:0em;}.cls-29{letter-spacing:0em;}.cls-30{letter-spacing:-0.01em;}.cls-31{letter-spacing:0em;}.cls-32{font-size:13.4px;}.cls-33{letter-spacing:-0.01em;}.cls-34{letter-spacing:0em;}.cls-35{letter-spacing:-0.01em;}.cls-36{letter-spacing:-0.02em;}.cls-37{letter-spacing:-0.03em;}.cls-38{letter-spacing:0em;}.cls-39{letter-spacing:-0.08em;}.cls-40{letter-spacing:-0.01em;}.cls-42{letter-spacing:-0.02em;}.cls-43{letter-spacing:0em;}.cls-44{letter-spacing:0em;}.cls-45{letter-spacing:-0.03em;}.cls-47{letter-spacing:-0.03em;}.cls-48{letter-spacing:-0.02em;}.cls-49{letter-spacing:0em;}.cls-50{letter-spacing:-0.03em;}.cls-51{letter-spacing:-0.03em;}.cls-52{letter-spacing:0em;}.cls-53{letter-spacing:0em;}.cls-54{letter-spacing:-0.01em;}.cls-55{letter-spacing:-0.01em;}.cls-56{letter-spacing:0em;}.cls-57{letter-spacing:-0.03em;}.cls-58{letter-spacing:0em;}.cls-59{letter-spacing:0em;}.cls-60{letter-spacing:-0.01em;}.cls-61{letter-spacing:-0.01em;}.cls-62{letter-spacing:-0.03em;}.cls-63{letter-spacing:-0.02em;}.cls-64{letter-spacing:-0.01em;}.cls-65{letter-spacing:0em;}.cls-66{letter-spacing:-0.04em;}.cls-67{letter-spacing:-0.03em;}.cls-68{letter-spacing:-0.11em;}.cls-69{stroke:#004669;stroke-miterlimit:10;stroke-width:2px;}</style></defs><title>DashboardWebMokup</title><rect class="cls-1" x="2" y="123" width="1919" height="954"/><rect class="cls-2" x="1" y="123.5" width="1918" height="3"/><g class="cls-3"><text class="cls-4" transform="translate(55.58 97.75)">K</text><text class="cls-5" transform="translate(110.17 97.75)">ee</text><text class="cls-6" transform="translate(210.09 97.75)">p</text><text class="cls-7" transform="translate(255.71 97.75)">Things</text></g><text class="cls-8" transform="translate(1554.35 84.88)">M<tspan class="cls-9" x="34.76" y="0">ax Mus</tspan><tspan class="cls-10" x="166.32" y="0">t</tspan><tspan class="cls-11" x="180.12" y="0">ermann</tspan></text><rect class="cls-2" x="1" y="1021" width="1920" height="60"/><g id="Pm"><g id="mail"><path id="_Zusammengesetzter_Pfad_" data-name="&lt;Zusammengesetzter Pfad&gt;" class="cls-2" d="M1441,57.72a5.71,5.71,0,0,0-5.71-5.72h-63a5.71,5.71,0,0,0-5.71,5.72V89.48a5.71,5.71,0,0,0,5.71,5.72h63a5.72,5.72,0,0,0,5.71-5.72Zm-23.89,14.12,17.28,19.09-21.14-17.1-9,6.71-.91.68-.92-.66-9.07-6.49-21.76,16.86,18.6-19.18L1368,55.93l35.25,19.83,34.63-20.1Z"/></g></g><path id="_Pfad_" data-name="&lt;Pfad&gt;" class="cls-2" d="M1482.34,96.11s9.21,4.13,18.94,4h1.46c9.73.1,18.94-4,18.94-4,4.41.67,7.14-3.17,7.14-3.17l-1.2-9.21c-.77-8.35-8.44-9.78-10-10.26s-7.1-2-7.87-3.74a7,7,0,0,1-.19-2.86,27.94,27.94,0,0,0,4.39-8.07c1.13.79,1.58-.19,1.58-.19,3.55-5.18,1.34-7.29.87-7.67s-1,.29-1,.29l0,.14c.68-13.8-11.11-14.75-12.5-14.82,0,0-.12,0-.91,0a8.85,8.85,0,0,1-.91,0c-1.36.06-13.19,1-12.51,14.82l0-.14s-.48-.67-1-.29-2.69,2.49.87,7.67c0,0,.46,1,1.58.19a27.94,27.94,0,0,0,4.39,8.07,7,7,0,0,1-.19,2.86c-.77,1.73-6.33,3.26-7.87,3.74s-9.21,1.92-10,10.26l-1.2,9.21S1477.93,96.78,1482.34,96.11Z"/><path id="_Zusammengesetzter_Pfad_2" data-name="&lt;Zusammengesetzter Pfad&gt;" class="cls-2" d="M1323.84,42.22h-8.28l0,2c1.68.81,2.05,2.84,2,4.2a4.66,4.66,0,1,1-9.33,0c-.06-1.38.67-3.5,1.8-4.13V42.21h-6.49l0,2c1.79,1.16,2,2.36,2,4.26a4.66,4.66,0,0,1-4.66,4.66,4.74,4.74,0,0,1-4.66-4.66c-.07-1.47.64-3.39,1.78-4.06V42.21h-6.29l0,2a4.65,4.65,0,0,1,1.76,4.23,4.66,4.66,0,1,1-9.33,0,4.59,4.59,0,0,1,2-4.1V42.21h-6.46v2.06a4.35,4.35,0,0,1,1.79,4.16,4.66,4.66,0,1,1-9.33,0c0-1.47.45-3.39,2-4.16l0-2.06h-7.22a4,4,0,0,0-4.2,4.22V94.12c0,2.51,1.69,5.43,4.2,5.43h51V88.73h10.82V46.44C1328.61,43.93,1326.35,42.22,1323.84,42.22Zm-42.57,46.51h-8.11V80.47h8.11Zm0-11.36h-8.11V69.12h8.11Zm0-11.09h-8.11V58.18h8.11Zm3.24-8.11h8.11v8.11h-8.11Zm0,11.09h8.11v8.11h-8.11Zm8.15,19.47h-8.11V80.47h8.11Zm11.56,0h-8.38V80.47h8.38Zm0-11.36h-8.42V69.26h8.42Zm0-11.09h-8.4V58.22h8.4Zm11.67,22.44-8.47.08V80.48h8.47Zm-.07-11.36h-8.4l0-8.17,8.38-.08Zm0-11.09h-8.39l0-8,8.41-.08Z"/><rect class="cls-12" x="1283" y="168" width="586" height="375" rx="30" ry="30"/><g id="write"><polygon id="_Pfad_2" data-name="&lt;Pfad&gt;" class="cls-2" points="1352.61 239.01 1352.61 239.01 1352.61 239.01 1352.61 239.01"/><path id="_Zusammengesetzter_Pfad_3" data-name="&lt;Zusammengesetzter Pfad&gt;" class="cls-2" d="M1362.18,226.83v-21.5c0-.53-.4-.86-1-.86h-34.38c-.62,0-1.13.33-1.13.86v41.12a1.12,1.12,0,0,0,1.13,1H1341c2.31-2,4.58-4.39,6.85-6.62C1352.62,236.19,1357.31,231.41,1362.18,226.83Zm-5.28-15.18c0,.74-.32,1.35-.71,1.35h-24.56c-.39,0-.71-.6-.71-1.35v-.14c0-.74.32-1.35.71-1.35h24.56c.39,0,.71.6.71,1.35Zm0,6.49c0,.74-.32,1.35-.71,1.35h-24.56c-.39,0-.71-.6-.71-1.35V218c0-.74.32-1.35.71-1.35h24.56c.39,0,.71.61.71,1.35Zm0,6.49c0,.75-.32,1.35-.71,1.35h-24.56c-.39,0-.71-.6-.71-1.35v-.14c0-.74.32-1.35.71-1.35h24.56c.39,0,.71.6.71,1.35Z"/><path id="_Zusammengesetzter_Pfad_4" data-name="&lt;Zusammengesetzter Pfad&gt;" class="cls-2" d="M1369.29,231.56a2.75,2.75,0,0,0-.18-3.88,3.28,3.28,0,0,0-3.79-.48h0l0,0-.34.19s-.13,0-.07.06h-.1l-.1,0-4.82,4.69-.26.25-12.87,12.41a8.6,8.6,0,0,0-.85,1l0,0h0l-5,9.19,9.18-4.73c.1,0,.6-.31,1.13-.83L1364,237l.25-.25,5.08-5v-.24Zm-5.13,1a6.49,6.49,0,0,0-2.68-1.52l3.09-3a6.7,6.7,0,0,1,2.77,1.38,4.61,4.61,0,0,1,1.45,2.5l-3.34,3.28A4.09,4.09,0,0,0,1364.16,232.54Zm-.25,3.31-12.71,12.27-.38.39a2.35,2.35,0,0,0-.76,1.53l-5,2.58a1.64,1.64,0,0,0-1.9-1.5l2.84-5.2a3.24,3.24,0,0,0,2-.77c.08-.08,0,0,0,0l13.09-12.66.38-.38c.19.07.41.17.63.27l-.25.24-13.52,12.93a6.21,6.21,0,0,0-.87,1c-.56.91-.53,1.5,0,2.09s1.4.45,2.37-.18a4.12,4.12,0,0,0,.71-.55l13.56-13.14.28-.29a4.57,4.57,0,0,1,.29.64C1364.41,235.38,1364.22,235.56,1363.91,235.85Z"/></g><text class="cls-13" transform="translate(1384.33 240.23)">N<tspan class="cls-14" x="33.63" y="0">e</tspan><tspan class="cls-15" x="59.65" y="0">w</tspan><tspan class="cls-16" x="95.77" y="0"> </tspan><tspan class="cls-17" x="106.45" y="0">E</tspan><tspan class="cls-18" x="132.91" y="0">n</tspan><tspan class="cls-16" x="159.56" y="0">tr</tspan><tspan class="cls-15" x="193.85" y="0">y</tspan></text><text class="cls-19" transform="translate(1323.85 307.18)">Title</text><text class="cls-19" transform="translate(1321.22 350.88)">Descri<tspan class="cls-20" x="87.21" y="0">p</tspan><tspan x="105.51" y="0">tion</tspan></text><text class="cls-19" transform="translate(1321.87 397)"><tspan class="cls-21">P</tspan><tspan x="18.39" y="0">erson</tspan></text><text class="cls-19" transform="translate(1322.35 440)"><tspan class="cls-22">F</tspan><tspan class="cls-23" x="16.5" y="0">r</tspan><tspan x="26.25" y="0">om</tspan></text><text class="cls-19" transform="translate(1323.22 484.76)"><tspan class="cls-24">T</tspan><tspan x="14.88" y="0">o</tspan></text><rect class="cls-12" x="30" y="170.5" width="586" height="831" rx="30" ry="30"/><text class="cls-25" transform="translate(75.71 295.9) scale(1.09 1)">Lautsp<tspan class="cls-26" x="93.61" y="0">r</tspan><tspan x="103.24" y="0">eche</tspan><tspan class="cls-27" x="171.53" y="0">r</tspan></text><text class="cls-28" transform="translate(78.21 321.53) scale(1.09 1)">M<tspan class="cls-29" x="11.69" y="0">ax Mus</tspan><tspan class="cls-30" x="55.4" y="0">t</tspan><tspan class="cls-31" x="59.71" y="0">ermann </tspan></text><text class="cls-25" transform="translate(435.64 295.9) scale(1.09 1)">30 Oct 18</text><text class="cls-32" transform="translate(514.56 321.53) scale(1.09 1)">22 Oct 18</text><text class="cls-25" transform="translate(73.19 374.37) scale(1.09 1)">P<tspan class="cls-33" x="18.42" y="0">f</tspan><tspan class="cls-34" x="27.96" y="0">anne</tspan></text><text class="cls-28" transform="translate(75.69 400) scale(1.09 1)">M<tspan class="cls-29" x="11.69" y="0">ax Mus</tspan><tspan class="cls-30" x="55.4" y="0">t</tspan><tspan class="cls-31" x="59.71" y="0">ermann </tspan></text><text class="cls-25" transform="translate(433.51 374.37) scale(1.09 1)">25 <tspan class="cls-35" x="39.12" y="0">N</tspan><tspan class="cls-36" x="61.78" y="0">o</tspan><tspan class="cls-37" x="78.83" y="0">v</tspan><tspan class="cls-38" x="93.82" y="0" xml:space="preserve"> 18</tspan></text><text class="cls-32" transform="translate(512.04 400) scale(1.09 1)">22 Oct 18</text><text class="cls-25" transform="translate(73.19 444.94) scale(1.09 1)">30 <tspan class="cls-36" x="41.49" y="0">E</tspan><tspan x="58.96" y="0">u</tspan><tspan class="cls-26" x="76.55" y="0">r</tspan><tspan x="86.18" y="0">o</tspan></text><text class="cls-28" transform="translate(75.69 470.57) scale(1.09 1)">M<tspan class="cls-29" x="11.69" y="0">ax Mus</tspan><tspan class="cls-30" x="55.4" y="0">t</tspan><tspan class="cls-31" x="59.71" y="0">ermann </tspan></text><text class="cls-25" transform="translate(436.15 444.94) scale(1.09 1)">28 Oct 18</text><text class="cls-32" transform="translate(512.04 470.57) scale(1.09 1)">22 Oct 18</text><text class="cls-25" transform="translate(72.18 516.91) scale(1.09 1)"><tspan class="cls-39">F</tspan><tspan x="14.93" y="0">ahr</tspan><tspan class="cls-35" x="58.73" y="0">r</tspan><tspan x="68.91" y="0">adpumpe</tspan></text><text class="cls-28" transform="translate(74.68 542.54) scale(1.09 1)">M<tspan class="cls-29" x="11.69" y="0">ax Mus</tspan><tspan class="cls-30" x="55.4" y="0">t</tspan><tspan class="cls-31" x="59.71" y="0">ermann </tspan></text><text class="cls-25" transform="translate(433.43 516.91) scale(1.09 1)">02 D<tspan class="cls-40" x="62.28" y="0">e</tspan><tspan x="79.4" y="0">z 18</tspan></text><text class="cls-32" transform="translate(511.03 542.54) scale(1.09 1)">22 Oct 18</text><rect x="73.38" y="339.99" width="503.85" height="1.39"/><rect x="73.38" y="411.49" width="503.85" height="1.39"/><rect x="73.38" y="483.45" width="503.85" height="1.39"/><g id="text"><polygon id="_Pfad_3" data-name="&lt;Pfad&gt;" class="cls-2" points="122.91 244.75 122.9 244.75 117.32 244.75 117.32 249.87 117.32 249.9 117.4 249.9 122.91 244.82 122.91 244.75"/><path id="_Zusammengesetzter_Pfad_5" data-name="&lt;Zusammengesetzter Pfad&gt;" class="cls-2" d="M120.39,201.53h-39c-2.05,0-4.1,1.76-4.1,3.65v1.4h0v5h2.83a3.54,3.54,0,0,1,3.22-1.94,3.25,3.25,0,1,1,0,6.48A3.51,3.51,0,0,1,80,214H77.29v6.1h2.85a3.54,3.54,0,0,1,3.2-1.9,3.25,3.25,0,1,1,0,6.48,3.5,3.5,0,0,1-3.33-2.2H77.29v6.38H80a3.51,3.51,0,0,1,3.31-2.15,3.25,3.25,0,1,1,0,6.48,3.54,3.54,0,0,1-3.23-2H77.29v6h2.8a3.53,3.53,0,0,1,3.25-2,3.25,3.25,0,1,1,0,6.48A3.51,3.51,0,0,1,80,239.57H77.29V247h0v1.07c0,1.89,2,3.15,4.1,3.15h33.24l.08-9.09h9.66v-37A4.06,4.06,0,0,0,120.39,201.53Zm-2.52,34.87H90.61a1.25,1.25,0,1,1,0-2.48h27.26a1.25,1.25,0,1,1,0,2.48Zm0-5.54H90.61a1.25,1.25,0,1,1,0-2.49h27.26a1.25,1.25,0,1,1,0,2.49Zm0-5.42H90.61a1.25,1.25,0,1,1,0-2.49h27.26a1.25,1.25,0,1,1,0,2.49Zm0-5.42H90.61a1.25,1.25,0,1,1,0-2.49h27.26a1.25,1.25,0,1,1,0,2.49Zm0-5.31H90.61a1.25,1.25,0,1,1,0-2.48h27.26a1.25,1.25,0,1,1,0,2.48Z"/><path id="_Zusammengesetzter_Pfad_6" data-name="&lt;Zusammengesetzter Pfad&gt;" class="cls-2" d="M85.05,212.91a1.72,1.72,0,1,0-1.72,1.58A1.65,1.65,0,0,0,85.05,212.91Zm-2.64,0a.92.92,0,1,1,.92.85A.89.89,0,0,1,82.42,212.87Z"/><path id="_Zusammengesetzter_Pfad_7" data-name="&lt;Zusammengesetzter Pfad&gt;" class="cls-2" d="M85.05,221.38A1.72,1.72,0,1,0,83.34,223,1.65,1.65,0,0,0,85.05,221.38Zm-2.64,0a.92.92,0,1,1,.92.85A.89.89,0,0,1,82.42,221.42Z"/><path id="_Zusammengesetzter_Pfad_8" data-name="&lt;Zusammengesetzter Pfad&gt;" class="cls-2" d="M85.05,230a1.72,1.72,0,1,0-1.72,1.58A1.65,1.65,0,0,0,85.05,230Zm-2.64,0a.92.92,0,1,1,.92.85A.89.89,0,0,1,82.42,229.93Z"/><path id="_Zusammengesetzter_Pfad_9" data-name="&lt;Zusammengesetzter Pfad&gt;" class="cls-2" d="M85.05,238.44A1.72,1.72,0,1,0,83.34,240,1.65,1.65,0,0,0,85.05,238.44Zm-2.64-.08a.92.92,0,1,1,.92.85A.89.89,0,0,1,82.42,238.36Z"/></g><text class="cls-41" transform="translate(153.46 242.23) scale(1.09 1)"><tspan class="cls-42">L</tspan><tspan x="25.04" y="0">e</tspan><tspan class="cls-43" x="51.69" y="0">n</tspan><tspan class="cls-44" x="78.33" y="0">t out</tspan></text><rect class="cls-12" x="655" y="167.5" width="586" height="826" rx="30" ry="30"/><text class="cls-25" transform="translate(689.85 297.9) scale(1.09 1)">Lade<tspan class="cls-35" x="69.21" y="0">k</tspan><tspan x="84.7" y="0">abe</tspan><tspan class="cls-45" x="136.49" y="0">l</tspan></text><text class="cls-46" transform="translate(692.35 323.53) scale(1.09 1)">Click <tspan class="cls-47" x="33.63" y="0">f</tspan><tspan x="37.71" y="0">o</tspan><tspan class="cls-48" x="45.68" y="0">r</tspan><tspan x="50.06" y="0" xml:space="preserve"> D</tspan><tspan class="cls-49" x="63.06" y="0">e</tspan><tspan x="70.87" y="0">tails</tspan></text><text class="cls-25" transform="translate(1049.78 297.9) scale(1.09 1)">30 Oct 18</text><text class="cls-25" transform="translate(687.34 376.37) scale(1.09 1)">Anhänge<tspan class="cls-27" x="123.64" y="0">r</tspan></text><text class="cls-46" transform="translate(689.83 402) scale(1.09 1)">Click <tspan class="cls-50" x="33.63" y="0">f</tspan><tspan x="37.71" y="0">o</tspan><tspan class="cls-48" x="45.68" y="0">r</tspan><tspan x="50.06" y="0" xml:space="preserve"> D</tspan><tspan class="cls-49" x="63.06" y="0">e</tspan><tspan x="70.87" y="0">tails</tspan></text><text class="cls-25" transform="translate(1047.66 376.37) scale(1.09 1)">25 <tspan class="cls-35" x="39.12" y="0">N</tspan><tspan class="cls-36" x="61.78" y="0">o</tspan><tspan class="cls-51" x="78.83" y="0">v</tspan><tspan class="cls-52" x="93.82" y="0" xml:space="preserve"> 18</tspan></text><text class="cls-25" transform="translate(687.34 446.94) scale(1.09 1)"><tspan class="cls-53">P</tspan><tspan class="cls-54" x="18.27" y="0">a</tspan><tspan x="34" y="0">villion</tspan></text><text class="cls-46" transform="translate(689.83 472.57) scale(1.09 1)">Click <tspan class="cls-50" x="33.63" y="0">f</tspan><tspan x="37.71" y="0">o</tspan><tspan class="cls-48" x="45.68" y="0">r</tspan><tspan x="50.06" y="0" xml:space="preserve"> D</tspan><tspan class="cls-49" x="63.06" y="0">e</tspan><tspan x="70.87" y="0">tails</tspan></text><text class="cls-25" transform="translate(1050.3 446.94) scale(1.09 1)">28 Oct 18</text><text class="cls-25" transform="translate(686.33 518.91) scale(1.09 1)">Biertischgarnitu<tspan class="cls-27" x="214.35" y="0">r</tspan></text><text class="cls-46" transform="translate(688.83 544.54) scale(1.09 1)">Click <tspan class="cls-50" x="33.63" y="0">f</tspan><tspan x="37.71" y="0">o</tspan><tspan class="cls-48" x="45.68" y="0">r</tspan><tspan x="50.06" y="0" xml:space="preserve"> D</tspan><tspan class="cls-49" x="63.06" y="0">e</tspan><tspan x="70.87" y="0">tails</tspan></text><text class="cls-25" transform="translate(1047.58 518.91) scale(1.09 1)">02 D<tspan class="cls-55" x="62.28" y="0">e</tspan><tspan x="79.4" y="0">z 18</tspan></text><rect x="687.53" y="341.99" width="503.85" height="1.39"/><rect x="687.53" y="413.49" width="503.85" height="1.39"/><rect x="687.53" y="485.45" width="503.85" height="1.39"/><text class="cls-41" transform="translate(767.6 244.23) scale(1.09 1)"><tspan class="cls-56">M</tspan><tspan x="38.26" y="0">ar</tspan><tspan class="cls-57" x="81" y="0">k</tspan><tspan class="cls-58" x="104.62" y="0">e</tspan><tspan x="131.09" y="0">tpla</tspan><tspan class="cls-43" x="216.01" y="0">c</tspan><tspan class="cls-59" x="240.87" y="0">e</tspan></text><g id="talk-bubble-tirh-text"><path id="_Zusammengesetzter_Pfad_10" data-name="&lt;Zusammengesetzter Pfad&gt;" class="cls-2" d="M744,225.61c0-13.5-11.88-24.44-26.53-24.44s-26.53,10.94-26.53,24.44,11.88,24.44,26.53,24.44a28.21,28.21,0,0,0,12.62-2.94c4.19,2.22,12.07,6.51,12.07,6.51L739,239.84A23.06,23.06,0,0,0,744,225.61ZM730.4,235.72h-25.2a2.25,2.25,0,1,1,0-4.48h25.2a2.25,2.25,0,1,1,0,4.48Zm0-8.15h-25.2a2.25,2.25,0,1,1,0-4.48h25.2a2.25,2.25,0,1,1,0,4.48Zm0-8.15h-25.2a2.25,2.25,0,1,1,0-4.48h25.2a2.25,2.25,0,1,1,0,4.48Z"/></g><rect class="cls-12" x="1287" y="614" width="586" height="375" rx="30" ry="30"/><g id="write-2" data-name="write"><polygon id="_Pfad_4" data-name="&lt;Pfad&gt;" class="cls-2" points="1360.99 693.01 1361 693.01 1360.99 693.01 1360.99 693.01"/><path id="_Zusammengesetzter_Pfad_11" data-name="&lt;Zusammengesetzter Pfad&gt;" class="cls-2" d="M1371.38,680.83v-21.5c0-.53-.43-.86-1.11-.86H1333c-.68,0-1.22.33-1.22.86v41.12a1.17,1.17,0,0,0,1.22,1h15.42c2.51-2,5-4.39,7.43-6.62C1361,690.19,1366.1,685.41,1371.38,680.83Zm-5.73-15.18c0,.74-.34,1.35-.77,1.35h-26.65c-.43,0-.77-.6-.77-1.35v-.14c0-.74.34-1.35.77-1.35h26.65c.42,0,.77.6.77,1.35Zm0,6.49c0,.74-.34,1.35-.77,1.35h-26.65c-.43,0-.77-.6-.77-1.35V672c0-.74.34-1.35.77-1.35h26.65c.42,0,.77.61.77,1.35Zm0,6.49c0,.75-.34,1.35-.77,1.35h-26.65c-.43,0-.77-.6-.77-1.35v-.14c0-.74.34-1.35.77-1.35h26.65c.42,0,.77.6.77,1.35Z"/><path id="_Zusammengesetzter_Pfad_12" data-name="&lt;Zusammengesetzter Pfad&gt;" class="cls-2" d="M1379.09,685.56c1-1,1.17-2.39-.2-3.88a3.77,3.77,0,0,0-4.11-.48h0l0,0-.37.19s-.15,0-.07.06h-.11l-.11,0-5.23,4.69-.29.25-14,12.41a8.85,8.85,0,0,0-.92,1l0,0h0l-5.43,9.19,10-4.73c.11,0,.65-.31,1.23-.83l13.9-12.4.27-.25,5.51-5v-.12Zm-5.57,1a7.24,7.24,0,0,0-2.91-1.52l3.36-3a7.55,7.55,0,0,1,3,1.38,4.52,4.52,0,0,1,1.57,2.5l-3.63,3.28A4,4,0,0,0,1373.53,686.54Zm-.27,3.31-13.8,12.27-.41.39a2.28,2.28,0,0,0-.83,1.53l-5.38,2.58a1.73,1.73,0,0,0-2.07-1.5l3.08-5.2a3.7,3.7,0,0,0,2.12-.77c.09-.08,0,0,0,0l14.21-12.66.42-.38c.21.07.44.17.68.27l-.27.24-14.67,12.93a6.39,6.39,0,0,0-.95,1c-.61.91-.58,1.5,0,2.09s1.52.45,2.57-.18a4.44,4.44,0,0,0,.77-.55l14.71-13.14.31-.29a4.4,4.4,0,0,1,.31.64C1373.8,689.38,1373.59,689.56,1373.26,689.85Z"/></g><text class="cls-41" transform="translate(1395.42 694.23) scale(1.09 1)"><tspan class="cls-60">N</tspan><tspan class="cls-61" x="33.63" y="0">e</tspan><tspan class="cls-62" x="59.65" y="0">w</tspan><tspan x="95.77" y="0"> </tspan><tspan class="cls-63" x="106.45" y="0">R</tspan><tspan x="135.36" y="0">equest</tspan></text><text class="cls-19" transform="translate(1329.78 761.18) scale(1.09 1)">Title</text><text class="cls-19" transform="translate(1326.93 804.88) scale(1.09 1)">Descri<tspan class="cls-64" x="87.21" y="0">p</tspan><tspan class="cls-65" x="105.51" y="0">tion</tspan></text><text class="cls-19" transform="translate(1328.15 845) scale(1.09 1)"><tspan class="cls-66">F</tspan><tspan class="cls-67" x="16.5" y="0">r</tspan><tspan x="26.25" y="0">om</tspan></text><text class="cls-19" transform="translate(1329.1 889.76) scale(1.09 1)"><tspan class="cls-68">T</tspan><tspan x="14.88" y="0">o</tspan></text><rect class="cls-69" x="1494.78" y="280" width="341.22" height="35.64" rx="12" ry="12"/><rect class="cls-69" x="1492.66" y="324.35" width="341.22" height="35.64" rx="12" ry="12"/><rect class="cls-69" x="1492.74" y="368.4" width="341.22" height="35.64" rx="12" ry="12"/><rect class="cls-69" x="1493.37" y="411.64" width="341.22" height="35.64" rx="12" ry="12"/><rect class="cls-69" x="1494.47" y="455.36" width="341.22" height="35.64" rx="12" ry="12"/><rect class="cls-69" x="1506.78" y="733" width="341.22" height="35.64" rx="12" ry="12"/><rect class="cls-69" x="1504.66" y="777.35" width="341.22" height="35.64" rx="12" ry="12"/><rect class="cls-69" x="1504.74" y="821.4" width="341.22" height="35.64" rx="12" ry="12"/><rect class="cls-69" x="1505.37" y="864.64" width="341.22" height="35.64" rx="12" ry="12"/></svg>