<?xml version="1.0" encoding="utf-8"?>
<!-- Generator: Adobe Illustrator 16.0.0, SVG Export Plug-In . SVG Version: 6.00 Build 0)  -->
<!DOCTYPE svg PUBLIC "-//W3C//DTD SVG 1.1//EN" "http://www.w3.org/Graphics/SVG/1.1/DTD/svg11.dtd">
<svg version="1.1" id="Ebene_1" xmlns="http://www.w3.org/2000/svg" xmlns:xlink="http://www.w3.org/1999/xlink" x="0px" y="0px"
	 width="2000px" height="2000px" viewBox="0 0 2000 2000" enable-background="new 0 0 2000 2000" xml:space="preserve">
<path fill="#E5E5E4" d="M1897.611,1660H102.39C46.075,1660,0,1612.487,0,1554.405V445.595C0,387.512,46.075,340,102.39,340h1795.222
	C1953.924,340,2000,387.512,2000,445.595v1108.811C2000,1612.487,1953.924,1660,1897.611,1660"/>
<path fill="#FFFFFF" d="M1856.728,1609.774H151.269c-53.498,0-97.269-43.918-97.269-97.601v-1024.8
	c0-53.679,43.771-97.599,97.269-97.599h1705.458c53.5,0,97.272,43.92,97.272,97.599v1024.8
	C1954,1565.856,1910.228,1609.774,1856.728,1609.774"/>
<polygon fill="#024669" points="293.915,646.911 293.922,646.908 293.912,646.908 "/>
<path fill="none" stroke="#024669" stroke-width="2" stroke-miterlimit="10" d="M1837.2,893.036H890.409
	c-19.698,0-35.815-17.573-35.815-39.052v-37.883c0-21.479,16.117-39.053,35.815-39.053H1837.2c19.698,0,35.815,17.574,35.815,39.053
	v37.883C1873.016,875.463,1856.898,893.036,1837.2,893.036z"/>
<path fill="none" stroke="#024669" stroke-width="2" stroke-miterlimit="10" d="M1837.186,1059.432H890.423
	c-19.699,0-35.814-17.571-35.814-39.051v-37.883c0-21.477,16.115-39.054,35.814-39.054h946.763c19.7,0,35.816,17.577,35.816,39.054
	v37.883C1873.002,1041.86,1856.886,1059.432,1837.186,1059.432z"/>
<text transform="matrix(1 0 0 1 391.4189 639.1157)" fill="#981918" font-family="'Raleway-Bold'" font-size="138.2765">New Message</text>
<text transform="matrix(0.8827 0 0 1 192.2729 860.0815)" font-family="'Raleway-Bold'" font-size="80">Name:</text>
<text transform="matrix(0.8827 0 0 1 192.2729 1026.4775)" font-family="'Raleway-Bold'" font-size="80">Item:</text>
<g id="mail">
	<path id="_Zusammengesetzter_Pfad_" fill="#014568" d="M328.938,564.723c0.009-5.106-4.124-9.254-9.232-9.264
		c-0.006,0-0.01,0-0.015,0H217.655c-5.108,0-9.249,4.141-9.249,9.249c0,0.004,0,0.011,0,0.015v51.44
		c-0.009,5.108,4.124,9.254,9.232,9.264c0.004,0,0.01,0,0.017,0H319.69c5.109-0.009,9.247-4.154,9.247-9.264V564.723z
		 M290.246,587.593l27.987,30.918l-34.24-27.696l-14.577,10.869l-1.473,1.101l-1.491-1.069l-14.689-10.512l-35.243,27.307
		l30.125-31.063l-35.939-25.623l57.091,32.117l56.086-32.554L290.246,587.593z"/>
</g>
<path fill="#FFFFFF" stroke="#024669" stroke-width="2" stroke-miterlimit="10" d="M1873.016,1399c0,6.627-5.373,12-12,12H204.273
	c-6.627,0-12-5.373-12-12v-266c0-6.627,5.373-12,12-12h1656.743c6.627,0,12,5.373,12,12V1399z"/>
<path fill="#71716E" stroke="#024669" stroke-width="2" stroke-miterlimit="10" d="M1873.002,1569c0,6.627-5.373,12-12,12H1513
	c-6.627,0-12-5.373-12-12v-76c0-6.627,5.373-12,12-12h348.002c6.627,0,12,5.373,12,12V1569z"/>
<text transform="matrix(1 0 0 1 1610.9678 1551.001)" font-family="'Raleway-Bold'" font-size="64">Send</text>
<text transform="matrix(1 0 0 1 -295 663)" font-family="'MyriadPro-Regular'" font-size="12">vt</text>
</svg>
