<?xml version="1.0" encoding="UTF-8"?><svg xmlns="http://www.w3.org/2000/svg" xmlns:xlink="http://www.w3.org/1999/xlink" fill-opacity="1" color-rendering="auto" color-interpolation="auto" text-rendering="auto" stroke="black" stroke-linecap="square" width="552" stroke-miterlimit="10" shape-rendering="auto" stroke-opacity="1" fill="black" stroke-dasharray="none" font-weight="normal" stroke-width="1" height="767" font-family="'Dialog'" font-style="normal" stroke-linejoin="miter" font-size="12px" stroke-dashoffset="0" image-rendering="auto">
  <!--Generated by ySVG 2.5-->
  <defs id="genericDefs"/>
  <g>
    <g fill="white" text-rendering="geometricPrecision" shape-rendering="geometricPrecision" transform="translate(-412,168)" stroke="white">
      <rect x="412" width="552" height="767" y="-168" clip-path="url(#clipPath2)" stroke="none"/>
    </g>
    <g fill="white" text-rendering="geometricPrecision" shape-rendering="geometricPrecision" transform="matrix(1,0,0,1,-412,168)" stroke="white">
      <rect x="591.0625" width="357.0625" height="291.3167" y="-152.625" clip-path="url(#clipPath2)" stroke="none"/>
    </g>
    <g text-rendering="geometricPrecision" stroke-miterlimit="1.45" shape-rendering="geometricPrecision" transform="matrix(1,0,0,1,-412,168)" stroke-linecap="butt">
      <rect fill="none" x="591.0625" width="357.0625" height="291.3167" y="-152.625" clip-path="url(#clipPath2)"/>
    </g>
    <g text-rendering="geometricPrecision" shape-rendering="geometricPrecision" transform="matrix(1.4743,0,0,1.4423,33.8776,132.9951)">
      <g clip-path="url(#clipPath3)">
        <svg xmlns:svg="http://www.w3.org/2000/svg" xmlns:sodipodi="http://sodipodi.sourceforge.net/DTD/sodipodi-0.dtd" xmlns:inkscape="http://www.inkscape.org/namespaces/inkscape" xmlns:dc="http://purl.org/dc/elements/1.1/" xmlns:cc="http://web.resource.org/cc/" xmlns:rdf="http://www.w3.org/1999/02/22-rdf-syntax-ns#" opacity="1" writing-mode="lr-tb" stop-color="rgb(0, 0, 0)" shape-rendering="auto" glyph-orientation-horizontal="0deg" color-profile="auto" lighting-color="rgb(255, 255, 255)" color="rgb(0, 0, 0)" font-weight="400" alignment-baseline="auto" font-style="normal" version="1.0" color-interpolation-filters="linearrgb" text-anchor="start" stroke-linecap="butt" color-interpolation="srgb" font-variant="normal" word-spacing="normal" fill-opacity="1" text-rendering="auto" clip-path="none" text-decoration="none" letter-spacing="normal" glyph-orientation-vertical="auto" display="inline" font-size-adjust="none" overflow="visible" fill="rgb(0, 0, 0)" font-stretch="normal" stroke-dasharray="none" inkscape:version="0.45.1" id="svg1.svg2" stroke-miterlimit="4" stop-opacity="1" color-rendering="auto" font-size="12" sodipodi:docbase="C:\Daten\alberts\projects\yfx" pointer-events="visiblepainted" mask="none" direction="ltr" baseline-shift="baseline" sodipodi:docname="uml_actor.svg" enable-background="accumulate" fill-rule="nonzero" image-rendering="auto" stroke-dashoffset="0" inkscape:output_extension="org.inkscape.output.svg.inkscape" marker-end="none" width="41" clip="auto" cursor="auto" stroke="none" filter="none" visibility="visible" kerning="auto" stroke-width="1" font-family="&quot;Arial&quot;,&quot;Helvetica&quot;,sans-serif" flood-opacity="1" clip-rule="nonzero" src="none" height="68.997391" unicode-bidi="normal" sodipodi:version="0.32" stroke-linejoin="miter" stroke-opacity="1" flood-color="rgb(0, 0, 0)" dominant-baseline="auto" marker-start="none" marker-mid="none">
            
          <defs id="svg1.defs4">
            <clipPath clipPathUnits="userSpaceOnUse" id="clipPath1">
              <path d="M0 0 L552 0 L552 767 L0 767 L0 0 Z"/>
            </clipPath>
            <clipPath clipPathUnits="userSpaceOnUse" id="clipPath2">
              <path d="M412 -168 L964 -168 L964 599 L412 599 L412 -168 Z"/>
            </clipPath>
            <clipPath clipPathUnits="userSpaceOnUse" id="clipPath3">
              <path d="M-22.9786 -92.2131 L351.4343 -92.2131 L351.4343 439.5919 L-22.9786 439.5919 L-22.9786 -92.2131 Z"/>
            </clipPath>
            <clipPath clipPathUnits="userSpaceOnUse" id="clipPath4">
              <path d="M-22.9786 -356.4384 L351.4343 -356.4384 L351.4343 175.3666 L-22.9786 175.3666 L-22.9786 -356.4384 Z"/>
            </clipPath>
          </defs>
            
  
          <metadata id="svg1.metadata7">
    
  </metadata>
            
          <g inkscape:groupmode="layer" id="svg1.layer1" transform="translate(-29.5,-42.959476)" inkscape:label="Ebene 1">
                
            <a id="svg1.a3142" transform="matrix(1.0873906,0,0,1,-4.4741999,0)">
                    
              <path transform="translate(11.586889,5.2908993)" style="fill:none;fill-rule:evenodd;stroke:#000000;stroke-width:1px;stroke-linecap:butt;stroke-linejoin:miter;stroke-opacity:1" sodipodi:cx="38.509369" sodipodi:cy="47.36993" sodipodi:rx="8.5197716" id="svg1.path2160" d="M 47.02914 47.36993 A 8.5197716 9.2013531 0 1 1  29.989597,47.36993 A 8.5197716 9.2013531 0 1 1  47.02914 47.36993 z" sodipodi:ry="9.2013531" sodipodi:type="arc"/>
                  
            </a>
                
            <path style="fill:none" sodipodi:cx="43.962021" sodipodi:cy="48.392303" d="M 47.71072 48.392303 A 3.7486994 0 0 1 1  40.213321,48.392303 A 3.7486994 0 0 1 1  47.71072 48.392303 z" id="svg1.path3134" sodipodi:rx="3.7486994" sodipodi:ry="0" sodipodi:type="arc"/>
                
            <path style="fill:none;fill-rule:evenodd;stroke:#000000;stroke-width:1.24319649px;stroke-linecap:butt;stroke-linejoin:miter;stroke-opacity:1" d="M 50,61.33709 C 50,91.363211 50,92.247838 50,92.247838" id="svg1.path3136"/>
                
            <path style="fill:none;fill-rule:evenodd;stroke:#000000;stroke-width:1px;stroke-linecap:butt;stroke-linejoin:miter;stroke-opacity:1" d="M 69.760668,72.362183 C 69.760668,72.362183 69.760668,72.362183 50.239332,72.362183 C 30.239332,72.362183 30.239332,72.362183 30.239332,72.362183 L 30.239332,72.362183" id="svg1.path3138"/>
                
            <path style="fill:none;fill-rule:evenodd;stroke:#000000;stroke-width:1px;stroke-linecap:butt;stroke-linejoin:miter;stroke-opacity:1" d="M 30,111.45687 C 30,111.45687 30,111.45687 50,92.013532 C 70,111.45687 70,111.45687 70,111.45687" id="svg1.path3140"/>
              
          </g>
          
        </svg>
      </g>
    </g>
    <g font-size="13px" stroke-linecap="butt" transform="matrix(1,0,0,1,-412,168)" text-rendering="geometricPrecision" font-family="sans-serif" shape-rendering="geometricPrecision" stroke-miterlimit="1.45">
      <text x="429.1378" xml:space="preserve" y="83.3728" clip-path="url(#clipPath2)" stroke="none">Registered User</text>
    </g>
    <g fill="white" text-rendering="geometricPrecision" shape-rendering="geometricPrecision" transform="matrix(1,0,0,1,-412,168)" stroke="white">
      <ellipse rx="70.4688" ry="41.0938" clip-path="url(#clipPath2)" cx="773.5938" cy="-51.5312" stroke="none"/>
    </g>
    <g text-rendering="geometricPrecision" stroke-miterlimit="1.45" shape-rendering="geometricPrecision" transform="matrix(1,0,0,1,-412,168)" stroke-linecap="butt">
      <ellipse rx="70.4688" fill="none" ry="41.0938" clip-path="url(#clipPath2)" cx="773.5938" cy="-51.5312"/>
      <text x="742.249" xml:space="preserve" y="-54.168" clip-path="url(#clipPath2)" font-family="sans-serif" stroke="none">make entry </text>
      <text x="728.9043" xml:space="preserve" y="-39.4668" clip-path="url(#clipPath2)" font-family="sans-serif" stroke="none">(lend something)</text>
    </g>
    <g fill="white" text-rendering="geometricPrecision" shape-rendering="geometricPrecision" transform="matrix(1,0,0,1,-412,168)" stroke="white">
      <path d="M591.0625 -152.625 L836.5625 -152.625 L844.0625 -137.625 L836.5625 -122.625 L591.0625 -122.625 Z" stroke="none" clip-path="url(#clipPath2)"/>
    </g>
    <g text-rendering="geometricPrecision" stroke-miterlimit="1.45" shape-rendering="geometricPrecision" transform="matrix(1,0,0,1,-412,168)" stroke-linecap="butt">
      <path fill="none" d="M591.0625 -152.625 L836.5625 -152.625 L844.0625 -137.625 L836.5625 -122.625 L591.0625 -122.625 Z" clip-path="url(#clipPath2)"/>
      <text x="673.875" xml:space="preserve" y="-132.9111" clip-path="url(#clipPath2)" font-family="sans-serif" stroke="none">Web-Application</text>
    </g>
    <g fill="white" text-rendering="geometricPrecision" shape-rendering="geometricPrecision" transform="matrix(1,0,0,1,-412,168)" stroke="white">
      <ellipse rx="70.4688" ry="41.0938" clip-path="url(#clipPath2)" cx="773.5938" cy="60.6562" stroke="none"/>
    </g>
    <g text-rendering="geometricPrecision" stroke-miterlimit="1.45" shape-rendering="geometricPrecision" transform="matrix(1,0,0,1,-412,168)" stroke-linecap="butt">
      <ellipse rx="70.4688" fill="none" ry="41.0938" clip-path="url(#clipPath2)" cx="773.5938" cy="60.6562"/>
      <text x="731.5674" xml:space="preserve" y="65.3701" clip-path="url(#clipPath2)" font-family="sans-serif" stroke="none">view dashboard</text>
    </g>
    <g fill="white" text-rendering="geometricPrecision" shape-rendering="geometricPrecision" transform="matrix(1,0,0,1,-412,168)" stroke="white">
      <rect x="591.0625" width="357.0625" height="401.0874" y="182.1028" clip-path="url(#clipPath2)" stroke="none"/>
    </g>
    <g text-rendering="geometricPrecision" stroke-miterlimit="1.45" shape-rendering="geometricPrecision" transform="matrix(1,0,0,1,-412,168)" stroke-linecap="butt">
      <rect fill="none" x="591.0625" width="357.0625" height="401.0874" y="182.1028" clip-path="url(#clipPath2)"/>
    </g>
    <g text-rendering="geometricPrecision" shape-rendering="geometricPrecision" transform="matrix(1.4743,0,0,1.4423,33.8776,514.0761)">
      <g clip-path="url(#clipPath4)">
        <svg xmlns:svg="http://www.w3.org/2000/svg" xmlns:sodipodi="http://sodipodi.sourceforge.net/DTD/sodipodi-0.dtd" xmlns:inkscape="http://www.inkscape.org/namespaces/inkscape" xmlns:dc="http://purl.org/dc/elements/1.1/" xmlns:cc="http://web.resource.org/cc/" xmlns:rdf="http://www.w3.org/1999/02/22-rdf-syntax-ns#" opacity="1" writing-mode="lr-tb" stop-color="rgb(0, 0, 0)" shape-rendering="auto" glyph-orientation-horizontal="0deg" color-profile="auto" lighting-color="rgb(255, 255, 255)" color="rgb(0, 0, 0)" font-weight="400" alignment-baseline="auto" font-style="normal" version="1.0" color-interpolation-filters="linearrgb" text-anchor="start" stroke-linecap="butt" color-interpolation="srgb" font-variant="normal" word-spacing="normal" fill-opacity="1" text-rendering="auto" clip-path="none" text-decoration="none" letter-spacing="normal" glyph-orientation-vertical="auto" display="inline" font-size-adjust="none" overflow="visible" fill="rgb(0, 0, 0)" font-stretch="normal" stroke-dasharray="none" inkscape:version="0.45.1" id="svg2.svg2" stroke-miterlimit="4" stop-opacity="1" color-rendering="auto" font-size="12" sodipodi:docbase="C:\Daten\alberts\projects\yfx" pointer-events="visiblepainted" mask="none" direction="ltr" baseline-shift="baseline" sodipodi:docname="uml_actor.svg" enable-background="accumulate" fill-rule="nonzero" image-rendering="auto" stroke-dashoffset="0" inkscape:output_extension="org.inkscape.output.svg.inkscape" marker-end="none" width="41" clip="auto" cursor="auto" stroke="none" filter="none" visibility="visible" kerning="auto" stroke-width="1" font-family="&quot;Arial&quot;,&quot;Helvetica&quot;,sans-serif" flood-opacity="1" clip-rule="nonzero" src="none" height="68.997391" unicode-bidi="normal" sodipodi:version="0.32" stroke-linejoin="miter" stroke-opacity="1" flood-color="rgb(0, 0, 0)" dominant-baseline="auto" marker-start="none" marker-mid="none">
            
          <defs id="svg2.defs4"/>
            
  
          <metadata id="svg2.metadata7">
    
  </metadata>
            
          <g inkscape:groupmode="layer" id="svg2.layer1" transform="translate(-29.5,-42.959476)" inkscape:label="Ebene 1">
                
            <a id="svg2.a3142" transform="matrix(1.0873906,0,0,1,-4.4741999,0)">
                    
              <path transform="translate(11.586889,5.2908993)" style="fill:none;fill-rule:evenodd;stroke:#000000;stroke-width:1px;stroke-linecap:butt;stroke-linejoin:miter;stroke-opacity:1" sodipodi:cx="38.509369" sodipodi:cy="47.36993" sodipodi:rx="8.5197716" id="svg2.path2160" d="M 47.02914 47.36993 A 8.5197716 9.2013531 0 1 1  29.989597,47.36993 A 8.5197716 9.2013531 0 1 1  47.02914 47.36993 z" sodipodi:ry="9.2013531" sodipodi:type="arc"/>
                  
            </a>
                
            <path style="fill:none" sodipodi:cx="43.962021" sodipodi:cy="48.392303" d="M 47.71072 48.392303 A 3.7486994 0 0 1 1  40.213321,48.392303 A 3.7486994 0 0 1 1  47.71072 48.392303 z" id="svg2.path3134" sodipodi:rx="3.7486994" sodipodi:ry="0" sodipodi:type="arc"/>
                
            <path style="fill:none;fill-rule:evenodd;stroke:#000000;stroke-width:1.24319649px;stroke-linecap:butt;stroke-linejoin:miter;stroke-opacity:1" d="M 50,61.33709 C 50,91.363211 50,92.247838 50,92.247838" id="svg2.path3136"/>
                
            <path style="fill:none;fill-rule:evenodd;stroke:#000000;stroke-width:1px;stroke-linecap:butt;stroke-linejoin:miter;stroke-opacity:1" d="M 69.760668,72.362183 C 69.760668,72.362183 69.760668,72.362183 50.239332,72.362183 C 30.239332,72.362183 30.239332,72.362183 30.239332,72.362183 L 30.239332,72.362183" id="svg2.path3138"/>
                
            <path style="fill:none;fill-rule:evenodd;stroke:#000000;stroke-width:1px;stroke-linecap:butt;stroke-linejoin:miter;stroke-opacity:1" d="M 30,111.45687 C 30,111.45687 30,111.45687 50,92.013532 C 70,111.45687 70,111.45687 70,111.45687" id="svg2.path3140"/>
              
          </g>
          
        </svg>
      </g>
    </g>
    <g font-size="13px" stroke-linecap="butt" transform="matrix(1,0,0,1,-412,168)" text-rendering="geometricPrecision" font-family="sans-serif" shape-rendering="geometricPrecision" stroke-miterlimit="1.45">
      <text x="429.1378" xml:space="preserve" y="464.4539" clip-path="url(#clipPath2)" stroke="none">Registered User</text>
    </g>
    <g fill="white" text-rendering="geometricPrecision" shape-rendering="geometricPrecision" transform="matrix(1,0,0,1,-412,168)" stroke="white">
      <ellipse rx="70.4688" ry="41.0938" clip-path="url(#clipPath2)" cx="773.5938" cy="283.1966" stroke="none"/>
    </g>
    <g text-rendering="geometricPrecision" stroke-miterlimit="1.45" shape-rendering="geometricPrecision" transform="matrix(1,0,0,1,-412,168)" stroke-linecap="butt">
      <ellipse rx="70.4688" fill="none" ry="41.0938" clip-path="url(#clipPath2)" cx="773.5938" cy="283.1966"/>
      <text x="742.249" xml:space="preserve" y="280.5598" clip-path="url(#clipPath2)" font-family="sans-serif" stroke="none">make entry </text>
      <text x="728.9043" xml:space="preserve" y="295.261" clip-path="url(#clipPath2)" font-family="sans-serif" stroke="none">(lend something)</text>
    </g>
    <g fill="white" text-rendering="geometricPrecision" shape-rendering="geometricPrecision" transform="matrix(1,0,0,1,-412,168)" stroke="white">
      <path d="M591.0625 182.1028 L836.5625 182.1028 L844.0625 197.1028 L836.5625 212.1028 L591.0625 212.1028 Z" stroke="none" clip-path="url(#clipPath2)"/>
    </g>
    <g text-rendering="geometricPrecision" stroke-miterlimit="1.45" shape-rendering="geometricPrecision" transform="matrix(1,0,0,1,-412,168)" stroke-linecap="butt">
      <path fill="none" d="M591.0625 182.1028 L836.5625 182.1028 L844.0625 197.1028 L836.5625 212.1028 L591.0625 212.1028 Z" clip-path="url(#clipPath2)"/>
      <text x="668.5371" xml:space="preserve" y="201.8167" clip-path="url(#clipPath2)" font-family="sans-serif" stroke="none">Mobile-Application</text>
    </g>
    <g fill="white" text-rendering="geometricPrecision" shape-rendering="geometricPrecision" transform="matrix(1,0,0,1,-412,168)" stroke="white">
      <ellipse rx="70.4688" ry="41.0938" clip-path="url(#clipPath2)" cx="773.5938" cy="507.5716" stroke="none"/>
    </g>
    <g text-rendering="geometricPrecision" stroke-miterlimit="1.45" shape-rendering="geometricPrecision" transform="matrix(1,0,0,1,-412,168)" stroke-linecap="butt">
      <ellipse rx="70.4688" fill="none" ry="41.0938" clip-path="url(#clipPath2)" cx="773.5938" cy="507.5716"/>
      <text x="731.5674" xml:space="preserve" y="512.2855" clip-path="url(#clipPath2)" font-family="sans-serif" stroke="none">view dashboard</text>
    </g>
    <g fill="white" text-rendering="geometricPrecision" shape-rendering="geometricPrecision" transform="matrix(1,0,0,1,-412,168)" stroke="white">
      <ellipse rx="70.4688" ry="41.0938" clip-path="url(#clipPath2)" cx="773.5938" cy="395.3841" stroke="none"/>
    </g>
    <g text-rendering="geometricPrecision" stroke-miterlimit="1.45" shape-rendering="geometricPrecision" transform="matrix(1,0,0,1,-412,168)" stroke-linecap="butt">
      <ellipse rx="70.4688" fill="none" ry="41.0938" clip-path="url(#clipPath2)" cx="773.5938" cy="395.3841"/>
      <text x="740.5762" xml:space="preserve" y="400.0979" clip-path="url(#clipPath2)" font-family="sans-serif" stroke="none">show details</text>
    </g>
    <g text-rendering="geometricPrecision" stroke-miterlimit="1.45" shape-rendering="geometricPrecision" transform="matrix(1,0,0,1,-412,168)" stroke-linecap="butt">
      <path fill="none" d="M506.1335 7.6569 L699.9297 -35.2296" clip-path="url(#clipPath2)"/>
    </g>
    <g text-rendering="geometricPrecision" stroke-miterlimit="1.45" shape-rendering="geometricPrecision" transform="matrix(1,0,0,1,-412,168)" stroke-linecap="butt">
      <path d="M707.7408 -36.9582 L694.9439 -39.2472 L698.9534 -35.0136 L697.1046 -29.4835 Z" stroke="none" clip-path="url(#clipPath2)"/>
      <path fill="none" d="M506.1335 18.9825 L697.616 48.8179" clip-path="url(#clipPath2)"/>
      <path d="M705.5206 50.0496 L694.4335 43.2617 L696.6279 48.664 L692.8939 53.1425 Z" clip-path="url(#clipPath2)" stroke="none"/>
      <path fill="none" d="M506.1335 384.0585 L706.9158 308.3415" clip-path="url(#clipPath2)"/>
      <path d="M714.4012 305.5187 L701.4088 305.0745 L705.9801 308.6944 L704.9373 314.4313 Z" clip-path="url(#clipPath2)" stroke="none"/>
      <path fill="none" d="M506.1335 406.7096 L706.9158 482.4266" clip-path="url(#clipPath2)"/>
      <path d="M714.4012 485.2495 L704.9373 476.3368 L705.9801 482.0738 L701.4088 485.6936 Z" clip-path="url(#clipPath2)" stroke="none"/>
      <path fill="none" d="M506.1335 395.3841 L695.1046 395.3841" clip-path="url(#clipPath2)"/>
      <path d="M703.1046 395.3841 L691.1046 390.3841 L694.1046 395.3841 L691.1046 400.3841 Z" clip-path="url(#clipPath2)" stroke="none"/>
    </g>
  </g>
</svg>
